G04*
G04 #@! TF.GenerationSoftware,Altium Limited,Altium Designer,22.5.1 (42)*
G04*
G04 Layer_Color=32896*
%FSLAX25Y25*%
%MOIN*%
G70*
G04*
G04 #@! TF.SameCoordinates,32CAE8D4-DEE8-46DF-9E53-7CF4BD0C5003*
G04*
G04*
G04 #@! TF.FilePolarity,Positive*
G04*
G01*
G75*
%ADD10C,0.01000*%
%ADD11C,0.00787*%
%ADD12C,0.00394*%
%ADD13C,0.00591*%
G36*
X209258Y321244D02*
X161648Y321236D01*
X161640Y368846D01*
X164856Y368854D01*
X209250D01*
X209258Y321244D01*
D02*
G37*
G36*
X254176Y326368D02*
X254279Y326358D01*
X254383Y326341D01*
X254476Y326325D01*
X254563Y326297D01*
X254645Y326270D01*
X254722Y326237D01*
X254792Y326210D01*
X254858Y326177D01*
X254913Y326145D01*
X254962Y326117D01*
X255000Y326095D01*
X255033Y326074D01*
X255055Y326057D01*
X255071Y326046D01*
X255077Y326041D01*
X255147Y325975D01*
X255213Y325904D01*
X255273Y325828D01*
X255322Y325751D01*
X255371Y325670D01*
X255410Y325593D01*
X255442Y325511D01*
X255470Y325435D01*
X255491Y325364D01*
X255513Y325298D01*
X255530Y325238D01*
X255541Y325184D01*
X255546Y325140D01*
X255552Y325107D01*
X255557Y325085D01*
Y325080D01*
X254896D01*
X254874Y325222D01*
X254836Y325342D01*
X254787Y325446D01*
X254727Y325538D01*
X254661Y325615D01*
X254591Y325680D01*
X254514Y325730D01*
X254438Y325773D01*
X254367Y325806D01*
X254296Y325828D01*
X254230Y325850D01*
X254170Y325861D01*
X254121Y325866D01*
X254083Y325871D01*
X254050D01*
X253919Y325861D01*
X253804Y325839D01*
X253706Y325806D01*
X253624Y325773D01*
X253559Y325735D01*
X253515Y325702D01*
X253488Y325680D01*
X253477Y325670D01*
X253411Y325588D01*
X253362Y325495D01*
X253324Y325396D01*
X253302Y325304D01*
X253286Y325222D01*
X253280Y325184D01*
Y325151D01*
X253275Y325129D01*
Y325107D01*
Y325096D01*
Y325091D01*
X253286Y324943D01*
X253313Y324812D01*
X253362Y324698D01*
X253422Y324599D01*
X253488Y324517D01*
X253570Y324447D01*
X253651Y324392D01*
X253739Y324348D01*
X253826Y324310D01*
X253908Y324283D01*
X253990Y324266D01*
X254055Y324250D01*
X254116Y324244D01*
X254165Y324239D01*
X254350D01*
Y323742D01*
X254006D01*
X253919Y323731D01*
X253832Y323720D01*
X253755Y323704D01*
X253684Y323682D01*
X253619Y323660D01*
X253559Y323638D01*
X253504Y323617D01*
X253455Y323589D01*
X253417Y323567D01*
X253384Y323546D01*
X253351Y323524D01*
X253329Y323507D01*
X253313Y323496D01*
X253307Y323491D01*
X253302Y323485D01*
X253253Y323436D01*
X253209Y323382D01*
X253171Y323327D01*
X253138Y323267D01*
X253089Y323147D01*
X253056Y323032D01*
X253040Y322929D01*
X253034Y322879D01*
X253029Y322841D01*
X253024Y322808D01*
Y322787D01*
Y322770D01*
Y322765D01*
X253029Y322683D01*
X253034Y322601D01*
X253067Y322453D01*
X253105Y322328D01*
X253154Y322219D01*
X253182Y322175D01*
X253204Y322131D01*
X253231Y322099D01*
X253247Y322071D01*
X253264Y322044D01*
X253280Y322028D01*
X253286Y322022D01*
X253291Y322017D01*
X253340Y321968D01*
X253395Y321924D01*
X253455Y321886D01*
X253515Y321853D01*
X253630Y321804D01*
X253744Y321771D01*
X253842Y321749D01*
X253886Y321744D01*
X253924Y321738D01*
X253957Y321733D01*
X254001D01*
X254083Y321738D01*
X254165Y321744D01*
X254307Y321777D01*
X254427Y321815D01*
X254531Y321864D01*
X254574Y321891D01*
X254607Y321913D01*
X254640Y321935D01*
X254667Y321957D01*
X254683Y321973D01*
X254700Y321984D01*
X254705Y321989D01*
X254711Y321995D01*
X254754Y322044D01*
X254792Y322099D01*
X254853Y322208D01*
X254896Y322312D01*
X254924Y322410D01*
X254945Y322497D01*
X254951Y322535D01*
Y322568D01*
X254956Y322596D01*
Y322612D01*
Y322623D01*
Y322628D01*
X255623D01*
X255611Y322514D01*
X255590Y322404D01*
X255562Y322301D01*
X255530Y322202D01*
X255497Y322110D01*
X255453Y322028D01*
X255415Y321951D01*
X255371Y321886D01*
X255328Y321820D01*
X255289Y321766D01*
X255251Y321722D01*
X255218Y321684D01*
X255186Y321651D01*
X255164Y321629D01*
X255153Y321618D01*
X255147Y321613D01*
X255060Y321547D01*
X254973Y321487D01*
X254880Y321438D01*
X254782Y321394D01*
X254683Y321356D01*
X254591Y321329D01*
X254498Y321302D01*
X254410Y321285D01*
X254323Y321269D01*
X254246Y321258D01*
X254176Y321247D01*
X254116Y321241D01*
X254066Y321236D01*
X254001D01*
X253870Y321241D01*
X253750Y321252D01*
X253635Y321274D01*
X253526Y321302D01*
X253422Y321334D01*
X253324Y321373D01*
X253236Y321411D01*
X253154Y321449D01*
X253084Y321487D01*
X253018Y321525D01*
X252963Y321564D01*
X252914Y321596D01*
X252882Y321624D01*
X252854Y321645D01*
X252838Y321656D01*
X252832Y321662D01*
X252750Y321744D01*
X252679Y321837D01*
X252614Y321924D01*
X252559Y322017D01*
X252516Y322115D01*
X252478Y322208D01*
X252445Y322295D01*
X252423Y322383D01*
X252401Y322464D01*
X252390Y322541D01*
X252379Y322606D01*
X252368Y322667D01*
Y322716D01*
X252363Y322748D01*
Y322776D01*
Y322781D01*
Y322868D01*
X252374Y322945D01*
X252401Y323098D01*
X252439Y323234D01*
X252483Y323354D01*
X252510Y323404D01*
X252532Y323453D01*
X252554Y323491D01*
X252570Y323524D01*
X252587Y323551D01*
X252598Y323567D01*
X252603Y323578D01*
X252608Y323584D01*
X252707Y323704D01*
X252821Y323802D01*
X252936Y323879D01*
X253051Y323944D01*
X253149Y323988D01*
X253193Y324004D01*
X253231Y324021D01*
X253264Y324031D01*
X253286Y324037D01*
X253302Y324042D01*
X253307D01*
X253182Y324108D01*
X253078Y324173D01*
X252985Y324250D01*
X252914Y324321D01*
X252854Y324381D01*
X252816Y324430D01*
X252789Y324468D01*
X252783Y324474D01*
Y324479D01*
X252729Y324588D01*
X252685Y324692D01*
X252658Y324796D01*
X252636Y324889D01*
X252625Y324965D01*
X252614Y325025D01*
Y325047D01*
Y325063D01*
Y325074D01*
Y325080D01*
X252620Y325184D01*
X252630Y325282D01*
X252652Y325375D01*
X252674Y325462D01*
X252707Y325549D01*
X252740Y325626D01*
X252772Y325691D01*
X252811Y325757D01*
X252849Y325812D01*
X252882Y325866D01*
X252914Y325910D01*
X252947Y325942D01*
X252969Y325970D01*
X252991Y325992D01*
X253002Y326003D01*
X253007Y326008D01*
X253084Y326074D01*
X253166Y326128D01*
X253253Y326177D01*
X253340Y326221D01*
X253428Y326254D01*
X253515Y326287D01*
X253684Y326330D01*
X253761Y326341D01*
X253837Y326352D01*
X253897Y326363D01*
X253957Y326368D01*
X254001Y326374D01*
X254066D01*
X254176Y326368D01*
D02*
G37*
G36*
X248322D02*
X248448Y326358D01*
X248563Y326336D01*
X248666Y326314D01*
X248770Y326281D01*
X248863Y326248D01*
X248945Y326216D01*
X249021Y326177D01*
X249092Y326139D01*
X249152Y326106D01*
X249207Y326074D01*
X249251Y326041D01*
X249283Y326019D01*
X249305Y325997D01*
X249322Y325986D01*
X249327Y325981D01*
X249404Y325904D01*
X249469Y325822D01*
X249529Y325741D01*
X249584Y325653D01*
X249627Y325566D01*
X249666Y325478D01*
X249698Y325391D01*
X249726Y325309D01*
X249747Y325233D01*
X249769Y325162D01*
X249780Y325096D01*
X249791Y325042D01*
X249802Y324998D01*
Y324960D01*
X249808Y324938D01*
Y324932D01*
X249147D01*
X249125Y325096D01*
X249081Y325238D01*
X249032Y325358D01*
X248983Y325457D01*
X248934Y325533D01*
X248907Y325560D01*
X248890Y325588D01*
X248868Y325609D01*
X248857Y325620D01*
X248852Y325631D01*
X248847D01*
X248797Y325675D01*
X248743Y325713D01*
X248634Y325768D01*
X248524Y325812D01*
X248426Y325844D01*
X248339Y325861D01*
X248301Y325866D01*
X248268D01*
X248246Y325871D01*
X248131D01*
X248055Y325861D01*
X247924Y325833D01*
X247809Y325795D01*
X247711Y325751D01*
X247640Y325708D01*
X247585Y325670D01*
X247553Y325642D01*
X247542Y325637D01*
Y325631D01*
X247498Y325588D01*
X247460Y325538D01*
X247405Y325429D01*
X247361Y325325D01*
X247329Y325222D01*
X247312Y325129D01*
X247307Y325091D01*
Y325052D01*
X247301Y325025D01*
Y325003D01*
Y324992D01*
Y324987D01*
X247307Y324905D01*
X247312Y324818D01*
X247345Y324665D01*
X247389Y324528D01*
X247438Y324408D01*
X247465Y324354D01*
X247493Y324305D01*
X247514Y324266D01*
X247536Y324234D01*
X247553Y324206D01*
X247569Y324184D01*
X247574Y324173D01*
X247580Y324168D01*
X247635Y324097D01*
X247706Y324021D01*
X247776Y323944D01*
X247858Y323868D01*
X248028Y323704D01*
X248202Y323551D01*
X248284Y323480D01*
X248361Y323414D01*
X248426Y323354D01*
X248492Y323300D01*
X248541Y323262D01*
X248579Y323229D01*
X248601Y323207D01*
X248612Y323202D01*
X248748Y323092D01*
X248868Y322983D01*
X248983Y322885D01*
X249087Y322787D01*
X249185Y322694D01*
X249267Y322612D01*
X249343Y322535D01*
X249409Y322464D01*
X249464Y322399D01*
X249513Y322344D01*
X249556Y322295D01*
X249589Y322257D01*
X249611Y322224D01*
X249627Y322202D01*
X249638Y322186D01*
X249644Y322181D01*
X249693Y322104D01*
X249737Y322028D01*
X249775Y321951D01*
X249802Y321875D01*
X249857Y321727D01*
X249889Y321596D01*
X249900Y321536D01*
X249906Y321482D01*
X249911Y321438D01*
X249917Y321394D01*
X249922Y321361D01*
Y321340D01*
Y321323D01*
Y321318D01*
X246630D01*
Y321907D01*
X249032D01*
X249021Y321951D01*
X248989Y322011D01*
X248945Y322077D01*
X248885Y322148D01*
X248814Y322224D01*
X248737Y322301D01*
X248574Y322464D01*
X248492Y322541D01*
X248410Y322612D01*
X248339Y322683D01*
X248268Y322738D01*
X248213Y322787D01*
X248170Y322825D01*
X248142Y322852D01*
X248131Y322858D01*
X247973Y322994D01*
X247826Y323120D01*
X247689Y323240D01*
X247569Y323354D01*
X247460Y323453D01*
X247367Y323551D01*
X247280Y323638D01*
X247203Y323715D01*
X247143Y323786D01*
X247089Y323846D01*
X247039Y323895D01*
X247007Y323939D01*
X246979Y323971D01*
X246963Y323999D01*
X246952Y324010D01*
X246947Y324015D01*
X246892Y324097D01*
X246848Y324173D01*
X246805Y324255D01*
X246772Y324343D01*
X246717Y324501D01*
X246684Y324654D01*
X246673Y324720D01*
X246663Y324780D01*
X246657Y324840D01*
X246652Y324883D01*
X246646Y324921D01*
Y324954D01*
Y324971D01*
Y324976D01*
X246652Y325085D01*
X246663Y325189D01*
X246684Y325293D01*
X246712Y325386D01*
X246739Y325473D01*
X246772Y325555D01*
X246810Y325631D01*
X246848Y325702D01*
X246886Y325762D01*
X246925Y325817D01*
X246957Y325866D01*
X246985Y325904D01*
X247012Y325937D01*
X247034Y325959D01*
X247045Y325970D01*
X247050Y325975D01*
X247132Y326046D01*
X247214Y326106D01*
X247307Y326161D01*
X247400Y326205D01*
X247493Y326243D01*
X247591Y326276D01*
X247684Y326303D01*
X247776Y326325D01*
X247858Y326341D01*
X247940Y326352D01*
X248011Y326363D01*
X248077Y326368D01*
X248126Y326374D01*
X248197D01*
X248322Y326368D01*
D02*
G37*
G36*
X240602D02*
X240728Y326358D01*
X240842Y326336D01*
X240946Y326314D01*
X241050Y326281D01*
X241143Y326248D01*
X241224Y326216D01*
X241301Y326177D01*
X241372Y326139D01*
X241432Y326106D01*
X241487Y326074D01*
X241530Y326041D01*
X241563Y326019D01*
X241585Y325997D01*
X241601Y325986D01*
X241607Y325981D01*
X241683Y325904D01*
X241749Y325822D01*
X241809Y325741D01*
X241863Y325653D01*
X241907Y325566D01*
X241945Y325478D01*
X241978Y325391D01*
X242005Y325309D01*
X242027Y325233D01*
X242049Y325162D01*
X242060Y325096D01*
X242071Y325042D01*
X242082Y324998D01*
Y324960D01*
X242087Y324938D01*
Y324932D01*
X241426D01*
X241405Y325096D01*
X241361Y325238D01*
X241312Y325358D01*
X241263Y325457D01*
X241213Y325533D01*
X241186Y325560D01*
X241170Y325588D01*
X241148Y325609D01*
X241137Y325620D01*
X241132Y325631D01*
X241126D01*
X241077Y325675D01*
X241022Y325713D01*
X240913Y325768D01*
X240804Y325812D01*
X240706Y325844D01*
X240618Y325861D01*
X240580Y325866D01*
X240547D01*
X240526Y325871D01*
X240411D01*
X240335Y325861D01*
X240203Y325833D01*
X240089Y325795D01*
X239990Y325751D01*
X239919Y325708D01*
X239865Y325670D01*
X239832Y325642D01*
X239821Y325637D01*
Y325631D01*
X239777Y325588D01*
X239739Y325538D01*
X239685Y325429D01*
X239641Y325325D01*
X239608Y325222D01*
X239592Y325129D01*
X239586Y325091D01*
Y325052D01*
X239581Y325025D01*
Y325003D01*
Y324992D01*
Y324987D01*
X239586Y324905D01*
X239592Y324818D01*
X239625Y324665D01*
X239668Y324528D01*
X239718Y324408D01*
X239745Y324354D01*
X239772Y324305D01*
X239794Y324266D01*
X239816Y324234D01*
X239832Y324206D01*
X239848Y324184D01*
X239854Y324173D01*
X239859Y324168D01*
X239914Y324097D01*
X239985Y324021D01*
X240056Y323944D01*
X240138Y323868D01*
X240307Y323704D01*
X240482Y323551D01*
X240564Y323480D01*
X240640Y323414D01*
X240706Y323354D01*
X240771Y323300D01*
X240820Y323262D01*
X240859Y323229D01*
X240880Y323207D01*
X240891Y323202D01*
X241028Y323092D01*
X241148Y322983D01*
X241263Y322885D01*
X241366Y322787D01*
X241465Y322694D01*
X241547Y322612D01*
X241623Y322535D01*
X241688Y322464D01*
X241743Y322399D01*
X241792Y322344D01*
X241836Y322295D01*
X241869Y322257D01*
X241891Y322224D01*
X241907Y322202D01*
X241918Y322186D01*
X241923Y322181D01*
X241972Y322104D01*
X242016Y322028D01*
X242054Y321951D01*
X242082Y321875D01*
X242136Y321727D01*
X242169Y321596D01*
X242180Y321536D01*
X242185Y321482D01*
X242191Y321438D01*
X242196Y321394D01*
X242202Y321361D01*
Y321340D01*
Y321323D01*
Y321318D01*
X238909D01*
Y321907D01*
X241312D01*
X241301Y321951D01*
X241268Y322011D01*
X241224Y322077D01*
X241164Y322148D01*
X241093Y322224D01*
X241017Y322301D01*
X240853Y322464D01*
X240771Y322541D01*
X240689Y322612D01*
X240618Y322683D01*
X240547Y322738D01*
X240493Y322787D01*
X240449Y322825D01*
X240422Y322852D01*
X240411Y322858D01*
X240253Y322994D01*
X240105Y323120D01*
X239969Y323240D01*
X239848Y323354D01*
X239739Y323453D01*
X239647Y323551D01*
X239559Y323638D01*
X239483Y323715D01*
X239423Y323786D01*
X239368Y323846D01*
X239319Y323895D01*
X239286Y323939D01*
X239259Y323971D01*
X239243Y323999D01*
X239231Y324010D01*
X239226Y324015D01*
X239172Y324097D01*
X239128Y324173D01*
X239084Y324255D01*
X239051Y324343D01*
X238997Y324501D01*
X238964Y324654D01*
X238953Y324720D01*
X238942Y324780D01*
X238937Y324840D01*
X238931Y324883D01*
X238926Y324921D01*
Y324954D01*
Y324971D01*
Y324976D01*
X238931Y325085D01*
X238942Y325189D01*
X238964Y325293D01*
X238991Y325386D01*
X239019Y325473D01*
X239051Y325555D01*
X239090Y325631D01*
X239128Y325702D01*
X239166Y325762D01*
X239204Y325817D01*
X239237Y325866D01*
X239264Y325904D01*
X239292Y325937D01*
X239313Y325959D01*
X239324Y325970D01*
X239330Y325975D01*
X239412Y326046D01*
X239494Y326106D01*
X239586Y326161D01*
X239679Y326205D01*
X239772Y326243D01*
X239870Y326276D01*
X239963Y326303D01*
X240056Y326325D01*
X240138Y326341D01*
X240220Y326352D01*
X240291Y326363D01*
X240356Y326368D01*
X240405Y326374D01*
X240476D01*
X240602Y326368D01*
D02*
G37*
G36*
X251446Y321318D02*
X250752D01*
Y322011D01*
X251446D01*
Y321318D01*
D02*
G37*
G36*
X238451Y323065D02*
Y322503D01*
X236327D01*
Y321318D01*
X235688D01*
Y322503D01*
X235016D01*
Y323065D01*
X235688D01*
Y326352D01*
X236190D01*
X238451Y323065D01*
D02*
G37*
G36*
X258003Y326368D02*
X258139Y326346D01*
X258271Y326308D01*
X258391Y326265D01*
X258500Y326205D01*
X258604Y326134D01*
X258702Y326057D01*
X258789Y325970D01*
X258871Y325877D01*
X258948Y325779D01*
X259013Y325670D01*
X259079Y325560D01*
X259133Y325446D01*
X259182Y325325D01*
X259270Y325085D01*
X259335Y324845D01*
X259384Y324610D01*
X259406Y324501D01*
X259423Y324397D01*
X259434Y324294D01*
X259444Y324201D01*
X259455Y324113D01*
X259461Y324037D01*
X259466Y323966D01*
Y323906D01*
X259472Y323862D01*
Y323824D01*
Y323802D01*
Y323797D01*
X259466Y323562D01*
X259455Y323343D01*
X259434Y323142D01*
X259401Y322950D01*
X259368Y322776D01*
X259324Y322612D01*
X259275Y322459D01*
X259221Y322317D01*
X259160Y322186D01*
X259095Y322066D01*
X259030Y321962D01*
X258959Y321864D01*
X258888Y321771D01*
X258817Y321695D01*
X258740Y321618D01*
X258664Y321558D01*
X258587Y321498D01*
X258511Y321449D01*
X258440Y321405D01*
X258369Y321373D01*
X258298Y321340D01*
X258232Y321312D01*
X258107Y321274D01*
X258052Y321263D01*
X258003Y321252D01*
X257959Y321247D01*
X257927Y321241D01*
X257894Y321236D01*
X257856D01*
X257708Y321241D01*
X257572Y321263D01*
X257441Y321302D01*
X257320Y321345D01*
X257206Y321405D01*
X257102Y321471D01*
X257009Y321553D01*
X256916Y321635D01*
X256835Y321727D01*
X256758Y321831D01*
X256693Y321935D01*
X256627Y322044D01*
X256573Y322159D01*
X256523Y322279D01*
X256436Y322519D01*
X256370Y322754D01*
X256321Y322989D01*
X256299Y323098D01*
X256283Y323202D01*
X256272Y323305D01*
X256261Y323398D01*
X256250Y323485D01*
X256245Y323562D01*
X256239Y323627D01*
Y323688D01*
X256234Y323731D01*
Y323769D01*
Y323791D01*
Y323797D01*
X256239Y324031D01*
X256250Y324250D01*
X256272Y324457D01*
X256305Y324648D01*
X256338Y324829D01*
X256381Y324992D01*
X256431Y325145D01*
X256485Y325287D01*
X256545Y325418D01*
X256611Y325538D01*
X256676Y325648D01*
X256747Y325746D01*
X256818Y325833D01*
X256895Y325915D01*
X256971Y325986D01*
X257042Y326052D01*
X257119Y326106D01*
X257195Y326161D01*
X257271Y326199D01*
X257342Y326237D01*
X257413Y326270D01*
X257479Y326297D01*
X257604Y326336D01*
X257659Y326346D01*
X257708Y326358D01*
X257746Y326363D01*
X257785Y326368D01*
X257817Y326374D01*
X257856D01*
X258003Y326368D01*
D02*
G37*
G36*
X244495D02*
X244632Y326346D01*
X244762Y326308D01*
X244883Y326265D01*
X244992Y326205D01*
X245096Y326134D01*
X245194Y326057D01*
X245281Y325970D01*
X245363Y325877D01*
X245440Y325779D01*
X245505Y325670D01*
X245571Y325560D01*
X245625Y325446D01*
X245674Y325325D01*
X245762Y325085D01*
X245827Y324845D01*
X245876Y324610D01*
X245898Y324501D01*
X245915Y324397D01*
X245925Y324294D01*
X245936Y324201D01*
X245947Y324113D01*
X245953Y324037D01*
X245958Y323966D01*
Y323906D01*
X245964Y323862D01*
Y323824D01*
Y323802D01*
Y323797D01*
X245958Y323562D01*
X245947Y323343D01*
X245925Y323142D01*
X245893Y322950D01*
X245860Y322776D01*
X245816Y322612D01*
X245767Y322459D01*
X245713Y322317D01*
X245653Y322186D01*
X245587Y322066D01*
X245521Y321962D01*
X245450Y321864D01*
X245379Y321771D01*
X245308Y321695D01*
X245232Y321618D01*
X245156Y321558D01*
X245079Y321498D01*
X245003Y321449D01*
X244932Y321405D01*
X244861Y321373D01*
X244790Y321340D01*
X244724Y321312D01*
X244599Y321274D01*
X244544Y321263D01*
X244495Y321252D01*
X244451Y321247D01*
X244419Y321241D01*
X244386Y321236D01*
X244348D01*
X244200Y321241D01*
X244064Y321263D01*
X243933Y321302D01*
X243812Y321345D01*
X243698Y321405D01*
X243594Y321471D01*
X243501Y321553D01*
X243408Y321635D01*
X243326Y321727D01*
X243250Y321831D01*
X243185Y321935D01*
X243119Y322044D01*
X243064Y322159D01*
X243015Y322279D01*
X242928Y322519D01*
X242862Y322754D01*
X242813Y322989D01*
X242792Y323098D01*
X242775Y323202D01*
X242764Y323305D01*
X242753Y323398D01*
X242742Y323485D01*
X242737Y323562D01*
X242731Y323627D01*
Y323688D01*
X242726Y323731D01*
Y323769D01*
Y323791D01*
Y323797D01*
X242731Y324031D01*
X242742Y324250D01*
X242764Y324457D01*
X242797Y324648D01*
X242830Y324829D01*
X242873Y324992D01*
X242922Y325145D01*
X242977Y325287D01*
X243037Y325418D01*
X243103Y325538D01*
X243168Y325648D01*
X243239Y325746D01*
X243310Y325833D01*
X243387Y325915D01*
X243463Y325986D01*
X243534Y326052D01*
X243611Y326106D01*
X243687Y326161D01*
X243763Y326199D01*
X243834Y326237D01*
X243905Y326270D01*
X243971Y326297D01*
X244096Y326336D01*
X244151Y326346D01*
X244200Y326358D01*
X244238Y326363D01*
X244277Y326368D01*
X244309Y326374D01*
X244348D01*
X244495Y326368D01*
D02*
G37*
G36*
X270411Y367229D02*
X270568Y367222D01*
X270719Y367201D01*
X270855Y367174D01*
X270985Y367147D01*
X271108Y367106D01*
X271224Y367065D01*
X271327Y367017D01*
X271422Y366969D01*
X271518Y366915D01*
X271600Y366860D01*
X271675Y366798D01*
X271805Y366669D01*
X271907Y366546D01*
X271996Y366416D01*
X272064Y366286D01*
X272112Y366170D01*
X272146Y366068D01*
X272167Y365979D01*
X272180Y365911D01*
Y365883D01*
X272187Y365863D01*
Y365856D01*
Y365849D01*
X271388D01*
X271368Y365986D01*
X271334Y366102D01*
X271272Y366204D01*
X271204Y366293D01*
X271115Y366368D01*
X271026Y366430D01*
X270924Y366477D01*
X270828Y366518D01*
X270726Y366553D01*
X270630Y366573D01*
X270534Y366594D01*
X270452Y366600D01*
X270384Y366607D01*
X270336Y366614D01*
X270288D01*
X270111Y366607D01*
X269954Y366594D01*
X269831Y366566D01*
X269722Y366546D01*
X269647Y366518D01*
X269585Y366491D01*
X269558Y366477D01*
X269544Y366471D01*
X269462Y366416D01*
X269401Y366354D01*
X269353Y366293D01*
X269319Y366238D01*
X269291Y366184D01*
X269278Y366143D01*
X269264Y366115D01*
Y366109D01*
X269244Y366013D01*
X269230Y365904D01*
X269223Y365788D01*
X269216Y365678D01*
X269209Y365569D01*
Y365521D01*
Y365487D01*
Y365453D01*
Y365426D01*
Y365412D01*
Y365405D01*
X269599D01*
X269845Y365398D01*
X270077Y365385D01*
X270295Y365364D01*
X270493Y365337D01*
X270685Y365303D01*
X270855Y365262D01*
X271019Y365214D01*
X271170Y365159D01*
X271306Y365098D01*
X271436Y365036D01*
X271545Y364975D01*
X271655Y364907D01*
X271750Y364838D01*
X271832Y364763D01*
X271907Y364688D01*
X271975Y364620D01*
X272037Y364545D01*
X272092Y364469D01*
X272133Y364394D01*
X272174Y364326D01*
X272235Y364196D01*
X272276Y364073D01*
X272297Y363971D01*
X272303Y363930D01*
X272310Y363896D01*
X272317Y363868D01*
Y363848D01*
Y363834D01*
Y363827D01*
X272310Y363725D01*
X272297Y363622D01*
X272276Y363527D01*
X272249Y363438D01*
X272180Y363281D01*
X272098Y363144D01*
X272064Y363090D01*
X272023Y363035D01*
X271989Y362994D01*
X271955Y362960D01*
X271928Y362926D01*
X271907Y362905D01*
X271894Y362898D01*
X271887Y362892D01*
X271805Y362830D01*
X271716Y362776D01*
X271620Y362728D01*
X271532Y362687D01*
X271347Y362625D01*
X271170Y362584D01*
X271088Y362564D01*
X271012Y362557D01*
X270951Y362550D01*
X270890Y362543D01*
X270842Y362537D01*
X270780D01*
X270603Y362543D01*
X270439Y362564D01*
X270275Y362591D01*
X270131Y362625D01*
X269988Y362666D01*
X269858Y362714D01*
X269742Y362762D01*
X269633Y362817D01*
X269537Y362871D01*
X269455Y362919D01*
X269380Y362967D01*
X269319Y363008D01*
X269271Y363042D01*
X269237Y363076D01*
X269216Y363090D01*
X269209Y363097D01*
Y362639D01*
X268410D01*
Y365548D01*
X268417Y365726D01*
X268431Y365897D01*
X268458Y366047D01*
X268485Y366184D01*
X268519Y366307D01*
X268561Y366416D01*
X268608Y366512D01*
X268649Y366600D01*
X268697Y366669D01*
X268745Y366730D01*
X268786Y366785D01*
X268820Y366826D01*
X268847Y366853D01*
X268875Y366880D01*
X268888Y366887D01*
X268895Y366894D01*
X268991Y366955D01*
X269093Y367010D01*
X269202Y367051D01*
X269312Y367092D01*
X269537Y367154D01*
X269749Y367195D01*
X269851Y367208D01*
X269940Y367215D01*
X270029Y367229D01*
X270097D01*
X270159Y367236D01*
X270241D01*
X270411Y367229D01*
D02*
G37*
G36*
X248685D02*
X248842Y367222D01*
X248993Y367201D01*
X249129Y367174D01*
X249259Y367147D01*
X249382Y367106D01*
X249498Y367065D01*
X249600Y367017D01*
X249696Y366969D01*
X249792Y366915D01*
X249874Y366860D01*
X249949Y366798D01*
X250079Y366669D01*
X250181Y366546D01*
X250270Y366416D01*
X250338Y366286D01*
X250386Y366170D01*
X250420Y366068D01*
X250441Y365979D01*
X250454Y365911D01*
Y365883D01*
X250461Y365863D01*
Y365856D01*
Y365849D01*
X249662D01*
X249641Y365986D01*
X249607Y366102D01*
X249546Y366204D01*
X249478Y366293D01*
X249389Y366368D01*
X249300Y366430D01*
X249198Y366477D01*
X249102Y366518D01*
X248999Y366553D01*
X248904Y366573D01*
X248808Y366594D01*
X248726Y366600D01*
X248658Y366607D01*
X248610Y366614D01*
X248562D01*
X248385Y366607D01*
X248228Y366594D01*
X248105Y366566D01*
X247995Y366546D01*
X247920Y366518D01*
X247859Y366491D01*
X247832Y366477D01*
X247818Y366471D01*
X247736Y366416D01*
X247674Y366354D01*
X247627Y366293D01*
X247592Y366238D01*
X247565Y366184D01*
X247551Y366143D01*
X247538Y366115D01*
Y366109D01*
X247517Y366013D01*
X247504Y365904D01*
X247497Y365788D01*
X247490Y365678D01*
X247483Y365569D01*
Y365521D01*
Y365487D01*
Y365453D01*
Y365426D01*
Y365412D01*
Y365405D01*
X247872D01*
X248118Y365398D01*
X248351Y365385D01*
X248569Y365364D01*
X248767Y365337D01*
X248958Y365303D01*
X249129Y365262D01*
X249293Y365214D01*
X249443Y365159D01*
X249580Y365098D01*
X249710Y365036D01*
X249819Y364975D01*
X249928Y364907D01*
X250024Y364838D01*
X250106Y364763D01*
X250181Y364688D01*
X250249Y364620D01*
X250311Y364545D01*
X250365Y364469D01*
X250406Y364394D01*
X250447Y364326D01*
X250509Y364196D01*
X250550Y364073D01*
X250570Y363971D01*
X250577Y363930D01*
X250584Y363896D01*
X250591Y363868D01*
Y363848D01*
Y363834D01*
Y363827D01*
X250584Y363725D01*
X250570Y363622D01*
X250550Y363527D01*
X250522Y363438D01*
X250454Y363281D01*
X250372Y363144D01*
X250338Y363090D01*
X250297Y363035D01*
X250263Y362994D01*
X250229Y362960D01*
X250202Y362926D01*
X250181Y362905D01*
X250167Y362898D01*
X250161Y362892D01*
X250079Y362830D01*
X249990Y362776D01*
X249894Y362728D01*
X249805Y362687D01*
X249621Y362625D01*
X249443Y362584D01*
X249361Y362564D01*
X249286Y362557D01*
X249225Y362550D01*
X249163Y362543D01*
X249115Y362537D01*
X249054D01*
X248877Y362543D01*
X248712Y362564D01*
X248549Y362591D01*
X248405Y362625D01*
X248262Y362666D01*
X248132Y362714D01*
X248016Y362762D01*
X247907Y362817D01*
X247811Y362871D01*
X247729Y362919D01*
X247654Y362967D01*
X247592Y363008D01*
X247545Y363042D01*
X247511Y363076D01*
X247490Y363090D01*
X247483Y363097D01*
Y362639D01*
X246684D01*
Y365548D01*
X246691Y365726D01*
X246705Y365897D01*
X246732Y366047D01*
X246759Y366184D01*
X246793Y366307D01*
X246834Y366416D01*
X246882Y366512D01*
X246923Y366600D01*
X246971Y366669D01*
X247019Y366730D01*
X247060Y366785D01*
X247094Y366826D01*
X247121Y366853D01*
X247148Y366880D01*
X247162Y366887D01*
X247169Y366894D01*
X247265Y366955D01*
X247367Y367010D01*
X247476Y367051D01*
X247586Y367092D01*
X247811Y367154D01*
X248023Y367195D01*
X248125Y367208D01*
X248214Y367215D01*
X248303Y367229D01*
X248371D01*
X248432Y367236D01*
X248515D01*
X248685Y367229D01*
D02*
G37*
G36*
X279195Y362639D02*
X278409D01*
Y367925D01*
X276640Y362639D01*
X275903D01*
X274127Y367925D01*
Y362639D01*
X273348D01*
Y368854D01*
X274585D01*
X276272Y363670D01*
X277959Y368854D01*
X279195D01*
Y362639D01*
D02*
G37*
G36*
X226037D02*
X225320D01*
X223619Y367133D01*
X224486D01*
X225675Y363616D01*
X226870Y367133D01*
X227738D01*
X226037Y362639D01*
D02*
G37*
G36*
X265583Y367229D02*
X265747Y367208D01*
X265904Y367181D01*
X266047Y367140D01*
X266184Y367092D01*
X266314Y367044D01*
X266430Y366983D01*
X266532Y366928D01*
X266628Y366874D01*
X266710Y366819D01*
X266778Y366764D01*
X266832Y366717D01*
X266880Y366675D01*
X266915Y366648D01*
X266935Y366628D01*
X266942Y366621D01*
X267044Y366498D01*
X267133Y366368D01*
X267208Y366232D01*
X267277Y366088D01*
X267331Y365945D01*
X267372Y365801D01*
X267413Y365658D01*
X267440Y365521D01*
X267468Y365391D01*
X267488Y365275D01*
X267495Y365166D01*
X267509Y365070D01*
Y364995D01*
X267515Y364934D01*
Y364900D01*
Y364886D01*
X267509Y364681D01*
X267488Y364490D01*
X267461Y364312D01*
X267427Y364142D01*
X267379Y363984D01*
X267331Y363848D01*
X267283Y363718D01*
X267229Y363602D01*
X267174Y363493D01*
X267126Y363404D01*
X267072Y363329D01*
X267031Y363267D01*
X266997Y363213D01*
X266969Y363178D01*
X266949Y363158D01*
X266942Y363151D01*
X266826Y363042D01*
X266710Y362946D01*
X266587Y362864D01*
X266457Y362796D01*
X266327Y362735D01*
X266197Y362687D01*
X266074Y362646D01*
X265958Y362612D01*
X265842Y362591D01*
X265740Y362571D01*
X265644Y362557D01*
X265562Y362543D01*
X265494D01*
X265446Y362537D01*
X265405D01*
X265268Y362543D01*
X265139Y362550D01*
X265016Y362571D01*
X264900Y362591D01*
X264790Y362625D01*
X264695Y362653D01*
X264599Y362687D01*
X264510Y362721D01*
X264435Y362755D01*
X264367Y362789D01*
X264312Y362823D01*
X264264Y362851D01*
X264224Y362871D01*
X264196Y362892D01*
X264182Y362898D01*
X264176Y362905D01*
X264087Y362981D01*
X264005Y363056D01*
X263937Y363144D01*
X263875Y363226D01*
X263821Y363315D01*
X263773Y363404D01*
X263698Y363581D01*
X263663Y363664D01*
X263643Y363739D01*
X263622Y363800D01*
X263609Y363861D01*
X263602Y363909D01*
X263595Y363950D01*
X263588Y363971D01*
Y363978D01*
X264415D01*
X264428Y363841D01*
X264469Y363718D01*
X264517Y363609D01*
X264572Y363527D01*
X264626Y363459D01*
X264667Y363411D01*
X264702Y363377D01*
X264715Y363370D01*
X264825Y363301D01*
X264941Y363247D01*
X265057Y363213D01*
X265166Y363185D01*
X265262Y363172D01*
X265337Y363165D01*
X265364Y363158D01*
X265405D01*
X265508Y363165D01*
X265610Y363178D01*
X265706Y363199D01*
X265794Y363226D01*
X265951Y363295D01*
X266081Y363377D01*
X266143Y363411D01*
X266191Y363452D01*
X266231Y363486D01*
X266272Y363520D01*
X266300Y363547D01*
X266320Y363568D01*
X266327Y363581D01*
X266334Y363588D01*
X266395Y363677D01*
X266450Y363773D01*
X266498Y363868D01*
X266539Y363978D01*
X266600Y364189D01*
X266641Y364401D01*
X266662Y364497D01*
X266669Y364592D01*
X266675Y364674D01*
X266682Y364743D01*
X266689Y364804D01*
Y364845D01*
Y364879D01*
Y364886D01*
X266682Y365043D01*
X266675Y365187D01*
X266655Y365323D01*
X266634Y365453D01*
X266607Y365569D01*
X266580Y365671D01*
X266546Y365767D01*
X266512Y365856D01*
X266477Y365931D01*
X266443Y365992D01*
X266416Y366054D01*
X266389Y366095D01*
X266368Y366129D01*
X266348Y366156D01*
X266341Y366170D01*
X266334Y366177D01*
X266266Y366252D01*
X266191Y366320D01*
X266115Y366382D01*
X266040Y366430D01*
X265958Y366471D01*
X265883Y366505D01*
X265733Y366559D01*
X265603Y366594D01*
X265548Y366600D01*
X265501Y366607D01*
X265460Y366614D01*
X265405D01*
X265262Y366607D01*
X265125Y366580D01*
X265009Y366546D01*
X264907Y366512D01*
X264825Y366471D01*
X264763Y366437D01*
X264729Y366409D01*
X264715Y366402D01*
X264620Y366314D01*
X264545Y366218D01*
X264497Y366115D01*
X264456Y366013D01*
X264435Y365924D01*
X264422Y365856D01*
X264415Y365829D01*
Y365808D01*
Y365794D01*
Y365788D01*
X263588D01*
X263609Y365917D01*
X263636Y366034D01*
X263677Y366150D01*
X263718Y366252D01*
X263766Y366348D01*
X263814Y366437D01*
X263861Y366518D01*
X263916Y366587D01*
X263964Y366648D01*
X264012Y366710D01*
X264059Y366751D01*
X264094Y366792D01*
X264128Y366819D01*
X264155Y366846D01*
X264169Y366853D01*
X264176Y366860D01*
X264271Y366928D01*
X264367Y366983D01*
X264469Y367038D01*
X264572Y367078D01*
X264784Y367147D01*
X264975Y367188D01*
X265064Y367201D01*
X265145Y367215D01*
X265221Y367222D01*
X265282Y367229D01*
X265337Y367236D01*
X265405D01*
X265583Y367229D01*
D02*
G37*
G36*
X230435D02*
X230599Y367208D01*
X230756Y367181D01*
X230900Y367140D01*
X231036Y367092D01*
X231159Y367038D01*
X231276Y366983D01*
X231385Y366921D01*
X231474Y366860D01*
X231556Y366805D01*
X231631Y366751D01*
X231685Y366703D01*
X231733Y366669D01*
X231767Y366634D01*
X231788Y366614D01*
X231795Y366607D01*
X231897Y366484D01*
X231986Y366354D01*
X232061Y366218D01*
X232129Y366074D01*
X232184Y365931D01*
X232232Y365788D01*
X232273Y365651D01*
X232300Y365514D01*
X232327Y365385D01*
X232341Y365268D01*
X232355Y365159D01*
X232368Y365070D01*
Y364988D01*
X232375Y364934D01*
Y364900D01*
Y364886D01*
X232368Y364681D01*
X232348Y364490D01*
X232320Y364312D01*
X232280Y364148D01*
X232239Y363991D01*
X232184Y363848D01*
X232129Y363718D01*
X232075Y363602D01*
X232020Y363499D01*
X231965Y363404D01*
X231911Y363329D01*
X231870Y363267D01*
X231829Y363219D01*
X231802Y363178D01*
X231781Y363158D01*
X231774Y363151D01*
X231658Y363042D01*
X231528Y362946D01*
X231399Y362864D01*
X231269Y362796D01*
X231132Y362735D01*
X231002Y362687D01*
X230873Y362646D01*
X230750Y362612D01*
X230627Y362591D01*
X230524Y362571D01*
X230422Y362557D01*
X230340Y362543D01*
X230272D01*
X230217Y362537D01*
X230176D01*
X230032Y362543D01*
X229896Y362550D01*
X229766Y362571D01*
X229643Y362598D01*
X229534Y362625D01*
X229425Y362653D01*
X229322Y362687D01*
X229233Y362728D01*
X229151Y362762D01*
X229083Y362796D01*
X229022Y362823D01*
X228967Y362851D01*
X228926Y362878D01*
X228899Y362898D01*
X228878Y362905D01*
X228871Y362912D01*
X228776Y362987D01*
X228687Y363069D01*
X228612Y363151D01*
X228544Y363240D01*
X228482Y363329D01*
X228434Y363418D01*
X228386Y363499D01*
X228352Y363588D01*
X228318Y363664D01*
X228298Y363739D01*
X228277Y363807D01*
X228257Y363861D01*
X228250Y363909D01*
X228243Y363950D01*
X228236Y363971D01*
Y363978D01*
X229063D01*
X229069Y363909D01*
X229083Y363841D01*
X229131Y363718D01*
X229186Y363616D01*
X229254Y363527D01*
X229315Y363459D01*
X229370Y363411D01*
X229411Y363383D01*
X229418Y363370D01*
X229425D01*
X229554Y363301D01*
X229684Y363247D01*
X229807Y363213D01*
X229923Y363185D01*
X230026Y363172D01*
X230067Y363165D01*
X230108D01*
X230135Y363158D01*
X230176D01*
X230278Y363165D01*
X230374Y363172D01*
X230558Y363219D01*
X230715Y363274D01*
X230852Y363349D01*
X230907Y363383D01*
X230961Y363418D01*
X231009Y363445D01*
X231043Y363472D01*
X231071Y363499D01*
X231091Y363520D01*
X231105Y363527D01*
X231112Y363534D01*
X231180Y363609D01*
X231241Y363691D01*
X231296Y363780D01*
X231337Y363875D01*
X231419Y364066D01*
X231467Y364258D01*
X231487Y364347D01*
X231508Y364428D01*
X231521Y364504D01*
X231528Y364565D01*
X231535Y364620D01*
X231542Y364661D01*
Y364688D01*
Y364695D01*
X228154D01*
Y364886D01*
X228161Y365091D01*
X228182Y365282D01*
X228209Y365460D01*
X228243Y365631D01*
X228284Y365788D01*
X228339Y365924D01*
X228386Y366054D01*
X228441Y366177D01*
X228496Y366279D01*
X228544Y366368D01*
X228591Y366443D01*
X228639Y366505D01*
X228673Y366559D01*
X228701Y366594D01*
X228721Y366614D01*
X228728Y366621D01*
X228837Y366730D01*
X228960Y366826D01*
X229083Y366908D01*
X229213Y366976D01*
X229336Y367038D01*
X229466Y367085D01*
X229589Y367126D01*
X229712Y367160D01*
X229828Y367181D01*
X229930Y367201D01*
X230026Y367215D01*
X230108Y367229D01*
X230169D01*
X230224Y367236D01*
X230265D01*
X230435Y367229D01*
D02*
G37*
G36*
X261034D02*
X261150Y367201D01*
X261266Y367167D01*
X261375Y367120D01*
X261478Y367065D01*
X261573Y367003D01*
X261669Y366942D01*
X261751Y366874D01*
X261826Y366805D01*
X261888Y366744D01*
X261949Y366682D01*
X261997Y366628D01*
X262031Y366580D01*
X262065Y366546D01*
X262079Y366518D01*
X262086Y366512D01*
Y367133D01*
X262885D01*
Y362639D01*
X262086D01*
Y365815D01*
X262004Y365931D01*
X261915Y366027D01*
X261826Y366115D01*
X261737Y366184D01*
X261649Y366245D01*
X261560Y366300D01*
X261478Y366341D01*
X261396Y366375D01*
X261321Y366402D01*
X261252Y366423D01*
X261191Y366437D01*
X261136Y366450D01*
X261095D01*
X261061Y366457D01*
X260925D01*
X260822Y366450D01*
X260740Y366443D01*
X260672Y366437D01*
X260617Y366423D01*
X260583Y366416D01*
X260556Y366409D01*
X260549D01*
Y367201D01*
X260685Y367222D01*
X260747Y367229D01*
X260802D01*
X260849Y367236D01*
X260911D01*
X261034Y367229D01*
D02*
G37*
G36*
X238263Y362639D02*
X237436D01*
Y365296D01*
X235913D01*
X235742Y365282D01*
X235585Y365255D01*
X235442Y365207D01*
X235319Y365159D01*
X235216Y365105D01*
X235175Y365084D01*
X235141Y365057D01*
X235114Y365043D01*
X235093Y365030D01*
X235087Y365016D01*
X235080D01*
X234950Y364907D01*
X234841Y364784D01*
X234752Y364661D01*
X234677Y364551D01*
X234622Y364449D01*
X234602Y364401D01*
X234581Y364367D01*
X234568Y364333D01*
X234561Y364312D01*
X234554Y364299D01*
Y364292D01*
X233967Y362639D01*
X233079D01*
X233700Y364326D01*
X233769Y364490D01*
X233844Y364640D01*
X233919Y364770D01*
X234001Y364886D01*
X234083Y364995D01*
X234165Y365084D01*
X234247Y365166D01*
X234322Y365234D01*
X234397Y365289D01*
X234465Y365337D01*
X234527Y365378D01*
X234581Y365405D01*
X234629Y365426D01*
X234663Y365439D01*
X234684Y365453D01*
X234690D01*
Y365467D01*
X234574Y365494D01*
X234458Y365528D01*
X234356Y365569D01*
X234253Y365610D01*
X234165Y365658D01*
X234083Y365706D01*
X234008Y365754D01*
X233932Y365801D01*
X233871Y365849D01*
X233816Y365890D01*
X233775Y365931D01*
X233734Y365965D01*
X233707Y365992D01*
X233686Y366013D01*
X233673Y366027D01*
X233666Y366034D01*
X233598Y366115D01*
X233543Y366204D01*
X233488Y366293D01*
X233448Y366382D01*
X233379Y366566D01*
X233338Y366737D01*
X233325Y366812D01*
X233311Y366887D01*
X233304Y366949D01*
X233297Y367003D01*
X233290Y367051D01*
Y367085D01*
Y367106D01*
Y367113D01*
Y367215D01*
X233304Y367318D01*
X233338Y367509D01*
X233386Y367680D01*
X233434Y367830D01*
X233461Y367891D01*
X233488Y367953D01*
X233516Y368001D01*
X233536Y368041D01*
X233557Y368076D01*
X233570Y368103D01*
X233577Y368117D01*
X233584Y368124D01*
X233639Y368205D01*
X233700Y368281D01*
X233762Y368342D01*
X233823Y368404D01*
X233946Y368506D01*
X234062Y368588D01*
X234172Y368642D01*
X234212Y368663D01*
X234253Y368684D01*
X234288Y368697D01*
X234308Y368704D01*
X234322Y368711D01*
X234329D01*
X234513Y368759D01*
X234704Y368793D01*
X234902Y368820D01*
X235093Y368834D01*
X235175Y368841D01*
X235257Y368847D01*
X235326D01*
X235387Y368854D01*
X238263D01*
Y362639D01*
D02*
G37*
G36*
X222731D02*
X221864D01*
Y363506D01*
X222731D01*
Y362639D01*
D02*
G37*
G36*
X221099D02*
X220231D01*
X219548Y364531D01*
X216939D01*
X216222Y362639D01*
X215293D01*
X217827Y368854D01*
X218715D01*
X221099Y362639D01*
D02*
G37*
G36*
X258343Y367229D02*
X258507Y367208D01*
X258664Y367181D01*
X258807Y367140D01*
X258944Y367092D01*
X259074Y367044D01*
X259190Y366983D01*
X259292Y366928D01*
X259388Y366874D01*
X259470Y366819D01*
X259538Y366764D01*
X259593Y366717D01*
X259641Y366675D01*
X259675Y366648D01*
X259695Y366628D01*
X259702Y366621D01*
X259805Y366498D01*
X259893Y366368D01*
X259968Y366232D01*
X260037Y366088D01*
X260091Y365945D01*
X260132Y365801D01*
X260173Y365658D01*
X260201Y365521D01*
X260228Y365391D01*
X260248Y365275D01*
X260255Y365166D01*
X260269Y365070D01*
Y364995D01*
X260276Y364934D01*
Y364900D01*
Y364886D01*
X260269Y364681D01*
X260248Y364490D01*
X260221Y364312D01*
X260187Y364142D01*
X260139Y363984D01*
X260091Y363848D01*
X260044Y363718D01*
X259989Y363602D01*
X259934Y363493D01*
X259886Y363404D01*
X259832Y363329D01*
X259791Y363267D01*
X259757Y363213D01*
X259729Y363178D01*
X259709Y363158D01*
X259702Y363151D01*
X259586Y363042D01*
X259470Y362946D01*
X259347Y362864D01*
X259217Y362796D01*
X259087Y362735D01*
X258958Y362687D01*
X258835Y362646D01*
X258718Y362612D01*
X258602Y362591D01*
X258500Y362571D01*
X258404Y362557D01*
X258322Y362543D01*
X258254D01*
X258206Y362537D01*
X258165D01*
X257988Y362543D01*
X257824Y362564D01*
X257667Y362591D01*
X257516Y362632D01*
X257380Y362680D01*
X257257Y362735D01*
X257141Y362789D01*
X257038Y362844D01*
X256943Y362898D01*
X256861Y362960D01*
X256792Y363008D01*
X256731Y363056D01*
X256690Y363097D01*
X256656Y363124D01*
X256635Y363144D01*
X256628Y363151D01*
X256526Y363274D01*
X256437Y363404D01*
X256362Y363541D01*
X256294Y363684D01*
X256239Y363827D01*
X256191Y363971D01*
X256157Y364114D01*
X256123Y364251D01*
X256103Y364381D01*
X256082Y364497D01*
X256075Y364606D01*
X256062Y364702D01*
Y364777D01*
X256055Y364838D01*
Y364872D01*
Y364886D01*
X256062Y365091D01*
X256082Y365282D01*
X256109Y365460D01*
X256144Y365631D01*
X256185Y365788D01*
X256239Y365924D01*
X256287Y366054D01*
X256342Y366177D01*
X256396Y366279D01*
X256444Y366368D01*
X256492Y366443D01*
X256540Y366505D01*
X256574Y366559D01*
X256601Y366594D01*
X256622Y366614D01*
X256628Y366621D01*
X256738Y366730D01*
X256861Y366826D01*
X256984Y366908D01*
X257113Y366976D01*
X257236Y367038D01*
X257366Y367085D01*
X257489Y367126D01*
X257612Y367160D01*
X257728Y367181D01*
X257831Y367201D01*
X257926Y367215D01*
X258008Y367229D01*
X258070D01*
X258124Y367236D01*
X258165D01*
X258343Y367229D01*
D02*
G37*
G36*
X242654Y366792D02*
X242750Y366867D01*
X242852Y366935D01*
X242955Y366997D01*
X243057Y367051D01*
X243167Y367092D01*
X243269Y367126D01*
X243460Y367181D01*
X243549Y367201D01*
X243631Y367215D01*
X243706Y367222D01*
X243768Y367229D01*
X243822Y367236D01*
X243891D01*
X244041Y367229D01*
X244184Y367208D01*
X244321Y367174D01*
X244444Y367133D01*
X244567Y367085D01*
X244676Y367031D01*
X244778Y366976D01*
X244874Y366915D01*
X244956Y366853D01*
X245031Y366798D01*
X245099Y366744D01*
X245154Y366696D01*
X245195Y366655D01*
X245222Y366621D01*
X245243Y366600D01*
X245250Y366594D01*
X245345Y366471D01*
X245427Y366334D01*
X245502Y366197D01*
X245564Y366054D01*
X245612Y365904D01*
X245659Y365760D01*
X245694Y365617D01*
X245721Y365480D01*
X245742Y365351D01*
X245762Y365234D01*
X245776Y365125D01*
X245782Y365036D01*
Y364961D01*
X245789Y364900D01*
Y364865D01*
Y364852D01*
X245782Y364661D01*
X245769Y364476D01*
X245742Y364299D01*
X245714Y364135D01*
X245680Y363984D01*
X245639Y363848D01*
X245591Y363718D01*
X245543Y363609D01*
X245502Y363506D01*
X245455Y363411D01*
X245414Y363336D01*
X245379Y363274D01*
X245352Y363226D01*
X245325Y363185D01*
X245311Y363165D01*
X245304Y363158D01*
X245209Y363049D01*
X245106Y362953D01*
X244997Y362871D01*
X244888Y362796D01*
X244772Y362741D01*
X244655Y362687D01*
X244546Y362646D01*
X244437Y362612D01*
X244335Y362591D01*
X244246Y362571D01*
X244157Y362557D01*
X244082Y362543D01*
X244020D01*
X243979Y362537D01*
X243938D01*
X243802Y362543D01*
X243665Y362564D01*
X243542Y362598D01*
X243419Y362639D01*
X243310Y362687D01*
X243201Y362735D01*
X243105Y362796D01*
X243016Y362858D01*
X242934Y362912D01*
X242859Y362974D01*
X242798Y363021D01*
X242750Y363076D01*
X242709Y363110D01*
X242682Y363144D01*
X242661Y363165D01*
X242654Y363172D01*
Y362639D01*
X241855D01*
Y368854D01*
X242654D01*
Y366792D01*
D02*
G37*
G36*
X253214Y367229D02*
X253350Y367208D01*
X253473Y367174D01*
X253596Y367140D01*
X253705Y367085D01*
X253815Y367038D01*
X253910Y366976D01*
X253999Y366921D01*
X254081Y366860D01*
X254149Y366798D01*
X254218Y366751D01*
X254265Y366703D01*
X254306Y366662D01*
X254334Y366628D01*
X254354Y366607D01*
X254361Y366600D01*
Y367133D01*
X255160D01*
Y360911D01*
X254361D01*
Y362981D01*
X254265Y362905D01*
X254163Y362837D01*
X254060Y362776D01*
X253958Y362721D01*
X253849Y362680D01*
X253746Y362646D01*
X253555Y362591D01*
X253466Y362571D01*
X253384Y362557D01*
X253316Y362550D01*
X253255Y362543D01*
X253200Y362537D01*
X253132D01*
X252981Y362543D01*
X252838Y362564D01*
X252701Y362598D01*
X252572Y362639D01*
X252449Y362687D01*
X252339Y362735D01*
X252230Y362796D01*
X252141Y362858D01*
X252052Y362912D01*
X251977Y362974D01*
X251916Y363021D01*
X251861Y363076D01*
X251820Y363110D01*
X251793Y363144D01*
X251772Y363165D01*
X251765Y363172D01*
X251670Y363295D01*
X251588Y363431D01*
X251513Y363575D01*
X251451Y363718D01*
X251404Y363861D01*
X251356Y364005D01*
X251322Y364148D01*
X251294Y364285D01*
X251274Y364415D01*
X251253Y364538D01*
X251240Y364647D01*
X251233Y364736D01*
X251226Y364811D01*
Y364872D01*
Y364907D01*
Y364920D01*
X251233Y365118D01*
X251247Y365296D01*
X251274Y365473D01*
X251301Y365631D01*
X251335Y365781D01*
X251376Y365924D01*
X251424Y366047D01*
X251465Y366163D01*
X251513Y366266D01*
X251561Y366354D01*
X251602Y366430D01*
X251636Y366491D01*
X251663Y366546D01*
X251690Y366580D01*
X251704Y366600D01*
X251711Y366607D01*
X251806Y366717D01*
X251909Y366812D01*
X252011Y366901D01*
X252128Y366969D01*
X252237Y367031D01*
X252353Y367085D01*
X252462Y367126D01*
X252572Y367160D01*
X252674Y367181D01*
X252770Y367201D01*
X252858Y367215D01*
X252934Y367229D01*
X252995D01*
X253036Y367236D01*
X253077D01*
X253214Y367229D01*
D02*
G37*
G36*
X253930Y352740D02*
X253291D01*
Y353433D01*
X253930D01*
Y352740D01*
D02*
G37*
G36*
X251178Y352134D02*
X251293Y352118D01*
X251402Y352090D01*
X251500Y352058D01*
X251598Y352019D01*
X251686Y351976D01*
X251768Y351932D01*
X251844Y351883D01*
X251910Y351834D01*
X251970Y351790D01*
X252024Y351746D01*
X252068Y351708D01*
X252101Y351675D01*
X252123Y351648D01*
X252139Y351632D01*
X252144Y351626D01*
X252221Y351528D01*
X252286Y351419D01*
X252346Y351309D01*
X252396Y351195D01*
X252434Y351075D01*
X252472Y350960D01*
X252499Y350845D01*
X252521Y350736D01*
X252538Y350633D01*
X252554Y350540D01*
X252565Y350452D01*
X252570Y350381D01*
Y350321D01*
X252576Y350272D01*
Y350245D01*
Y350234D01*
X252570Y350081D01*
X252559Y349934D01*
X252538Y349792D01*
X252516Y349661D01*
X252488Y349540D01*
X252456Y349431D01*
X252417Y349328D01*
X252379Y349240D01*
X252346Y349158D01*
X252308Y349082D01*
X252275Y349022D01*
X252248Y348973D01*
X252226Y348934D01*
X252204Y348902D01*
X252194Y348885D01*
X252188Y348880D01*
X252112Y348793D01*
X252030Y348716D01*
X251942Y348651D01*
X251855Y348590D01*
X251762Y348547D01*
X251669Y348503D01*
X251582Y348470D01*
X251495Y348443D01*
X251413Y348427D01*
X251342Y348410D01*
X251271Y348399D01*
X251211Y348388D01*
X251162D01*
X251129Y348383D01*
X251096D01*
X250987Y348388D01*
X250878Y348405D01*
X250779Y348432D01*
X250681Y348465D01*
X250594Y348503D01*
X250506Y348541D01*
X250430Y348590D01*
X250359Y348640D01*
X250293Y348683D01*
X250233Y348732D01*
X250184Y348771D01*
X250146Y348814D01*
X250113Y348842D01*
X250092Y348869D01*
X250075Y348885D01*
X250070Y348891D01*
Y348711D01*
Y348585D01*
X250081Y348465D01*
X250092Y348361D01*
X250108Y348263D01*
X250124Y348176D01*
X250146Y348099D01*
X250168Y348028D01*
X250190Y347968D01*
X250217Y347913D01*
X250239Y347870D01*
X250261Y347832D01*
X250277Y347804D01*
X250293Y347782D01*
X250304Y347766D01*
X250310Y347761D01*
X250315Y347755D01*
X250364Y347711D01*
X250414Y347673D01*
X250523Y347613D01*
X250638Y347569D01*
X250747Y347542D01*
X250850Y347520D01*
X250894Y347515D01*
X250927D01*
X250960Y347509D01*
X251003D01*
X251145Y347515D01*
X251265Y347537D01*
X251375Y347564D01*
X251462Y347602D01*
X251544Y347646D01*
X251604Y347695D01*
X251659Y347750D01*
X251702Y347804D01*
X251735Y347859D01*
X251757Y347913D01*
X251779Y347963D01*
X251789Y348006D01*
X251795Y348044D01*
X251800Y348072D01*
Y348094D01*
Y348099D01*
X252461D01*
X252456Y348006D01*
X252445Y347919D01*
X252423Y347837D01*
X252401Y347761D01*
X252368Y347690D01*
X252336Y347624D01*
X252303Y347564D01*
X252265Y347515D01*
X252226Y347466D01*
X252194Y347422D01*
X252161Y347384D01*
X252128Y347357D01*
X252106Y347335D01*
X252084Y347318D01*
X252074Y347307D01*
X252068Y347302D01*
X251992Y347253D01*
X251910Y347204D01*
X251822Y347165D01*
X251735Y347133D01*
X251555Y347078D01*
X251385Y347045D01*
X251304Y347034D01*
X251233Y347023D01*
X251167Y347018D01*
X251107Y347012D01*
X251063Y347007D01*
X250998D01*
X250856Y347012D01*
X250719Y347029D01*
X250599Y347051D01*
X250479Y347083D01*
X250370Y347122D01*
X250272Y347165D01*
X250179Y347220D01*
X250092Y347280D01*
X250015Y347340D01*
X249939Y347411D01*
X249873Y347482D01*
X249813Y347553D01*
X249758Y347629D01*
X249709Y347711D01*
X249627Y347875D01*
X249562Y348033D01*
X249513Y348192D01*
X249480Y348339D01*
X249453Y348470D01*
X249447Y348525D01*
X249442Y348580D01*
X249436Y348623D01*
Y348661D01*
X249431Y348694D01*
Y348716D01*
Y348732D01*
Y348738D01*
Y352058D01*
X250070D01*
Y351784D01*
X250146Y351845D01*
X250228Y351899D01*
X250310Y351948D01*
X250392Y351992D01*
X250479Y352025D01*
X250561Y352052D01*
X250714Y352096D01*
X250785Y352112D01*
X250850Y352123D01*
X250910Y352129D01*
X250960Y352134D01*
X251003Y352139D01*
X251058D01*
X251178Y352134D01*
D02*
G37*
G36*
X235060Y348465D02*
X234421D01*
Y348738D01*
X234345Y348678D01*
X234263Y348623D01*
X234181Y348574D01*
X234099Y348530D01*
X234012Y348498D01*
X233930Y348470D01*
X233777Y348427D01*
X233706Y348410D01*
X233641Y348399D01*
X233586Y348394D01*
X233537Y348388D01*
X233493Y348383D01*
X233438D01*
X233318Y348388D01*
X233204Y348405D01*
X233095Y348432D01*
X232991Y348465D01*
X232892Y348503D01*
X232805Y348541D01*
X232718Y348590D01*
X232647Y348640D01*
X232576Y348683D01*
X232516Y348732D01*
X232467Y348771D01*
X232423Y348814D01*
X232390Y348842D01*
X232368Y348869D01*
X232352Y348885D01*
X232347Y348891D01*
X232270Y348989D01*
X232205Y349098D01*
X232144Y349213D01*
X232095Y349328D01*
X232057Y349442D01*
X232019Y349557D01*
X231992Y349672D01*
X231970Y349781D01*
X231953Y349885D01*
X231937Y349983D01*
X231926Y350070D01*
X231921Y350141D01*
X231915Y350201D01*
Y350250D01*
Y350278D01*
Y350289D01*
X231921Y350447D01*
X231931Y350589D01*
X231953Y350731D01*
X231975Y350856D01*
X232002Y350976D01*
X232035Y351091D01*
X232073Y351189D01*
X232106Y351282D01*
X232144Y351364D01*
X232183Y351435D01*
X232215Y351495D01*
X232243Y351544D01*
X232265Y351588D01*
X232286Y351615D01*
X232297Y351632D01*
X232303Y351637D01*
X232379Y351725D01*
X232461Y351801D01*
X232543Y351872D01*
X232636Y351926D01*
X232723Y351976D01*
X232816Y352019D01*
X232903Y352052D01*
X232991Y352079D01*
X233073Y352096D01*
X233149Y352112D01*
X233220Y352123D01*
X233280Y352134D01*
X233329D01*
X233362Y352139D01*
X233395D01*
X233504Y352134D01*
X233613Y352118D01*
X233712Y352090D01*
X233810Y352063D01*
X233897Y352019D01*
X233984Y351981D01*
X234061Y351932D01*
X234132Y351888D01*
X234197Y351839D01*
X234252Y351790D01*
X234307Y351752D01*
X234345Y351714D01*
X234378Y351681D01*
X234399Y351654D01*
X234416Y351637D01*
X234421Y351632D01*
Y353433D01*
X235060D01*
Y348465D01*
D02*
G37*
G36*
X230223D02*
X230283Y348312D01*
X230343Y348181D01*
X230403Y348061D01*
X230468Y347963D01*
X230534Y347881D01*
X230599Y347810D01*
X230665Y347750D01*
X230725Y347706D01*
X230780Y347668D01*
X230834Y347640D01*
X230878Y347624D01*
X230921Y347613D01*
X230954Y347602D01*
X230976Y347597D01*
X230998D01*
X231113Y347602D01*
X231162Y347613D01*
X231205Y347624D01*
X231249Y347629D01*
X231276Y347640D01*
X231298Y347646D01*
X231304D01*
Y347056D01*
X231238Y347040D01*
X231167Y347029D01*
X231096Y347018D01*
X231031Y347012D01*
X230976D01*
X230927Y347007D01*
X230889D01*
X230774Y347018D01*
X230670Y347040D01*
X230577Y347067D01*
X230496Y347105D01*
X230435Y347144D01*
X230386Y347171D01*
X230359Y347193D01*
X230348Y347204D01*
X230266Y347280D01*
X230195Y347357D01*
X230135Y347438D01*
X230086Y347509D01*
X230042Y347575D01*
X230015Y347629D01*
X229993Y347662D01*
X229988Y347668D01*
Y347673D01*
X229960Y347728D01*
X229933Y347788D01*
X229873Y347913D01*
X229819Y348044D01*
X229764Y348176D01*
X229720Y348290D01*
X229698Y348339D01*
X229682Y348383D01*
X229666Y348416D01*
X229660Y348443D01*
X229649Y348459D01*
Y348465D01*
X228290Y352058D01*
X228983D01*
X229933Y349246D01*
X230889Y352058D01*
X231582D01*
X230223Y348465D01*
D02*
G37*
G36*
X259941Y352134D02*
X260072Y352118D01*
X260198Y352096D01*
X260313Y352063D01*
X260422Y352025D01*
X260520Y351981D01*
X260613Y351937D01*
X260700Y351888D01*
X260771Y351839D01*
X260837Y351796D01*
X260897Y351752D01*
X260941Y351714D01*
X260979Y351686D01*
X261006Y351659D01*
X261022Y351643D01*
X261028Y351637D01*
X261110Y351539D01*
X261181Y351435D01*
X261241Y351326D01*
X261295Y351211D01*
X261339Y351097D01*
X261377Y350982D01*
X261410Y350873D01*
X261432Y350764D01*
X261454Y350660D01*
X261465Y350567D01*
X261476Y350480D01*
X261487Y350409D01*
Y350343D01*
X261492Y350299D01*
Y350272D01*
Y350261D01*
X261487Y350097D01*
X261470Y349944D01*
X261448Y349803D01*
X261416Y349672D01*
X261383Y349546D01*
X261339Y349431D01*
X261295Y349328D01*
X261252Y349235D01*
X261208Y349153D01*
X261164Y349076D01*
X261121Y349016D01*
X261088Y348967D01*
X261055Y348929D01*
X261033Y348896D01*
X261017Y348880D01*
X261012Y348874D01*
X260919Y348787D01*
X260815Y348711D01*
X260711Y348645D01*
X260607Y348590D01*
X260498Y348541D01*
X260395Y348503D01*
X260291Y348470D01*
X260192Y348443D01*
X260094Y348427D01*
X260012Y348410D01*
X259930Y348399D01*
X259865Y348388D01*
X259810D01*
X259767Y348383D01*
X259734D01*
X259619Y348388D01*
X259510Y348394D01*
X259406Y348410D01*
X259308Y348432D01*
X259221Y348454D01*
X259133Y348476D01*
X259051Y348503D01*
X258980Y348536D01*
X258915Y348563D01*
X258860Y348590D01*
X258811Y348612D01*
X258767Y348634D01*
X258735Y348656D01*
X258713Y348672D01*
X258696Y348678D01*
X258691Y348683D01*
X258614Y348743D01*
X258544Y348809D01*
X258484Y348874D01*
X258429Y348945D01*
X258380Y349016D01*
X258342Y349087D01*
X258303Y349153D01*
X258276Y349224D01*
X258249Y349284D01*
X258232Y349344D01*
X258216Y349398D01*
X258200Y349442D01*
X258194Y349480D01*
X258189Y349513D01*
X258183Y349530D01*
Y349535D01*
X258844D01*
X258849Y349480D01*
X258860Y349426D01*
X258898Y349328D01*
X258942Y349246D01*
X258997Y349175D01*
X259046Y349120D01*
X259090Y349082D01*
X259122Y349060D01*
X259128Y349049D01*
X259133D01*
X259237Y348994D01*
X259341Y348951D01*
X259439Y348923D01*
X259532Y348902D01*
X259614Y348891D01*
X259647Y348885D01*
X259679D01*
X259701Y348880D01*
X259734D01*
X259816Y348885D01*
X259892Y348891D01*
X260040Y348929D01*
X260165Y348973D01*
X260274Y349033D01*
X260318Y349060D01*
X260362Y349087D01*
X260400Y349109D01*
X260427Y349131D01*
X260449Y349153D01*
X260466Y349169D01*
X260476Y349175D01*
X260482Y349180D01*
X260537Y349240D01*
X260586Y349306D01*
X260629Y349377D01*
X260662Y349453D01*
X260728Y349606D01*
X260766Y349759D01*
X260782Y349830D01*
X260799Y349895D01*
X260809Y349956D01*
X260815Y350005D01*
X260820Y350048D01*
X260826Y350081D01*
Y350103D01*
Y350108D01*
X258118D01*
Y350261D01*
X258123Y350425D01*
X258139Y350578D01*
X258161Y350720D01*
X258189Y350856D01*
X258221Y350982D01*
X258265Y351091D01*
X258303Y351195D01*
X258347Y351293D01*
X258391Y351375D01*
X258429Y351446D01*
X258467Y351506D01*
X258505Y351555D01*
X258533Y351599D01*
X258555Y351626D01*
X258571Y351643D01*
X258576Y351648D01*
X258664Y351735D01*
X258762Y351812D01*
X258860Y351877D01*
X258964Y351932D01*
X259062Y351981D01*
X259166Y352019D01*
X259264Y352052D01*
X259363Y352079D01*
X259455Y352096D01*
X259537Y352112D01*
X259614Y352123D01*
X259679Y352134D01*
X259728D01*
X259772Y352139D01*
X259805D01*
X259941Y352134D01*
D02*
G37*
G36*
X243305D02*
X243436Y352118D01*
X243561Y352096D01*
X243676Y352063D01*
X243785Y352025D01*
X243883Y351981D01*
X243976Y351937D01*
X244064Y351888D01*
X244135Y351839D01*
X244200Y351796D01*
X244260Y351752D01*
X244304Y351714D01*
X244342Y351686D01*
X244369Y351659D01*
X244386Y351643D01*
X244391Y351637D01*
X244473Y351539D01*
X244544Y351435D01*
X244604Y351326D01*
X244659Y351211D01*
X244703Y351097D01*
X244741Y350982D01*
X244773Y350873D01*
X244795Y350764D01*
X244817Y350660D01*
X244828Y350567D01*
X244839Y350480D01*
X244850Y350409D01*
Y350343D01*
X244855Y350299D01*
Y350272D01*
Y350261D01*
X244850Y350097D01*
X244833Y349944D01*
X244812Y349803D01*
X244779Y349672D01*
X244746Y349546D01*
X244703Y349431D01*
X244659Y349328D01*
X244615Y349235D01*
X244571Y349153D01*
X244528Y349076D01*
X244484Y349016D01*
X244451Y348967D01*
X244419Y348929D01*
X244397Y348896D01*
X244380Y348880D01*
X244375Y348874D01*
X244282Y348787D01*
X244178Y348711D01*
X244075Y348645D01*
X243971Y348590D01*
X243862Y348541D01*
X243758Y348503D01*
X243654Y348470D01*
X243556Y348443D01*
X243458Y348427D01*
X243376Y348410D01*
X243294Y348399D01*
X243228Y348388D01*
X243174D01*
X243130Y348383D01*
X243097D01*
X242983Y348388D01*
X242873Y348394D01*
X242770Y348410D01*
X242671Y348432D01*
X242584Y348454D01*
X242497Y348476D01*
X242415Y348503D01*
X242344Y348536D01*
X242278Y348563D01*
X242224Y348590D01*
X242175Y348612D01*
X242131Y348634D01*
X242098Y348656D01*
X242076Y348672D01*
X242060Y348678D01*
X242054Y348683D01*
X241978Y348743D01*
X241907Y348809D01*
X241847Y348874D01*
X241792Y348945D01*
X241743Y349016D01*
X241705Y349087D01*
X241667Y349153D01*
X241639Y349224D01*
X241612Y349284D01*
X241596Y349344D01*
X241579Y349398D01*
X241563Y349442D01*
X241558Y349480D01*
X241552Y349513D01*
X241547Y349530D01*
Y349535D01*
X242207D01*
X242213Y349480D01*
X242224Y349426D01*
X242262Y349328D01*
X242305Y349246D01*
X242360Y349175D01*
X242409Y349120D01*
X242453Y349082D01*
X242486Y349060D01*
X242491Y349049D01*
X242497D01*
X242600Y348994D01*
X242704Y348951D01*
X242802Y348923D01*
X242895Y348902D01*
X242977Y348891D01*
X243010Y348885D01*
X243043D01*
X243064Y348880D01*
X243097D01*
X243179Y348885D01*
X243256Y348891D01*
X243403Y348929D01*
X243529Y348973D01*
X243638Y349033D01*
X243681Y349060D01*
X243725Y349087D01*
X243763Y349109D01*
X243791Y349131D01*
X243812Y349153D01*
X243829Y349169D01*
X243840Y349175D01*
X243845Y349180D01*
X243900Y349240D01*
X243949Y349306D01*
X243993Y349377D01*
X244025Y349453D01*
X244091Y349606D01*
X244129Y349759D01*
X244145Y349830D01*
X244162Y349895D01*
X244173Y349956D01*
X244178Y350005D01*
X244184Y350048D01*
X244189Y350081D01*
Y350103D01*
Y350108D01*
X241481D01*
Y350261D01*
X241487Y350425D01*
X241503Y350578D01*
X241525Y350720D01*
X241552Y350856D01*
X241585Y350982D01*
X241629Y351091D01*
X241667Y351195D01*
X241710Y351293D01*
X241754Y351375D01*
X241792Y351446D01*
X241830Y351506D01*
X241869Y351555D01*
X241896Y351599D01*
X241918Y351626D01*
X241934Y351643D01*
X241940Y351648D01*
X242027Y351735D01*
X242125Y351812D01*
X242224Y351877D01*
X242327Y351932D01*
X242426Y351981D01*
X242529Y352019D01*
X242628Y352052D01*
X242726Y352079D01*
X242819Y352096D01*
X242901Y352112D01*
X242977Y352123D01*
X243043Y352134D01*
X243092D01*
X243135Y352139D01*
X243168D01*
X243305Y352134D01*
D02*
G37*
G36*
X266198Y348465D02*
X264620D01*
X264391Y348470D01*
X264173Y348492D01*
X263971Y348525D01*
X263785Y348574D01*
X263610Y348629D01*
X263447Y348694D01*
X263294Y348771D01*
X263157Y348858D01*
X263026Y348951D01*
X262912Y349049D01*
X262802Y349153D01*
X262704Y349262D01*
X262617Y349371D01*
X262540Y349486D01*
X262469Y349601D01*
X262404Y349721D01*
X262349Y349841D01*
X262300Y349956D01*
X262256Y350070D01*
X262218Y350179D01*
X262191Y350289D01*
X262163Y350392D01*
X262142Y350490D01*
X262125Y350583D01*
X262114Y350671D01*
X262104Y350747D01*
X262098Y350813D01*
X262093Y350867D01*
X262087Y350916D01*
Y350949D01*
Y350971D01*
Y350976D01*
X262093Y351200D01*
X262114Y351408D01*
X262147Y351604D01*
X262196Y351790D01*
X262251Y351959D01*
X262322Y352118D01*
X262398Y352260D01*
X262480Y352396D01*
X262573Y352522D01*
X262677Y352636D01*
X262780Y352740D01*
X262890Y352833D01*
X262999Y352920D01*
X263119Y352997D01*
X263234Y353068D01*
X263354Y353128D01*
X263474Y353182D01*
X263589Y353226D01*
X263703Y353270D01*
X263818Y353302D01*
X263927Y353335D01*
X264031Y353357D01*
X264135Y353379D01*
X264222Y353395D01*
X264309Y353406D01*
X264386Y353417D01*
X264457Y353423D01*
X264511Y353428D01*
X264555Y353433D01*
X266198D01*
Y348465D01*
D02*
G37*
G36*
X253930D02*
X253291D01*
Y352058D01*
X253930D01*
Y348465D01*
D02*
G37*
G36*
X246881Y352134D02*
X246990Y352118D01*
X247094Y352090D01*
X247192Y352058D01*
X247285Y352014D01*
X247372Y351970D01*
X247454Y351921D01*
X247531Y351872D01*
X247602Y351823D01*
X247662Y351774D01*
X247716Y351730D01*
X247765Y351686D01*
X247798Y351654D01*
X247826Y351626D01*
X247842Y351610D01*
X247847Y351604D01*
Y352058D01*
X248486D01*
Y348465D01*
X247847D01*
Y351042D01*
X247755Y351146D01*
X247662Y351233D01*
X247574Y351309D01*
X247487Y351375D01*
X247405Y351430D01*
X247323Y351473D01*
X247247Y351512D01*
X247176Y351544D01*
X247110Y351566D01*
X247050Y351583D01*
X246996Y351599D01*
X246952Y351604D01*
X246919Y351610D01*
X246892Y351615D01*
X246870D01*
X246744Y351604D01*
X246635Y351583D01*
X246548Y351555D01*
X246477Y351517D01*
X246422Y351479D01*
X246384Y351451D01*
X246357Y351430D01*
X246351Y351419D01*
X246324Y351380D01*
X246297Y351337D01*
X246259Y351238D01*
X246231Y351135D01*
X246215Y351031D01*
X246199Y350938D01*
Y350900D01*
X246193Y350862D01*
Y350834D01*
Y350813D01*
Y350796D01*
Y350791D01*
Y348465D01*
X245554D01*
Y350818D01*
X245560Y350938D01*
X245565Y351053D01*
X245582Y351157D01*
X245609Y351255D01*
X245636Y351348D01*
X245669Y351430D01*
X245702Y351512D01*
X245745Y351583D01*
X245789Y351648D01*
X245838Y351708D01*
X245942Y351817D01*
X246051Y351905D01*
X246160Y351976D01*
X246275Y352030D01*
X246384Y352068D01*
X246488Y352101D01*
X246581Y352118D01*
X246657Y352129D01*
X246717Y352139D01*
X246772D01*
X246881Y352134D01*
D02*
G37*
G36*
X256349D02*
X256452Y352129D01*
X256556Y352112D01*
X256649Y352096D01*
X256731Y352074D01*
X256813Y352047D01*
X256884Y352019D01*
X256955Y351992D01*
X257009Y351965D01*
X257064Y351937D01*
X257108Y351916D01*
X257146Y351888D01*
X257173Y351872D01*
X257195Y351855D01*
X257206Y351850D01*
X257211Y351845D01*
X257277Y351790D01*
X257331Y351730D01*
X257381Y351670D01*
X257424Y351610D01*
X257457Y351544D01*
X257490Y351484D01*
X257534Y351370D01*
X257555Y351266D01*
X257566Y351222D01*
X257572Y351184D01*
X257577Y351151D01*
Y351129D01*
Y351113D01*
Y351108D01*
X257572Y351020D01*
X257566Y350933D01*
X257550Y350862D01*
X257534Y350791D01*
X257506Y350725D01*
X257484Y350671D01*
X257457Y350622D01*
X257430Y350572D01*
X257402Y350534D01*
X257375Y350501D01*
X257348Y350474D01*
X257326Y350452D01*
X257293Y350425D01*
X257288Y350414D01*
X257282D01*
X257222Y350376D01*
X257157Y350343D01*
X257015Y350278D01*
X256856Y350218D01*
X256709Y350163D01*
X256638Y350141D01*
X256573Y350119D01*
X256512Y350103D01*
X256458Y350086D01*
X256414Y350076D01*
X256381Y350065D01*
X256360Y350059D01*
X256354D01*
X256239Y350032D01*
X256136Y350005D01*
X256037Y349977D01*
X255956Y349950D01*
X255874Y349928D01*
X255808Y349906D01*
X255748Y349885D01*
X255693Y349868D01*
X255650Y349852D01*
X255611Y349841D01*
X255579Y349824D01*
X255557Y349814D01*
X255535Y349808D01*
X255524Y349803D01*
X255513Y349797D01*
X255448Y349753D01*
X255399Y349704D01*
X255360Y349644D01*
X255339Y349590D01*
X255322Y349535D01*
X255317Y349491D01*
X255311Y349464D01*
Y349459D01*
Y349453D01*
X255322Y349366D01*
X255344Y349284D01*
X255377Y349218D01*
X255415Y349158D01*
X255453Y349109D01*
X255486Y349071D01*
X255508Y349049D01*
X255519Y349044D01*
X255606Y348989D01*
X255699Y348951D01*
X255803Y348918D01*
X255901Y348902D01*
X255988Y348891D01*
X256027Y348885D01*
X256059D01*
X256087Y348880D01*
X256125D01*
X256283Y348885D01*
X256420Y348907D01*
X256540Y348940D01*
X256638Y348984D01*
X256725Y349033D01*
X256796Y349087D01*
X256856Y349147D01*
X256906Y349207D01*
X256944Y349268D01*
X256971Y349328D01*
X256993Y349382D01*
X257004Y349431D01*
X257015Y349475D01*
X257020Y349508D01*
Y349530D01*
Y349535D01*
X257659D01*
X257648Y349431D01*
X257632Y349333D01*
X257604Y349240D01*
X257572Y349153D01*
X257534Y349076D01*
X257490Y349000D01*
X257446Y348934D01*
X257392Y348869D01*
X257271Y348760D01*
X257140Y348667D01*
X257004Y348590D01*
X256862Y348525D01*
X256725Y348481D01*
X256589Y348443D01*
X256463Y348416D01*
X256349Y348399D01*
X256299Y348394D01*
X256256Y348388D01*
X256218D01*
X256185Y348383D01*
X256119D01*
X255999Y348388D01*
X255885Y348399D01*
X255775Y348410D01*
X255677Y348432D01*
X255584Y348459D01*
X255497Y348487D01*
X255415Y348514D01*
X255344Y348547D01*
X255278Y348574D01*
X255224Y348601D01*
X255175Y348629D01*
X255136Y348656D01*
X255104Y348678D01*
X255082Y348689D01*
X255071Y348700D01*
X255065Y348705D01*
X254995Y348765D01*
X254935Y348831D01*
X254885Y348902D01*
X254836Y348967D01*
X254798Y349038D01*
X254771Y349104D01*
X254743Y349169D01*
X254722Y349235D01*
X254705Y349289D01*
X254694Y349344D01*
X254683Y349393D01*
X254678Y349437D01*
X254672Y349469D01*
Y349497D01*
Y349513D01*
Y349519D01*
X254678Y349611D01*
X254683Y349699D01*
X254700Y349775D01*
X254722Y349846D01*
X254743Y349912D01*
X254771Y349972D01*
X254803Y350026D01*
X254831Y350070D01*
X254858Y350114D01*
X254891Y350147D01*
X254918Y350174D01*
X254940Y350201D01*
X254962Y350218D01*
X254973Y350229D01*
X254984Y350239D01*
X254989D01*
X255055Y350278D01*
X255120Y350316D01*
X255273Y350387D01*
X255437Y350452D01*
X255595Y350507D01*
X255666Y350529D01*
X255737Y350551D01*
X255797Y350567D01*
X255852Y350583D01*
X255901Y350594D01*
X255934Y350605D01*
X255956Y350611D01*
X255961D01*
X256076Y350638D01*
X256185Y350665D01*
X256278Y350693D01*
X256360Y350714D01*
X256436Y350742D01*
X256502Y350758D01*
X256562Y350780D01*
X256611Y350796D01*
X256654Y350813D01*
X256687Y350824D01*
X256715Y350834D01*
X256736Y350845D01*
X256753Y350851D01*
X256764Y350856D01*
X256774Y350862D01*
X256829Y350900D01*
X256867Y350949D01*
X256900Y350998D01*
X256916Y351047D01*
X256927Y351097D01*
X256933Y351135D01*
X256938Y351157D01*
Y351168D01*
X256927Y351250D01*
X256906Y351320D01*
X256873Y351380D01*
X256829Y351430D01*
X256791Y351468D01*
X256758Y351495D01*
X256736Y351512D01*
X256725Y351517D01*
X256644Y351561D01*
X256551Y351588D01*
X256463Y351610D01*
X256376Y351626D01*
X256305Y351637D01*
X256245Y351643D01*
X256190D01*
X256059Y351637D01*
X255950Y351621D01*
X255852Y351593D01*
X255764Y351566D01*
X255693Y351522D01*
X255633Y351484D01*
X255579Y351435D01*
X255541Y351391D01*
X255508Y351342D01*
X255481Y351293D01*
X255459Y351255D01*
X255448Y351217D01*
X255437Y351184D01*
X255431Y351157D01*
Y351140D01*
Y351135D01*
X254792D01*
X254798Y351228D01*
X254814Y351309D01*
X254836Y351391D01*
X254864Y351468D01*
X254896Y351539D01*
X254940Y351599D01*
X255033Y351714D01*
X255142Y351812D01*
X255262Y351894D01*
X255393Y351959D01*
X255530Y352014D01*
X255661Y352058D01*
X255792Y352085D01*
X255912Y352107D01*
X256016Y352123D01*
X256108Y352134D01*
X256147D01*
X256179Y352139D01*
X256239D01*
X256349Y352134D01*
D02*
G37*
G36*
X238489Y351784D02*
X238565Y351845D01*
X238647Y351899D01*
X238729Y351948D01*
X238811Y351992D01*
X238898Y352025D01*
X238980Y352052D01*
X239133Y352096D01*
X239204Y352112D01*
X239270Y352123D01*
X239330Y352129D01*
X239379Y352134D01*
X239423Y352139D01*
X239477D01*
X239597Y352134D01*
X239712Y352118D01*
X239821Y352090D01*
X239919Y352058D01*
X240018Y352019D01*
X240105Y351976D01*
X240187Y351932D01*
X240264Y351883D01*
X240329Y351834D01*
X240389Y351790D01*
X240444Y351746D01*
X240487Y351708D01*
X240520Y351675D01*
X240542Y351648D01*
X240558Y351632D01*
X240564Y351626D01*
X240640Y351528D01*
X240706Y351419D01*
X240766Y351309D01*
X240815Y351195D01*
X240853Y351075D01*
X240891Y350960D01*
X240919Y350845D01*
X240940Y350736D01*
X240957Y350633D01*
X240973Y350540D01*
X240984Y350452D01*
X240990Y350381D01*
Y350321D01*
X240995Y350272D01*
Y350245D01*
Y350234D01*
X240990Y350081D01*
X240979Y349934D01*
X240957Y349792D01*
X240935Y349661D01*
X240908Y349540D01*
X240875Y349431D01*
X240837Y349328D01*
X240799Y349240D01*
X240766Y349158D01*
X240728Y349082D01*
X240695Y349022D01*
X240668Y348973D01*
X240646Y348934D01*
X240624Y348902D01*
X240613Y348885D01*
X240608Y348880D01*
X240531Y348793D01*
X240449Y348716D01*
X240362Y348651D01*
X240274Y348590D01*
X240182Y348547D01*
X240089Y348503D01*
X240001Y348470D01*
X239914Y348443D01*
X239832Y348427D01*
X239761Y348410D01*
X239690Y348399D01*
X239630Y348388D01*
X239581D01*
X239548Y348383D01*
X239515D01*
X239406Y348388D01*
X239297Y348405D01*
X239199Y348432D01*
X239101Y348465D01*
X239013Y348503D01*
X238926Y348541D01*
X238849Y348590D01*
X238778Y348640D01*
X238713Y348683D01*
X238653Y348732D01*
X238604Y348771D01*
X238565Y348814D01*
X238533Y348842D01*
X238511Y348869D01*
X238494Y348885D01*
X238489Y348891D01*
Y348465D01*
X237850D01*
Y353433D01*
X238489D01*
Y351784D01*
D02*
G37*
G36*
X264757Y337873D02*
X264883Y337867D01*
X265003Y337851D01*
X265112Y337829D01*
X265216Y337807D01*
X265314Y337774D01*
X265407Y337741D01*
X265489Y337703D01*
X265565Y337665D01*
X265642Y337621D01*
X265707Y337578D01*
X265767Y337528D01*
X265871Y337425D01*
X265953Y337327D01*
X266024Y337223D01*
X266078Y337119D01*
X266117Y337026D01*
X266144Y336944D01*
X266160Y336873D01*
X266171Y336819D01*
Y336797D01*
X266177Y336781D01*
Y336775D01*
Y336770D01*
X265538D01*
X265521Y336879D01*
X265494Y336972D01*
X265445Y337053D01*
X265390Y337124D01*
X265319Y337185D01*
X265248Y337234D01*
X265166Y337272D01*
X265090Y337305D01*
X265008Y337332D01*
X264932Y337348D01*
X264855Y337365D01*
X264790Y337370D01*
X264735Y337376D01*
X264697Y337381D01*
X264659D01*
X264517Y337376D01*
X264391Y337365D01*
X264293Y337343D01*
X264206Y337327D01*
X264145Y337305D01*
X264096Y337283D01*
X264074Y337272D01*
X264064Y337266D01*
X263998Y337223D01*
X263949Y337174D01*
X263911Y337124D01*
X263883Y337081D01*
X263862Y337037D01*
X263851Y337004D01*
X263840Y336982D01*
Y336977D01*
X263823Y336901D01*
X263812Y336813D01*
X263807Y336720D01*
X263802Y336633D01*
X263796Y336546D01*
Y336508D01*
Y336480D01*
Y336453D01*
Y336431D01*
Y336420D01*
Y336415D01*
X264107D01*
X264304Y336409D01*
X264490Y336398D01*
X264664Y336382D01*
X264823Y336360D01*
X264975Y336333D01*
X265112Y336300D01*
X265243Y336262D01*
X265363Y336218D01*
X265472Y336169D01*
X265576Y336120D01*
X265663Y336071D01*
X265751Y336016D01*
X265827Y335962D01*
X265893Y335901D01*
X265953Y335841D01*
X266007Y335787D01*
X266056Y335727D01*
X266100Y335667D01*
X266133Y335607D01*
X266166Y335552D01*
X266215Y335448D01*
X266248Y335350D01*
X266264Y335268D01*
X266269Y335235D01*
X266275Y335208D01*
X266280Y335186D01*
Y335170D01*
Y335159D01*
Y335154D01*
X266275Y335071D01*
X266264Y334990D01*
X266248Y334913D01*
X266226Y334842D01*
X266171Y334717D01*
X266106Y334608D01*
X266078Y334564D01*
X266046Y334520D01*
X266018Y334487D01*
X265991Y334460D01*
X265969Y334433D01*
X265953Y334416D01*
X265942Y334411D01*
X265936Y334405D01*
X265871Y334356D01*
X265800Y334313D01*
X265723Y334274D01*
X265652Y334242D01*
X265505Y334192D01*
X265363Y334160D01*
X265298Y334143D01*
X265237Y334138D01*
X265188Y334132D01*
X265139Y334127D01*
X265101Y334121D01*
X265052D01*
X264910Y334127D01*
X264779Y334143D01*
X264648Y334165D01*
X264533Y334192D01*
X264419Y334225D01*
X264315Y334263D01*
X264222Y334302D01*
X264135Y334345D01*
X264058Y334389D01*
X263993Y334427D01*
X263933Y334466D01*
X263883Y334498D01*
X263845Y334526D01*
X263818Y334553D01*
X263802Y334564D01*
X263796Y334569D01*
Y334203D01*
X263157D01*
Y336529D01*
X263163Y336671D01*
X263174Y336808D01*
X263195Y336928D01*
X263217Y337037D01*
X263245Y337135D01*
X263277Y337223D01*
X263316Y337299D01*
X263348Y337370D01*
X263387Y337425D01*
X263425Y337474D01*
X263458Y337518D01*
X263485Y337550D01*
X263507Y337572D01*
X263528Y337594D01*
X263540Y337599D01*
X263545Y337605D01*
X263621Y337654D01*
X263703Y337698D01*
X263791Y337731D01*
X263878Y337763D01*
X264058Y337812D01*
X264227Y337845D01*
X264309Y337856D01*
X264380Y337862D01*
X264451Y337873D01*
X264506D01*
X264555Y337878D01*
X264620D01*
X264757Y337873D01*
D02*
G37*
G36*
X258969D02*
X259095Y337867D01*
X259215Y337851D01*
X259324Y337829D01*
X259428Y337807D01*
X259526Y337774D01*
X259619Y337741D01*
X259701Y337703D01*
X259777Y337665D01*
X259854Y337621D01*
X259920Y337578D01*
X259980Y337528D01*
X260083Y337425D01*
X260165Y337327D01*
X260236Y337223D01*
X260291Y337119D01*
X260329Y337026D01*
X260356Y336944D01*
X260373Y336873D01*
X260384Y336819D01*
Y336797D01*
X260389Y336781D01*
Y336775D01*
Y336770D01*
X259750D01*
X259734Y336879D01*
X259706Y336972D01*
X259657Y337053D01*
X259603Y337124D01*
X259532Y337185D01*
X259461Y337234D01*
X259379Y337272D01*
X259302Y337305D01*
X259221Y337332D01*
X259144Y337348D01*
X259068Y337365D01*
X259002Y337370D01*
X258948Y337376D01*
X258909Y337381D01*
X258871D01*
X258729Y337376D01*
X258604Y337365D01*
X258505Y337343D01*
X258418Y337327D01*
X258358Y337305D01*
X258309Y337283D01*
X258287Y337272D01*
X258276Y337266D01*
X258210Y337223D01*
X258161Y337174D01*
X258123Y337124D01*
X258096Y337081D01*
X258074Y337037D01*
X258063Y337004D01*
X258052Y336982D01*
Y336977D01*
X258036Y336901D01*
X258025Y336813D01*
X258019Y336720D01*
X258014Y336633D01*
X258009Y336546D01*
Y336508D01*
Y336480D01*
Y336453D01*
Y336431D01*
Y336420D01*
Y336415D01*
X258320D01*
X258516Y336409D01*
X258702Y336398D01*
X258877Y336382D01*
X259035Y336360D01*
X259188Y336333D01*
X259324Y336300D01*
X259455Y336262D01*
X259576Y336218D01*
X259685Y336169D01*
X259788Y336120D01*
X259876Y336071D01*
X259963Y336016D01*
X260040Y335962D01*
X260105Y335901D01*
X260165Y335841D01*
X260220Y335787D01*
X260269Y335727D01*
X260313Y335667D01*
X260345Y335607D01*
X260378Y335552D01*
X260427Y335448D01*
X260460Y335350D01*
X260476Y335268D01*
X260482Y335235D01*
X260487Y335208D01*
X260493Y335186D01*
Y335170D01*
Y335159D01*
Y335154D01*
X260487Y335071D01*
X260476Y334990D01*
X260460Y334913D01*
X260438Y334842D01*
X260384Y334717D01*
X260318Y334608D01*
X260291Y334564D01*
X260258Y334520D01*
X260231Y334487D01*
X260203Y334460D01*
X260182Y334433D01*
X260165Y334416D01*
X260154Y334411D01*
X260149Y334405D01*
X260083Y334356D01*
X260012Y334313D01*
X259936Y334274D01*
X259865Y334242D01*
X259717Y334192D01*
X259576Y334160D01*
X259510Y334143D01*
X259450Y334138D01*
X259401Y334132D01*
X259352Y334127D01*
X259313Y334121D01*
X259264D01*
X259122Y334127D01*
X258991Y334143D01*
X258860Y334165D01*
X258746Y334192D01*
X258631Y334225D01*
X258527Y334263D01*
X258434Y334302D01*
X258347Y334345D01*
X258271Y334389D01*
X258205Y334427D01*
X258145Y334466D01*
X258096Y334498D01*
X258058Y334526D01*
X258030Y334553D01*
X258014Y334564D01*
X258009Y334569D01*
Y334203D01*
X257370D01*
Y336529D01*
X257375Y336671D01*
X257386Y336808D01*
X257408Y336928D01*
X257430Y337037D01*
X257457Y337135D01*
X257490Y337223D01*
X257528Y337299D01*
X257561Y337370D01*
X257599Y337425D01*
X257637Y337474D01*
X257670Y337518D01*
X257697Y337550D01*
X257719Y337572D01*
X257741Y337594D01*
X257752Y337599D01*
X257757Y337605D01*
X257834Y337654D01*
X257916Y337698D01*
X258003Y337731D01*
X258090Y337763D01*
X258271Y337812D01*
X258440Y337845D01*
X258522Y337856D01*
X258593Y337862D01*
X258664Y337873D01*
X258718D01*
X258767Y337878D01*
X258833D01*
X258969Y337873D01*
D02*
G37*
G36*
X243540D02*
X243665Y337867D01*
X243785Y337851D01*
X243894Y337829D01*
X243998Y337807D01*
X244096Y337774D01*
X244189Y337741D01*
X244271Y337703D01*
X244348Y337665D01*
X244424Y337621D01*
X244490Y337578D01*
X244550Y337528D01*
X244653Y337425D01*
X244735Y337327D01*
X244806Y337223D01*
X244861Y337119D01*
X244899Y337026D01*
X244926Y336944D01*
X244943Y336873D01*
X244954Y336819D01*
Y336797D01*
X244959Y336781D01*
Y336775D01*
Y336770D01*
X244320D01*
X244304Y336879D01*
X244277Y336972D01*
X244227Y337053D01*
X244173Y337124D01*
X244102Y337185D01*
X244031Y337234D01*
X243949Y337272D01*
X243872Y337305D01*
X243791Y337332D01*
X243714Y337348D01*
X243638Y337365D01*
X243572Y337370D01*
X243518Y337376D01*
X243479Y337381D01*
X243441D01*
X243299Y337376D01*
X243174Y337365D01*
X243075Y337343D01*
X242988Y337327D01*
X242928Y337305D01*
X242879Y337283D01*
X242857Y337272D01*
X242846Y337266D01*
X242780Y337223D01*
X242731Y337174D01*
X242693Y337124D01*
X242666Y337081D01*
X242644Y337037D01*
X242633Y337004D01*
X242622Y336982D01*
Y336977D01*
X242606Y336901D01*
X242595Y336813D01*
X242589Y336720D01*
X242584Y336633D01*
X242579Y336546D01*
Y336508D01*
Y336480D01*
Y336453D01*
Y336431D01*
Y336420D01*
Y336415D01*
X242890D01*
X243086Y336409D01*
X243272Y336398D01*
X243447Y336382D01*
X243605Y336360D01*
X243758Y336333D01*
X243894Y336300D01*
X244025Y336262D01*
X244145Y336218D01*
X244255Y336169D01*
X244358Y336120D01*
X244446Y336071D01*
X244533Y336016D01*
X244610Y335962D01*
X244675Y335901D01*
X244735Y335841D01*
X244790Y335787D01*
X244839Y335727D01*
X244883Y335667D01*
X244915Y335607D01*
X244948Y335552D01*
X244997Y335448D01*
X245030Y335350D01*
X245046Y335268D01*
X245052Y335235D01*
X245057Y335208D01*
X245063Y335186D01*
Y335170D01*
Y335159D01*
Y335154D01*
X245057Y335071D01*
X245046Y334990D01*
X245030Y334913D01*
X245008Y334842D01*
X244954Y334717D01*
X244888Y334608D01*
X244861Y334564D01*
X244828Y334520D01*
X244801Y334487D01*
X244773Y334460D01*
X244752Y334433D01*
X244735Y334416D01*
X244724Y334411D01*
X244719Y334405D01*
X244653Y334356D01*
X244582Y334313D01*
X244506Y334274D01*
X244435Y334242D01*
X244287Y334192D01*
X244145Y334160D01*
X244080Y334143D01*
X244020Y334138D01*
X243971Y334132D01*
X243922Y334127D01*
X243883Y334121D01*
X243834D01*
X243692Y334127D01*
X243561Y334143D01*
X243430Y334165D01*
X243316Y334192D01*
X243201Y334225D01*
X243097Y334263D01*
X243004Y334302D01*
X242917Y334345D01*
X242841Y334389D01*
X242775Y334427D01*
X242715Y334466D01*
X242666Y334498D01*
X242628Y334526D01*
X242600Y334553D01*
X242584Y334564D01*
X242579Y334569D01*
Y334203D01*
X241940D01*
Y336529D01*
X241945Y336671D01*
X241956Y336808D01*
X241978Y336928D01*
X242000Y337037D01*
X242027Y337135D01*
X242060Y337223D01*
X242098Y337299D01*
X242131Y337370D01*
X242169Y337425D01*
X242207Y337474D01*
X242240Y337518D01*
X242267Y337550D01*
X242289Y337572D01*
X242311Y337594D01*
X242322Y337599D01*
X242327Y337605D01*
X242404Y337654D01*
X242486Y337698D01*
X242573Y337731D01*
X242660Y337763D01*
X242841Y337812D01*
X243010Y337845D01*
X243092Y337856D01*
X243163Y337862D01*
X243234Y337873D01*
X243288D01*
X243337Y337878D01*
X243403D01*
X243540Y337873D01*
D02*
G37*
G36*
X218926D02*
X219051Y337867D01*
X219172Y337851D01*
X219281Y337829D01*
X219384Y337807D01*
X219483Y337774D01*
X219576Y337741D01*
X219657Y337703D01*
X219734Y337665D01*
X219810Y337621D01*
X219876Y337578D01*
X219936Y337528D01*
X220040Y337425D01*
X220122Y337327D01*
X220193Y337223D01*
X220247Y337119D01*
X220285Y337026D01*
X220313Y336944D01*
X220329Y336873D01*
X220340Y336819D01*
Y336797D01*
X220345Y336781D01*
Y336775D01*
Y336770D01*
X219707D01*
X219690Y336879D01*
X219663Y336972D01*
X219614Y337053D01*
X219559Y337124D01*
X219488Y337185D01*
X219417Y337234D01*
X219335Y337272D01*
X219259Y337305D01*
X219177Y337332D01*
X219100Y337348D01*
X219024Y337365D01*
X218959Y337370D01*
X218904Y337376D01*
X218866Y337381D01*
X218828D01*
X218686Y337376D01*
X218560Y337365D01*
X218462Y337343D01*
X218374Y337327D01*
X218314Y337305D01*
X218265Y337283D01*
X218243Y337272D01*
X218232Y337266D01*
X218167Y337223D01*
X218118Y337174D01*
X218079Y337124D01*
X218052Y337081D01*
X218030Y337037D01*
X218019Y337004D01*
X218008Y336982D01*
Y336977D01*
X217992Y336901D01*
X217981Y336813D01*
X217976Y336720D01*
X217970Y336633D01*
X217965Y336546D01*
Y336508D01*
Y336480D01*
Y336453D01*
Y336431D01*
Y336420D01*
Y336415D01*
X218276D01*
X218473Y336409D01*
X218658Y336398D01*
X218833Y336382D01*
X218991Y336360D01*
X219144Y336333D01*
X219281Y336300D01*
X219412Y336262D01*
X219532Y336218D01*
X219641Y336169D01*
X219745Y336120D01*
X219832Y336071D01*
X219919Y336016D01*
X219996Y335962D01*
X220061Y335901D01*
X220122Y335841D01*
X220176Y335787D01*
X220225Y335727D01*
X220269Y335667D01*
X220302Y335607D01*
X220335Y335552D01*
X220384Y335448D01*
X220416Y335350D01*
X220433Y335268D01*
X220438Y335235D01*
X220444Y335208D01*
X220449Y335186D01*
Y335170D01*
Y335159D01*
Y335154D01*
X220444Y335071D01*
X220433Y334990D01*
X220416Y334913D01*
X220394Y334842D01*
X220340Y334717D01*
X220274Y334608D01*
X220247Y334564D01*
X220214Y334520D01*
X220187Y334487D01*
X220160Y334460D01*
X220138Y334433D01*
X220122Y334416D01*
X220111Y334411D01*
X220105Y334405D01*
X220040Y334356D01*
X219969Y334313D01*
X219892Y334274D01*
X219821Y334242D01*
X219674Y334192D01*
X219532Y334160D01*
X219466Y334143D01*
X219406Y334138D01*
X219357Y334132D01*
X219308Y334127D01*
X219270Y334121D01*
X219221D01*
X219079Y334127D01*
X218948Y334143D01*
X218817Y334165D01*
X218702Y334192D01*
X218587Y334225D01*
X218483Y334263D01*
X218391Y334302D01*
X218303Y334345D01*
X218227Y334389D01*
X218161Y334427D01*
X218101Y334466D01*
X218052Y334498D01*
X218014Y334526D01*
X217987Y334553D01*
X217970Y334564D01*
X217965Y334569D01*
Y334203D01*
X217326D01*
Y336529D01*
X217332Y336671D01*
X217342Y336808D01*
X217364Y336928D01*
X217386Y337037D01*
X217413Y337135D01*
X217446Y337223D01*
X217484Y337299D01*
X217517Y337370D01*
X217555Y337425D01*
X217594Y337474D01*
X217626Y337518D01*
X217654Y337550D01*
X217675Y337572D01*
X217697Y337594D01*
X217708Y337599D01*
X217714Y337605D01*
X217790Y337654D01*
X217872Y337698D01*
X217959Y337731D01*
X218047Y337763D01*
X218227Y337812D01*
X218396Y337845D01*
X218478Y337856D01*
X218549Y337862D01*
X218620Y337873D01*
X218675D01*
X218724Y337878D01*
X218789D01*
X218926Y337873D01*
D02*
G37*
G36*
X281039Y334203D02*
X280411D01*
Y338429D01*
X278997Y334203D01*
X278407D01*
X276987Y338429D01*
Y334203D01*
X276365D01*
Y339172D01*
X277353D01*
X278702Y335028D01*
X280050Y339172D01*
X281039D01*
Y334203D01*
D02*
G37*
G36*
X240018D02*
X240078Y334050D01*
X240138Y333920D01*
X240198Y333799D01*
X240264Y333701D01*
X240329Y333619D01*
X240394Y333548D01*
X240460Y333488D01*
X240520Y333444D01*
X240575Y333406D01*
X240629Y333379D01*
X240673Y333363D01*
X240717Y333352D01*
X240749Y333341D01*
X240771Y333335D01*
X240793D01*
X240908Y333341D01*
X240957Y333352D01*
X241001Y333363D01*
X241044Y333368D01*
X241072Y333379D01*
X241093Y333384D01*
X241099D01*
Y332795D01*
X241033Y332778D01*
X240962Y332767D01*
X240891Y332756D01*
X240826Y332751D01*
X240771D01*
X240722Y332746D01*
X240684D01*
X240569Y332756D01*
X240465Y332778D01*
X240373Y332806D01*
X240291Y332844D01*
X240231Y332882D01*
X240182Y332909D01*
X240154Y332931D01*
X240143Y332942D01*
X240061Y333019D01*
X239990Y333095D01*
X239930Y333177D01*
X239881Y333248D01*
X239838Y333313D01*
X239810Y333368D01*
X239789Y333401D01*
X239783Y333406D01*
Y333412D01*
X239756Y333466D01*
X239728Y333526D01*
X239668Y333652D01*
X239614Y333783D01*
X239559Y333914D01*
X239515Y334029D01*
X239494Y334078D01*
X239477Y334121D01*
X239461Y334154D01*
X239455Y334182D01*
X239444Y334198D01*
Y334203D01*
X238085Y337796D01*
X238778D01*
X239728Y334984D01*
X240684Y337796D01*
X241377D01*
X240018Y334203D01*
D02*
G37*
G36*
X226209D02*
X226270Y334050D01*
X226330Y333920D01*
X226390Y333799D01*
X226455Y333701D01*
X226521Y333619D01*
X226586Y333548D01*
X226652Y333488D01*
X226712Y333444D01*
X226766Y333406D01*
X226821Y333379D01*
X226865Y333363D01*
X226908Y333352D01*
X226941Y333341D01*
X226963Y333335D01*
X226985D01*
X227099Y333341D01*
X227149Y333352D01*
X227192Y333363D01*
X227236Y333368D01*
X227263Y333379D01*
X227285Y333384D01*
X227291D01*
Y332795D01*
X227225Y332778D01*
X227154Y332767D01*
X227083Y332756D01*
X227017Y332751D01*
X226963D01*
X226914Y332746D01*
X226876D01*
X226761Y332756D01*
X226657Y332778D01*
X226564Y332806D01*
X226482Y332844D01*
X226422Y332882D01*
X226373Y332909D01*
X226346Y332931D01*
X226335Y332942D01*
X226253Y333019D01*
X226182Y333095D01*
X226122Y333177D01*
X226073Y333248D01*
X226029Y333313D01*
X226002Y333368D01*
X225980Y333401D01*
X225975Y333406D01*
Y333412D01*
X225947Y333466D01*
X225920Y333526D01*
X225860Y333652D01*
X225805Y333783D01*
X225751Y333914D01*
X225707Y334029D01*
X225685Y334078D01*
X225669Y334121D01*
X225653Y334154D01*
X225647Y334182D01*
X225636Y334198D01*
Y334203D01*
X224277Y337796D01*
X224970D01*
X225920Y334984D01*
X226876Y337796D01*
X227569D01*
X226209Y334203D01*
D02*
G37*
G36*
X267908Y337796D02*
X268355D01*
Y337299D01*
X267908D01*
Y335257D01*
Y335121D01*
X267902Y335001D01*
X267891Y334897D01*
X267886Y334809D01*
X267875Y334744D01*
X267869Y334695D01*
X267864Y334662D01*
Y334651D01*
X267842Y334575D01*
X267809Y334504D01*
X267771Y334444D01*
X267733Y334395D01*
X267700Y334351D01*
X267667Y334324D01*
X267645Y334302D01*
X267640Y334296D01*
X267564Y334253D01*
X267471Y334220D01*
X267372Y334192D01*
X267280Y334176D01*
X267198Y334165D01*
X267159D01*
X267127Y334160D01*
X266968D01*
X266886Y334165D01*
X266810Y334171D01*
X266739Y334182D01*
X266684Y334187D01*
X266641Y334192D01*
X266613Y334198D01*
X266602D01*
Y334678D01*
X266717Y334662D01*
X266772Y334657D01*
X266821D01*
X266865Y334651D01*
X266925D01*
X266979Y334657D01*
X267034Y334667D01*
X267077Y334684D01*
X267110Y334700D01*
X267143Y334717D01*
X267165Y334733D01*
X267176Y334744D01*
X267181Y334749D01*
X267198Y334771D01*
X267214Y334799D01*
X267236Y334864D01*
X267252Y334946D01*
X267263Y335022D01*
X267269Y335099D01*
X267274Y335159D01*
Y335186D01*
Y335203D01*
Y335213D01*
Y335219D01*
Y337299D01*
X266690D01*
Y337796D01*
X267274D01*
Y338691D01*
X267908D01*
Y337796D01*
D02*
G37*
G36*
X249857D02*
X250304D01*
Y337299D01*
X249857D01*
Y335257D01*
Y335121D01*
X249851Y335001D01*
X249840Y334897D01*
X249835Y334809D01*
X249824Y334744D01*
X249818Y334695D01*
X249813Y334662D01*
Y334651D01*
X249791Y334575D01*
X249758Y334504D01*
X249720Y334444D01*
X249682Y334395D01*
X249649Y334351D01*
X249617Y334324D01*
X249595Y334302D01*
X249589Y334296D01*
X249513Y334253D01*
X249420Y334220D01*
X249322Y334192D01*
X249229Y334176D01*
X249147Y334165D01*
X249109D01*
X249076Y334160D01*
X248918D01*
X248836Y334165D01*
X248759Y334171D01*
X248688Y334182D01*
X248634Y334187D01*
X248590Y334192D01*
X248563Y334198D01*
X248552D01*
Y334678D01*
X248666Y334662D01*
X248721Y334657D01*
X248770D01*
X248814Y334651D01*
X248874D01*
X248928Y334657D01*
X248983Y334667D01*
X249027Y334684D01*
X249060Y334700D01*
X249092Y334717D01*
X249114Y334733D01*
X249125Y334744D01*
X249131Y334749D01*
X249147Y334771D01*
X249163Y334799D01*
X249185Y334864D01*
X249201Y334946D01*
X249212Y335022D01*
X249218Y335099D01*
X249223Y335159D01*
Y335186D01*
Y335203D01*
Y335213D01*
Y335219D01*
Y337299D01*
X248639D01*
Y337796D01*
X249223D01*
Y338691D01*
X249857D01*
Y337796D01*
D02*
G37*
G36*
X275349Y335443D02*
X275344Y335323D01*
X275333Y335208D01*
X275317Y335104D01*
X275295Y335006D01*
X275268Y334913D01*
X275235Y334831D01*
X275202Y334749D01*
X275158Y334678D01*
X275115Y334613D01*
X275065Y334553D01*
X274962Y334444D01*
X274853Y334356D01*
X274738Y334285D01*
X274629Y334231D01*
X274519Y334192D01*
X274416Y334160D01*
X274323Y334143D01*
X274247Y334132D01*
X274186Y334127D01*
X274159Y334121D01*
X274132D01*
X274023Y334127D01*
X273914Y334143D01*
X273810Y334171D01*
X273711Y334203D01*
X273619Y334247D01*
X273526Y334291D01*
X273444Y334340D01*
X273368Y334389D01*
X273302Y334438D01*
X273236Y334487D01*
X273187Y334531D01*
X273138Y334575D01*
X273105Y334608D01*
X273078Y334635D01*
X273062Y334651D01*
X273056Y334657D01*
Y334203D01*
X272417D01*
Y337796D01*
X273056D01*
Y335219D01*
X273138Y335121D01*
X273225Y335028D01*
X273313Y334951D01*
X273395Y334886D01*
X273477Y334831D01*
X273559Y334788D01*
X273635Y334749D01*
X273711Y334717D01*
X273777Y334695D01*
X273843Y334678D01*
X273897Y334662D01*
X273941Y334657D01*
X273979Y334651D01*
X274012Y334646D01*
X274034D01*
X274159Y334657D01*
X274268Y334678D01*
X274356Y334706D01*
X274427Y334744D01*
X274481Y334777D01*
X274519Y334809D01*
X274547Y334831D01*
X274552Y334837D01*
X274580Y334875D01*
X274601Y334919D01*
X274640Y335017D01*
X274667Y335126D01*
X274683Y335230D01*
X274694Y335323D01*
X274700Y335361D01*
X274705Y335399D01*
Y335426D01*
Y335454D01*
Y335465D01*
Y335470D01*
Y337796D01*
X275349D01*
Y335443D01*
D02*
G37*
G36*
X229726Y337873D02*
X229857Y337856D01*
X229982Y337834D01*
X230097Y337802D01*
X230206Y337763D01*
X230304Y337720D01*
X230397Y337676D01*
X230485Y337627D01*
X230556Y337578D01*
X230621Y337534D01*
X230681Y337490D01*
X230725Y337452D01*
X230763Y337425D01*
X230790Y337398D01*
X230807Y337381D01*
X230812Y337376D01*
X230894Y337277D01*
X230965Y337174D01*
X231025Y337064D01*
X231080Y336950D01*
X231123Y336835D01*
X231162Y336720D01*
X231194Y336611D01*
X231216Y336502D01*
X231238Y336398D01*
X231249Y336305D01*
X231260Y336218D01*
X231271Y336147D01*
Y336082D01*
X231276Y336038D01*
Y336011D01*
Y336000D01*
X231271Y335836D01*
X231255Y335683D01*
X231233Y335541D01*
X231200Y335410D01*
X231167Y335284D01*
X231123Y335170D01*
X231080Y335066D01*
X231036Y334973D01*
X230992Y334891D01*
X230949Y334815D01*
X230905Y334755D01*
X230872Y334706D01*
X230839Y334667D01*
X230818Y334635D01*
X230801Y334618D01*
X230796Y334613D01*
X230703Y334526D01*
X230599Y334449D01*
X230496Y334384D01*
X230392Y334329D01*
X230283Y334280D01*
X230179Y334242D01*
X230075Y334209D01*
X229977Y334182D01*
X229879Y334165D01*
X229797Y334149D01*
X229715Y334138D01*
X229649Y334127D01*
X229595D01*
X229551Y334121D01*
X229518D01*
X229403Y334127D01*
X229294Y334132D01*
X229191Y334149D01*
X229092Y334171D01*
X229005Y334192D01*
X228918Y334214D01*
X228836Y334242D01*
X228765Y334274D01*
X228699Y334302D01*
X228645Y334329D01*
X228595Y334351D01*
X228552Y334373D01*
X228519Y334395D01*
X228497Y334411D01*
X228481Y334416D01*
X228475Y334422D01*
X228399Y334482D01*
X228328Y334547D01*
X228268Y334613D01*
X228213Y334684D01*
X228164Y334755D01*
X228126Y334826D01*
X228088Y334891D01*
X228060Y334962D01*
X228033Y335022D01*
X228017Y335083D01*
X228000Y335137D01*
X227984Y335181D01*
X227978Y335219D01*
X227973Y335252D01*
X227968Y335268D01*
Y335274D01*
X228628D01*
X228634Y335219D01*
X228645Y335164D01*
X228683Y335066D01*
X228727Y334984D01*
X228781Y334913D01*
X228830Y334859D01*
X228874Y334820D01*
X228907Y334799D01*
X228912Y334788D01*
X228918D01*
X229021Y334733D01*
X229125Y334689D01*
X229223Y334662D01*
X229316Y334640D01*
X229398Y334629D01*
X229431Y334624D01*
X229464D01*
X229485Y334618D01*
X229518D01*
X229600Y334624D01*
X229677Y334629D01*
X229824Y334667D01*
X229949Y334711D01*
X230059Y334771D01*
X230102Y334799D01*
X230146Y334826D01*
X230184Y334848D01*
X230212Y334870D01*
X230234Y334891D01*
X230250Y334908D01*
X230261Y334913D01*
X230266Y334919D01*
X230321Y334979D01*
X230370Y335044D01*
X230414Y335115D01*
X230446Y335192D01*
X230512Y335345D01*
X230550Y335497D01*
X230567Y335568D01*
X230583Y335634D01*
X230594Y335694D01*
X230599Y335743D01*
X230605Y335787D01*
X230610Y335820D01*
Y335841D01*
Y335847D01*
X227902D01*
Y336000D01*
X227907Y336163D01*
X227924Y336316D01*
X227946Y336458D01*
X227973Y336595D01*
X228006Y336720D01*
X228049Y336830D01*
X228088Y336933D01*
X228131Y337032D01*
X228175Y337114D01*
X228213Y337185D01*
X228252Y337245D01*
X228290Y337294D01*
X228317Y337337D01*
X228339Y337365D01*
X228355Y337381D01*
X228361Y337387D01*
X228448Y337474D01*
X228546Y337550D01*
X228645Y337616D01*
X228748Y337670D01*
X228847Y337720D01*
X228950Y337758D01*
X229049Y337791D01*
X229147Y337818D01*
X229240Y337834D01*
X229322Y337851D01*
X229398Y337862D01*
X229464Y337873D01*
X229513D01*
X229556Y337878D01*
X229589D01*
X229726Y337873D01*
D02*
G37*
G36*
X222398D02*
X222529Y337856D01*
X222655Y337834D01*
X222770Y337802D01*
X222879Y337763D01*
X222983Y337725D01*
X223075Y337676D01*
X223157Y337632D01*
X223234Y337589D01*
X223299Y337545D01*
X223354Y337501D01*
X223397Y337463D01*
X223436Y337430D01*
X223463Y337408D01*
X223479Y337392D01*
X223485Y337387D01*
X223567Y337288D01*
X223638Y337185D01*
X223698Y337075D01*
X223752Y336961D01*
X223796Y336846D01*
X223829Y336731D01*
X223862Y336617D01*
X223884Y336508D01*
X223905Y336404D01*
X223922Y336311D01*
X223927Y336224D01*
X223938Y336147D01*
Y336087D01*
X223943Y336038D01*
Y336011D01*
Y336000D01*
X223938Y335836D01*
X223922Y335683D01*
X223900Y335541D01*
X223873Y335405D01*
X223834Y335279D01*
X223796Y335170D01*
X223758Y335066D01*
X223714Y334973D01*
X223671Y334886D01*
X223632Y334815D01*
X223589Y334755D01*
X223556Y334706D01*
X223529Y334662D01*
X223507Y334635D01*
X223490Y334618D01*
X223485Y334613D01*
X223392Y334526D01*
X223299Y334449D01*
X223201Y334384D01*
X223097Y334329D01*
X222993Y334280D01*
X222890Y334242D01*
X222792Y334209D01*
X222699Y334182D01*
X222606Y334165D01*
X222524Y334149D01*
X222447Y334138D01*
X222382Y334127D01*
X222327D01*
X222289Y334121D01*
X222256D01*
X222147Y334127D01*
X222043Y334132D01*
X221945Y334149D01*
X221852Y334165D01*
X221765Y334192D01*
X221689Y334214D01*
X221612Y334242D01*
X221541Y334269D01*
X221481Y334296D01*
X221427Y334324D01*
X221383Y334351D01*
X221345Y334373D01*
X221312Y334389D01*
X221290Y334405D01*
X221279Y334411D01*
X221274Y334416D01*
X221203Y334476D01*
X221137Y334537D01*
X221082Y334608D01*
X221033Y334673D01*
X220990Y334744D01*
X220952Y334815D01*
X220891Y334957D01*
X220864Y335022D01*
X220848Y335083D01*
X220831Y335132D01*
X220820Y335181D01*
X220815Y335219D01*
X220810Y335252D01*
X220804Y335268D01*
Y335274D01*
X221465D01*
X221476Y335164D01*
X221508Y335066D01*
X221547Y334979D01*
X221590Y334913D01*
X221634Y334859D01*
X221667Y334820D01*
X221694Y334793D01*
X221705Y334788D01*
X221792Y334733D01*
X221885Y334689D01*
X221978Y334662D01*
X222065Y334640D01*
X222142Y334629D01*
X222202Y334624D01*
X222224Y334618D01*
X222256D01*
X222338Y334624D01*
X222420Y334635D01*
X222497Y334651D01*
X222568Y334673D01*
X222693Y334728D01*
X222797Y334793D01*
X222846Y334820D01*
X222884Y334853D01*
X222917Y334880D01*
X222950Y334908D01*
X222972Y334930D01*
X222988Y334946D01*
X222993Y334957D01*
X222999Y334962D01*
X223048Y335033D01*
X223092Y335110D01*
X223130Y335186D01*
X223163Y335274D01*
X223212Y335443D01*
X223245Y335612D01*
X223261Y335688D01*
X223267Y335765D01*
X223272Y335830D01*
X223277Y335885D01*
X223283Y335934D01*
Y335967D01*
Y335994D01*
Y336000D01*
X223277Y336125D01*
X223272Y336240D01*
X223256Y336349D01*
X223239Y336453D01*
X223217Y336546D01*
X223196Y336628D01*
X223168Y336704D01*
X223141Y336775D01*
X223114Y336835D01*
X223086Y336884D01*
X223064Y336933D01*
X223043Y336966D01*
X223026Y336994D01*
X223010Y337015D01*
X223004Y337026D01*
X222999Y337032D01*
X222944Y337092D01*
X222884Y337146D01*
X222824Y337195D01*
X222764Y337234D01*
X222699Y337266D01*
X222639Y337294D01*
X222518Y337337D01*
X222415Y337365D01*
X222371Y337370D01*
X222333Y337376D01*
X222300Y337381D01*
X222256D01*
X222142Y337376D01*
X222032Y337354D01*
X221940Y337327D01*
X221858Y337299D01*
X221792Y337266D01*
X221743Y337239D01*
X221716Y337217D01*
X221705Y337212D01*
X221628Y337141D01*
X221568Y337064D01*
X221530Y336982D01*
X221498Y336901D01*
X221481Y336830D01*
X221470Y336775D01*
X221465Y336753D01*
Y336737D01*
Y336726D01*
Y336720D01*
X220804D01*
X220820Y336824D01*
X220842Y336917D01*
X220875Y337010D01*
X220908Y337092D01*
X220946Y337168D01*
X220984Y337239D01*
X221022Y337305D01*
X221066Y337359D01*
X221104Y337408D01*
X221143Y337458D01*
X221181Y337490D01*
X221208Y337523D01*
X221235Y337545D01*
X221257Y337567D01*
X221268Y337572D01*
X221274Y337578D01*
X221350Y337632D01*
X221427Y337676D01*
X221508Y337720D01*
X221590Y337752D01*
X221760Y337807D01*
X221912Y337840D01*
X221983Y337851D01*
X222049Y337862D01*
X222109Y337867D01*
X222158Y337873D01*
X222202Y337878D01*
X222256D01*
X222398Y337873D01*
D02*
G37*
G36*
X261186Y339254D02*
X261274Y339248D01*
X261350Y339232D01*
X261426Y339210D01*
X261563Y339156D01*
X261678Y339079D01*
X261776Y338997D01*
X261858Y338899D01*
X261923Y338795D01*
X261978Y338691D01*
X262016Y338582D01*
X262049Y338479D01*
X262071Y338386D01*
X262087Y338298D01*
X262098Y338222D01*
X262104Y338167D01*
Y338145D01*
Y338129D01*
Y338124D01*
Y338118D01*
Y337796D01*
X262633D01*
Y337299D01*
X262104D01*
Y334203D01*
X261465D01*
Y337299D01*
X260782D01*
Y337796D01*
X261465D01*
Y338113D01*
X261459Y338222D01*
X261448Y338320D01*
X261426Y338397D01*
X261405Y338457D01*
X261388Y338506D01*
X261366Y338539D01*
X261355Y338555D01*
X261350Y338561D01*
X261301Y338604D01*
X261246Y338637D01*
X261186Y338659D01*
X261132Y338675D01*
X261083Y338686D01*
X261039Y338691D01*
X261001D01*
X260859Y338686D01*
X260793Y338681D01*
X260733Y338675D01*
X260689Y338670D01*
X260651Y338664D01*
X260624Y338659D01*
X260618D01*
Y339216D01*
X260689Y339232D01*
X260766Y339243D01*
X260842Y339248D01*
X260919Y339254D01*
X260990Y339259D01*
X261093D01*
X261186Y339254D01*
D02*
G37*
G36*
X255055Y334203D02*
X254361D01*
X253815Y335716D01*
X251729D01*
X251156Y334203D01*
X250414D01*
X252439Y339172D01*
X253149D01*
X255055Y334203D01*
D02*
G37*
G36*
X248022D02*
X247383D01*
Y337796D01*
X248022D01*
Y334203D01*
D02*
G37*
G36*
X246439D02*
X245800D01*
Y339172D01*
X246439D01*
Y334203D01*
D02*
G37*
G36*
X235595D02*
X233733D01*
X233570Y334209D01*
X233411Y334220D01*
X233269Y334236D01*
X233133Y334263D01*
X233013Y334291D01*
X232898Y334324D01*
X232794Y334356D01*
X232701Y334389D01*
X232620Y334422D01*
X232548Y334460D01*
X232488Y334487D01*
X232439Y334515D01*
X232401Y334542D01*
X232374Y334558D01*
X232357Y334569D01*
X232352Y334575D01*
X232270Y334646D01*
X232194Y334728D01*
X232134Y334809D01*
X232079Y334897D01*
X232030Y334990D01*
X231992Y335077D01*
X231959Y335164D01*
X231937Y335252D01*
X231915Y335328D01*
X231904Y335405D01*
X231893Y335470D01*
X231882Y335530D01*
Y335579D01*
X231877Y335612D01*
Y335639D01*
Y335645D01*
Y335721D01*
X231888Y335798D01*
X231915Y335934D01*
X231953Y336060D01*
X231997Y336175D01*
X232019Y336218D01*
X232041Y336262D01*
X232063Y336300D01*
X232079Y336327D01*
X232095Y336355D01*
X232106Y336371D01*
X232112Y336382D01*
X232117Y336387D01*
X232166Y336448D01*
X232215Y336502D01*
X232330Y336595D01*
X232450Y336677D01*
X232565Y336737D01*
X232674Y336786D01*
X232718Y336802D01*
X232756Y336819D01*
X232789Y336830D01*
X232816Y336835D01*
X232832Y336841D01*
X232838D01*
X232712Y336912D01*
X232603Y336982D01*
X232505Y337064D01*
X232423Y337152D01*
X232357Y337239D01*
X232297Y337327D01*
X232248Y337419D01*
X232210Y337501D01*
X232183Y337583D01*
X232161Y337660D01*
X232144Y337725D01*
X232134Y337785D01*
X232128Y337834D01*
X232123Y337873D01*
Y337900D01*
Y337905D01*
X232128Y338015D01*
X232144Y338113D01*
X232166Y338211D01*
X232194Y338298D01*
X232226Y338380D01*
X232265Y338457D01*
X232308Y338528D01*
X232347Y338593D01*
X232390Y338648D01*
X232434Y338697D01*
X232472Y338735D01*
X232505Y338773D01*
X232532Y338801D01*
X232554Y338817D01*
X232570Y338828D01*
X232576Y338833D01*
X232663Y338894D01*
X232761Y338943D01*
X232860Y338992D01*
X232963Y339030D01*
X233067Y339063D01*
X233171Y339090D01*
X233367Y339128D01*
X233460Y339145D01*
X233548Y339156D01*
X233624Y339161D01*
X233690Y339167D01*
X233744Y339172D01*
X235595D01*
Y334203D01*
D02*
G37*
G36*
X214776Y337873D02*
X214885Y337856D01*
X214989Y337829D01*
X215087Y337796D01*
X215180Y337752D01*
X215268Y337709D01*
X215350Y337660D01*
X215426Y337610D01*
X215497Y337561D01*
X215557Y337512D01*
X215612Y337469D01*
X215661Y337425D01*
X215693Y337392D01*
X215721Y337365D01*
X215737Y337348D01*
X215743Y337343D01*
Y337796D01*
X216381D01*
Y334203D01*
X215743D01*
Y336781D01*
X215650Y336884D01*
X215557Y336972D01*
X215470Y337048D01*
X215382Y337114D01*
X215300Y337168D01*
X215218Y337212D01*
X215142Y337250D01*
X215071Y337283D01*
X215005Y337305D01*
X214946Y337321D01*
X214891Y337337D01*
X214847Y337343D01*
X214814Y337348D01*
X214787Y337354D01*
X214765D01*
X214640Y337343D01*
X214530Y337321D01*
X214443Y337294D01*
X214372Y337256D01*
X214318Y337217D01*
X214279Y337190D01*
X214252Y337168D01*
X214247Y337157D01*
X214219Y337119D01*
X214192Y337075D01*
X214154Y336977D01*
X214126Y336873D01*
X214110Y336770D01*
X214094Y336677D01*
Y336639D01*
X214088Y336600D01*
Y336573D01*
Y336551D01*
Y336535D01*
Y336529D01*
Y334203D01*
X213449D01*
Y336557D01*
X213455Y336677D01*
X213460Y336791D01*
X213477Y336895D01*
X213504Y336994D01*
X213531Y337086D01*
X213564Y337168D01*
X213597Y337250D01*
X213640Y337321D01*
X213684Y337387D01*
X213733Y337447D01*
X213837Y337556D01*
X213946Y337643D01*
X214055Y337714D01*
X214170Y337769D01*
X214279Y337807D01*
X214383Y337840D01*
X214476Y337856D01*
X214552Y337867D01*
X214612Y337878D01*
X214667D01*
X214776Y337873D01*
D02*
G37*
G36*
X270419D02*
X270523Y337867D01*
X270626Y337851D01*
X270719Y337834D01*
X270801Y337812D01*
X270883Y337785D01*
X270954Y337758D01*
X271025Y337731D01*
X271080Y337703D01*
X271134Y337676D01*
X271178Y337654D01*
X271216Y337627D01*
X271244Y337610D01*
X271265Y337594D01*
X271276Y337589D01*
X271282Y337583D01*
X271347Y337528D01*
X271402Y337469D01*
X271451Y337408D01*
X271495Y337348D01*
X271527Y337283D01*
X271560Y337223D01*
X271604Y337108D01*
X271626Y337004D01*
X271637Y336961D01*
X271642Y336923D01*
X271648Y336890D01*
Y336868D01*
Y336852D01*
Y336846D01*
X271642Y336759D01*
X271637Y336671D01*
X271620Y336600D01*
X271604Y336529D01*
X271577Y336464D01*
X271555Y336409D01*
X271527Y336360D01*
X271500Y336311D01*
X271473Y336273D01*
X271445Y336240D01*
X271418Y336213D01*
X271396Y336191D01*
X271364Y336163D01*
X271358Y336153D01*
X271353D01*
X271293Y336114D01*
X271227Y336082D01*
X271085Y336016D01*
X270927Y335956D01*
X270779Y335901D01*
X270708Y335880D01*
X270643Y335858D01*
X270583Y335841D01*
X270528Y335825D01*
X270485Y335814D01*
X270452Y335803D01*
X270430Y335798D01*
X270425D01*
X270310Y335770D01*
X270206Y335743D01*
X270108Y335716D01*
X270026Y335688D01*
X269944Y335667D01*
X269879Y335645D01*
X269818Y335623D01*
X269764Y335607D01*
X269720Y335590D01*
X269682Y335579D01*
X269649Y335563D01*
X269627Y335552D01*
X269605Y335547D01*
X269595Y335541D01*
X269584Y335536D01*
X269518Y335492D01*
X269469Y335443D01*
X269431Y335383D01*
X269409Y335328D01*
X269393Y335274D01*
X269387Y335230D01*
X269382Y335203D01*
Y335197D01*
Y335192D01*
X269393Y335104D01*
X269414Y335022D01*
X269447Y334957D01*
X269485Y334897D01*
X269524Y334848D01*
X269556Y334809D01*
X269578Y334788D01*
X269589Y334782D01*
X269676Y334728D01*
X269769Y334689D01*
X269873Y334657D01*
X269971Y334640D01*
X270059Y334629D01*
X270097Y334624D01*
X270130D01*
X270157Y334618D01*
X270195D01*
X270354Y334624D01*
X270490Y334646D01*
X270610Y334678D01*
X270708Y334722D01*
X270796Y334771D01*
X270867Y334826D01*
X270927Y334886D01*
X270976Y334946D01*
X271014Y335006D01*
X271041Y335066D01*
X271063Y335121D01*
X271074Y335170D01*
X271085Y335213D01*
X271091Y335246D01*
Y335268D01*
Y335274D01*
X271729D01*
X271719Y335170D01*
X271702Y335071D01*
X271675Y334979D01*
X271642Y334891D01*
X271604Y334815D01*
X271560Y334738D01*
X271516Y334673D01*
X271462Y334608D01*
X271342Y334498D01*
X271211Y334405D01*
X271074Y334329D01*
X270932Y334263D01*
X270796Y334220D01*
X270659Y334182D01*
X270534Y334154D01*
X270419Y334138D01*
X270370Y334132D01*
X270326Y334127D01*
X270288D01*
X270255Y334121D01*
X270190D01*
X270070Y334127D01*
X269955Y334138D01*
X269846Y334149D01*
X269747Y334171D01*
X269655Y334198D01*
X269567Y334225D01*
X269485Y334253D01*
X269414Y334285D01*
X269349Y334313D01*
X269294Y334340D01*
X269245Y334367D01*
X269207Y334395D01*
X269174Y334416D01*
X269152Y334427D01*
X269141Y334438D01*
X269136Y334444D01*
X269065Y334504D01*
X269005Y334569D01*
X268956Y334640D01*
X268907Y334706D01*
X268868Y334777D01*
X268841Y334842D01*
X268814Y334908D01*
X268792Y334973D01*
X268776Y335028D01*
X268765Y335083D01*
X268754Y335132D01*
X268748Y335175D01*
X268743Y335208D01*
Y335235D01*
Y335252D01*
Y335257D01*
X268748Y335350D01*
X268754Y335437D01*
X268770Y335514D01*
X268792Y335585D01*
X268814Y335650D01*
X268841Y335710D01*
X268874Y335765D01*
X268901Y335809D01*
X268929Y335852D01*
X268961Y335885D01*
X268988Y335912D01*
X269010Y335940D01*
X269032Y335956D01*
X269043Y335967D01*
X269054Y335978D01*
X269059D01*
X269125Y336016D01*
X269191Y336054D01*
X269343Y336125D01*
X269507Y336191D01*
X269666Y336245D01*
X269737Y336267D01*
X269808Y336289D01*
X269868Y336305D01*
X269922Y336322D01*
X269971Y336333D01*
X270004Y336344D01*
X270026Y336349D01*
X270031D01*
X270146Y336377D01*
X270255Y336404D01*
X270348Y336431D01*
X270430Y336453D01*
X270506Y336480D01*
X270572Y336497D01*
X270632Y336518D01*
X270681Y336535D01*
X270725Y336551D01*
X270758Y336562D01*
X270785Y336573D01*
X270807Y336584D01*
X270823Y336589D01*
X270834Y336595D01*
X270845Y336600D01*
X270900Y336639D01*
X270938Y336688D01*
X270971Y336737D01*
X270987Y336786D01*
X270998Y336835D01*
X271003Y336873D01*
X271009Y336895D01*
Y336906D01*
X270998Y336988D01*
X270976Y337059D01*
X270943Y337119D01*
X270900Y337168D01*
X270861Y337206D01*
X270829Y337234D01*
X270807Y337250D01*
X270796Y337256D01*
X270714Y337299D01*
X270621Y337327D01*
X270534Y337348D01*
X270446Y337365D01*
X270375Y337376D01*
X270315Y337381D01*
X270261D01*
X270130Y337376D01*
X270021Y337359D01*
X269922Y337332D01*
X269835Y337305D01*
X269764Y337261D01*
X269704Y337223D01*
X269649Y337174D01*
X269611Y337130D01*
X269578Y337081D01*
X269551Y337032D01*
X269529Y336994D01*
X269518Y336955D01*
X269507Y336923D01*
X269502Y336895D01*
Y336879D01*
Y336873D01*
X268863D01*
X268868Y336966D01*
X268885Y337048D01*
X268907Y337130D01*
X268934Y337206D01*
X268967Y337277D01*
X269010Y337337D01*
X269103Y337452D01*
X269212Y337550D01*
X269333Y337632D01*
X269464Y337698D01*
X269600Y337752D01*
X269731Y337796D01*
X269862Y337823D01*
X269982Y337845D01*
X270086Y337862D01*
X270179Y337873D01*
X270217D01*
X270250Y337878D01*
X270310D01*
X270419Y337873D01*
D02*
G37*
%LPC*%
G36*
X180927Y363464D02*
X180753Y363456D01*
X178281Y363464D01*
X178265D01*
X177529Y363456D01*
X177306Y363464D01*
X177240Y363448D01*
X177207Y363415D01*
X177190Y363348D01*
X177199Y361141D01*
X177182Y361091D01*
X177199Y360976D01*
X177240Y360934D01*
X180944Y360918D01*
X180985Y360959D01*
X181010Y361017D01*
X181001Y363224D01*
X181018Y363274D01*
X181001Y363406D01*
X180927Y363464D01*
D02*
G37*
G36*
X203645D02*
X203595Y363448D01*
X203546Y363464D01*
X195303Y363456D01*
X195130Y363464D01*
X195014Y363448D01*
X194989Y363423D01*
X194973Y354627D01*
X195014Y354585D01*
X202917Y354569D01*
X203744D01*
X203810Y354585D01*
X203835Y354610D01*
X203860Y354668D01*
X203852Y363224D01*
X203868Y363274D01*
X203852Y363406D01*
X203810Y363448D01*
X203645Y363464D01*
D02*
G37*
G36*
X193526D02*
X193410Y363448D01*
X193361Y363464D01*
X192774Y363456D01*
X192551Y363464D01*
X192484Y363448D01*
X192443Y363406D01*
X192427Y362199D01*
X191426Y362191D01*
X191310Y362175D01*
X191195Y362208D01*
X191170Y362232D01*
X191153Y362365D01*
X191170Y362414D01*
X191162Y363117D01*
X191170Y363340D01*
X191153Y363406D01*
X191112Y363448D01*
X190980Y363464D01*
X190864Y363448D01*
X190814Y363464D01*
X190227Y363456D01*
X190004Y363464D01*
X189938Y363448D01*
X189905Y363415D01*
X189889Y363348D01*
X189897Y362298D01*
X189880Y362232D01*
X189847Y362199D01*
X189781Y362183D01*
X188847Y362191D01*
X188797Y362175D01*
X188681Y362191D01*
X188640Y362232D01*
X188624Y363357D01*
X188607Y363423D01*
X188582Y363448D01*
X188450Y363464D01*
X188334Y363448D01*
X188285Y363464D01*
X187681Y363456D01*
X187458Y363464D01*
X187367Y363423D01*
X187350Y362447D01*
X187367Y362332D01*
X187334Y362216D01*
X187251Y362183D01*
X186086Y362191D01*
X186077Y359752D01*
X186119Y359661D01*
X187342Y359645D01*
X187350Y360810D01*
X187367Y360877D01*
X187392Y360901D01*
X189789Y360918D01*
X189855Y360901D01*
X189880Y360877D01*
X189897Y358397D01*
X189872Y358372D01*
X188938Y358380D01*
X188731Y358372D01*
X188665Y358388D01*
X188640Y358413D01*
X188624Y359587D01*
X188582Y359628D01*
X188524Y359653D01*
X187359Y359645D01*
X187350Y357173D01*
X187375Y357148D01*
X187433Y357107D01*
X188235Y357115D01*
X188285Y357099D01*
X188467Y357115D01*
X188582Y357099D01*
X188607Y357074D01*
X188624Y355850D01*
X187458Y355842D01*
X187392Y355825D01*
X187367Y355801D01*
X187350Y353519D01*
X187367Y353469D01*
X187350Y353354D01*
X187309Y353312D01*
X184829Y353296D01*
X184821Y354560D01*
X185986Y354569D01*
X186053Y354585D01*
X186086Y354651D01*
X186077Y356776D01*
X186094Y356941D01*
X186077Y357057D01*
X186003Y357115D01*
X185829Y357107D01*
X184829Y357115D01*
X184812Y360587D01*
X184821Y360761D01*
X184804Y360877D01*
X184779Y360901D01*
X183606Y360918D01*
X183564Y360877D01*
X183539Y360819D01*
X183548Y358446D01*
X183490Y358388D01*
X183324Y358372D01*
X183275Y358388D01*
X183225Y358372D01*
X182589Y358380D01*
X182382Y358372D01*
X182316Y358388D01*
X182291Y358413D01*
X182274Y359587D01*
X182233Y359628D01*
X182175Y359653D01*
X179968Y359645D01*
X179918Y359661D01*
X179786Y359645D01*
X179745Y359603D01*
X179728Y358661D01*
X179745Y358545D01*
X179728Y358430D01*
X179654Y358372D01*
X179464Y358380D01*
X178794Y358372D01*
X178629Y358388D01*
X178513Y358372D01*
X178488Y358347D01*
X178463Y358289D01*
X178472Y357437D01*
X178455Y357272D01*
X178472Y357156D01*
X178513Y357115D01*
X178645Y357099D01*
X178695Y357115D01*
X179381Y357107D01*
X179621Y357115D01*
X179687Y357099D01*
X179712Y357074D01*
X179736Y357016D01*
X179728Y354577D01*
X178480Y354569D01*
X178463Y355511D01*
X178472Y355718D01*
X178455Y355784D01*
X178414Y355825D01*
X177306Y355842D01*
X177240Y355825D01*
X177215Y355801D01*
X177190Y355743D01*
X177199Y354792D01*
X177182Y354742D01*
X177199Y354627D01*
X177240Y354585D01*
X178447Y354569D01*
X178472Y354544D01*
X178463Y353643D01*
X178472Y353420D01*
X178455Y353354D01*
X178414Y353312D01*
X176149Y353296D01*
X176099Y353312D01*
X175983Y353296D01*
X175942Y353254D01*
X175925Y352047D01*
X175901Y352023D01*
X173693Y352031D01*
X173503Y352023D01*
X173437Y352039D01*
X173379Y352114D01*
X173387Y352287D01*
X173379Y352874D01*
X173396Y353188D01*
X173363Y353271D01*
X173280Y353304D01*
X169799Y353296D01*
X169750Y353312D01*
X169634Y353296D01*
X169593Y353254D01*
X169576Y352047D01*
X169552Y352023D01*
X168320Y352031D01*
X168303Y353039D01*
X168320Y353155D01*
X168287Y353271D01*
X168204Y353304D01*
X167270Y353296D01*
X167220Y353312D01*
X167088Y353296D01*
X167047Y353254D01*
X167030Y352147D01*
X167047Y352080D01*
X167088Y352039D01*
X168295Y352023D01*
X168303Y348327D01*
X168320Y348261D01*
X168344Y348236D01*
X169518Y348220D01*
X169560Y348261D01*
X169576Y352014D01*
X170560Y352023D01*
X170676Y352039D01*
X170792Y352023D01*
X170833Y351981D01*
X170849Y349749D01*
X170833Y349633D01*
X170866Y349518D01*
X170949Y349484D01*
X173371Y349493D01*
X173387Y350452D01*
X173379Y350642D01*
X173396Y350708D01*
X173470Y350766D01*
X173627Y350758D01*
X175454Y350766D01*
X175818Y350749D01*
X175909Y350791D01*
X175925Y352014D01*
X182167Y352023D01*
X182233Y352039D01*
X182258Y352064D01*
X182274Y353287D01*
X184796Y353296D01*
X184821Y353271D01*
X184812Y352039D01*
X183870Y352023D01*
X183705Y352039D01*
X183589Y352023D01*
X183556Y351990D01*
X183539Y351923D01*
X183548Y350989D01*
X183531Y350940D01*
X183548Y350807D01*
X183572Y350782D01*
X183630Y350758D01*
X184383Y350766D01*
X184697Y350749D01*
X184763Y350766D01*
X184821Y350840D01*
X184812Y351014D01*
X184821Y352014D01*
X186929Y352023D01*
X187243Y352039D01*
X187326Y352006D01*
X187359Y351923D01*
X187350Y350973D01*
X187367Y350906D01*
X187334Y350791D01*
X187293Y350766D01*
X187177Y350749D01*
X187127Y350766D01*
X186425Y350758D01*
X186201Y350766D01*
X186135Y350749D01*
X186094Y350708D01*
X186077Y349600D01*
X186094Y349534D01*
X186127Y349501D01*
X186193Y349484D01*
X189789Y349493D01*
X189855Y349476D01*
X189880Y349451D01*
X189897Y346955D01*
X188731Y346947D01*
X188665Y346963D01*
X188640Y346988D01*
X188624Y348162D01*
X188582Y348203D01*
X187458Y348220D01*
X187392Y348203D01*
X187367Y348178D01*
X187350Y345781D01*
X187367Y345715D01*
X187408Y345690D01*
X188202Y345673D01*
X188516Y345690D01*
X188607Y345649D01*
X188624Y343152D01*
X187359Y343144D01*
X187350Y341879D01*
X186185Y341871D01*
X186119Y341854D01*
X186094Y341829D01*
X186077Y340887D01*
X186094Y340771D01*
X186077Y340655D01*
X186036Y340614D01*
X184879Y340597D01*
X184821Y340655D01*
X184804Y340788D01*
X184821Y340837D01*
X184812Y341540D01*
X184821Y341714D01*
X184804Y341829D01*
X184779Y341854D01*
X183606Y341871D01*
X183564Y341912D01*
X183539Y341970D01*
X183548Y344342D01*
X183457Y344417D01*
X183283Y344409D01*
X182746Y344417D01*
X182382Y344400D01*
X182291Y344442D01*
X182274Y345583D01*
X182291Y345649D01*
X182357Y345682D01*
X183440Y345673D01*
X183531Y345715D01*
X183548Y346938D01*
X184713Y346947D01*
X184779Y346963D01*
X184804Y347004D01*
X184821Y347170D01*
X184804Y347236D01*
X184821Y347286D01*
X184812Y349162D01*
X184821Y349369D01*
X184804Y349435D01*
X184763Y349476D01*
X183655Y349493D01*
X183589Y349476D01*
X183564Y349451D01*
X183539Y349394D01*
X183548Y346955D01*
X179968Y346947D01*
X179918Y346963D01*
X179786Y346947D01*
X179745Y346905D01*
X179728Y345682D01*
X178794Y345673D01*
X178629Y345690D01*
X178513Y345673D01*
X178472Y345632D01*
X178455Y345500D01*
X178472Y345450D01*
X178463Y344764D01*
X178472Y344524D01*
X178455Y344458D01*
X178430Y344433D01*
X178373Y344409D01*
X177620Y344417D01*
X177306Y344400D01*
X177223Y344433D01*
X177190Y344516D01*
X177199Y345616D01*
X177141Y345673D01*
X177025Y345690D01*
X176975Y345673D01*
X176240Y345682D01*
X176033Y345673D01*
X175967Y345690D01*
X175942Y345715D01*
X175925Y348162D01*
X175884Y348203D01*
X174760Y348220D01*
X174694Y348236D01*
X174669Y348261D01*
X174652Y349270D01*
X174669Y349319D01*
X174652Y349435D01*
X174611Y349476D01*
X173387Y349493D01*
X173379Y347054D01*
X173421Y346963D01*
X174429Y346947D01*
X174479Y346963D01*
X174594Y346947D01*
X174636Y346905D01*
X174661Y346847D01*
X174652Y345897D01*
X174669Y345847D01*
X174652Y345731D01*
X174578Y345673D01*
X174388Y345682D01*
X172131Y345673D01*
X172114Y346616D01*
X172123Y346839D01*
X172106Y346905D01*
X172073Y346938D01*
X172007Y346955D01*
X169799Y346947D01*
X169750Y346963D01*
X169634Y346947D01*
X169593Y346905D01*
X169576Y344425D01*
X167377Y344409D01*
X167154Y344417D01*
X167088Y344400D01*
X167047Y344359D01*
X167030Y343251D01*
X167047Y343185D01*
X167080Y343152D01*
X167146Y343135D01*
X168196Y343144D01*
X168262Y343127D01*
X168295Y343094D01*
X168311Y343028D01*
X168303Y341978D01*
X168320Y341912D01*
X168344Y341887D01*
X170742Y341871D01*
X170808Y341887D01*
X170833Y341912D01*
X170849Y343036D01*
X170833Y343102D01*
X170808Y343127D01*
X169799Y343144D01*
X169750Y343127D01*
X169634Y343144D01*
X169576Y343202D01*
X169585Y344400D01*
X170411Y344417D01*
X170725Y344400D01*
X170792Y344417D01*
X170833Y344458D01*
X170849Y345384D01*
X170833Y345549D01*
X170874Y345657D01*
X170932Y345682D01*
X172106Y345665D01*
X172123Y342342D01*
X172106Y341978D01*
X172147Y341887D01*
X173371Y341871D01*
X173387Y342830D01*
X173379Y343020D01*
X173396Y343086D01*
X173437Y343127D01*
X174545Y343144D01*
X174611Y343127D01*
X174644Y343094D01*
X174661Y343028D01*
X174652Y342094D01*
X174669Y342044D01*
X174652Y341928D01*
X174611Y341887D01*
X173387Y341871D01*
X173379Y339448D01*
X173396Y339382D01*
X173437Y339341D01*
X174644Y339324D01*
X174652Y338274D01*
X174669Y338208D01*
X174636Y338092D01*
X174594Y338068D01*
X174479Y338051D01*
X174429Y338068D01*
X172453Y338059D01*
X172230Y338068D01*
X172156Y338043D01*
X172114Y337985D01*
X172123Y335910D01*
X172106Y335860D01*
X172123Y335679D01*
X172106Y335563D01*
X172081Y335538D01*
X170907Y335522D01*
X170866Y335480D01*
X170841Y335422D01*
X170849Y334356D01*
X170833Y334290D01*
X170808Y334265D01*
X169585Y334248D01*
X169576Y333083D01*
X169560Y333017D01*
X169502Y332975D01*
X169312Y332983D01*
X167369Y332975D01*
X167204Y332992D01*
X167088Y332975D01*
X167047Y332934D01*
X167030Y331826D01*
X167047Y331760D01*
X167088Y331719D01*
X167220Y331702D01*
X167270Y331719D01*
X167956Y331710D01*
X168196Y331719D01*
X168262Y331702D01*
X168295Y331669D01*
X168311Y331603D01*
X168303Y330454D01*
X167138Y330446D01*
X167071Y330429D01*
X167047Y330388D01*
X167030Y328007D01*
X167071Y327916D01*
X168295Y327899D01*
X168303Y330437D01*
X169469Y330446D01*
X169535Y330429D01*
X169560Y330404D01*
X169576Y327907D01*
X168311Y327899D01*
X168303Y326734D01*
X168320Y326667D01*
X168361Y326643D01*
X169469Y326626D01*
X169535Y326643D01*
X169560Y326667D01*
X169576Y327891D01*
X170626Y327899D01*
X170676Y327916D01*
X170792Y327899D01*
X170833Y327858D01*
X170849Y326866D01*
X170833Y326816D01*
X170849Y326684D01*
X170891Y326643D01*
X171999Y326626D01*
X172065Y326643D01*
X172123Y326717D01*
X172114Y326891D01*
X172123Y328701D01*
X172106Y329065D01*
X172147Y329156D01*
X177190Y329172D01*
X177199Y330338D01*
X177182Y330404D01*
X177157Y330429D01*
X176149Y330446D01*
X176099Y330429D01*
X175983Y330446D01*
X175942Y330487D01*
X175925Y331611D01*
X175942Y331677D01*
X176016Y331719D01*
X176173Y331710D01*
X179406Y331719D01*
X179571Y331702D01*
X179687Y331719D01*
X179728Y331760D01*
X179745Y331892D01*
X179728Y331942D01*
X179736Y333934D01*
X179728Y334141D01*
X179745Y334207D01*
X179778Y334240D01*
X179844Y334257D01*
X180993Y334248D01*
X181001Y335298D01*
X181018Y335348D01*
X181001Y335464D01*
X180960Y335505D01*
X179836Y335522D01*
X179770Y335538D01*
X179728Y335596D01*
X179736Y335786D01*
X179728Y339002D01*
X179745Y339167D01*
X179728Y339283D01*
X179703Y339308D01*
X179646Y339333D01*
X178794Y339324D01*
X178629Y339341D01*
X178513Y339324D01*
X178472Y339283D01*
X178455Y339151D01*
X178472Y339101D01*
X178463Y338415D01*
X178472Y338175D01*
X178455Y338109D01*
X178430Y338084D01*
X178373Y338059D01*
X176397Y338068D01*
X176033Y338051D01*
X175942Y338092D01*
X175925Y339233D01*
X175909Y339300D01*
X175867Y339324D01*
X175752Y339341D01*
X175702Y339324D01*
X174669Y339333D01*
X174652Y340490D01*
X174669Y340556D01*
X174702Y340589D01*
X174768Y340606D01*
X175818Y340597D01*
X175884Y340614D01*
X175909Y340639D01*
X175925Y341813D01*
X175967Y341854D01*
X177190Y341871D01*
X177199Y342920D01*
X177182Y342970D01*
X177199Y343086D01*
X177240Y343127D01*
X179621Y343144D01*
X179687Y343127D01*
X179712Y343102D01*
X179736Y343044D01*
X179728Y342292D01*
X179745Y341978D01*
X179703Y341887D01*
X177207Y341871D01*
X177199Y340837D01*
X177182Y340771D01*
X177199Y340655D01*
X177240Y340614D01*
X180993Y340597D01*
X181001Y343036D01*
X181018Y343102D01*
X181043Y343127D01*
X182167Y343144D01*
X182233Y343127D01*
X182258Y343102D01*
X182274Y340705D01*
X182258Y340639D01*
X182233Y340614D01*
X181010Y340597D01*
X181001Y339432D01*
X181018Y339366D01*
X181059Y339341D01*
X181853Y339324D01*
X182167Y339341D01*
X182258Y339300D01*
X182274Y338159D01*
X182291Y338092D01*
X182332Y338068D01*
X182465Y338051D01*
X182514Y338068D01*
X186061Y338059D01*
X186077Y336803D01*
X182382Y336795D01*
X182316Y336778D01*
X182291Y336753D01*
X182274Y334257D01*
X181010Y334248D01*
X181001Y329396D01*
X181018Y329346D01*
X181001Y329230D01*
X180960Y329189D01*
X179836Y329172D01*
X179770Y329156D01*
X179745Y329131D01*
X179728Y328189D01*
X179745Y328073D01*
X179728Y327957D01*
X179687Y327916D01*
X178480Y327899D01*
X178463Y328842D01*
X178472Y329015D01*
X178455Y329131D01*
X178430Y329156D01*
X177207Y329172D01*
X177199Y328205D01*
X177182Y328040D01*
X177207Y327949D01*
X177265Y327907D01*
X178455Y327891D01*
X178472Y327064D01*
X178455Y326750D01*
X178472Y326684D01*
X178513Y326643D01*
X180894Y326626D01*
X180960Y326643D01*
X180993Y326676D01*
X181010Y326742D01*
X181001Y327792D01*
X181018Y327858D01*
X181051Y327891D01*
X181117Y327907D01*
X182051Y327899D01*
X182101Y327916D01*
X182217Y327899D01*
X182258Y327858D01*
X182274Y326734D01*
X182291Y326667D01*
X182316Y326643D01*
X183440Y326626D01*
X183531Y326667D01*
X183548Y328949D01*
X183531Y328999D01*
X183548Y329115D01*
X183589Y329156D01*
X184713Y329172D01*
X184779Y329189D01*
X184804Y329214D01*
X184821Y329346D01*
X184804Y329462D01*
X184821Y329511D01*
X184812Y330115D01*
X184821Y330322D01*
X184804Y330388D01*
X184763Y330429D01*
X183804Y330446D01*
X183688Y330429D01*
X183572Y330462D01*
X183539Y330545D01*
X183548Y331479D01*
X183531Y331528D01*
X183548Y331661D01*
X183622Y331719D01*
X183796Y331710D01*
X184383Y331719D01*
X184697Y331702D01*
X184763Y331719D01*
X184821Y331793D01*
X184812Y331967D01*
X184821Y332653D01*
X184804Y332818D01*
X184821Y332934D01*
X184846Y332959D01*
X184903Y332983D01*
X185970Y332975D01*
X186036Y332992D01*
X186061Y333017D01*
X186086Y333074D01*
X186077Y334240D01*
X187342Y334248D01*
X187350Y335298D01*
X187367Y335348D01*
X187350Y335464D01*
X187309Y335505D01*
X186086Y335522D01*
X186077Y334257D01*
X183556Y334248D01*
X183548Y333050D01*
X183490Y332992D01*
X183324Y332975D01*
X183275Y332992D01*
X183225Y332975D01*
X182589Y332983D01*
X182382Y332975D01*
X182316Y332992D01*
X182291Y333017D01*
X182274Y334240D01*
X183539Y334248D01*
X183548Y335298D01*
X183531Y335348D01*
X183548Y335464D01*
X183589Y335505D01*
X186069Y335522D01*
X186086Y336778D01*
X187094Y336795D01*
X187210Y336778D01*
X187326Y336811D01*
X187359Y336894D01*
X187350Y337828D01*
X187367Y337878D01*
X187350Y338010D01*
X187309Y338051D01*
X187144Y338068D01*
X187094Y338051D01*
X187020Y338059D01*
X186077Y338076D01*
X186086Y339010D01*
X186077Y339217D01*
X186094Y339283D01*
X186119Y339308D01*
X186177Y339333D01*
X187243Y339324D01*
X187309Y339341D01*
X187342Y339374D01*
X187359Y339440D01*
X187350Y341862D01*
X188566Y341871D01*
X188607Y341912D01*
X188624Y343135D01*
X189889Y343144D01*
X189897Y344177D01*
X189880Y344227D01*
X189897Y344359D01*
X189938Y344400D01*
X190037Y344417D01*
X190203Y344400D01*
X190252Y344417D01*
X192410Y344409D01*
X192427Y340606D01*
X191228Y340597D01*
X191170Y340655D01*
X191153Y340788D01*
X191170Y340837D01*
X191162Y342813D01*
X191170Y343020D01*
X191153Y343086D01*
X191112Y343127D01*
X189905Y343144D01*
X189889Y339341D01*
X189045Y339324D01*
X188731Y339341D01*
X188640Y339300D01*
X188624Y338159D01*
X188640Y338092D01*
X188706Y338059D01*
X189459Y338068D01*
X189773Y338051D01*
X189839Y338068D01*
X189880Y338109D01*
X189897Y339316D01*
X192418Y339324D01*
X192427Y337216D01*
X192443Y336902D01*
X192410Y336819D01*
X192327Y336786D01*
X190004Y336795D01*
X189938Y336778D01*
X189913Y336753D01*
X189889Y336695D01*
X189897Y335745D01*
X189880Y335695D01*
X189897Y335579D01*
X189938Y335538D01*
X193642Y335522D01*
X193683Y335563D01*
X193708Y335621D01*
X193700Y339316D01*
X196138Y339324D01*
X196229Y339366D01*
X196246Y340589D01*
X198767Y340597D01*
X198776Y339614D01*
X198792Y339498D01*
X198776Y339382D01*
X198701Y339324D01*
X198511Y339333D01*
X197841Y339324D01*
X197676Y339341D01*
X197560Y339324D01*
X197536Y339300D01*
X197511Y339242D01*
X197519Y337167D01*
X197503Y336952D01*
X197519Y336836D01*
X197552Y336803D01*
X197618Y336786D01*
X199792Y336795D01*
X199908Y336778D01*
X200024Y336811D01*
X200057Y336894D01*
X200049Y337993D01*
X200107Y338051D01*
X200189Y338068D01*
X200355Y338051D01*
X200404Y338068D01*
X201305Y338059D01*
X201322Y336853D01*
X201363Y336811D01*
X201421Y336786D01*
X202355Y336795D01*
X202421Y336778D01*
X202537Y336795D01*
X202578Y336836D01*
X202595Y337993D01*
X202504Y338068D01*
X202330Y338059D01*
X201330Y338068D01*
X201322Y339233D01*
X201305Y339300D01*
X201264Y339324D01*
X201148Y339341D01*
X201099Y339324D01*
X200363Y339333D01*
X200156Y339324D01*
X200065Y339366D01*
X200049Y340341D01*
X200065Y340457D01*
X200032Y340573D01*
X199999Y340589D01*
X199908Y340614D01*
X199859Y340597D01*
X198792Y340606D01*
X198776Y341449D01*
X198792Y341763D01*
X198751Y341854D01*
X196254Y341871D01*
X196246Y340606D01*
X193708Y340597D01*
X193691Y339324D01*
X192443Y339333D01*
X192427Y340589D01*
X193691Y340597D01*
X193700Y341763D01*
X193716Y341829D01*
X193741Y341854D01*
X196238Y341871D01*
X196246Y343036D01*
X196229Y343102D01*
X196204Y343127D01*
X193923Y343144D01*
X193873Y343127D01*
X193757Y343144D01*
X193700Y343218D01*
X193708Y344400D01*
X195808Y344417D01*
X196122Y344400D01*
X196188Y344417D01*
X196229Y344458D01*
X196246Y345616D01*
X196204Y345657D01*
X196147Y345682D01*
X193989Y345673D01*
X193873Y345690D01*
X193757Y345673D01*
X193716Y345632D01*
X193700Y344425D01*
X192435Y344417D01*
X192427Y350427D01*
X192443Y350592D01*
X192427Y350708D01*
X192352Y350766D01*
X192178Y350758D01*
X191492Y350766D01*
X191327Y350749D01*
X191211Y350766D01*
X191170Y350807D01*
X191153Y350940D01*
X191170Y350989D01*
X191162Y356768D01*
X191170Y356991D01*
X191153Y357057D01*
X191079Y357115D01*
X190905Y357107D01*
X190318Y357115D01*
X190004Y357099D01*
X189922Y357132D01*
X189889Y357214D01*
X189897Y358363D01*
X192154Y358372D01*
X192269Y358388D01*
X192385Y358372D01*
X192410Y358347D01*
X192435Y358289D01*
X192427Y357223D01*
X192451Y357148D01*
X192509Y357107D01*
X193228Y357115D01*
X193592Y357099D01*
X193675Y357132D01*
X193708Y357214D01*
X193700Y360695D01*
X193716Y360744D01*
X193700Y360860D01*
X193658Y360901D01*
X192534Y360918D01*
X192468Y360934D01*
X192443Y360959D01*
X192427Y361141D01*
X192443Y361191D01*
X192427Y361240D01*
X192435Y362175D01*
X193443Y362191D01*
X193559Y362175D01*
X193675Y362208D01*
X193708Y362290D01*
X193700Y363224D01*
X193716Y363291D01*
Y363307D01*
X193700Y363406D01*
X193658Y363448D01*
X193526Y363464D01*
D02*
G37*
G36*
X185904D02*
X185788Y363448D01*
X185738Y363464D01*
X183878Y363456D01*
X183655Y363464D01*
X183589Y363448D01*
X183556Y363415D01*
X183539Y363348D01*
X183548Y362447D01*
X183531Y362332D01*
X183564Y362216D01*
X183647Y362183D01*
X186036Y362191D01*
X186069D01*
X186077Y363125D01*
X186094Y363291D01*
X186077Y363406D01*
X186036Y363448D01*
X185904Y363464D01*
D02*
G37*
G36*
X175686D02*
X175636Y363448D01*
X175619Y363464D01*
X167377Y363456D01*
X167154Y363464D01*
X167088Y363448D01*
X167047Y363406D01*
X167030Y354676D01*
X167047Y354610D01*
X167071Y354585D01*
X168130Y354569D01*
X175818D01*
X175884Y354585D01*
X175909Y354610D01*
X175925Y354792D01*
X175909Y354842D01*
X175925Y354891D01*
X175917Y363150D01*
X175925Y363340D01*
X175909Y363406D01*
X175867Y363448D01*
X175686Y363464D01*
D02*
G37*
G36*
X192534Y355842D02*
X192468Y355825D01*
X192443Y355784D01*
X192427Y354676D01*
X192443Y354610D01*
X192468Y354585D01*
X193642Y354569D01*
X193683Y354610D01*
X193708Y354668D01*
X193700Y355189D01*
Y355205D01*
Y355619D01*
X193716Y355668D01*
X193700Y355784D01*
X193658Y355825D01*
X192534Y355842D01*
D02*
G37*
G36*
X195146Y353312D02*
X195031Y353296D01*
X194989Y353254D01*
X194973Y353122D01*
Y353105D01*
Y352130D01*
X194989Y352064D01*
X195014Y352039D01*
X196138Y352023D01*
X196229Y352064D01*
X196246Y353188D01*
X196229Y353254D01*
X196196Y353287D01*
X196130Y353304D01*
X195196Y353296D01*
X195146Y353312D01*
D02*
G37*
G36*
X192617D02*
X192484Y353296D01*
X192443Y353254D01*
X192427Y352147D01*
X192443Y352080D01*
X192484Y352039D01*
X193394Y352023D01*
X193592D01*
X193658Y352039D01*
X193691Y352072D01*
X193708Y352138D01*
X193700Y353039D01*
X193716Y353155D01*
X193683Y353271D01*
X193600Y353304D01*
X192666Y353296D01*
X192617Y353312D01*
D02*
G37*
G36*
X198966D02*
X198833Y353296D01*
X198792Y353254D01*
X198776Y352147D01*
X198792Y352080D01*
X198833Y352039D01*
X199627Y352023D01*
X199941Y352039D01*
X200024Y352006D01*
X200057Y351923D01*
X200049Y350774D01*
X194030Y350758D01*
X193807Y350766D01*
X193716Y350725D01*
X193700Y348327D01*
X193716Y348261D01*
X193741Y348236D01*
X194965Y348220D01*
X194973Y349385D01*
X194989Y349451D01*
X195014Y349476D01*
X196138Y349493D01*
X196204Y349476D01*
X196229Y349451D01*
X196246Y348327D01*
X196229Y348261D01*
X196204Y348236D01*
X195328Y348220D01*
X194981D01*
X194973Y347054D01*
X194989Y346988D01*
X195014Y346963D01*
X198569Y346947D01*
X198635Y346963D01*
X198751Y346930D01*
X198784Y346864D01*
X198776Y344690D01*
X198792Y344574D01*
X198776Y344458D01*
X198734Y344417D01*
X198602Y344400D01*
X198552Y344417D01*
X197850Y344409D01*
X197626Y344417D01*
X197560Y344400D01*
X197511Y344334D01*
X197519Y343516D01*
X197503Y343301D01*
X197519Y343185D01*
X197552Y343152D01*
X197618Y343135D01*
X201314Y343144D01*
X201322Y344392D01*
X201347Y344417D01*
X202578Y344409D01*
X202595Y343152D01*
X201330Y343144D01*
X201322Y341928D01*
X201363Y341887D01*
X202487Y341871D01*
X202554Y341887D01*
X202578Y341912D01*
X202595Y343135D01*
X203628Y343144D01*
X203678Y343127D01*
X203810Y343144D01*
X203852Y343185D01*
X203868Y343317D01*
X203852Y343433D01*
X203868Y343483D01*
X203860Y344070D01*
X203868Y344293D01*
X203852Y344359D01*
X203777Y344417D01*
X203604Y344409D01*
X202603Y344417D01*
X202595Y348112D01*
X202578Y348178D01*
X202554Y348203D01*
X197610Y348220D01*
X197544Y348236D01*
X197511Y348302D01*
X197519Y349055D01*
X197503Y349369D01*
X197519Y349435D01*
X197560Y349476D01*
X199792Y349493D01*
X199908Y349476D01*
X200024Y349509D01*
X200041Y349542D01*
X200065Y349633D01*
X200049Y349683D01*
X200057Y350749D01*
X200851Y350766D01*
X201214Y350749D01*
X201305Y350791D01*
X201322Y351932D01*
X201338Y351998D01*
X201405Y352031D01*
X202306Y352023D01*
X202421Y352039D01*
X202537Y352023D01*
X202578Y351981D01*
X202595Y350989D01*
X202578Y350940D01*
X202595Y350807D01*
X202620Y350782D01*
X202678Y350758D01*
X203430Y350766D01*
X203744Y350749D01*
X203810Y350766D01*
X203852Y350807D01*
X203868Y350940D01*
X203852Y351055D01*
X203868Y351105D01*
X203860Y352965D01*
X203868Y353188D01*
X203852Y353254D01*
X203818Y353287D01*
X203752Y353304D01*
X199015Y353296D01*
X198966Y353312D01*
D02*
G37*
G36*
X180828Y350766D02*
X180712Y350749D01*
X180662Y350766D01*
X177529Y350758D01*
X177306Y350766D01*
X177240Y350749D01*
X177207Y350716D01*
X177190Y350650D01*
X177199Y349501D01*
Y349484D01*
Y348443D01*
X177182Y348393D01*
X177199Y348278D01*
X177240Y348236D01*
X178364Y348220D01*
X178430Y348236D01*
X178472Y348311D01*
X178463Y348468D01*
X178472Y349055D01*
X178455Y349369D01*
X178472Y349435D01*
X178513Y349476D01*
X180993Y349493D01*
X181001Y350526D01*
X181018Y350576D01*
X181001Y350708D01*
X180960Y350749D01*
X180828Y350766D01*
D02*
G37*
G36*
X181158Y349493D02*
X181010D01*
X181001Y348327D01*
X181018Y348261D01*
X181043Y348236D01*
X182217Y348220D01*
X182258Y348261D01*
X182274Y349385D01*
X182258Y349451D01*
X182233Y349476D01*
X181158Y349493D01*
D02*
G37*
G36*
X184978Y345690D02*
X184862Y345673D01*
X184837Y345649D01*
X184812Y345591D01*
X184821Y344739D01*
X184804Y344574D01*
X184821Y344458D01*
X184862Y344417D01*
X184994Y344400D01*
X185044Y344417D01*
X186061Y344409D01*
X186077Y343251D01*
X186094Y343185D01*
X186127Y343152D01*
X186193Y343135D01*
X186664Y343144D01*
X187342D01*
X187350Y344177D01*
X187367Y344227D01*
X187350Y344359D01*
X187276Y344417D01*
X187102Y344409D01*
X186086Y344417D01*
X186077Y345351D01*
X186094Y345516D01*
X186077Y345632D01*
X186053Y345657D01*
X185995Y345682D01*
X185143Y345673D01*
X184978Y345690D01*
D02*
G37*
G36*
X202735Y340614D02*
X202620Y340581D01*
X202587Y340498D01*
X202595Y339564D01*
X202578Y339514D01*
X202595Y339382D01*
X202636Y339341D01*
X203744Y339324D01*
X203810Y339341D01*
X203852Y339382D01*
X203868Y339514D01*
X203852Y339630D01*
X203868Y339680D01*
X203860Y340267D01*
X203868Y340490D01*
X203852Y340556D01*
X203818Y340589D01*
X203752Y340606D01*
X203281Y340597D01*
X202851D01*
X202735Y340614D01*
D02*
G37*
G36*
X167220D02*
X167088Y340597D01*
X167047Y340556D01*
X167030Y336902D01*
X167047Y336836D01*
X167080Y336803D01*
X167146Y336786D01*
X168295Y336795D01*
X168303Y339266D01*
X168344Y339308D01*
X168402Y339333D01*
X169155Y339324D01*
X169469Y339341D01*
X169560Y339300D01*
X169576Y336803D01*
X168311Y336795D01*
X168303Y334356D01*
X168320Y334290D01*
X168344Y334265D01*
X169568Y334248D01*
X169576Y336786D01*
X170610Y336795D01*
X170676Y336778D01*
X170792Y336795D01*
X170833Y336836D01*
X170849Y337663D01*
Y337679D01*
Y339035D01*
X170833Y339200D01*
X170874Y339308D01*
X170932Y339333D01*
X171999Y339324D01*
X172065Y339341D01*
X172106Y339382D01*
X172123Y339514D01*
X172106Y339630D01*
X172123Y339680D01*
X172114Y340267D01*
X172123Y340490D01*
X172106Y340556D01*
X172073Y340589D01*
X172007Y340606D01*
X167270Y340597D01*
X167220Y340614D01*
D02*
G37*
G36*
X196023Y338068D02*
X195957Y338051D01*
X195907Y338068D01*
X195303Y338059D01*
X195130Y338068D01*
X195014Y338051D01*
X194989Y338026D01*
X194973Y336853D01*
X195014Y336811D01*
X195072Y336786D01*
X195411Y336795D01*
X196006D01*
X196072Y336778D01*
X196188Y336795D01*
X196229Y336836D01*
X196246Y337993D01*
X196188Y338051D01*
X196023Y338068D01*
D02*
G37*
G36*
X191294Y334265D02*
X191186Y334224D01*
X191162Y334166D01*
X191170Y333000D01*
X191145Y332975D01*
X190211Y332983D01*
X190004Y332975D01*
X189938Y332992D01*
X189905Y333025D01*
X189889Y333091D01*
X189897Y334141D01*
X189880Y334207D01*
X189847Y334240D01*
X189781Y334257D01*
X187359Y334248D01*
X187350Y331776D01*
X187375Y331752D01*
X187433Y331710D01*
X188235Y331719D01*
X188285Y331702D01*
X188467Y331719D01*
X188582Y331702D01*
X188607Y331677D01*
X188624Y330503D01*
X188665Y330462D01*
X188723Y330437D01*
X189657Y330446D01*
X189723Y330429D01*
X189839Y330446D01*
X189880Y330487D01*
X189897Y331479D01*
X189880Y331528D01*
X189897Y331661D01*
X189938Y331702D01*
X190037Y331719D01*
X190203Y331702D01*
X190252Y331719D01*
X191153Y331710D01*
X191170Y330818D01*
X191153Y330603D01*
X191170Y330487D01*
X191203Y330454D01*
X191269Y330437D01*
X192319Y330446D01*
X192385Y330429D01*
X192410Y330404D01*
X192435Y330346D01*
X192427Y327593D01*
Y327577D01*
Y326750D01*
X192443Y326684D01*
X192484Y326643D01*
X193592Y326626D01*
X193658Y326643D01*
X193691Y326676D01*
X193708Y326742D01*
X193700Y331479D01*
X193716Y331528D01*
X193700Y331661D01*
X193625Y331719D01*
X193452Y331710D01*
X191178Y331719D01*
X191170Y332967D01*
X192319Y332975D01*
X192385Y332992D01*
X192410Y333017D01*
X192435Y333074D01*
X192427Y333827D01*
X192443Y334141D01*
X192410Y334224D01*
X192327Y334257D01*
X191459Y334248D01*
X191294Y334265D01*
D02*
G37*
G36*
X189955Y329172D02*
X189913Y329131D01*
X189889Y329073D01*
X189897Y328007D01*
X189880Y327941D01*
X189855Y327916D01*
X189442Y327899D01*
X188731D01*
X188665Y327916D01*
X188640Y327941D01*
X188624Y329115D01*
X188582Y329156D01*
X186185Y329172D01*
X186119Y329156D01*
X186094Y329131D01*
X186077Y326750D01*
X186094Y326684D01*
X186135Y326643D01*
X191046Y326626D01*
X191112Y326643D01*
X191153Y326684D01*
X191170Y326816D01*
X191153Y326932D01*
X191170Y326982D01*
X191162Y328842D01*
X191170Y329015D01*
X191153Y329131D01*
X191129Y329156D01*
X189955Y329172D01*
D02*
G37*
G36*
X197660Y335522D02*
X195031D01*
X194989Y335480D01*
X194973Y326734D01*
X194989Y326667D01*
X195014Y326643D01*
X203695Y326626D01*
X203810Y326643D01*
X203843Y326676D01*
X203860Y326742D01*
X203852Y335298D01*
X203868Y335348D01*
X203852Y335464D01*
X203810Y335505D01*
X197660Y335522D01*
D02*
G37*
G36*
X173569Y327916D02*
X173437Y327899D01*
X173396Y327858D01*
X173379Y326750D01*
X173396Y326684D01*
X173437Y326643D01*
X175818Y326626D01*
X175884Y326643D01*
X175909Y326667D01*
X175925Y327064D01*
Y327081D01*
Y327841D01*
X175884Y327883D01*
X175826Y327907D01*
X173619Y327899D01*
X173569Y327916D01*
D02*
G37*
%LPD*%
G36*
X202537Y362175D02*
X202562Y362150D01*
X202587Y362092D01*
X202578Y356230D01*
X202595Y355966D01*
X202578Y355900D01*
X202537Y355858D01*
X196502Y355842D01*
X196386Y355825D01*
X196271Y355858D01*
X196229Y355916D01*
X196238Y356090D01*
X196229Y359322D01*
Y359339D01*
X196238Y361860D01*
X196229Y362067D01*
X196246Y362133D01*
X196287Y362175D01*
X202471Y362191D01*
X202537Y362175D01*
D02*
G37*
%LPC*%
G36*
X197610Y360918D02*
X197544Y360901D01*
X197511Y360835D01*
X197519Y357437D01*
X197503Y357272D01*
X197519Y357156D01*
X197544Y357132D01*
X197602Y357107D01*
X200851Y357115D01*
X201214Y357099D01*
X201305Y357140D01*
X201322Y359091D01*
Y359107D01*
Y360860D01*
X201280Y360901D01*
X197610Y360918D01*
D02*
G37*
%LPD*%
G36*
X184821Y357090D02*
X184812Y354585D01*
X183606Y354569D01*
X183564Y354610D01*
X183539Y354668D01*
X183548Y356875D01*
X183531Y356925D01*
X183548Y357057D01*
X183622Y357115D01*
X183796Y357107D01*
X184135Y357115D01*
X184796D01*
X184821Y357090D01*
D02*
G37*
G36*
X189855Y355825D02*
X189880Y355801D01*
X189897Y353602D01*
Y353585D01*
Y353403D01*
X189880Y353337D01*
X189855Y353312D01*
X188731Y353296D01*
X188665Y353312D01*
X188640Y353337D01*
X188624Y355834D01*
X189789Y355842D01*
X189855Y355825D01*
D02*
G37*
G36*
X182233D02*
X182258Y355801D01*
X182274Y353304D01*
X179836Y353296D01*
X179770Y353312D01*
X179745Y353354D01*
X179728Y353519D01*
X179745Y353569D01*
X179728Y353618D01*
X179736Y354552D01*
X180944Y354569D01*
X180985Y354610D01*
X181010Y354668D01*
X181001Y355734D01*
X181018Y355801D01*
X181043Y355825D01*
X181423Y355842D01*
X182167D01*
X182233Y355825D01*
D02*
G37*
G36*
X189839Y352023D02*
X189880Y351981D01*
X189897Y351452D01*
Y351436D01*
Y350873D01*
X189872Y350799D01*
X189814Y350758D01*
X189095Y350766D01*
X188731Y350749D01*
X188640Y350791D01*
X188624Y351932D01*
X188640Y351998D01*
X188706Y352031D01*
X189607Y352023D01*
X189723Y352039D01*
X189839Y352023D01*
D02*
G37*
G36*
X191112Y346947D02*
X191153Y346905D01*
X191170Y346740D01*
X191153Y346690D01*
X191162Y346599D01*
X191170Y346591D01*
X191162Y346037D01*
X191170Y345797D01*
X191153Y345731D01*
X191112Y345690D01*
X190947Y345673D01*
X190897Y345690D01*
X190848Y345673D01*
X190211Y345682D01*
X190004Y345673D01*
X189938Y345690D01*
X189905Y345723D01*
X189889Y345789D01*
X189897Y346938D01*
X190947Y346947D01*
X190996Y346963D01*
X191112Y346947D01*
D02*
G37*
G36*
X180977Y345657D02*
X181010Y345574D01*
X181001Y344623D01*
X181018Y344557D01*
X180985Y344442D01*
X180919Y344409D01*
X180580Y344417D01*
X180067D01*
X179902Y344400D01*
X179786Y344417D01*
X179728Y344491D01*
X179736Y344681D01*
X179728Y345665D01*
X180580Y345673D01*
X180894Y345690D01*
X180977Y345657D01*
D02*
G37*
G36*
X177157Y336778D02*
X177182Y336753D01*
X177199Y333050D01*
X177108Y332975D01*
X176934Y332983D01*
X173718Y332975D01*
X173702D01*
X173693Y332983D01*
X173503Y332975D01*
X173437Y332992D01*
X173396Y333033D01*
X173379Y333198D01*
X173396Y333248D01*
X173379Y333298D01*
X173387Y336480D01*
X173379Y336671D01*
X173396Y336737D01*
X173437Y336778D01*
X177091Y336795D01*
X177157Y336778D01*
D02*
G37*
G36*
X172065Y332975D02*
X172123Y332901D01*
X172114Y332744D01*
X172123Y330884D01*
Y330867D01*
X172114Y330793D01*
X172123Y330553D01*
X172106Y330487D01*
X172073Y330454D01*
X172007Y330437D01*
X171106Y330446D01*
X170990Y330429D01*
X170874Y330462D01*
X170841Y330545D01*
X170849Y332686D01*
X170833Y332851D01*
X170874Y332959D01*
X170932Y332983D01*
X171833Y332975D01*
X171949Y332992D01*
X172065Y332975D01*
D02*
G37*
G36*
X174611Y331702D02*
X174644Y331669D01*
X174661Y331603D01*
X174652Y330702D01*
X174669Y330586D01*
X174636Y330470D01*
X174553Y330437D01*
X173619Y330446D01*
X173569Y330429D01*
X173437Y330446D01*
X173379Y330520D01*
X173387Y330710D01*
X173379Y330933D01*
Y330950D01*
X173387Y331404D01*
X173379Y331595D01*
X173404Y331669D01*
X173487Y331719D01*
X173702Y331702D01*
X173751Y331719D01*
X174305Y331710D01*
X174545Y331719D01*
X174611Y331702D01*
D02*
G37*
%LPC*%
G36*
X175173Y335522D02*
X174760D01*
X174694Y335505D01*
X174669Y335480D01*
X174652Y334356D01*
X174669Y334290D01*
X174694Y334265D01*
X175818Y334248D01*
X175884Y334265D01*
X175909Y334290D01*
X175925Y335464D01*
X175884Y335505D01*
X175173Y335522D01*
D02*
G37*
%LPD*%
G36*
X174594Y362175D02*
X174636Y362133D01*
X174652Y355949D01*
X174636Y355883D01*
X174611Y355858D01*
X171155Y355842D01*
X168526D01*
X168477Y355825D01*
X168361Y355842D01*
X168320Y355883D01*
X168295Y355941D01*
X168303Y361968D01*
X168287Y362017D01*
X168303Y362133D01*
X168344Y362175D01*
X174528Y362191D01*
X174594Y362175D01*
D02*
G37*
%LPC*%
G36*
X169634Y360918D02*
X169593Y360877D01*
X169576Y357206D01*
X169593Y357140D01*
X169659Y357107D01*
X173057Y357115D01*
X173222Y357099D01*
X173338Y357115D01*
X173363Y357140D01*
X173387Y357198D01*
X173379Y357537D01*
Y357553D01*
Y360496D01*
X173396Y360810D01*
X173354Y360901D01*
X169634Y360918D01*
D02*
G37*
%LPD*%
G36*
X201305Y345649D02*
X201322Y344425D01*
X200487Y344417D01*
X200173Y344400D01*
X200107Y344417D01*
X200065Y344458D01*
X200049Y345616D01*
X200107Y345673D01*
X200222Y345690D01*
X200272Y345673D01*
X201107Y345682D01*
X201115Y345690D01*
X201214D01*
X201305Y345649D01*
D02*
G37*
G36*
X202521Y334248D02*
X202545Y334224D01*
X202587Y334166D01*
X202578Y332289D01*
Y332273D01*
Y328189D01*
X202595Y328073D01*
X202578Y327957D01*
X202537Y327916D01*
X196353Y327899D01*
X196287Y327916D01*
X196246Y327957D01*
X196229Y328122D01*
X196246Y328189D01*
X196229Y328238D01*
X196238Y333918D01*
X196229Y334141D01*
X196246Y334207D01*
X196295Y334240D01*
X196362Y334257D01*
X202521Y334248D01*
D02*
G37*
%LPC*%
G36*
X197676Y332992D02*
X197560Y332975D01*
X197536Y332950D01*
X197511Y332892D01*
X197519Y332074D01*
Y332058D01*
Y329644D01*
X197503Y329280D01*
X197544Y329189D01*
X201264Y329172D01*
X201305Y329214D01*
X201322Y332884D01*
X201305Y332950D01*
X201239Y332983D01*
X197841Y332975D01*
X197676Y332992D01*
D02*
G37*
G36*
X236327Y325342D02*
Y323065D01*
X237856D01*
X236327Y325342D01*
D02*
G37*
G36*
X257877Y325871D02*
X257856D01*
X257768Y325866D01*
X257692Y325850D01*
X257615Y325828D01*
X257544Y325800D01*
X257424Y325724D01*
X257370Y325680D01*
X257320Y325642D01*
X257277Y325599D01*
X257244Y325555D01*
X257211Y325517D01*
X257184Y325478D01*
X257168Y325451D01*
X257151Y325429D01*
X257140Y325413D01*
Y325407D01*
X257097Y325315D01*
X257058Y325205D01*
X257026Y325091D01*
X256998Y324965D01*
X256955Y324698D01*
X256927Y324430D01*
X256916Y324305D01*
X256906Y324184D01*
X256900Y324081D01*
Y323982D01*
X256895Y323906D01*
Y323846D01*
Y323824D01*
Y323808D01*
Y323802D01*
Y323797D01*
Y323589D01*
X256906Y323393D01*
X256916Y323218D01*
X256933Y323060D01*
X256949Y322912D01*
X256971Y322781D01*
X256993Y322661D01*
X257015Y322557D01*
X257042Y322470D01*
X257064Y322388D01*
X257086Y322328D01*
X257102Y322273D01*
X257119Y322235D01*
X257129Y322208D01*
X257135Y322192D01*
X257140Y322186D01*
X257189Y322104D01*
X257244Y322039D01*
X257299Y321978D01*
X257353Y321924D01*
X257413Y321880D01*
X257473Y321842D01*
X257534Y321815D01*
X257588Y321787D01*
X257692Y321755D01*
X257741Y321749D01*
X257779Y321738D01*
X257812D01*
X257834Y321733D01*
X257856D01*
X257943Y321738D01*
X258019Y321755D01*
X258096Y321777D01*
X258167Y321804D01*
X258287Y321875D01*
X258342Y321919D01*
X258391Y321962D01*
X258429Y322000D01*
X258467Y322044D01*
X258500Y322082D01*
X258527Y322115D01*
X258544Y322142D01*
X258560Y322164D01*
X258565Y322181D01*
X258571Y322186D01*
X258614Y322279D01*
X258647Y322388D01*
X258680Y322503D01*
X258707Y322628D01*
X258735Y322759D01*
X258751Y322896D01*
X258778Y323163D01*
X258789Y323289D01*
X258800Y323409D01*
X258806Y323513D01*
Y323611D01*
X258811Y323688D01*
Y323748D01*
Y323769D01*
Y323786D01*
Y323791D01*
Y323797D01*
X258806Y324004D01*
X258800Y324195D01*
X258789Y324376D01*
X258773Y324534D01*
X258756Y324681D01*
X258735Y324812D01*
X258713Y324932D01*
X258691Y325036D01*
X258669Y325124D01*
X258647Y325200D01*
X258626Y325266D01*
X258609Y325320D01*
X258593Y325358D01*
X258582Y325386D01*
X258571Y325402D01*
Y325407D01*
X258522Y325489D01*
X258467Y325560D01*
X258413Y325620D01*
X258358Y325675D01*
X258298Y325719D01*
X258238Y325757D01*
X258178Y325790D01*
X258123Y325812D01*
X258019Y325850D01*
X257970Y325855D01*
X257932Y325866D01*
X257899D01*
X257877Y325871D01*
D02*
G37*
G36*
X244369D02*
X244348D01*
X244260Y325866D01*
X244184Y325850D01*
X244107Y325828D01*
X244036Y325800D01*
X243916Y325724D01*
X243862Y325680D01*
X243812Y325642D01*
X243769Y325599D01*
X243736Y325555D01*
X243703Y325517D01*
X243676Y325478D01*
X243660Y325451D01*
X243643Y325429D01*
X243632Y325413D01*
Y325407D01*
X243589Y325315D01*
X243550Y325205D01*
X243518Y325091D01*
X243490Y324965D01*
X243447Y324698D01*
X243419Y324430D01*
X243408Y324305D01*
X243397Y324184D01*
X243392Y324081D01*
Y323982D01*
X243387Y323906D01*
Y323846D01*
Y323824D01*
Y323808D01*
Y323802D01*
Y323797D01*
Y323589D01*
X243397Y323393D01*
X243408Y323218D01*
X243425Y323060D01*
X243441Y322912D01*
X243463Y322781D01*
X243485Y322661D01*
X243507Y322557D01*
X243534Y322470D01*
X243556Y322388D01*
X243578Y322328D01*
X243594Y322273D01*
X243611Y322235D01*
X243621Y322208D01*
X243627Y322192D01*
X243632Y322186D01*
X243681Y322104D01*
X243736Y322039D01*
X243791Y321978D01*
X243845Y321924D01*
X243905Y321880D01*
X243965Y321842D01*
X244025Y321815D01*
X244080Y321787D01*
X244184Y321755D01*
X244233Y321749D01*
X244271Y321738D01*
X244304D01*
X244326Y321733D01*
X244348D01*
X244435Y321738D01*
X244511Y321755D01*
X244588Y321777D01*
X244659Y321804D01*
X244779Y321875D01*
X244833Y321919D01*
X244883Y321962D01*
X244921Y322000D01*
X244959Y322044D01*
X244992Y322082D01*
X245019Y322115D01*
X245036Y322142D01*
X245052Y322164D01*
X245057Y322181D01*
X245063Y322186D01*
X245107Y322279D01*
X245139Y322388D01*
X245172Y322503D01*
X245199Y322628D01*
X245227Y322759D01*
X245243Y322896D01*
X245270Y323163D01*
X245281Y323289D01*
X245292Y323409D01*
X245298Y323513D01*
Y323611D01*
X245303Y323688D01*
Y323748D01*
Y323769D01*
Y323786D01*
Y323791D01*
Y323797D01*
X245298Y324004D01*
X245292Y324195D01*
X245281Y324376D01*
X245265Y324534D01*
X245249Y324681D01*
X245227Y324812D01*
X245205Y324932D01*
X245183Y325036D01*
X245161Y325124D01*
X245139Y325200D01*
X245117Y325266D01*
X245101Y325320D01*
X245085Y325358D01*
X245074Y325386D01*
X245063Y325402D01*
Y325407D01*
X245014Y325489D01*
X244959Y325560D01*
X244904Y325620D01*
X244850Y325675D01*
X244790Y325719D01*
X244730Y325757D01*
X244670Y325790D01*
X244615Y325812D01*
X244511Y325850D01*
X244462Y325855D01*
X244424Y325866D01*
X244391D01*
X244369Y325871D01*
D02*
G37*
G36*
X269872Y364818D02*
X269209D01*
Y363821D01*
X269298Y363711D01*
X269387Y363616D01*
X269483Y363534D01*
X269578Y363465D01*
X269660Y363411D01*
X269728Y363370D01*
X269756Y363356D01*
X269776Y363342D01*
X269783Y363336D01*
X269790D01*
X269927Y363274D01*
X270063Y363233D01*
X270193Y363199D01*
X270309Y363178D01*
X270411Y363165D01*
X270487Y363158D01*
X270555D01*
X270705Y363165D01*
X270842Y363185D01*
X270965Y363219D01*
X271060Y363254D01*
X271142Y363281D01*
X271197Y363315D01*
X271231Y363336D01*
X271245Y363342D01*
X271327Y363418D01*
X271388Y363499D01*
X271436Y363588D01*
X271463Y363677D01*
X271484Y363752D01*
X271491Y363814D01*
X271497Y363855D01*
Y363861D01*
Y363868D01*
X271491Y363957D01*
X271477Y364032D01*
X271456Y364114D01*
X271422Y364182D01*
X271381Y364251D01*
X271334Y364305D01*
X271224Y364415D01*
X271094Y364510D01*
X270944Y364585D01*
X270787Y364647D01*
X270623Y364702D01*
X270466Y364736D01*
X270309Y364770D01*
X270159Y364790D01*
X270029Y364804D01*
X269920Y364811D01*
X269872Y364818D01*
D02*
G37*
G36*
X248146D02*
X247483D01*
Y363821D01*
X247572Y363711D01*
X247661Y363616D01*
X247756Y363534D01*
X247852Y363465D01*
X247934Y363411D01*
X248002Y363370D01*
X248029Y363356D01*
X248050Y363342D01*
X248057Y363336D01*
X248064D01*
X248200Y363274D01*
X248337Y363233D01*
X248467Y363199D01*
X248583Y363178D01*
X248685Y363165D01*
X248760Y363158D01*
X248829D01*
X248979Y363165D01*
X249115Y363185D01*
X249238Y363219D01*
X249334Y363254D01*
X249416Y363281D01*
X249471Y363315D01*
X249505Y363336D01*
X249518Y363342D01*
X249600Y363418D01*
X249662Y363499D01*
X249710Y363588D01*
X249737Y363677D01*
X249758Y363752D01*
X249764Y363814D01*
X249771Y363855D01*
Y363861D01*
Y363868D01*
X249764Y363957D01*
X249751Y364032D01*
X249730Y364114D01*
X249696Y364182D01*
X249655Y364251D01*
X249607Y364305D01*
X249498Y364415D01*
X249368Y364510D01*
X249218Y364585D01*
X249061Y364647D01*
X248897Y364702D01*
X248740Y364736D01*
X248583Y364770D01*
X248432Y364790D01*
X248303Y364804D01*
X248194Y364811D01*
X248146Y364818D01*
D02*
G37*
G36*
X230312Y366614D02*
X230176D01*
X230087Y366600D01*
X229930Y366566D01*
X229787Y366512D01*
X229664Y366457D01*
X229568Y366395D01*
X229500Y366341D01*
X229472Y366320D01*
X229452Y366307D01*
X229445Y366300D01*
X229438Y366293D01*
X229377Y366232D01*
X229322Y366156D01*
X229226Y366006D01*
X229145Y365842D01*
X229090Y365685D01*
X229042Y365548D01*
X229029Y365480D01*
X229015Y365432D01*
X229008Y365385D01*
X229001Y365351D01*
X228994Y365330D01*
Y365323D01*
X231528D01*
X231508Y365439D01*
X231481Y365548D01*
X231453Y365651D01*
X231419Y365747D01*
X231385Y365835D01*
X231351Y365917D01*
X231310Y365986D01*
X231276Y366054D01*
X231235Y366109D01*
X231207Y366156D01*
X231173Y366197D01*
X231146Y366232D01*
X231125Y366259D01*
X231105Y366279D01*
X231098Y366286D01*
X231091Y366293D01*
X231023Y366348D01*
X230955Y366402D01*
X230818Y366477D01*
X230675Y366539D01*
X230545Y366573D01*
X230435Y366600D01*
X230388Y366607D01*
X230347D01*
X230312Y366614D01*
D02*
G37*
G36*
X237436Y368171D02*
X235353D01*
X235244Y368158D01*
X235135Y368144D01*
X235039Y368124D01*
X234943Y368103D01*
X234861Y368076D01*
X234704Y368007D01*
X234574Y367925D01*
X234472Y367837D01*
X234383Y367741D01*
X234308Y367645D01*
X234253Y367543D01*
X234212Y367447D01*
X234185Y367358D01*
X234165Y367277D01*
X234151Y367208D01*
X234144Y367160D01*
Y367126D01*
Y367113D01*
X234151Y367003D01*
X234158Y366908D01*
X234178Y366812D01*
X234199Y366730D01*
X234226Y366655D01*
X234253Y366587D01*
X234288Y366525D01*
X234315Y366471D01*
X234349Y366423D01*
X234383Y366382D01*
X234438Y366320D01*
X234479Y366286D01*
X234486Y366272D01*
X234492D01*
X234561Y366232D01*
X234636Y366191D01*
X234807Y366136D01*
X234991Y366095D01*
X235175Y366061D01*
X235257Y366054D01*
X235339Y366047D01*
X235408Y366040D01*
X235476D01*
X235524Y366034D01*
X237436D01*
Y368171D01*
D02*
G37*
G36*
X218278Y368069D02*
X217185Y365180D01*
X219323D01*
X218278Y368069D01*
D02*
G37*
G36*
X258220Y366614D02*
X258165D01*
X258063Y366607D01*
X257960Y366594D01*
X257865Y366573D01*
X257776Y366546D01*
X257619Y366477D01*
X257482Y366395D01*
X257428Y366354D01*
X257380Y366314D01*
X257339Y366279D01*
X257298Y366245D01*
X257271Y366218D01*
X257250Y366197D01*
X257243Y366184D01*
X257236Y366177D01*
X257175Y366095D01*
X257120Y365999D01*
X257072Y365897D01*
X257031Y365794D01*
X256970Y365583D01*
X256922Y365371D01*
X256908Y365275D01*
X256902Y365180D01*
X256895Y365098D01*
X256888Y365030D01*
X256881Y364968D01*
Y364927D01*
Y364893D01*
Y364886D01*
X256888Y364729D01*
X256895Y364585D01*
X256915Y364449D01*
X256936Y364319D01*
X256963Y364203D01*
X256991Y364101D01*
X257025Y363998D01*
X257059Y363916D01*
X257093Y363841D01*
X257127Y363773D01*
X257154Y363718D01*
X257182Y363670D01*
X257202Y363636D01*
X257223Y363609D01*
X257230Y363595D01*
X257236Y363588D01*
X257305Y363513D01*
X257380Y363445D01*
X257455Y363390D01*
X257530Y363342D01*
X257612Y363301D01*
X257687Y363261D01*
X257831Y363213D01*
X257967Y363178D01*
X258022Y363172D01*
X258070Y363165D01*
X258111Y363158D01*
X258165D01*
X258268Y363165D01*
X258370Y363178D01*
X258466Y363199D01*
X258555Y363226D01*
X258712Y363295D01*
X258841Y363377D01*
X258903Y363411D01*
X258951Y363452D01*
X258992Y363486D01*
X259033Y363520D01*
X259060Y363547D01*
X259081Y363568D01*
X259087Y363581D01*
X259094Y363588D01*
X259156Y363677D01*
X259210Y363773D01*
X259258Y363868D01*
X259299Y363978D01*
X259361Y364189D01*
X259401Y364401D01*
X259422Y364497D01*
X259429Y364592D01*
X259436Y364674D01*
X259442Y364743D01*
X259449Y364804D01*
Y364845D01*
Y364879D01*
Y364886D01*
X259442Y365043D01*
X259436Y365187D01*
X259415Y365323D01*
X259395Y365453D01*
X259367Y365569D01*
X259340Y365671D01*
X259306Y365767D01*
X259272Y365856D01*
X259238Y365931D01*
X259203Y365992D01*
X259176Y366054D01*
X259149Y366095D01*
X259128Y366129D01*
X259108Y366156D01*
X259101Y366170D01*
X259094Y366177D01*
X259026Y366252D01*
X258951Y366320D01*
X258876Y366382D01*
X258801Y366430D01*
X258718Y366471D01*
X258643Y366505D01*
X258493Y366559D01*
X258363Y366594D01*
X258309Y366600D01*
X258261Y366607D01*
X258220Y366614D01*
D02*
G37*
G36*
X243884D02*
X243836D01*
X243713Y366607D01*
X243597Y366594D01*
X243481Y366566D01*
X243372Y366532D01*
X243173Y366443D01*
X243078Y366389D01*
X242996Y366341D01*
X242921Y366293D01*
X242852Y366238D01*
X242798Y366197D01*
X242743Y366156D01*
X242709Y366115D01*
X242675Y366088D01*
X242661Y366074D01*
X242654Y366068D01*
Y363930D01*
X242757Y363793D01*
X242866Y363677D01*
X242969Y363575D01*
X243078Y363486D01*
X243180Y363411D01*
X243276Y363349D01*
X243378Y363295D01*
X243467Y363254D01*
X243549Y363219D01*
X243631Y363199D01*
X243699Y363178D01*
X243754Y363172D01*
X243802Y363165D01*
X243843Y363158D01*
X243870D01*
X243966Y363165D01*
X244055Y363178D01*
X244136Y363199D01*
X244212Y363226D01*
X244348Y363295D01*
X244464Y363377D01*
X244553Y363452D01*
X244621Y363520D01*
X244649Y363547D01*
X244662Y363568D01*
X244669Y363581D01*
X244676Y363588D01*
X244724Y363670D01*
X244772Y363766D01*
X244840Y363971D01*
X244895Y364176D01*
X244929Y364381D01*
X244936Y364476D01*
X244949Y364565D01*
X244956Y364647D01*
Y364715D01*
X244963Y364770D01*
Y364818D01*
Y364845D01*
Y364852D01*
X244956Y365009D01*
X244949Y365159D01*
X244936Y365296D01*
X244915Y365426D01*
X244895Y365548D01*
X244867Y365651D01*
X244840Y365754D01*
X244806Y365842D01*
X244778Y365917D01*
X244751Y365986D01*
X244724Y366040D01*
X244703Y366088D01*
X244683Y366122D01*
X244669Y366150D01*
X244655Y366163D01*
Y366170D01*
X244594Y366245D01*
X244533Y366314D01*
X244464Y366375D01*
X244396Y366430D01*
X244328Y366471D01*
X244259Y366505D01*
X244130Y366559D01*
X244014Y366594D01*
X243966Y366600D01*
X243918Y366607D01*
X243884Y366614D01*
D02*
G37*
G36*
X253172D02*
X253145D01*
X253050Y366607D01*
X252961Y366594D01*
X252879Y366573D01*
X252797Y366546D01*
X252660Y366477D01*
X252544Y366402D01*
X252455Y366320D01*
X252394Y366252D01*
X252367Y366225D01*
X252353Y366204D01*
X252339Y366191D01*
Y366184D01*
X252291Y366102D01*
X252244Y366006D01*
X252175Y365808D01*
X252121Y365596D01*
X252087Y365391D01*
X252073Y365296D01*
X252066Y365207D01*
X252059Y365125D01*
Y365057D01*
X252052Y365002D01*
Y364954D01*
Y364927D01*
Y364920D01*
Y364763D01*
X252066Y364613D01*
X252080Y364476D01*
X252100Y364347D01*
X252121Y364230D01*
X252148Y364121D01*
X252175Y364019D01*
X252203Y363937D01*
X252237Y363855D01*
X252264Y363786D01*
X252291Y363732D01*
X252312Y363684D01*
X252332Y363650D01*
X252346Y363622D01*
X252353Y363609D01*
X252360Y363602D01*
X252421Y363527D01*
X252483Y363459D01*
X252544Y363397D01*
X252612Y363342D01*
X252681Y363301D01*
X252749Y363267D01*
X252879Y363213D01*
X253002Y363178D01*
X253050Y363172D01*
X253091Y363165D01*
X253132Y363158D01*
X253179D01*
X253302Y363165D01*
X253425Y363178D01*
X253535Y363206D01*
X253644Y363247D01*
X253849Y363329D01*
X253938Y363383D01*
X254019Y363431D01*
X254095Y363479D01*
X254163Y363534D01*
X254224Y363575D01*
X254272Y363622D01*
X254306Y363657D01*
X254341Y363684D01*
X254354Y363698D01*
X254361Y363704D01*
Y365842D01*
X254258Y365979D01*
X254149Y366095D01*
X254047Y366197D01*
X253938Y366286D01*
X253835Y366361D01*
X253733Y366423D01*
X253637Y366477D01*
X253548Y366518D01*
X253466Y366553D01*
X253384Y366573D01*
X253316Y366594D01*
X253261Y366600D01*
X253214Y366607D01*
X253172Y366614D01*
D02*
G37*
G36*
X251052Y351643D02*
X251014D01*
X250916Y351637D01*
X250823Y351626D01*
X250730Y351604D01*
X250643Y351577D01*
X250485Y351506D01*
X250408Y351462D01*
X250343Y351424D01*
X250283Y351386D01*
X250228Y351342D01*
X250184Y351309D01*
X250141Y351277D01*
X250113Y351244D01*
X250086Y351222D01*
X250075Y351211D01*
X250070Y351206D01*
Y349497D01*
X250151Y349388D01*
X250239Y349295D01*
X250321Y349213D01*
X250408Y349142D01*
X250490Y349082D01*
X250567Y349033D01*
X250648Y348989D01*
X250719Y348956D01*
X250785Y348929D01*
X250850Y348913D01*
X250905Y348896D01*
X250949Y348891D01*
X250987Y348885D01*
X251020Y348880D01*
X251042D01*
X251118Y348885D01*
X251189Y348896D01*
X251255Y348913D01*
X251314Y348934D01*
X251424Y348989D01*
X251517Y349055D01*
X251588Y349115D01*
X251642Y349169D01*
X251664Y349191D01*
X251675Y349207D01*
X251680Y349218D01*
X251686Y349224D01*
X251724Y349289D01*
X251762Y349366D01*
X251817Y349530D01*
X251860Y349693D01*
X251888Y349857D01*
X251893Y349934D01*
X251904Y350005D01*
X251910Y350070D01*
Y350125D01*
X251915Y350168D01*
Y350207D01*
Y350229D01*
Y350234D01*
X251910Y350360D01*
X251904Y350480D01*
X251893Y350589D01*
X251877Y350693D01*
X251860Y350791D01*
X251839Y350873D01*
X251817Y350955D01*
X251789Y351026D01*
X251768Y351086D01*
X251746Y351140D01*
X251724Y351184D01*
X251708Y351222D01*
X251691Y351250D01*
X251680Y351271D01*
X251669Y351282D01*
Y351288D01*
X251620Y351348D01*
X251571Y351402D01*
X251517Y351451D01*
X251462Y351495D01*
X251407Y351528D01*
X251353Y351555D01*
X251249Y351599D01*
X251156Y351626D01*
X251118Y351632D01*
X251080Y351637D01*
X251052Y351643D01*
D02*
G37*
G36*
X233471D02*
X233449D01*
X233373Y351637D01*
X233302Y351626D01*
X233237Y351610D01*
X233171Y351588D01*
X233062Y351533D01*
X232969Y351473D01*
X232898Y351408D01*
X232849Y351353D01*
X232827Y351331D01*
X232816Y351315D01*
X232805Y351304D01*
Y351299D01*
X232767Y351233D01*
X232729Y351157D01*
X232674Y350998D01*
X232630Y350829D01*
X232603Y350665D01*
X232592Y350589D01*
X232587Y350518D01*
X232581Y350452D01*
Y350398D01*
X232576Y350354D01*
Y350316D01*
Y350294D01*
Y350289D01*
Y350163D01*
X232587Y350043D01*
X232598Y349934D01*
X232614Y349830D01*
X232630Y349737D01*
X232652Y349650D01*
X232674Y349568D01*
X232696Y349502D01*
X232723Y349437D01*
X232745Y349382D01*
X232767Y349339D01*
X232783Y349300D01*
X232800Y349273D01*
X232811Y349251D01*
X232816Y349240D01*
X232821Y349235D01*
X232871Y349175D01*
X232920Y349120D01*
X232969Y349071D01*
X233024Y349027D01*
X233078Y348994D01*
X233133Y348967D01*
X233237Y348923D01*
X233335Y348896D01*
X233373Y348891D01*
X233406Y348885D01*
X233438Y348880D01*
X233477D01*
X233575Y348885D01*
X233673Y348896D01*
X233761Y348918D01*
X233848Y348951D01*
X234012Y349016D01*
X234083Y349060D01*
X234148Y349098D01*
X234208Y349136D01*
X234263Y349180D01*
X234312Y349213D01*
X234350Y349251D01*
X234378Y349278D01*
X234405Y349300D01*
X234416Y349311D01*
X234421Y349317D01*
Y351026D01*
X234339Y351135D01*
X234252Y351228D01*
X234170Y351309D01*
X234083Y351380D01*
X234001Y351441D01*
X233919Y351490D01*
X233842Y351533D01*
X233771Y351566D01*
X233706Y351593D01*
X233641Y351610D01*
X233586Y351626D01*
X233542Y351632D01*
X233504Y351637D01*
X233471Y351643D01*
D02*
G37*
G36*
X259843D02*
X259734D01*
X259663Y351632D01*
X259537Y351604D01*
X259423Y351561D01*
X259324Y351517D01*
X259248Y351468D01*
X259193Y351424D01*
X259172Y351408D01*
X259155Y351397D01*
X259150Y351391D01*
X259144Y351386D01*
X259095Y351337D01*
X259051Y351277D01*
X258975Y351157D01*
X258909Y351026D01*
X258866Y350900D01*
X258827Y350791D01*
X258817Y350736D01*
X258806Y350698D01*
X258800Y350660D01*
X258795Y350633D01*
X258789Y350616D01*
Y350611D01*
X260815D01*
X260799Y350704D01*
X260777Y350791D01*
X260755Y350873D01*
X260728Y350949D01*
X260700Y351020D01*
X260673Y351086D01*
X260640Y351140D01*
X260613Y351195D01*
X260580Y351238D01*
X260558Y351277D01*
X260531Y351309D01*
X260509Y351337D01*
X260493Y351359D01*
X260476Y351375D01*
X260471Y351380D01*
X260466Y351386D01*
X260411Y351430D01*
X260356Y351473D01*
X260247Y351533D01*
X260132Y351583D01*
X260029Y351610D01*
X259941Y351632D01*
X259903Y351637D01*
X259870D01*
X259843Y351643D01*
D02*
G37*
G36*
X243206D02*
X243097D01*
X243026Y351632D01*
X242901Y351604D01*
X242786Y351561D01*
X242688Y351517D01*
X242611Y351468D01*
X242557Y351424D01*
X242535Y351408D01*
X242518Y351397D01*
X242513Y351391D01*
X242508Y351386D01*
X242458Y351337D01*
X242415Y351277D01*
X242338Y351157D01*
X242273Y351026D01*
X242229Y350900D01*
X242191Y350791D01*
X242180Y350736D01*
X242169Y350698D01*
X242164Y350660D01*
X242158Y350633D01*
X242153Y350616D01*
Y350611D01*
X244178D01*
X244162Y350704D01*
X244140Y350791D01*
X244118Y350873D01*
X244091Y350949D01*
X244064Y351020D01*
X244036Y351086D01*
X244004Y351140D01*
X243976Y351195D01*
X243944Y351238D01*
X243922Y351277D01*
X243894Y351309D01*
X243872Y351337D01*
X243856Y351359D01*
X243840Y351375D01*
X243834Y351380D01*
X243829Y351386D01*
X243774Y351430D01*
X243720Y351473D01*
X243611Y351533D01*
X243496Y351583D01*
X243392Y351610D01*
X243305Y351632D01*
X243267Y351637D01*
X243234D01*
X243206Y351643D01*
D02*
G37*
G36*
X265538Y352844D02*
X264632D01*
X264435Y352838D01*
X264260Y352822D01*
X264096Y352800D01*
X263944Y352767D01*
X263812Y352729D01*
X263692Y352691D01*
X263583Y352642D01*
X263490Y352598D01*
X263408Y352554D01*
X263337Y352511D01*
X263283Y352467D01*
X263234Y352429D01*
X263201Y352396D01*
X263174Y352374D01*
X263163Y352358D01*
X263157Y352352D01*
X263086Y352260D01*
X263026Y352156D01*
X262977Y352047D01*
X262928Y351932D01*
X262890Y351817D01*
X262862Y351703D01*
X262835Y351593D01*
X262813Y351484D01*
X262797Y351380D01*
X262786Y351282D01*
X262775Y351200D01*
X262770Y351124D01*
X262764Y351064D01*
Y351015D01*
Y350987D01*
Y350976D01*
X262770Y350807D01*
X262780Y350654D01*
X262802Y350507D01*
X262824Y350370D01*
X262857Y350239D01*
X262890Y350125D01*
X262923Y350021D01*
X262961Y349923D01*
X262999Y349841D01*
X263032Y349764D01*
X263064Y349699D01*
X263097Y349650D01*
X263119Y349611D01*
X263141Y349579D01*
X263152Y349562D01*
X263157Y349557D01*
X263239Y349469D01*
X263332Y349393D01*
X263441Y349322D01*
X263556Y349268D01*
X263670Y349218D01*
X263796Y349175D01*
X263922Y349142D01*
X264042Y349120D01*
X264156Y349098D01*
X264271Y349082D01*
X264369Y349071D01*
X264457Y349060D01*
X264528D01*
X264582Y349055D01*
X265538D01*
Y352844D01*
D02*
G37*
G36*
X239472Y351643D02*
X239434D01*
X239335Y351637D01*
X239243Y351626D01*
X239150Y351604D01*
X239062Y351577D01*
X238904Y351506D01*
X238827Y351462D01*
X238762Y351424D01*
X238702Y351386D01*
X238647Y351342D01*
X238604Y351309D01*
X238560Y351277D01*
X238533Y351244D01*
X238505Y351222D01*
X238494Y351211D01*
X238489Y351206D01*
Y349497D01*
X238571Y349388D01*
X238658Y349295D01*
X238740Y349213D01*
X238827Y349142D01*
X238909Y349082D01*
X238986Y349033D01*
X239068Y348989D01*
X239139Y348956D01*
X239204Y348929D01*
X239270Y348913D01*
X239324Y348896D01*
X239368Y348891D01*
X239406Y348885D01*
X239439Y348880D01*
X239461D01*
X239537Y348885D01*
X239608Y348896D01*
X239674Y348913D01*
X239734Y348934D01*
X239843Y348989D01*
X239936Y349055D01*
X240007Y349115D01*
X240061Y349169D01*
X240083Y349191D01*
X240094Y349207D01*
X240100Y349218D01*
X240105Y349224D01*
X240143Y349289D01*
X240182Y349366D01*
X240236Y349530D01*
X240280Y349693D01*
X240307Y349857D01*
X240313Y349934D01*
X240323Y350005D01*
X240329Y350070D01*
Y350125D01*
X240335Y350168D01*
Y350207D01*
Y350229D01*
Y350234D01*
X240329Y350360D01*
X240323Y350480D01*
X240313Y350589D01*
X240296Y350693D01*
X240280Y350791D01*
X240258Y350873D01*
X240236Y350955D01*
X240209Y351026D01*
X240187Y351086D01*
X240165Y351140D01*
X240143Y351184D01*
X240127Y351222D01*
X240111Y351250D01*
X240100Y351271D01*
X240089Y351282D01*
Y351288D01*
X240040Y351348D01*
X239990Y351402D01*
X239936Y351451D01*
X239881Y351495D01*
X239827Y351528D01*
X239772Y351555D01*
X239668Y351599D01*
X239576Y351626D01*
X239537Y351632D01*
X239499Y351637D01*
X239472Y351643D01*
D02*
G37*
G36*
X264326Y335945D02*
X263796D01*
Y335148D01*
X263867Y335061D01*
X263938Y334984D01*
X264015Y334919D01*
X264091Y334864D01*
X264156Y334820D01*
X264211Y334788D01*
X264233Y334777D01*
X264249Y334766D01*
X264255Y334760D01*
X264260D01*
X264369Y334711D01*
X264479Y334678D01*
X264582Y334651D01*
X264675Y334635D01*
X264757Y334624D01*
X264817Y334618D01*
X264872D01*
X264992Y334624D01*
X265101Y334640D01*
X265199Y334667D01*
X265276Y334695D01*
X265341Y334717D01*
X265385Y334744D01*
X265412Y334760D01*
X265423Y334766D01*
X265489Y334826D01*
X265538Y334891D01*
X265576Y334962D01*
X265598Y335033D01*
X265614Y335093D01*
X265620Y335142D01*
X265625Y335175D01*
Y335181D01*
Y335186D01*
X265620Y335257D01*
X265609Y335317D01*
X265592Y335383D01*
X265565Y335437D01*
X265532Y335492D01*
X265494Y335536D01*
X265407Y335623D01*
X265303Y335699D01*
X265183Y335759D01*
X265057Y335809D01*
X264926Y335852D01*
X264801Y335880D01*
X264675Y335907D01*
X264555Y335923D01*
X264451Y335934D01*
X264364Y335940D01*
X264326Y335945D01*
D02*
G37*
G36*
X258538D02*
X258009D01*
Y335148D01*
X258080Y335061D01*
X258150Y334984D01*
X258227Y334919D01*
X258303Y334864D01*
X258369Y334820D01*
X258423Y334788D01*
X258445Y334777D01*
X258462Y334766D01*
X258467Y334760D01*
X258473D01*
X258582Y334711D01*
X258691Y334678D01*
X258795Y334651D01*
X258888Y334635D01*
X258969Y334624D01*
X259030Y334618D01*
X259084D01*
X259204Y334624D01*
X259313Y334640D01*
X259412Y334667D01*
X259488Y334695D01*
X259554Y334717D01*
X259597Y334744D01*
X259625Y334760D01*
X259636Y334766D01*
X259701Y334826D01*
X259750Y334891D01*
X259788Y334962D01*
X259810Y335033D01*
X259827Y335093D01*
X259832Y335142D01*
X259838Y335175D01*
Y335181D01*
Y335186D01*
X259832Y335257D01*
X259821Y335317D01*
X259805Y335383D01*
X259777Y335437D01*
X259745Y335492D01*
X259706Y335536D01*
X259619Y335623D01*
X259515Y335699D01*
X259395Y335759D01*
X259270Y335809D01*
X259139Y335852D01*
X259013Y335880D01*
X258888Y335907D01*
X258767Y335923D01*
X258664Y335934D01*
X258576Y335940D01*
X258538Y335945D01*
D02*
G37*
G36*
X243108D02*
X242579D01*
Y335148D01*
X242650Y335061D01*
X242721Y334984D01*
X242797Y334919D01*
X242873Y334864D01*
X242939Y334820D01*
X242993Y334788D01*
X243015Y334777D01*
X243032Y334766D01*
X243037Y334760D01*
X243043D01*
X243152Y334711D01*
X243261Y334678D01*
X243365Y334651D01*
X243458Y334635D01*
X243540Y334624D01*
X243600Y334618D01*
X243654D01*
X243774Y334624D01*
X243883Y334640D01*
X243982Y334667D01*
X244058Y334695D01*
X244124Y334717D01*
X244167Y334744D01*
X244195Y334760D01*
X244206Y334766D01*
X244271Y334826D01*
X244320Y334891D01*
X244358Y334962D01*
X244380Y335033D01*
X244397Y335093D01*
X244402Y335142D01*
X244408Y335175D01*
Y335181D01*
Y335186D01*
X244402Y335257D01*
X244391Y335317D01*
X244375Y335383D01*
X244348Y335437D01*
X244315Y335492D01*
X244277Y335536D01*
X244189Y335623D01*
X244086Y335699D01*
X243965Y335759D01*
X243840Y335809D01*
X243709Y335852D01*
X243583Y335880D01*
X243458Y335907D01*
X243337Y335923D01*
X243234Y335934D01*
X243146Y335940D01*
X243108Y335945D01*
D02*
G37*
G36*
X218495D02*
X217965D01*
Y335148D01*
X218036Y335061D01*
X218107Y334984D01*
X218183Y334919D01*
X218260Y334864D01*
X218325Y334820D01*
X218380Y334788D01*
X218402Y334777D01*
X218418Y334766D01*
X218424Y334760D01*
X218429D01*
X218538Y334711D01*
X218647Y334678D01*
X218751Y334651D01*
X218844Y334635D01*
X218926Y334624D01*
X218986Y334618D01*
X219040D01*
X219161Y334624D01*
X219270Y334640D01*
X219368Y334667D01*
X219444Y334695D01*
X219510Y334717D01*
X219554Y334744D01*
X219581Y334760D01*
X219592Y334766D01*
X219657Y334826D01*
X219707Y334891D01*
X219745Y334962D01*
X219767Y335033D01*
X219783Y335093D01*
X219789Y335142D01*
X219794Y335175D01*
Y335181D01*
Y335186D01*
X219789Y335257D01*
X219778Y335317D01*
X219761Y335383D01*
X219734Y335437D01*
X219701Y335492D01*
X219663Y335536D01*
X219576Y335623D01*
X219472Y335699D01*
X219352Y335759D01*
X219226Y335809D01*
X219095Y335852D01*
X218969Y335880D01*
X218844Y335907D01*
X218724Y335923D01*
X218620Y335934D01*
X218533Y335940D01*
X218495Y335945D01*
D02*
G37*
G36*
X229627Y337381D02*
X229518D01*
X229447Y337370D01*
X229322Y337343D01*
X229207Y337299D01*
X229109Y337256D01*
X229032Y337206D01*
X228978Y337163D01*
X228956Y337146D01*
X228939Y337135D01*
X228934Y337130D01*
X228928Y337124D01*
X228879Y337075D01*
X228836Y337015D01*
X228759Y336895D01*
X228694Y336764D01*
X228650Y336639D01*
X228612Y336529D01*
X228601Y336475D01*
X228590Y336437D01*
X228585Y336398D01*
X228579Y336371D01*
X228574Y336355D01*
Y336349D01*
X230599D01*
X230583Y336442D01*
X230561Y336529D01*
X230539Y336611D01*
X230512Y336688D01*
X230485Y336759D01*
X230457Y336824D01*
X230425Y336879D01*
X230397Y336933D01*
X230364Y336977D01*
X230343Y337015D01*
X230315Y337048D01*
X230293Y337075D01*
X230277Y337097D01*
X230261Y337114D01*
X230255Y337119D01*
X230250Y337124D01*
X230195Y337168D01*
X230141Y337212D01*
X230031Y337272D01*
X229917Y337321D01*
X229813Y337348D01*
X229726Y337370D01*
X229688Y337376D01*
X229655D01*
X229627Y337381D01*
D02*
G37*
G36*
X252800Y338544D02*
X251926Y336234D01*
X253635D01*
X252800Y338544D01*
D02*
G37*
G36*
X234934Y338582D02*
X233777D01*
X233673Y338577D01*
X233580Y338566D01*
X233493Y338555D01*
X233411Y338539D01*
X233340Y338522D01*
X233280Y338506D01*
X233220Y338490D01*
X233171Y338473D01*
X233133Y338457D01*
X233095Y338440D01*
X233067Y338424D01*
X233045Y338413D01*
X233029Y338402D01*
X233024Y338397D01*
X233018D01*
X232974Y338358D01*
X232936Y338320D01*
X232871Y338233D01*
X232827Y338140D01*
X232800Y338053D01*
X232778Y337971D01*
X232772Y337905D01*
X232767Y337878D01*
Y337862D01*
Y337851D01*
Y337845D01*
X232772Y337774D01*
X232778Y337703D01*
X232805Y337583D01*
X232849Y337485D01*
X232898Y337403D01*
X232947Y337343D01*
X232985Y337299D01*
X233018Y337277D01*
X233024Y337266D01*
X233029D01*
X233078Y337234D01*
X233138Y337206D01*
X233264Y337168D01*
X233395Y337135D01*
X233526Y337114D01*
X233646Y337103D01*
X233695Y337097D01*
X233744D01*
X233777Y337092D01*
X234934D01*
Y338582D01*
D02*
G37*
G36*
Y336502D02*
X233690D01*
X233575Y336491D01*
X233466Y336486D01*
X233362Y336469D01*
X233275Y336453D01*
X233193Y336437D01*
X233122Y336420D01*
X233056Y336398D01*
X233002Y336377D01*
X232958Y336360D01*
X232920Y336344D01*
X232887Y336327D01*
X232860Y336316D01*
X232843Y336305D01*
X232838Y336295D01*
X232832D01*
X232783Y336251D01*
X232740Y336207D01*
X232707Y336158D01*
X232674Y336104D01*
X232625Y336000D01*
X232592Y335891D01*
X232576Y335798D01*
X232565Y335754D01*
Y335716D01*
X232559Y335688D01*
Y335667D01*
Y335650D01*
Y335645D01*
X232565Y335568D01*
X232570Y335497D01*
X232587Y335426D01*
X232609Y335366D01*
X232669Y335252D01*
X232745Y335154D01*
X232832Y335071D01*
X232931Y335001D01*
X233040Y334946D01*
X233149Y334902D01*
X233258Y334864D01*
X233367Y334837D01*
X233466Y334820D01*
X233553Y334804D01*
X233630Y334799D01*
X233690Y334793D01*
X234934D01*
Y336502D01*
D02*
G37*
%LPD*%
D10*
X269339Y383661D02*
X273338D01*
X259339D02*
X263338D01*
X261339Y385661D02*
Y381662D01*
X57993Y243007D02*
X58993Y244007D01*
X60992D01*
X61992Y243007D01*
Y242007D01*
X60992Y241008D01*
X58993D01*
X57993Y240008D01*
Y239008D01*
X58993Y238008D01*
X60992D01*
X61992Y239008D01*
X55994Y244007D02*
Y238008D01*
X53995Y240008D01*
X51995Y238008D01*
Y244007D01*
X49996Y238008D02*
X47997D01*
X48996D01*
Y244007D01*
X49996Y243007D01*
X44998D02*
X43998Y244007D01*
X41999D01*
X40999Y243007D01*
Y242007D01*
X41999Y241008D01*
X42998D01*
X41999D01*
X40999Y240008D01*
Y239008D01*
X41999Y238008D01*
X43998D01*
X44998Y239008D01*
X132993Y243007D02*
X133992Y244007D01*
X135992D01*
X136991Y243007D01*
Y242007D01*
X135992Y241008D01*
X133992D01*
X132993Y240008D01*
Y239008D01*
X133992Y238008D01*
X135992D01*
X136991Y239008D01*
X130993Y244007D02*
Y238008D01*
X128994Y240008D01*
X126995Y238008D01*
Y244007D01*
X124995Y238008D02*
X122996D01*
X123995D01*
Y244007D01*
X124995Y243007D01*
X116998Y238008D02*
Y244007D01*
X119997Y241008D01*
X115998D01*
X207993Y243007D02*
X208992Y244007D01*
X210992D01*
X211991Y243007D01*
Y242007D01*
X210992Y241008D01*
X208992D01*
X207993Y240008D01*
Y239008D01*
X208992Y238008D01*
X210992D01*
X211991Y239008D01*
X205993Y244007D02*
Y238008D01*
X203994Y240008D01*
X201995Y238008D01*
Y244007D01*
X199995Y238008D02*
X197996D01*
X198995D01*
Y244007D01*
X199995Y243007D01*
X190998Y244007D02*
X194997D01*
Y241008D01*
X192998Y242007D01*
X191998D01*
X190998Y241008D01*
Y239008D01*
X191998Y238008D01*
X193997D01*
X194997Y239008D01*
X282993Y243007D02*
X283992Y244007D01*
X285992D01*
X286991Y243007D01*
Y242007D01*
X285992Y241008D01*
X283992D01*
X282993Y240008D01*
Y239008D01*
X283992Y238008D01*
X285992D01*
X286991Y239008D01*
X280993Y244007D02*
Y238008D01*
X278994Y240008D01*
X276995Y238008D01*
Y244007D01*
X274995Y238008D02*
X272996D01*
X273995D01*
Y244007D01*
X274995Y243007D01*
X265998Y244007D02*
X267998Y243007D01*
X269997Y241008D01*
Y239008D01*
X268997Y238008D01*
X266998D01*
X265998Y239008D01*
Y240008D01*
X266998Y241008D01*
X269997D01*
X57993Y168007D02*
X58993Y169007D01*
X60992D01*
X61992Y168007D01*
Y167007D01*
X60992Y166008D01*
X58993D01*
X57993Y165008D01*
Y164008D01*
X58993Y163008D01*
X60992D01*
X61992Y164008D01*
X55994Y169007D02*
Y163008D01*
X53995Y165008D01*
X51995Y163008D01*
Y169007D01*
X49996Y164008D02*
X48996Y163008D01*
X46997D01*
X45997Y164008D01*
Y168007D01*
X46997Y169007D01*
X48996D01*
X49996Y168007D01*
Y167007D01*
X48996Y166008D01*
X45997D01*
X132993Y168007D02*
X133992Y169007D01*
X135992D01*
X136991Y168007D01*
Y167007D01*
X135992Y166008D01*
X133992D01*
X132993Y165008D01*
Y164008D01*
X133992Y163008D01*
X135992D01*
X136991Y164008D01*
X130993Y169007D02*
Y163008D01*
X128994Y165008D01*
X126995Y163008D01*
Y169007D01*
X124995Y163008D02*
X122996D01*
X123995D01*
Y169007D01*
X124995Y168007D01*
X119997D02*
X118997Y169007D01*
X116998D01*
X115998Y168007D01*
Y164008D01*
X116998Y163008D01*
X118997D01*
X119997Y164008D01*
Y168007D01*
X207993D02*
X208992Y169007D01*
X210992D01*
X211991Y168007D01*
Y167007D01*
X210992Y166008D01*
X208992D01*
X207993Y165008D01*
Y164008D01*
X208992Y163008D01*
X210992D01*
X211991Y164008D01*
X205993Y169007D02*
Y163008D01*
X203994Y165008D01*
X201995Y163008D01*
Y169007D01*
X199995Y163008D02*
X197996D01*
X198995D01*
Y169007D01*
X199995Y168007D01*
X194997Y163008D02*
X192998D01*
X193997D01*
Y169007D01*
X194997Y168007D01*
X282993D02*
X283992Y169007D01*
X285992D01*
X286991Y168007D01*
Y167007D01*
X285992Y166008D01*
X283992D01*
X282993Y165008D01*
Y164008D01*
X283992Y163008D01*
X285992D01*
X286991Y164008D01*
X280993Y169007D02*
Y163008D01*
X278994Y165008D01*
X276995Y163008D01*
Y169007D01*
X274995Y163008D02*
X272996D01*
X273995D01*
Y169007D01*
X274995Y168007D01*
X265998Y163008D02*
X269997D01*
X265998Y167007D01*
Y168007D01*
X266998Y169007D01*
X268997D01*
X269997Y168007D01*
X57993Y93006D02*
X58993Y94006D01*
X60992D01*
X61992Y93006D01*
Y92006D01*
X60992Y91007D01*
X58993D01*
X57993Y90007D01*
Y89007D01*
X58993Y88008D01*
X60992D01*
X61992Y89007D01*
X55994Y94006D02*
Y88008D01*
X53995Y90007D01*
X51995Y88008D01*
Y94006D01*
X45997D02*
X49996D01*
Y91007D01*
X47997Y92006D01*
X46997D01*
X45997Y91007D01*
Y89007D01*
X46997Y88008D01*
X48996D01*
X49996Y89007D01*
X132993Y93006D02*
X133992Y94006D01*
X135992D01*
X136991Y93006D01*
Y92006D01*
X135992Y91007D01*
X133992D01*
X132993Y90007D01*
Y89007D01*
X133992Y88008D01*
X135992D01*
X136991Y89007D01*
X130993Y94006D02*
Y88008D01*
X128994Y90007D01*
X126995Y88008D01*
Y94006D01*
X120996D02*
X122996Y93006D01*
X124995Y91007D01*
Y89007D01*
X123995Y88008D01*
X121996D01*
X120996Y89007D01*
Y90007D01*
X121996Y91007D01*
X124995D01*
X207993Y93006D02*
X208992Y94006D01*
X210992D01*
X211991Y93006D01*
Y92006D01*
X210992Y91007D01*
X208992D01*
X207993Y90007D01*
Y89007D01*
X208992Y88008D01*
X210992D01*
X211991Y89007D01*
X205993Y94006D02*
Y88008D01*
X203994Y90007D01*
X201995Y88008D01*
Y94006D01*
X199995D02*
X195996D01*
Y93006D01*
X199995Y89007D01*
Y88008D01*
X282993Y93006D02*
X283992Y94006D01*
X285992D01*
X286991Y93006D01*
Y92006D01*
X285992Y91007D01*
X283992D01*
X282993Y90007D01*
Y89007D01*
X283992Y88008D01*
X285992D01*
X286991Y89007D01*
X280993Y94006D02*
Y88008D01*
X278994Y90007D01*
X276995Y88008D01*
Y94006D01*
X274995Y93006D02*
X273995Y94006D01*
X271996D01*
X270996Y93006D01*
Y92006D01*
X271996Y91007D01*
X270996Y90007D01*
Y89007D01*
X271996Y88008D01*
X273995D01*
X274995Y89007D01*
Y90007D01*
X273995Y91007D01*
X274995Y92006D01*
Y93006D01*
X273995Y91007D02*
X271996D01*
X282993Y18006D02*
X283992Y19006D01*
X285992D01*
X286991Y18006D01*
Y17007D01*
X285992Y16007D01*
X283992D01*
X282993Y15007D01*
Y14008D01*
X283992Y13008D01*
X285992D01*
X286991Y14008D01*
X280993Y19006D02*
Y13008D01*
X278994Y15007D01*
X276995Y13008D01*
Y19006D01*
X271996Y13008D02*
Y19006D01*
X274995Y16007D01*
X270996D01*
X207993Y18006D02*
X208992Y19006D01*
X210992D01*
X211991Y18006D01*
Y17007D01*
X210992Y16007D01*
X208992D01*
X207993Y15007D01*
Y14008D01*
X208992Y13008D01*
X210992D01*
X211991Y14008D01*
X205993Y19006D02*
Y13008D01*
X203994Y15007D01*
X201995Y13008D01*
Y19006D01*
X199995Y18006D02*
X198995Y19006D01*
X196996D01*
X195996Y18006D01*
Y17007D01*
X196996Y16007D01*
X197996D01*
X196996D01*
X195996Y15007D01*
Y14008D01*
X196996Y13008D01*
X198995D01*
X199995Y14008D01*
X132993Y18006D02*
X133992Y19006D01*
X135992D01*
X136991Y18006D01*
Y17007D01*
X135992Y16007D01*
X133992D01*
X132993Y15007D01*
Y14008D01*
X133992Y13008D01*
X135992D01*
X136991Y14008D01*
X130993Y19006D02*
Y13008D01*
X128994Y15007D01*
X126995Y13008D01*
Y19006D01*
X120996Y13008D02*
X124995D01*
X120996Y17007D01*
Y18006D01*
X121996Y19006D01*
X123995D01*
X124995Y18006D01*
X57993D02*
X58993Y19006D01*
X60992D01*
X61992Y18006D01*
Y17007D01*
X60992Y16007D01*
X58993D01*
X57993Y15007D01*
Y14008D01*
X58993Y13008D01*
X60992D01*
X61992Y14008D01*
X55994Y19006D02*
Y13008D01*
X53995Y15007D01*
X51995Y13008D01*
Y19006D01*
X49996Y13008D02*
X47997D01*
X48996D01*
Y19006D01*
X49996Y18006D01*
D11*
X9998Y10000D02*
Y65000D01*
X56002D02*
X64998D01*
Y10000D02*
Y65000D01*
X9998Y10000D02*
X64998D01*
D12*
X236023Y297934D02*
X243109D01*
Y284548D02*
Y297934D01*
X236023Y284548D02*
X243109D01*
X236023D02*
Y297934D01*
X161023D02*
X168109D01*
Y284548D02*
Y297934D01*
X161023Y284548D02*
X168109D01*
X161023D02*
Y297934D01*
X86023D02*
X93110D01*
Y284548D02*
Y297934D01*
X86023Y284548D02*
X93110D01*
X86023D02*
Y297934D01*
X11024D02*
X18110D01*
Y284548D02*
Y297934D01*
X11024Y284548D02*
X18110D01*
X11024D02*
Y297934D01*
X236023Y222934D02*
X243109D01*
Y209548D02*
Y222934D01*
X236023Y209548D02*
X243109D01*
X236023D02*
Y222934D01*
X161023D02*
X168109D01*
Y209548D02*
Y222934D01*
X161023Y209548D02*
X168109D01*
X161023D02*
Y222934D01*
X86023D02*
X93110D01*
Y209548D02*
Y222934D01*
X86023Y209548D02*
X93110D01*
X86023D02*
Y222934D01*
X11024D02*
X18110D01*
Y209548D02*
Y222934D01*
X11024Y209548D02*
X18110D01*
X11024D02*
Y222934D01*
X236023Y147933D02*
X243109D01*
Y134547D02*
Y147933D01*
X236023Y134547D02*
X243109D01*
X236023D02*
Y147933D01*
X161023D02*
X168109D01*
Y134547D02*
Y147933D01*
X161023Y134547D02*
X168109D01*
X161023D02*
Y147933D01*
X86023D02*
X93110D01*
Y134547D02*
Y147933D01*
X86023Y134547D02*
X93110D01*
X86023D02*
Y147933D01*
X11024D02*
X18110D01*
Y134547D02*
Y147933D01*
X11024Y134547D02*
X18110D01*
X11024D02*
Y147933D01*
X236023Y72933D02*
X243109D01*
Y59547D02*
Y72933D01*
X236023Y59547D02*
X243109D01*
X236023D02*
Y72933D01*
X161023D02*
X168109D01*
Y59547D02*
Y72933D01*
X161023Y59547D02*
X168109D01*
X161023D02*
Y72933D01*
X86023D02*
X93110D01*
Y59547D02*
Y72933D01*
X86023Y59547D02*
X93110D01*
X86023D02*
Y72933D01*
X11024D02*
X18110D01*
Y59547D02*
Y72933D01*
X11024Y59547D02*
X18110D01*
X11024D02*
Y72933D01*
X255954Y275690D02*
X258954D01*
X267418Y274190D02*
Y277190D01*
X265918Y275690D02*
X268918D01*
X260332D02*
X264269Y273721D01*
X260332Y275690D02*
X264269Y277658D01*
Y273721D02*
Y277658D01*
X260332Y273721D02*
Y277658D01*
X260135Y297343D02*
X260529Y296556D01*
X261316Y298131D01*
X262103Y296556D01*
X259348Y297343D02*
X260135D01*
X264859D02*
X265647D01*
X264466Y298131D02*
X264859Y297343D01*
X263678Y296556D02*
X264466Y298131D01*
X262891D02*
X263678Y296556D01*
X262103D02*
X262891Y298131D01*
X180954Y275690D02*
X183954D01*
X192418Y274190D02*
Y277190D01*
X190918Y275690D02*
X193918D01*
X185332D02*
X189269Y273721D01*
X185332Y275690D02*
X189269Y277658D01*
Y273721D02*
Y277658D01*
X185332Y273721D02*
Y277658D01*
X185135Y297343D02*
X185529Y296556D01*
X186316Y298131D01*
X187103Y296556D01*
X184347Y297343D02*
X185135D01*
X189859D02*
X190647D01*
X189466Y298131D02*
X189859Y297343D01*
X188678Y296556D02*
X189466Y298131D01*
X187891D02*
X188678Y296556D01*
X187103D02*
X187891Y298131D01*
X105954Y275690D02*
X108954D01*
X117418Y274190D02*
Y277190D01*
X115918Y275690D02*
X118918D01*
X110332D02*
X114269Y273721D01*
X110332Y275690D02*
X114269Y277658D01*
Y273721D02*
Y277658D01*
X110332Y273721D02*
Y277658D01*
X110135Y297343D02*
X110529Y296556D01*
X111316Y298131D01*
X112103Y296556D01*
X109347Y297343D02*
X110135D01*
X114859D02*
X115647D01*
X114466Y298131D02*
X114859Y297343D01*
X113678Y296556D02*
X114466Y298131D01*
X112891D02*
X113678Y296556D01*
X112103D02*
X112891Y298131D01*
X30955Y275690D02*
X33955D01*
X42419Y274190D02*
Y277190D01*
X40919Y275690D02*
X43919D01*
X35333D02*
X39270Y273721D01*
X35333Y275690D02*
X39270Y277658D01*
Y273721D02*
Y277658D01*
X35333Y273721D02*
Y277658D01*
X35136Y297343D02*
X35529Y296556D01*
X36317Y298131D01*
X37104Y296556D01*
X34348Y297343D02*
X35136D01*
X39860D02*
X40648D01*
X39466Y298131D02*
X39860Y297343D01*
X38679Y296556D02*
X39466Y298131D01*
X37892D02*
X38679Y296556D01*
X37104D02*
X37892Y298131D01*
X255954Y200690D02*
X258954D01*
X267418Y199190D02*
Y202190D01*
X265918Y200690D02*
X268918D01*
X260332D02*
X264269Y198721D01*
X260332Y200690D02*
X264269Y202658D01*
Y198721D02*
Y202658D01*
X260332Y198721D02*
Y202658D01*
X260135Y222343D02*
X260529Y221556D01*
X261316Y223131D01*
X262103Y221556D01*
X259348Y222343D02*
X260135D01*
X264859D02*
X265647D01*
X264466Y223131D02*
X264859Y222343D01*
X263678Y221556D02*
X264466Y223131D01*
X262891D02*
X263678Y221556D01*
X262103D02*
X262891Y223131D01*
X180954Y200690D02*
X183954D01*
X192418Y199190D02*
Y202190D01*
X190918Y200690D02*
X193918D01*
X185332D02*
X189269Y198721D01*
X185332Y200690D02*
X189269Y202658D01*
Y198721D02*
Y202658D01*
X185332Y198721D02*
Y202658D01*
X185135Y222343D02*
X185529Y221556D01*
X186316Y223131D01*
X187103Y221556D01*
X184347Y222343D02*
X185135D01*
X189859D02*
X190647D01*
X189466Y223131D02*
X189859Y222343D01*
X188678Y221556D02*
X189466Y223131D01*
X187891D02*
X188678Y221556D01*
X187103D02*
X187891Y223131D01*
X105954Y200690D02*
X108954D01*
X117418Y199190D02*
Y202190D01*
X115918Y200690D02*
X118918D01*
X110332D02*
X114269Y198721D01*
X110332Y200690D02*
X114269Y202658D01*
Y198721D02*
Y202658D01*
X110332Y198721D02*
Y202658D01*
X110135Y222343D02*
X110529Y221556D01*
X111316Y223131D01*
X112103Y221556D01*
X109347Y222343D02*
X110135D01*
X114859D02*
X115647D01*
X114466Y223131D02*
X114859Y222343D01*
X113678Y221556D02*
X114466Y223131D01*
X112891D02*
X113678Y221556D01*
X112103D02*
X112891Y223131D01*
X30955Y200690D02*
X33955D01*
X42419Y199190D02*
Y202190D01*
X40919Y200690D02*
X43919D01*
X35333D02*
X39270Y198721D01*
X35333Y200690D02*
X39270Y202658D01*
Y198721D02*
Y202658D01*
X35333Y198721D02*
Y202658D01*
X35136Y222343D02*
X35529Y221556D01*
X36317Y223131D01*
X37104Y221556D01*
X34348Y222343D02*
X35136D01*
X39860D02*
X40648D01*
X39466Y223131D02*
X39860Y222343D01*
X38679Y221556D02*
X39466Y223131D01*
X37892D02*
X38679Y221556D01*
X37104D02*
X37892Y223131D01*
X255954Y125689D02*
X258954D01*
X267418Y124189D02*
Y127189D01*
X265918Y125689D02*
X268918D01*
X260332D02*
X264269Y123720D01*
X260332Y125689D02*
X264269Y127657D01*
Y123720D02*
Y127657D01*
X260332Y123720D02*
Y127657D01*
X260135Y147342D02*
X260529Y146555D01*
X261316Y148130D01*
X262103Y146555D01*
X259348Y147342D02*
X260135D01*
X264859D02*
X265647D01*
X264466Y148130D02*
X264859Y147342D01*
X263678Y146555D02*
X264466Y148130D01*
X262891D02*
X263678Y146555D01*
X262103D02*
X262891Y148130D01*
X180954Y125689D02*
X183954D01*
X192418Y124189D02*
Y127189D01*
X190918Y125689D02*
X193918D01*
X185332D02*
X189269Y123720D01*
X185332Y125689D02*
X189269Y127657D01*
Y123720D02*
Y127657D01*
X185332Y123720D02*
Y127657D01*
X185135Y147342D02*
X185529Y146555D01*
X186316Y148130D01*
X187103Y146555D01*
X184347Y147342D02*
X185135D01*
X189859D02*
X190647D01*
X189466Y148130D02*
X189859Y147342D01*
X188678Y146555D02*
X189466Y148130D01*
X187891D02*
X188678Y146555D01*
X187103D02*
X187891Y148130D01*
X105954Y125689D02*
X108954D01*
X117418Y124189D02*
Y127189D01*
X115918Y125689D02*
X118918D01*
X110332D02*
X114269Y123720D01*
X110332Y125689D02*
X114269Y127657D01*
Y123720D02*
Y127657D01*
X110332Y123720D02*
Y127657D01*
X110135Y147342D02*
X110529Y146555D01*
X111316Y148130D01*
X112103Y146555D01*
X109347Y147342D02*
X110135D01*
X114859D02*
X115647D01*
X114466Y148130D02*
X114859Y147342D01*
X113678Y146555D02*
X114466Y148130D01*
X112891D02*
X113678Y146555D01*
X112103D02*
X112891Y148130D01*
X30955Y125689D02*
X33955D01*
X42419Y124189D02*
Y127189D01*
X40919Y125689D02*
X43919D01*
X35333D02*
X39270Y123720D01*
X35333Y125689D02*
X39270Y127657D01*
Y123720D02*
Y127657D01*
X35333Y123720D02*
Y127657D01*
X35136Y147342D02*
X35529Y146555D01*
X36317Y148130D01*
X37104Y146555D01*
X34348Y147342D02*
X35136D01*
X39860D02*
X40648D01*
X39466Y148130D02*
X39860Y147342D01*
X38679Y146555D02*
X39466Y148130D01*
X37892D02*
X38679Y146555D01*
X37104D02*
X37892Y148130D01*
X255954Y50689D02*
X258954D01*
X267418Y49189D02*
Y52189D01*
X265918Y50689D02*
X268918D01*
X260332D02*
X264269Y48720D01*
X260332Y50689D02*
X264269Y52658D01*
Y48720D02*
Y52658D01*
X260332Y48720D02*
Y52658D01*
X260135Y72342D02*
X260529Y71555D01*
X261316Y73130D01*
X262103Y71555D01*
X259348Y72342D02*
X260135D01*
X264859D02*
X265647D01*
X264466Y73130D02*
X264859Y72342D01*
X263678Y71555D02*
X264466Y73130D01*
X262891D02*
X263678Y71555D01*
X262103D02*
X262891Y73130D01*
X180954Y50689D02*
X183954D01*
X192418Y49189D02*
Y52189D01*
X190918Y50689D02*
X193918D01*
X185332D02*
X189269Y48720D01*
X185332Y50689D02*
X189269Y52658D01*
Y48720D02*
Y52658D01*
X185332Y48720D02*
Y52658D01*
X185135Y72342D02*
X185529Y71555D01*
X186316Y73130D01*
X187103Y71555D01*
X184347Y72342D02*
X185135D01*
X189859D02*
X190647D01*
X189466Y73130D02*
X189859Y72342D01*
X188678Y71555D02*
X189466Y73130D01*
X187891D02*
X188678Y71555D01*
X187103D02*
X187891Y73130D01*
X105954Y50689D02*
X108954D01*
X117418Y49189D02*
Y52189D01*
X115918Y50689D02*
X118918D01*
X110332D02*
X114269Y48720D01*
X110332Y50689D02*
X114269Y52658D01*
Y48720D02*
Y52658D01*
X110332Y48720D02*
Y52658D01*
X110135Y72342D02*
X110529Y71555D01*
X111316Y73130D01*
X112103Y71555D01*
X109347Y72342D02*
X110135D01*
X114859D02*
X115647D01*
X114466Y73130D02*
X114859Y72342D01*
X113678Y71555D02*
X114466Y73130D01*
X112891D02*
X113678Y71555D01*
X112103D02*
X112891Y73130D01*
X30955Y50689D02*
X33955D01*
X42419Y49189D02*
Y52189D01*
X40919Y50689D02*
X43919D01*
X35333D02*
X39270Y48720D01*
X35333Y50689D02*
X39270Y52658D01*
Y48720D02*
Y52658D01*
X35333Y48720D02*
Y52658D01*
X35136Y72342D02*
X35529Y71555D01*
X36317Y73130D01*
X37104Y71555D01*
X34348Y72342D02*
X35136D01*
X39860D02*
X40648D01*
X39466Y73130D02*
X39860Y72342D01*
X38679Y71555D02*
X39466Y73130D01*
X37892D02*
X38679Y71555D01*
X37104D02*
X37892Y73130D01*
D13*
X141471Y331194D02*
X142127Y331850D01*
X143438D01*
X144095Y331194D01*
Y328570D01*
X143438Y327914D01*
X142127D01*
X141471Y328570D01*
Y329882D01*
X142783D01*
X140159Y327914D02*
Y331850D01*
X137535Y327914D01*
Y331850D01*
X136223D02*
Y327914D01*
X134255D01*
X133599Y328570D01*
Y331194D01*
X134255Y331850D01*
X136223D01*
X144095Y341850D02*
Y339226D01*
X142783Y337914D01*
X141471Y339226D01*
Y341850D01*
X137535Y341194D02*
X138191Y341850D01*
X139503D01*
X140159Y341194D01*
Y338570D01*
X139503Y337914D01*
X138191D01*
X137535Y338570D01*
X133599Y341194D02*
X134255Y341850D01*
X135567D01*
X136223Y341194D01*
Y338570D01*
X135567Y337914D01*
X134255D01*
X133599Y338570D01*
X141471Y351194D02*
X142127Y351850D01*
X143438D01*
X144095Y351194D01*
Y350538D01*
X143438Y349882D01*
X142127D01*
X141471Y349226D01*
Y348570D01*
X142127Y347914D01*
X143438D01*
X144095Y348570D01*
X137535Y351194D02*
X138191Y351850D01*
X139503D01*
X140159Y351194D01*
Y348570D01*
X139503Y347914D01*
X138191D01*
X137535Y348570D01*
X136223Y351850D02*
Y347914D01*
X133599D01*
X141471Y361194D02*
X142127Y361850D01*
X143438D01*
X144095Y361194D01*
Y360538D01*
X143438Y359882D01*
X142127D01*
X141471Y359226D01*
Y358570D01*
X142127Y357914D01*
X143438D01*
X144095Y358570D01*
X140159Y361850D02*
Y357914D01*
X138191D01*
X137535Y358570D01*
Y361194D01*
X138191Y361850D01*
X140159D01*
X136223Y357914D02*
Y360538D01*
X134911Y361850D01*
X133599Y360538D01*
Y357914D01*
Y359882D01*
X136223D01*
X57809Y348376D02*
X60433D01*
Y344440D01*
X57809D01*
X60433Y346408D02*
X59121D01*
X60433Y368061D02*
Y364125D01*
X58465D01*
X57809Y364781D01*
Y367405D01*
X58465Y368061D01*
X60433D01*
X17978Y348376D02*
Y344440D01*
X16010D01*
X15354Y345096D01*
Y345752D01*
X16010Y346408D01*
X17978D01*
X16010D01*
X15354Y347064D01*
Y347720D01*
X16010Y348376D01*
X17978D01*
X15354Y357563D02*
X16010Y358219D01*
X17322D01*
X17978Y357563D01*
Y354939D01*
X17322Y354283D01*
X16010D01*
X15354Y354939D01*
X17978Y364125D02*
Y366749D01*
X16666Y368061D01*
X15354Y366749D01*
Y364125D01*
Y366093D01*
X17978D01*
X232808Y269360D02*
X233464Y268704D01*
Y267392D01*
X232808Y266736D01*
X230184D01*
X229528Y267392D01*
Y268704D01*
X230184Y269360D01*
X228872Y270672D02*
Y273296D01*
X232808Y277232D02*
X233464Y276576D01*
Y275264D01*
X232808Y274608D01*
X232152D01*
X231496Y275264D01*
Y276576D01*
X230840Y277232D01*
X230184D01*
X229528Y276576D01*
Y275264D01*
X230184Y274608D01*
X233464Y278544D02*
X229528D01*
X230840Y279856D01*
X229528Y281168D01*
X233464D01*
X229528Y282479D02*
Y283791D01*
Y283135D01*
X233464D01*
X232808Y282479D01*
X233464Y288383D02*
X232808Y287071D01*
X231496Y285759D01*
X230184D01*
X229528Y286415D01*
Y287727D01*
X230184Y288383D01*
X230840D01*
X231496Y287727D01*
Y285759D01*
X157808Y283140D02*
X158464Y282484D01*
Y281172D01*
X157808Y280516D01*
X155184D01*
X154528Y281172D01*
Y282484D01*
X155184Y283140D01*
X153872Y284452D02*
Y287075D01*
X157808Y291011D02*
X158464Y290355D01*
Y289043D01*
X157808Y288387D01*
X157152D01*
X156496Y289043D01*
Y290355D01*
X155840Y291011D01*
X155184D01*
X154528Y290355D01*
Y289043D01*
X155184Y288387D01*
X158464Y292323D02*
X154528D01*
X155840Y293635D01*
X154528Y294947D01*
X158464D01*
X154528Y296259D02*
Y297571D01*
Y296915D01*
X158464D01*
X157808Y296259D01*
X158464Y302163D02*
Y299539D01*
X156496D01*
X157152Y300851D01*
Y301507D01*
X156496Y302163D01*
X155184D01*
X154528Y301507D01*
Y300195D01*
X155184Y299539D01*
X82808Y269360D02*
X83464Y268704D01*
Y267392D01*
X82808Y266736D01*
X80184D01*
X79528Y267392D01*
Y268704D01*
X80184Y269360D01*
X78872Y270672D02*
Y273296D01*
X82808Y277232D02*
X83464Y276576D01*
Y275264D01*
X82808Y274608D01*
X82152D01*
X81496Y275264D01*
Y276576D01*
X80840Y277232D01*
X80184D01*
X79528Y276576D01*
Y275264D01*
X80184Y274608D01*
X83464Y278544D02*
X79528D01*
X80840Y279856D01*
X79528Y281168D01*
X83464D01*
X79528Y282479D02*
Y283791D01*
Y283135D01*
X83464D01*
X82808Y282479D01*
X79528Y287727D02*
X83464D01*
X81496Y285759D01*
Y288383D01*
X7809Y283140D02*
X8465Y282484D01*
Y281172D01*
X7809Y280516D01*
X5185D01*
X4529Y281172D01*
Y282484D01*
X5185Y283140D01*
X3873Y284452D02*
Y287075D01*
X7809Y291011D02*
X8465Y290355D01*
Y289043D01*
X7809Y288387D01*
X7153D01*
X6497Y289043D01*
Y290355D01*
X5841Y291011D01*
X5185D01*
X4529Y290355D01*
Y289043D01*
X5185Y288387D01*
X8465Y292323D02*
X4529D01*
X5841Y293635D01*
X4529Y294947D01*
X8465D01*
X4529Y296259D02*
Y297571D01*
Y296915D01*
X8465D01*
X7809Y296259D01*
Y299539D02*
X8465Y300195D01*
Y301507D01*
X7809Y302163D01*
X7153D01*
X6497Y301507D01*
Y300851D01*
Y301507D01*
X5841Y302163D01*
X5185D01*
X4529Y301507D01*
Y300195D01*
X5185Y299539D01*
X233923Y195544D02*
X234579Y194888D01*
Y193576D01*
X233923Y192920D01*
X231299D01*
X230644Y193576D01*
Y194888D01*
X231299Y195544D01*
X229988Y196856D02*
Y199480D01*
X233923Y203416D02*
X234579Y202760D01*
Y201448D01*
X233923Y200792D01*
X233267D01*
X232611Y201448D01*
Y202760D01*
X231956Y203416D01*
X231299D01*
X230644Y202760D01*
Y201448D01*
X231299Y200792D01*
X234579Y204728D02*
X230644D01*
X231956Y206040D01*
X230644Y207351D01*
X234579D01*
X230644Y208663D02*
Y209975D01*
Y209319D01*
X234579D01*
X233923Y208663D01*
X230644Y214567D02*
Y211943D01*
X233267Y214567D01*
X233923D01*
X234579Y213911D01*
Y212599D01*
X233923Y211943D01*
X157808Y208796D02*
X158464Y208140D01*
Y206828D01*
X157808Y206172D01*
X155184D01*
X154528Y206828D01*
Y208140D01*
X155184Y208796D01*
X153872Y210108D02*
Y212732D01*
X157808Y216667D02*
X158464Y216011D01*
Y214699D01*
X157808Y214043D01*
X157152D01*
X156496Y214699D01*
Y216011D01*
X155840Y216667D01*
X155184D01*
X154528Y216011D01*
Y214699D01*
X155184Y214043D01*
X158464Y217979D02*
X154528D01*
X155840Y219291D01*
X154528Y220603D01*
X158464D01*
X154528Y221915D02*
Y223227D01*
Y222571D01*
X158464D01*
X157808Y221915D01*
X154528Y225195D02*
Y226507D01*
Y225851D01*
X158464D01*
X157808Y225195D01*
X83923Y195544D02*
X84579Y194888D01*
Y193576D01*
X83923Y192920D01*
X81300D01*
X80644Y193576D01*
Y194888D01*
X81300Y195544D01*
X79988Y196856D02*
Y199480D01*
X83923Y203416D02*
X84579Y202760D01*
Y201448D01*
X83923Y200792D01*
X83267D01*
X82611Y201448D01*
Y202760D01*
X81955Y203416D01*
X81300D01*
X80644Y202760D01*
Y201448D01*
X81300Y200792D01*
X84579Y204728D02*
X80644D01*
X81955Y206040D01*
X80644Y207351D01*
X84579D01*
X80644Y208663D02*
Y209975D01*
Y209319D01*
X84579D01*
X83923Y208663D01*
Y211943D02*
X84579Y212599D01*
Y213911D01*
X83923Y214567D01*
X81300D01*
X80644Y213911D01*
Y212599D01*
X81300Y211943D01*
X83923D01*
X7809Y209780D02*
X8465Y209124D01*
Y207812D01*
X7809Y207156D01*
X5185D01*
X4529Y207812D01*
Y209124D01*
X5185Y209780D01*
X3873Y211092D02*
Y213715D01*
X7809Y217651D02*
X8465Y216995D01*
Y215683D01*
X7809Y215027D01*
X7153D01*
X6497Y215683D01*
Y216995D01*
X5841Y217651D01*
X5185D01*
X4529Y216995D01*
Y215683D01*
X5185Y215027D01*
X8465Y218963D02*
X4529D01*
X5841Y220275D01*
X4529Y221587D01*
X8465D01*
X5185Y222899D02*
X4529Y223555D01*
Y224867D01*
X5185Y225523D01*
X7809D01*
X8465Y224867D01*
Y223555D01*
X7809Y222899D01*
X7153D01*
X6497Y223555D01*
Y225523D01*
X232808Y134779D02*
X233464Y134123D01*
Y132811D01*
X232808Y132155D01*
X230184D01*
X229528Y132811D01*
Y134123D01*
X230184Y134779D01*
X228872Y136091D02*
Y138715D01*
X232808Y142650D02*
X233464Y141994D01*
Y140682D01*
X232808Y140026D01*
X232152D01*
X231496Y140682D01*
Y141994D01*
X230840Y142650D01*
X230184D01*
X229528Y141994D01*
Y140682D01*
X230184Y140026D01*
X233464Y143962D02*
X229528D01*
X230840Y145274D01*
X229528Y146586D01*
X233464D01*
X232808Y147898D02*
X233464Y148554D01*
Y149866D01*
X232808Y150522D01*
X232152D01*
X231496Y149866D01*
X230840Y150522D01*
X230184D01*
X229528Y149866D01*
Y148554D01*
X230184Y147898D01*
X230840D01*
X231496Y148554D01*
X232152Y147898D01*
X232808D01*
X231496Y148554D02*
Y149866D01*
X157808Y134779D02*
X158464Y134123D01*
Y132811D01*
X157808Y132155D01*
X155184D01*
X154528Y132811D01*
Y134123D01*
X155184Y134779D01*
X153872Y136091D02*
Y138715D01*
X157808Y142650D02*
X158464Y141994D01*
Y140682D01*
X157808Y140026D01*
X157152D01*
X156496Y140682D01*
Y141994D01*
X155840Y142650D01*
X155184D01*
X154528Y141994D01*
Y140682D01*
X155184Y140026D01*
X158464Y143962D02*
X154528D01*
X155840Y145274D01*
X154528Y146586D01*
X158464D01*
Y147898D02*
Y150522D01*
X157808D01*
X155184Y147898D01*
X154528D01*
X82808Y134779D02*
X83464Y134123D01*
Y132811D01*
X82808Y132155D01*
X80184D01*
X79528Y132811D01*
Y134123D01*
X80184Y134779D01*
X78872Y136091D02*
Y138715D01*
X82808Y142650D02*
X83464Y141994D01*
Y140682D01*
X82808Y140026D01*
X82152D01*
X81496Y140682D01*
Y141994D01*
X80840Y142650D01*
X80184D01*
X79528Y141994D01*
Y140682D01*
X80184Y140026D01*
X83464Y143962D02*
X79528D01*
X80840Y145274D01*
X79528Y146586D01*
X83464D01*
Y150522D02*
X82808Y149210D01*
X81496Y147898D01*
X80184D01*
X79528Y148554D01*
Y149866D01*
X80184Y150522D01*
X80840D01*
X81496Y149866D01*
Y147898D01*
X7809Y134779D02*
X8465Y134123D01*
Y132811D01*
X7809Y132155D01*
X5185D01*
X4529Y132811D01*
Y134123D01*
X5185Y134779D01*
X3873Y136091D02*
Y138715D01*
X7809Y142650D02*
X8465Y141994D01*
Y140682D01*
X7809Y140026D01*
X7153D01*
X6497Y140682D01*
Y141994D01*
X5841Y142650D01*
X5185D01*
X4529Y141994D01*
Y140682D01*
X5185Y140026D01*
X8465Y143962D02*
X4529D01*
X5841Y145274D01*
X4529Y146586D01*
X8465D01*
Y150522D02*
Y147898D01*
X6497D01*
X7153Y149210D01*
Y149866D01*
X6497Y150522D01*
X5185D01*
X4529Y149866D01*
Y148554D01*
X5185Y147898D01*
X233830Y49149D02*
X234486Y48493D01*
Y47181D01*
X233830Y46525D01*
X231206D01*
X230550Y47181D01*
Y48493D01*
X231206Y49149D01*
X229894Y50461D02*
Y53085D01*
X233830Y57021D02*
X234486Y56365D01*
Y55053D01*
X233830Y54397D01*
X233174D01*
X232518Y55053D01*
Y56365D01*
X231862Y57021D01*
X231206D01*
X230550Y56365D01*
Y55053D01*
X231206Y54397D01*
X234486Y58333D02*
X230550D01*
X231862Y59645D01*
X230550Y60956D01*
X234486D01*
X230550Y64236D02*
X234486D01*
X232518Y62268D01*
Y64892D01*
X157808Y59779D02*
X158464Y59123D01*
Y57811D01*
X157808Y57155D01*
X155184D01*
X154528Y57811D01*
Y59123D01*
X155184Y59779D01*
X153872Y61091D02*
Y63715D01*
X157808Y67651D02*
X158464Y66995D01*
Y65683D01*
X157808Y65027D01*
X157152D01*
X156496Y65683D01*
Y66995D01*
X155840Y67651D01*
X155184D01*
X154528Y66995D01*
Y65683D01*
X155184Y65027D01*
X158464Y68962D02*
X154528D01*
X155840Y70274D01*
X154528Y71586D01*
X158464D01*
X157808Y72898D02*
X158464Y73554D01*
Y74866D01*
X157808Y75522D01*
X157152D01*
X156496Y74866D01*
Y74210D01*
Y74866D01*
X155840Y75522D01*
X155184D01*
X154528Y74866D01*
Y73554D01*
X155184Y72898D01*
X83830Y49149D02*
X84486Y48493D01*
Y47181D01*
X83830Y46525D01*
X81206D01*
X80550Y47181D01*
Y48493D01*
X81206Y49149D01*
X79894Y50461D02*
Y53085D01*
X83830Y57021D02*
X84486Y56365D01*
Y55053D01*
X83830Y54397D01*
X83174D01*
X82518Y55053D01*
Y56365D01*
X81862Y57021D01*
X81206D01*
X80550Y56365D01*
Y55053D01*
X81206Y54397D01*
X84486Y58333D02*
X80550D01*
X81862Y59645D01*
X80550Y60956D01*
X84486D01*
X80550Y64892D02*
Y62268D01*
X83174Y64892D01*
X83830D01*
X84486Y64236D01*
Y62924D01*
X83830Y62268D01*
X7809Y60435D02*
X8465Y59779D01*
Y58467D01*
X7809Y57811D01*
X5185D01*
X4529Y58467D01*
Y59779D01*
X5185Y60435D01*
X3873Y61747D02*
Y64371D01*
X7809Y68306D02*
X8465Y67651D01*
Y66339D01*
X7809Y65683D01*
X7153D01*
X6497Y66339D01*
Y67651D01*
X5841Y68306D01*
X5185D01*
X4529Y67651D01*
Y66339D01*
X5185Y65683D01*
X8465Y69618D02*
X4529D01*
X5841Y70930D01*
X4529Y72242D01*
X8465D01*
X4529Y73554D02*
Y74866D01*
Y74210D01*
X8465D01*
X7809Y73554D01*
M02*
