G04*
G04 #@! TF.GenerationSoftware,Altium Limited,Altium Designer,22.5.1 (42)*
G04*
G04 Layer_Color=255*
%FSLAX25Y25*%
%MOIN*%
G70*
G04*
G04 #@! TF.SameCoordinates,32CAE8D4-DEE8-46DF-9E53-7CF4BD0C5003*
G04*
G04*
G04 #@! TF.FilePolarity,Positive*
G04*
G01*
G75*
%ADD26R,0.05512X0.04331*%
%ADD27R,0.04331X0.05512*%
%ADD31R,0.15748X0.11024*%
%ADD32O,0.11811X0.06890*%
%ADD33R,0.06000X0.06000*%
%ADD34C,0.06000*%
%ADD35C,0.06299*%
%ADD36R,0.06299X0.06299*%
%ADD37C,0.06700*%
%ADD38C,0.08661*%
%ADD39C,0.15700*%
%ADD40C,0.10630*%
D26*
X239566Y294981D02*
D03*
Y287501D02*
D03*
X164566Y294981D02*
D03*
Y287501D02*
D03*
X89566Y294981D02*
D03*
Y287501D02*
D03*
X14567Y294981D02*
D03*
Y287501D02*
D03*
X239566Y219981D02*
D03*
Y212501D02*
D03*
X164566Y219981D02*
D03*
Y212501D02*
D03*
X89566Y219981D02*
D03*
Y212501D02*
D03*
X14567Y219981D02*
D03*
Y212501D02*
D03*
X239566Y144980D02*
D03*
Y137500D02*
D03*
X164566Y144980D02*
D03*
Y137500D02*
D03*
X89566Y144980D02*
D03*
Y137500D02*
D03*
X14567Y144980D02*
D03*
Y137500D02*
D03*
X239566Y69980D02*
D03*
Y62500D02*
D03*
X164566Y69980D02*
D03*
Y62500D02*
D03*
X89566Y69980D02*
D03*
Y62500D02*
D03*
X14567Y69980D02*
D03*
Y62500D02*
D03*
D27*
X258757Y292501D02*
D03*
X266237D02*
D03*
X183757D02*
D03*
X191237D02*
D03*
X108757D02*
D03*
X116237D02*
D03*
X33758D02*
D03*
X41238D02*
D03*
X258757Y217501D02*
D03*
X266237D02*
D03*
X183757D02*
D03*
X191237D02*
D03*
X108757D02*
D03*
X116237D02*
D03*
X33758D02*
D03*
X41238D02*
D03*
X258757Y142500D02*
D03*
X266237D02*
D03*
X183757D02*
D03*
X191237D02*
D03*
X108757D02*
D03*
X116237D02*
D03*
X33758D02*
D03*
X41238D02*
D03*
X258757Y67500D02*
D03*
X266237D02*
D03*
X183757D02*
D03*
X191237D02*
D03*
X108757D02*
D03*
X116237D02*
D03*
X33758D02*
D03*
X41238D02*
D03*
D31*
X38482Y379873D02*
D03*
X38482Y332629D02*
D03*
D32*
X292618Y6102D02*
D03*
Y16102D02*
D03*
Y26102D02*
D03*
Y36102D02*
D03*
Y56102D02*
D03*
Y66102D02*
D03*
Y76102D02*
D03*
Y86102D02*
D03*
Y373661D02*
D03*
Y303661D02*
D03*
Y313661D02*
D03*
Y353661D02*
D03*
Y363661D02*
D03*
Y323661D02*
D03*
Y343661D02*
D03*
Y333661D02*
D03*
Y383661D02*
D03*
D33*
X149997Y329882D02*
D03*
D34*
Y339882D02*
D03*
Y349882D02*
D03*
Y359882D02*
D03*
X267497Y282501D02*
D03*
X257497D02*
D03*
X247497D02*
D03*
X277497D02*
D03*
Y292501D02*
D03*
X247497D02*
D03*
X192497Y282501D02*
D03*
X182497D02*
D03*
X172497D02*
D03*
X202497D02*
D03*
Y292501D02*
D03*
X172497D02*
D03*
X117497Y282501D02*
D03*
X107497D02*
D03*
X97497D02*
D03*
X127497D02*
D03*
Y292501D02*
D03*
X97497D02*
D03*
X42498Y282501D02*
D03*
X32498D02*
D03*
X22498D02*
D03*
X52498D02*
D03*
Y292501D02*
D03*
X22498D02*
D03*
X267497Y207501D02*
D03*
X257497D02*
D03*
X247497D02*
D03*
X277497D02*
D03*
Y217501D02*
D03*
X247497D02*
D03*
X192497Y207501D02*
D03*
X182497D02*
D03*
X172497D02*
D03*
X202497D02*
D03*
Y217501D02*
D03*
X172497D02*
D03*
X117497Y207501D02*
D03*
X107497D02*
D03*
X97497D02*
D03*
X127497D02*
D03*
Y217501D02*
D03*
X97497D02*
D03*
X42498Y207501D02*
D03*
X32498D02*
D03*
X22498D02*
D03*
X52498D02*
D03*
Y217501D02*
D03*
X22498D02*
D03*
X267497Y132500D02*
D03*
X257497D02*
D03*
X247497D02*
D03*
X277497D02*
D03*
Y142500D02*
D03*
X247497D02*
D03*
X192497Y132500D02*
D03*
X182497D02*
D03*
X172497D02*
D03*
X202497D02*
D03*
Y142500D02*
D03*
X172497D02*
D03*
X117497Y132500D02*
D03*
X107497D02*
D03*
X97497D02*
D03*
X127497D02*
D03*
Y142500D02*
D03*
X97497D02*
D03*
X42498Y132500D02*
D03*
X32498D02*
D03*
X22498D02*
D03*
X52498D02*
D03*
Y142500D02*
D03*
X22498D02*
D03*
X267497Y57500D02*
D03*
X257497D02*
D03*
X247497D02*
D03*
X277497D02*
D03*
Y67500D02*
D03*
X247497D02*
D03*
X192497Y57500D02*
D03*
X182497D02*
D03*
X172497D02*
D03*
X202497D02*
D03*
Y67500D02*
D03*
X172497D02*
D03*
X117497Y57500D02*
D03*
X107497D02*
D03*
X97497D02*
D03*
X127497D02*
D03*
Y67500D02*
D03*
X97497D02*
D03*
X42498Y57500D02*
D03*
X32498D02*
D03*
X22498D02*
D03*
X52498D02*
D03*
Y67500D02*
D03*
X22498D02*
D03*
D35*
X261339Y375590D02*
D03*
X66041Y346408D02*
D03*
Y366093D02*
D03*
X8955Y346408D02*
D03*
Y356251D02*
D03*
Y366093D02*
D03*
D36*
X271339Y375590D02*
D03*
D37*
X242497Y262501D02*
D03*
X282497D02*
D03*
X167497D02*
D03*
X207497D02*
D03*
X92497D02*
D03*
X132497D02*
D03*
X17498D02*
D03*
X57498D02*
D03*
X242497Y187501D02*
D03*
X282497D02*
D03*
X167497D02*
D03*
X207497D02*
D03*
X92497D02*
D03*
X132497D02*
D03*
X17498D02*
D03*
X57498D02*
D03*
X242497Y112500D02*
D03*
X282497D02*
D03*
X167497D02*
D03*
X207497D02*
D03*
X92497D02*
D03*
X132497D02*
D03*
X17498D02*
D03*
X57498D02*
D03*
X242497Y37500D02*
D03*
X282497D02*
D03*
X167497D02*
D03*
X207497D02*
D03*
X92497D02*
D03*
X132497D02*
D03*
X17498D02*
D03*
X57498D02*
D03*
D38*
X252497Y242501D02*
D03*
X277497Y252501D02*
D03*
X177497Y242501D02*
D03*
X202497Y252501D02*
D03*
X102497Y242501D02*
D03*
X127497Y252501D02*
D03*
X27498Y242501D02*
D03*
X52498Y252501D02*
D03*
X252497Y167501D02*
D03*
X277497Y177501D02*
D03*
X177497Y167501D02*
D03*
X202497Y177501D02*
D03*
X102497Y167501D02*
D03*
X127497Y177501D02*
D03*
X27498Y167501D02*
D03*
X52498Y177501D02*
D03*
X252497Y92500D02*
D03*
X277497Y102500D02*
D03*
X177497Y92500D02*
D03*
X202497Y102500D02*
D03*
X102497Y92500D02*
D03*
X127497Y102500D02*
D03*
X27498Y92500D02*
D03*
X52498Y102500D02*
D03*
X252497Y17500D02*
D03*
X277497Y27500D02*
D03*
X177497Y17500D02*
D03*
X202497Y27500D02*
D03*
X102497Y17500D02*
D03*
X127497Y27500D02*
D03*
X27498Y17500D02*
D03*
X52498Y27500D02*
D03*
D39*
X262497Y262501D02*
D03*
X187497D02*
D03*
X112497D02*
D03*
X37498D02*
D03*
X262497Y187501D02*
D03*
X187497D02*
D03*
X112497D02*
D03*
X37498D02*
D03*
X262497Y112500D02*
D03*
X187497D02*
D03*
X112497D02*
D03*
X37498D02*
D03*
X262497Y37500D02*
D03*
X187497D02*
D03*
X112497D02*
D03*
X37498D02*
D03*
D40*
X224997Y300001D02*
D03*
X74997D02*
D03*
X224997Y225001D02*
D03*
X74997D02*
D03*
X224997Y75000D02*
D03*
X74997D02*
D03*
M02*
