G04*
G04 #@! TF.GenerationSoftware,Altium Limited,Altium Designer,22.5.1 (42)*
G04*
G04 Layer_Color=2752767*
%FSLAX25Y25*%
%MOIN*%
G70*
G04*
G04 #@! TF.SameCoordinates,32CAE8D4-DEE8-46DF-9E53-7CF4BD0C5003*
G04*
G04*
G04 #@! TF.FilePolarity,Positive*
G04*
G01*
G75*
%ADD44C,0.00200*%
%ADD45C,0.00267*%
%ADD46C,0.00133*%
D44*
X38482Y379073D02*
X38882Y379473D01*
X39282D01*
X38882Y379873D01*
X39282Y380273D01*
X38882D01*
X38482Y380673D01*
X38082Y380273D01*
X37682D01*
X38082Y379873D01*
X37682Y379473D01*
X38082D01*
X38482Y379073D01*
X38482Y331829D02*
X38882Y332229D01*
X39282D01*
X38882Y332629D01*
X39282Y333029D01*
X38882D01*
X38482Y333429D01*
X38082Y333029D01*
X37682D01*
X38082Y332629D01*
X37682Y332229D01*
X38082D01*
X38482Y331829D01*
X294180Y5302D02*
Y6902D01*
X295780D01*
Y5302D01*
X294180D01*
Y15302D02*
Y16902D01*
X295780D01*
Y15302D01*
X294180D01*
Y25302D02*
Y26902D01*
X295780D01*
Y25302D01*
X294180D01*
Y35302D02*
Y36902D01*
X295780D01*
Y35302D01*
X294180D01*
Y55302D02*
Y56902D01*
X295780D01*
Y55302D01*
X294180D01*
Y65302D02*
Y66902D01*
X295780D01*
Y65302D01*
X294180D01*
Y75302D02*
Y76902D01*
X295780D01*
Y75302D01*
X294180D01*
Y85302D02*
Y86902D01*
X295780D01*
Y85302D01*
X294180D01*
Y372861D02*
Y374461D01*
X295780D01*
Y372861D01*
X294180D01*
Y302861D02*
Y304461D01*
X295780D01*
Y302861D01*
X294180D01*
Y312861D02*
Y314461D01*
X295780D01*
Y312861D01*
X294180D01*
Y352861D02*
Y354461D01*
X295780D01*
Y352861D01*
X294180D01*
Y362861D02*
Y364461D01*
X295780D01*
Y362861D01*
X294180D01*
Y322861D02*
Y324461D01*
X295780D01*
Y322861D01*
X294180D01*
Y342861D02*
Y344461D01*
X295780D01*
Y342861D01*
X294180D01*
Y332861D02*
Y334461D01*
X295780D01*
Y332861D01*
X294180D01*
Y382861D02*
Y384461D01*
X295780D01*
Y382861D01*
X294180D01*
X260539Y374791D02*
Y376391D01*
X262139D01*
Y374791D01*
X260539D01*
X270539D02*
Y376391D01*
X272139D01*
Y374791D01*
X270539D01*
X242097Y262101D02*
Y261701D01*
X242897D01*
Y262101D01*
X243297D01*
Y262901D01*
X242897D01*
Y263301D01*
X242097D01*
Y262901D01*
X241697D01*
Y262101D01*
X242097D01*
X282097D02*
Y261701D01*
X282897D01*
Y262101D01*
X283297D01*
Y262901D01*
X282897D01*
Y263301D01*
X282097D01*
Y262901D01*
X281697D01*
Y262101D01*
X282097D01*
X251697Y241701D02*
X252097D01*
X252497Y242101D01*
X252897Y241701D01*
X253297D01*
Y242101D01*
X252897Y242501D01*
X253297Y242901D01*
Y243301D01*
X252897D01*
X252497Y242901D01*
X252097Y243301D01*
X251697D01*
Y242901D01*
X252097Y242501D01*
X251697Y242101D01*
Y241701D01*
X276697Y252501D02*
X277497Y253301D01*
X278297Y252501D01*
X277497Y251701D01*
X276697Y252501D01*
X266697Y281701D02*
Y283301D01*
X268297D01*
Y281701D01*
X266697D01*
X267097Y282101D02*
Y282901D01*
X267897D01*
Y282101D01*
X267097D01*
X256697Y281701D02*
Y283301D01*
X258297D01*
Y281701D01*
X256697D01*
X257097Y282101D02*
Y282901D01*
X257897D01*
Y282101D01*
X257097D01*
X246697Y281701D02*
Y283301D01*
X248297D01*
Y281701D01*
X246697D01*
X247097Y282101D02*
Y282901D01*
X247897D01*
Y282101D01*
X247097D01*
X276697Y281701D02*
Y283301D01*
X278297D01*
Y281701D01*
X276697D01*
X277097Y282101D02*
Y282901D01*
X277897D01*
Y282101D01*
X277097D01*
X276697Y291701D02*
Y293301D01*
X278297D01*
Y291701D01*
X276697D01*
X277097Y292101D02*
Y292901D01*
X277897D01*
Y292101D01*
X277097D01*
X246697Y291701D02*
Y293301D01*
X248297D01*
Y291701D01*
X246697D01*
X247097Y292101D02*
Y292901D01*
X247897D01*
Y292101D01*
X247097D01*
X167097Y262101D02*
Y261701D01*
X167897D01*
Y262101D01*
X168297D01*
Y262901D01*
X167897D01*
Y263301D01*
X167097D01*
Y262901D01*
X166697D01*
Y262101D01*
X167097D01*
X207097D02*
Y261701D01*
X207897D01*
Y262101D01*
X208297D01*
Y262901D01*
X207897D01*
Y263301D01*
X207097D01*
Y262901D01*
X206697D01*
Y262101D01*
X207097D01*
X176697Y241701D02*
X177097D01*
X177497Y242101D01*
X177897Y241701D01*
X178297D01*
Y242101D01*
X177897Y242501D01*
X178297Y242901D01*
Y243301D01*
X177897D01*
X177497Y242901D01*
X177097Y243301D01*
X176697D01*
Y242901D01*
X177097Y242501D01*
X176697Y242101D01*
Y241701D01*
X201697Y252501D02*
X202497Y253301D01*
X203297Y252501D01*
X202497Y251701D01*
X201697Y252501D01*
X191697Y281701D02*
Y283301D01*
X193297D01*
Y281701D01*
X191697D01*
X192097Y282101D02*
Y282901D01*
X192897D01*
Y282101D01*
X192097D01*
X181697Y281701D02*
Y283301D01*
X183297D01*
Y281701D01*
X181697D01*
X182097Y282101D02*
Y282901D01*
X182897D01*
Y282101D01*
X182097D01*
X171697Y281701D02*
Y283301D01*
X173297D01*
Y281701D01*
X171697D01*
X172097Y282101D02*
Y282901D01*
X172897D01*
Y282101D01*
X172097D01*
X201697Y281701D02*
Y283301D01*
X203297D01*
Y281701D01*
X201697D01*
X202097Y282101D02*
Y282901D01*
X202897D01*
Y282101D01*
X202097D01*
X201697Y291701D02*
Y293301D01*
X203297D01*
Y291701D01*
X201697D01*
X202097Y292101D02*
Y292901D01*
X202897D01*
Y292101D01*
X202097D01*
X171697Y291701D02*
Y293301D01*
X173297D01*
Y291701D01*
X171697D01*
X172097Y292101D02*
Y292901D01*
X172897D01*
Y292101D01*
X172097D01*
X92097Y262101D02*
Y261701D01*
X92897D01*
Y262101D01*
X93297D01*
Y262901D01*
X92897D01*
Y263301D01*
X92097D01*
Y262901D01*
X91697D01*
Y262101D01*
X92097D01*
X132097D02*
Y261701D01*
X132897D01*
Y262101D01*
X133297D01*
Y262901D01*
X132897D01*
Y263301D01*
X132097D01*
Y262901D01*
X131697D01*
Y262101D01*
X132097D01*
X101697Y241701D02*
X102097D01*
X102497Y242101D01*
X102897Y241701D01*
X103297D01*
Y242101D01*
X102897Y242501D01*
X103297Y242901D01*
Y243301D01*
X102897D01*
X102497Y242901D01*
X102097Y243301D01*
X101697D01*
Y242901D01*
X102097Y242501D01*
X101697Y242101D01*
Y241701D01*
X126697Y252501D02*
X127497Y253301D01*
X128297Y252501D01*
X127497Y251701D01*
X126697Y252501D01*
X116697Y281701D02*
Y283301D01*
X118297D01*
Y281701D01*
X116697D01*
X117097Y282101D02*
Y282901D01*
X117897D01*
Y282101D01*
X117097D01*
X106697Y281701D02*
Y283301D01*
X108297D01*
Y281701D01*
X106697D01*
X107097Y282101D02*
Y282901D01*
X107897D01*
Y282101D01*
X107097D01*
X96697Y281701D02*
Y283301D01*
X98297D01*
Y281701D01*
X96697D01*
X97097Y282101D02*
Y282901D01*
X97897D01*
Y282101D01*
X97097D01*
X126697Y281701D02*
Y283301D01*
X128297D01*
Y281701D01*
X126697D01*
X127097Y282101D02*
Y282901D01*
X127897D01*
Y282101D01*
X127097D01*
X126697Y291701D02*
Y293301D01*
X128297D01*
Y291701D01*
X126697D01*
X127097Y292101D02*
Y292901D01*
X127897D01*
Y292101D01*
X127097D01*
X96697Y291701D02*
Y293301D01*
X98297D01*
Y291701D01*
X96697D01*
X97097Y292101D02*
Y292901D01*
X97897D01*
Y292101D01*
X97097D01*
X17098Y262101D02*
Y261701D01*
X17898D01*
Y262101D01*
X18298D01*
Y262901D01*
X17898D01*
Y263301D01*
X17098D01*
Y262901D01*
X16698D01*
Y262101D01*
X17098D01*
X57098D02*
Y261701D01*
X57898D01*
Y262101D01*
X58298D01*
Y262901D01*
X57898D01*
Y263301D01*
X57098D01*
Y262901D01*
X56698D01*
Y262101D01*
X57098D01*
X26698Y241701D02*
X27098D01*
X27498Y242101D01*
X27898Y241701D01*
X28298D01*
Y242101D01*
X27898Y242501D01*
X28298Y242901D01*
Y243301D01*
X27898D01*
X27498Y242901D01*
X27098Y243301D01*
X26698D01*
Y242901D01*
X27098Y242501D01*
X26698Y242101D01*
Y241701D01*
X51698Y252501D02*
X52498Y253301D01*
X53298Y252501D01*
X52498Y251701D01*
X51698Y252501D01*
X41698Y281701D02*
Y283301D01*
X43298D01*
Y281701D01*
X41698D01*
X42098Y282101D02*
Y282901D01*
X42898D01*
Y282101D01*
X42098D01*
X31698Y281701D02*
Y283301D01*
X33298D01*
Y281701D01*
X31698D01*
X32098Y282101D02*
Y282901D01*
X32898D01*
Y282101D01*
X32098D01*
X21698Y281701D02*
Y283301D01*
X23298D01*
Y281701D01*
X21698D01*
X22098Y282101D02*
Y282901D01*
X22898D01*
Y282101D01*
X22098D01*
X51698Y281701D02*
Y283301D01*
X53298D01*
Y281701D01*
X51698D01*
X52098Y282101D02*
Y282901D01*
X52898D01*
Y282101D01*
X52098D01*
X51698Y291701D02*
Y293301D01*
X53298D01*
Y291701D01*
X51698D01*
X52098Y292101D02*
Y292901D01*
X52898D01*
Y292101D01*
X52098D01*
X21698Y291701D02*
Y293301D01*
X23298D01*
Y291701D01*
X21698D01*
X22098Y292101D02*
Y292901D01*
X22898D01*
Y292101D01*
X22098D01*
X242097Y187101D02*
Y186701D01*
X242897D01*
Y187101D01*
X243297D01*
Y187901D01*
X242897D01*
Y188301D01*
X242097D01*
Y187901D01*
X241697D01*
Y187101D01*
X242097D01*
X282097D02*
Y186701D01*
X282897D01*
Y187101D01*
X283297D01*
Y187901D01*
X282897D01*
Y188301D01*
X282097D01*
Y187901D01*
X281697D01*
Y187101D01*
X282097D01*
X251697Y166701D02*
X252097D01*
X252497Y167101D01*
X252897Y166701D01*
X253297D01*
Y167101D01*
X252897Y167501D01*
X253297Y167901D01*
Y168301D01*
X252897D01*
X252497Y167901D01*
X252097Y168301D01*
X251697D01*
Y167901D01*
X252097Y167501D01*
X251697Y167101D01*
Y166701D01*
X276697Y177501D02*
X277497Y178301D01*
X278297Y177501D01*
X277497Y176701D01*
X276697Y177501D01*
X266697Y206701D02*
Y208301D01*
X268297D01*
Y206701D01*
X266697D01*
X267097Y207101D02*
Y207901D01*
X267897D01*
Y207101D01*
X267097D01*
X256697Y206701D02*
Y208301D01*
X258297D01*
Y206701D01*
X256697D01*
X257097Y207101D02*
Y207901D01*
X257897D01*
Y207101D01*
X257097D01*
X246697Y206701D02*
Y208301D01*
X248297D01*
Y206701D01*
X246697D01*
X247097Y207101D02*
Y207901D01*
X247897D01*
Y207101D01*
X247097D01*
X276697Y206701D02*
Y208301D01*
X278297D01*
Y206701D01*
X276697D01*
X277097Y207101D02*
Y207901D01*
X277897D01*
Y207101D01*
X277097D01*
X276697Y216701D02*
Y218301D01*
X278297D01*
Y216701D01*
X276697D01*
X277097Y217101D02*
Y217901D01*
X277897D01*
Y217101D01*
X277097D01*
X246697Y216701D02*
Y218301D01*
X248297D01*
Y216701D01*
X246697D01*
X247097Y217101D02*
Y217901D01*
X247897D01*
Y217101D01*
X247097D01*
X167097Y187101D02*
Y186701D01*
X167897D01*
Y187101D01*
X168297D01*
Y187901D01*
X167897D01*
Y188301D01*
X167097D01*
Y187901D01*
X166697D01*
Y187101D01*
X167097D01*
X207097D02*
Y186701D01*
X207897D01*
Y187101D01*
X208297D01*
Y187901D01*
X207897D01*
Y188301D01*
X207097D01*
Y187901D01*
X206697D01*
Y187101D01*
X207097D01*
X176697Y166701D02*
X177097D01*
X177497Y167101D01*
X177897Y166701D01*
X178297D01*
Y167101D01*
X177897Y167501D01*
X178297Y167901D01*
Y168301D01*
X177897D01*
X177497Y167901D01*
X177097Y168301D01*
X176697D01*
Y167901D01*
X177097Y167501D01*
X176697Y167101D01*
Y166701D01*
X201697Y177501D02*
X202497Y178301D01*
X203297Y177501D01*
X202497Y176701D01*
X201697Y177501D01*
X191697Y206701D02*
Y208301D01*
X193297D01*
Y206701D01*
X191697D01*
X192097Y207101D02*
Y207901D01*
X192897D01*
Y207101D01*
X192097D01*
X181697Y206701D02*
Y208301D01*
X183297D01*
Y206701D01*
X181697D01*
X182097Y207101D02*
Y207901D01*
X182897D01*
Y207101D01*
X182097D01*
X171697Y206701D02*
Y208301D01*
X173297D01*
Y206701D01*
X171697D01*
X172097Y207101D02*
Y207901D01*
X172897D01*
Y207101D01*
X172097D01*
X201697Y206701D02*
Y208301D01*
X203297D01*
Y206701D01*
X201697D01*
X202097Y207101D02*
Y207901D01*
X202897D01*
Y207101D01*
X202097D01*
X201697Y216701D02*
Y218301D01*
X203297D01*
Y216701D01*
X201697D01*
X202097Y217101D02*
Y217901D01*
X202897D01*
Y217101D01*
X202097D01*
X171697Y216701D02*
Y218301D01*
X173297D01*
Y216701D01*
X171697D01*
X172097Y217101D02*
Y217901D01*
X172897D01*
Y217101D01*
X172097D01*
X92097Y187101D02*
Y186701D01*
X92897D01*
Y187101D01*
X93297D01*
Y187901D01*
X92897D01*
Y188301D01*
X92097D01*
Y187901D01*
X91697D01*
Y187101D01*
X92097D01*
X132097D02*
Y186701D01*
X132897D01*
Y187101D01*
X133297D01*
Y187901D01*
X132897D01*
Y188301D01*
X132097D01*
Y187901D01*
X131697D01*
Y187101D01*
X132097D01*
X101697Y166701D02*
X102097D01*
X102497Y167101D01*
X102897Y166701D01*
X103297D01*
Y167101D01*
X102897Y167501D01*
X103297Y167901D01*
Y168301D01*
X102897D01*
X102497Y167901D01*
X102097Y168301D01*
X101697D01*
Y167901D01*
X102097Y167501D01*
X101697Y167101D01*
Y166701D01*
X126697Y177501D02*
X127497Y178301D01*
X128297Y177501D01*
X127497Y176701D01*
X126697Y177501D01*
X116697Y206701D02*
Y208301D01*
X118297D01*
Y206701D01*
X116697D01*
X117097Y207101D02*
Y207901D01*
X117897D01*
Y207101D01*
X117097D01*
X106697Y206701D02*
Y208301D01*
X108297D01*
Y206701D01*
X106697D01*
X107097Y207101D02*
Y207901D01*
X107897D01*
Y207101D01*
X107097D01*
X96697Y206701D02*
Y208301D01*
X98297D01*
Y206701D01*
X96697D01*
X97097Y207101D02*
Y207901D01*
X97897D01*
Y207101D01*
X97097D01*
X126697Y206701D02*
Y208301D01*
X128297D01*
Y206701D01*
X126697D01*
X127097Y207101D02*
Y207901D01*
X127897D01*
Y207101D01*
X127097D01*
X126697Y216701D02*
Y218301D01*
X128297D01*
Y216701D01*
X126697D01*
X127097Y217101D02*
Y217901D01*
X127897D01*
Y217101D01*
X127097D01*
X96697Y216701D02*
Y218301D01*
X98297D01*
Y216701D01*
X96697D01*
X97097Y217101D02*
Y217901D01*
X97897D01*
Y217101D01*
X97097D01*
X17098Y187101D02*
Y186701D01*
X17898D01*
Y187101D01*
X18298D01*
Y187901D01*
X17898D01*
Y188301D01*
X17098D01*
Y187901D01*
X16698D01*
Y187101D01*
X17098D01*
X57098D02*
Y186701D01*
X57898D01*
Y187101D01*
X58298D01*
Y187901D01*
X57898D01*
Y188301D01*
X57098D01*
Y187901D01*
X56698D01*
Y187101D01*
X57098D01*
X26698Y166701D02*
X27098D01*
X27498Y167101D01*
X27898Y166701D01*
X28298D01*
Y167101D01*
X27898Y167501D01*
X28298Y167901D01*
Y168301D01*
X27898D01*
X27498Y167901D01*
X27098Y168301D01*
X26698D01*
Y167901D01*
X27098Y167501D01*
X26698Y167101D01*
Y166701D01*
X51698Y177501D02*
X52498Y178301D01*
X53298Y177501D01*
X52498Y176701D01*
X51698Y177501D01*
X41698Y206701D02*
Y208301D01*
X43298D01*
Y206701D01*
X41698D01*
X42098Y207101D02*
Y207901D01*
X42898D01*
Y207101D01*
X42098D01*
X31698Y206701D02*
Y208301D01*
X33298D01*
Y206701D01*
X31698D01*
X32098Y207101D02*
Y207901D01*
X32898D01*
Y207101D01*
X32098D01*
X21698Y206701D02*
Y208301D01*
X23298D01*
Y206701D01*
X21698D01*
X22098Y207101D02*
Y207901D01*
X22898D01*
Y207101D01*
X22098D01*
X51698Y206701D02*
Y208301D01*
X53298D01*
Y206701D01*
X51698D01*
X52098Y207101D02*
Y207901D01*
X52898D01*
Y207101D01*
X52098D01*
X51698Y216701D02*
Y218301D01*
X53298D01*
Y216701D01*
X51698D01*
X52098Y217101D02*
Y217901D01*
X52898D01*
Y217101D01*
X52098D01*
X21698Y216701D02*
Y218301D01*
X23298D01*
Y216701D01*
X21698D01*
X22098Y217101D02*
Y217901D01*
X22898D01*
Y217101D01*
X22098D01*
X242097Y112100D02*
Y111700D01*
X242897D01*
Y112100D01*
X243297D01*
Y112900D01*
X242897D01*
Y113300D01*
X242097D01*
Y112900D01*
X241697D01*
Y112100D01*
X242097D01*
X282097D02*
Y111700D01*
X282897D01*
Y112100D01*
X283297D01*
Y112900D01*
X282897D01*
Y113300D01*
X282097D01*
Y112900D01*
X281697D01*
Y112100D01*
X282097D01*
X251697Y91700D02*
X252097D01*
X252497Y92100D01*
X252897Y91700D01*
X253297D01*
Y92100D01*
X252897Y92500D01*
X253297Y92900D01*
Y93300D01*
X252897D01*
X252497Y92900D01*
X252097Y93300D01*
X251697D01*
Y92900D01*
X252097Y92500D01*
X251697Y92100D01*
Y91700D01*
X276697Y102500D02*
X277497Y103300D01*
X278297Y102500D01*
X277497Y101700D01*
X276697Y102500D01*
X266697Y131700D02*
Y133300D01*
X268297D01*
Y131700D01*
X266697D01*
X267097Y132100D02*
Y132900D01*
X267897D01*
Y132100D01*
X267097D01*
X256697Y131700D02*
Y133300D01*
X258297D01*
Y131700D01*
X256697D01*
X257097Y132100D02*
Y132900D01*
X257897D01*
Y132100D01*
X257097D01*
X246697Y131700D02*
Y133300D01*
X248297D01*
Y131700D01*
X246697D01*
X247097Y132100D02*
Y132900D01*
X247897D01*
Y132100D01*
X247097D01*
X276697Y131700D02*
Y133300D01*
X278297D01*
Y131700D01*
X276697D01*
X277097Y132100D02*
Y132900D01*
X277897D01*
Y132100D01*
X277097D01*
X276697Y141700D02*
Y143300D01*
X278297D01*
Y141700D01*
X276697D01*
X277097Y142100D02*
Y142900D01*
X277897D01*
Y142100D01*
X277097D01*
X246697Y141700D02*
Y143300D01*
X248297D01*
Y141700D01*
X246697D01*
X247097Y142100D02*
Y142900D01*
X247897D01*
Y142100D01*
X247097D01*
X167097Y112100D02*
Y111700D01*
X167897D01*
Y112100D01*
X168297D01*
Y112900D01*
X167897D01*
Y113300D01*
X167097D01*
Y112900D01*
X166697D01*
Y112100D01*
X167097D01*
X207097D02*
Y111700D01*
X207897D01*
Y112100D01*
X208297D01*
Y112900D01*
X207897D01*
Y113300D01*
X207097D01*
Y112900D01*
X206697D01*
Y112100D01*
X207097D01*
X176697Y91700D02*
X177097D01*
X177497Y92100D01*
X177897Y91700D01*
X178297D01*
Y92100D01*
X177897Y92500D01*
X178297Y92900D01*
Y93300D01*
X177897D01*
X177497Y92900D01*
X177097Y93300D01*
X176697D01*
Y92900D01*
X177097Y92500D01*
X176697Y92100D01*
Y91700D01*
X201697Y102500D02*
X202497Y103300D01*
X203297Y102500D01*
X202497Y101700D01*
X201697Y102500D01*
X191697Y131700D02*
Y133300D01*
X193297D01*
Y131700D01*
X191697D01*
X192097Y132100D02*
Y132900D01*
X192897D01*
Y132100D01*
X192097D01*
X181697Y131700D02*
Y133300D01*
X183297D01*
Y131700D01*
X181697D01*
X182097Y132100D02*
Y132900D01*
X182897D01*
Y132100D01*
X182097D01*
X171697Y131700D02*
Y133300D01*
X173297D01*
Y131700D01*
X171697D01*
X172097Y132100D02*
Y132900D01*
X172897D01*
Y132100D01*
X172097D01*
X201697Y131700D02*
Y133300D01*
X203297D01*
Y131700D01*
X201697D01*
X202097Y132100D02*
Y132900D01*
X202897D01*
Y132100D01*
X202097D01*
X201697Y141700D02*
Y143300D01*
X203297D01*
Y141700D01*
X201697D01*
X202097Y142100D02*
Y142900D01*
X202897D01*
Y142100D01*
X202097D01*
X171697Y141700D02*
Y143300D01*
X173297D01*
Y141700D01*
X171697D01*
X172097Y142100D02*
Y142900D01*
X172897D01*
Y142100D01*
X172097D01*
X92097Y112100D02*
Y111700D01*
X92897D01*
Y112100D01*
X93297D01*
Y112900D01*
X92897D01*
Y113300D01*
X92097D01*
Y112900D01*
X91697D01*
Y112100D01*
X92097D01*
X132097D02*
Y111700D01*
X132897D01*
Y112100D01*
X133297D01*
Y112900D01*
X132897D01*
Y113300D01*
X132097D01*
Y112900D01*
X131697D01*
Y112100D01*
X132097D01*
X101697Y91700D02*
X102097D01*
X102497Y92100D01*
X102897Y91700D01*
X103297D01*
Y92100D01*
X102897Y92500D01*
X103297Y92900D01*
Y93300D01*
X102897D01*
X102497Y92900D01*
X102097Y93300D01*
X101697D01*
Y92900D01*
X102097Y92500D01*
X101697Y92100D01*
Y91700D01*
X126697Y102500D02*
X127497Y103300D01*
X128297Y102500D01*
X127497Y101700D01*
X126697Y102500D01*
X116697Y131700D02*
Y133300D01*
X118297D01*
Y131700D01*
X116697D01*
X117097Y132100D02*
Y132900D01*
X117897D01*
Y132100D01*
X117097D01*
X106697Y131700D02*
Y133300D01*
X108297D01*
Y131700D01*
X106697D01*
X107097Y132100D02*
Y132900D01*
X107897D01*
Y132100D01*
X107097D01*
X96697Y131700D02*
Y133300D01*
X98297D01*
Y131700D01*
X96697D01*
X97097Y132100D02*
Y132900D01*
X97897D01*
Y132100D01*
X97097D01*
X126697Y131700D02*
Y133300D01*
X128297D01*
Y131700D01*
X126697D01*
X127097Y132100D02*
Y132900D01*
X127897D01*
Y132100D01*
X127097D01*
X126697Y141700D02*
Y143300D01*
X128297D01*
Y141700D01*
X126697D01*
X127097Y142100D02*
Y142900D01*
X127897D01*
Y142100D01*
X127097D01*
X96697Y141700D02*
Y143300D01*
X98297D01*
Y141700D01*
X96697D01*
X97097Y142100D02*
Y142900D01*
X97897D01*
Y142100D01*
X97097D01*
X17098Y112100D02*
Y111700D01*
X17898D01*
Y112100D01*
X18298D01*
Y112900D01*
X17898D01*
Y113300D01*
X17098D01*
Y112900D01*
X16698D01*
Y112100D01*
X17098D01*
X57098D02*
Y111700D01*
X57898D01*
Y112100D01*
X58298D01*
Y112900D01*
X57898D01*
Y113300D01*
X57098D01*
Y112900D01*
X56698D01*
Y112100D01*
X57098D01*
X26698Y91700D02*
X27098D01*
X27498Y92100D01*
X27898Y91700D01*
X28298D01*
Y92100D01*
X27898Y92500D01*
X28298Y92900D01*
Y93300D01*
X27898D01*
X27498Y92900D01*
X27098Y93300D01*
X26698D01*
Y92900D01*
X27098Y92500D01*
X26698Y92100D01*
Y91700D01*
X51698Y102500D02*
X52498Y103300D01*
X53298Y102500D01*
X52498Y101700D01*
X51698Y102500D01*
X41698Y131700D02*
Y133300D01*
X43298D01*
Y131700D01*
X41698D01*
X42098Y132100D02*
Y132900D01*
X42898D01*
Y132100D01*
X42098D01*
X31698Y131700D02*
Y133300D01*
X33298D01*
Y131700D01*
X31698D01*
X32098Y132100D02*
Y132900D01*
X32898D01*
Y132100D01*
X32098D01*
X21698Y131700D02*
Y133300D01*
X23298D01*
Y131700D01*
X21698D01*
X22098Y132100D02*
Y132900D01*
X22898D01*
Y132100D01*
X22098D01*
X51698Y131700D02*
Y133300D01*
X53298D01*
Y131700D01*
X51698D01*
X52098Y132100D02*
Y132900D01*
X52898D01*
Y132100D01*
X52098D01*
X51698Y141700D02*
Y143300D01*
X53298D01*
Y141700D01*
X51698D01*
X52098Y142100D02*
Y142900D01*
X52898D01*
Y142100D01*
X52098D01*
X21698Y141700D02*
Y143300D01*
X23298D01*
Y141700D01*
X21698D01*
X22098Y142100D02*
Y142900D01*
X22898D01*
Y142100D01*
X22098D01*
X242097Y37100D02*
Y36700D01*
X242897D01*
Y37100D01*
X243297D01*
Y37900D01*
X242897D01*
Y38300D01*
X242097D01*
Y37900D01*
X241697D01*
Y37100D01*
X242097D01*
X282097D02*
Y36700D01*
X282897D01*
Y37100D01*
X283297D01*
Y37900D01*
X282897D01*
Y38300D01*
X282097D01*
Y37900D01*
X281697D01*
Y37100D01*
X282097D01*
X251697Y16700D02*
X252097D01*
X252497Y17100D01*
X252897Y16700D01*
X253297D01*
Y17100D01*
X252897Y17500D01*
X253297Y17900D01*
Y18300D01*
X252897D01*
X252497Y17900D01*
X252097Y18300D01*
X251697D01*
Y17900D01*
X252097Y17500D01*
X251697Y17100D01*
Y16700D01*
X276697Y27500D02*
X277497Y28300D01*
X278297Y27500D01*
X277497Y26700D01*
X276697Y27500D01*
X266697Y56700D02*
Y58300D01*
X268297D01*
Y56700D01*
X266697D01*
X267097Y57100D02*
Y57900D01*
X267897D01*
Y57100D01*
X267097D01*
X256697Y56700D02*
Y58300D01*
X258297D01*
Y56700D01*
X256697D01*
X257097Y57100D02*
Y57900D01*
X257897D01*
Y57100D01*
X257097D01*
X246697Y56700D02*
Y58300D01*
X248297D01*
Y56700D01*
X246697D01*
X247097Y57100D02*
Y57900D01*
X247897D01*
Y57100D01*
X247097D01*
X276697Y56700D02*
Y58300D01*
X278297D01*
Y56700D01*
X276697D01*
X277097Y57100D02*
Y57900D01*
X277897D01*
Y57100D01*
X277097D01*
X276697Y66700D02*
Y68300D01*
X278297D01*
Y66700D01*
X276697D01*
X277097Y67100D02*
Y67900D01*
X277897D01*
Y67100D01*
X277097D01*
X246697Y66700D02*
Y68300D01*
X248297D01*
Y66700D01*
X246697D01*
X247097Y67100D02*
Y67900D01*
X247897D01*
Y67100D01*
X247097D01*
X167097Y37100D02*
Y36700D01*
X167897D01*
Y37100D01*
X168297D01*
Y37900D01*
X167897D01*
Y38300D01*
X167097D01*
Y37900D01*
X166697D01*
Y37100D01*
X167097D01*
X207097D02*
Y36700D01*
X207897D01*
Y37100D01*
X208297D01*
Y37900D01*
X207897D01*
Y38300D01*
X207097D01*
Y37900D01*
X206697D01*
Y37100D01*
X207097D01*
X176697Y16700D02*
X177097D01*
X177497Y17100D01*
X177897Y16700D01*
X178297D01*
Y17100D01*
X177897Y17500D01*
X178297Y17900D01*
Y18300D01*
X177897D01*
X177497Y17900D01*
X177097Y18300D01*
X176697D01*
Y17900D01*
X177097Y17500D01*
X176697Y17100D01*
Y16700D01*
X201697Y27500D02*
X202497Y28300D01*
X203297Y27500D01*
X202497Y26700D01*
X201697Y27500D01*
X191697Y56700D02*
Y58300D01*
X193297D01*
Y56700D01*
X191697D01*
X192097Y57100D02*
Y57900D01*
X192897D01*
Y57100D01*
X192097D01*
X181697Y56700D02*
Y58300D01*
X183297D01*
Y56700D01*
X181697D01*
X182097Y57100D02*
Y57900D01*
X182897D01*
Y57100D01*
X182097D01*
X171697Y56700D02*
Y58300D01*
X173297D01*
Y56700D01*
X171697D01*
X172097Y57100D02*
Y57900D01*
X172897D01*
Y57100D01*
X172097D01*
X201697Y56700D02*
Y58300D01*
X203297D01*
Y56700D01*
X201697D01*
X202097Y57100D02*
Y57900D01*
X202897D01*
Y57100D01*
X202097D01*
X201697Y66700D02*
Y68300D01*
X203297D01*
Y66700D01*
X201697D01*
X202097Y67100D02*
Y67900D01*
X202897D01*
Y67100D01*
X202097D01*
X171697Y66700D02*
Y68300D01*
X173297D01*
Y66700D01*
X171697D01*
X172097Y67100D02*
Y67900D01*
X172897D01*
Y67100D01*
X172097D01*
X92097Y37100D02*
Y36700D01*
X92897D01*
Y37100D01*
X93297D01*
Y37900D01*
X92897D01*
Y38300D01*
X92097D01*
Y37900D01*
X91697D01*
Y37100D01*
X92097D01*
X132097D02*
Y36700D01*
X132897D01*
Y37100D01*
X133297D01*
Y37900D01*
X132897D01*
Y38300D01*
X132097D01*
Y37900D01*
X131697D01*
Y37100D01*
X132097D01*
X101697Y16700D02*
X102097D01*
X102497Y17100D01*
X102897Y16700D01*
X103297D01*
Y17100D01*
X102897Y17500D01*
X103297Y17900D01*
Y18300D01*
X102897D01*
X102497Y17900D01*
X102097Y18300D01*
X101697D01*
Y17900D01*
X102097Y17500D01*
X101697Y17100D01*
Y16700D01*
X126697Y27500D02*
X127497Y28300D01*
X128297Y27500D01*
X127497Y26700D01*
X126697Y27500D01*
X116697Y56700D02*
Y58300D01*
X118297D01*
Y56700D01*
X116697D01*
X117097Y57100D02*
Y57900D01*
X117897D01*
Y57100D01*
X117097D01*
X106697Y56700D02*
Y58300D01*
X108297D01*
Y56700D01*
X106697D01*
X107097Y57100D02*
Y57900D01*
X107897D01*
Y57100D01*
X107097D01*
X96697Y56700D02*
Y58300D01*
X98297D01*
Y56700D01*
X96697D01*
X97097Y57100D02*
Y57900D01*
X97897D01*
Y57100D01*
X97097D01*
X126697Y56700D02*
Y58300D01*
X128297D01*
Y56700D01*
X126697D01*
X127097Y57100D02*
Y57900D01*
X127897D01*
Y57100D01*
X127097D01*
X126697Y66700D02*
Y68300D01*
X128297D01*
Y66700D01*
X126697D01*
X127097Y67100D02*
Y67900D01*
X127897D01*
Y67100D01*
X127097D01*
X96697Y66700D02*
Y68300D01*
X98297D01*
Y66700D01*
X96697D01*
X97097Y67100D02*
Y67900D01*
X97897D01*
Y67100D01*
X97097D01*
X17098Y37100D02*
Y36700D01*
X17898D01*
Y37100D01*
X18298D01*
Y37900D01*
X17898D01*
Y38300D01*
X17098D01*
Y37900D01*
X16698D01*
Y37100D01*
X17098D01*
X57098D02*
Y36700D01*
X57898D01*
Y37100D01*
X58298D01*
Y37900D01*
X57898D01*
Y38300D01*
X57098D01*
Y37900D01*
X56698D01*
Y37100D01*
X57098D01*
X26698Y16700D02*
X27098D01*
X27498Y17100D01*
X27898Y16700D01*
X28298D01*
Y17100D01*
X27898Y17500D01*
X28298Y17900D01*
Y18300D01*
X27898D01*
X27498Y17900D01*
X27098Y18300D01*
X26698D01*
Y17900D01*
X27098Y17500D01*
X26698Y17100D01*
Y16700D01*
X51698Y27500D02*
X52498Y28300D01*
X53298Y27500D01*
X52498Y26700D01*
X51698Y27500D01*
X41698Y56700D02*
Y58300D01*
X43298D01*
Y56700D01*
X41698D01*
X42098Y57100D02*
Y57900D01*
X42898D01*
Y57100D01*
X42098D01*
X31698Y56700D02*
Y58300D01*
X33298D01*
Y56700D01*
X31698D01*
X32098Y57100D02*
Y57900D01*
X32898D01*
Y57100D01*
X32098D01*
X21698Y56700D02*
Y58300D01*
X23298D01*
Y56700D01*
X21698D01*
X22098Y57100D02*
Y57900D01*
X22898D01*
Y57100D01*
X22098D01*
X51698Y56700D02*
Y58300D01*
X53298D01*
Y56700D01*
X51698D01*
X52098Y57100D02*
Y57900D01*
X52898D01*
Y57100D01*
X52098D01*
X51698Y66700D02*
Y68300D01*
X53298D01*
Y66700D01*
X51698D01*
X52098Y67100D02*
Y67900D01*
X52898D01*
Y67100D01*
X52098D01*
X21698Y66700D02*
Y68300D01*
X23298D01*
Y66700D01*
X21698D01*
X22098Y67100D02*
Y67900D01*
X22898D01*
Y67100D01*
X22098D01*
X224197Y299201D02*
X224597Y300001D01*
X224197Y300801D01*
X224997Y300401D01*
X225797Y300801D01*
X225397Y300001D01*
X225797Y299201D01*
X224997Y299601D01*
X224197Y299201D01*
X74197D02*
X74597Y300001D01*
X74197Y300801D01*
X74997Y300401D01*
X75797Y300801D01*
X75397Y300001D01*
X75797Y299201D01*
X74997Y299601D01*
X74197Y299201D01*
X224197Y224201D02*
X224597Y225001D01*
X224197Y225801D01*
X224997Y225401D01*
X225797Y225801D01*
X225397Y225001D01*
X225797Y224201D01*
X224997Y224601D01*
X224197Y224201D01*
X74197D02*
X74597Y225001D01*
X74197Y225801D01*
X74997Y225401D01*
X75797Y225801D01*
X75397Y225001D01*
X75797Y224201D01*
X74997Y224601D01*
X74197Y224201D01*
X224197Y74200D02*
X224597Y75000D01*
X224197Y75800D01*
X224997Y75400D01*
X225797Y75800D01*
X225397Y75000D01*
X225797Y74200D01*
X224997Y74600D01*
X224197Y74200D01*
X74197D02*
X74597Y75000D01*
X74197Y75800D01*
X74997Y75400D01*
X75797Y75800D01*
X75397Y75000D01*
X75797Y74200D01*
X74997Y74600D01*
X74197Y74200D01*
X65241Y345608D02*
Y347208D01*
X66841D01*
Y345608D01*
X65241D01*
Y365293D02*
Y366893D01*
X66841D01*
Y365293D01*
X65241D01*
X8155Y345608D02*
Y347208D01*
X9755D01*
Y345608D01*
X8155D01*
Y355451D02*
Y357051D01*
X9755D01*
Y355451D01*
X8155D01*
Y365293D02*
Y366893D01*
X9755D01*
Y365293D01*
X8155D01*
X266237Y303433D02*
X265437Y305033D01*
X267037D01*
X266237Y303433D01*
Y303833D02*
X265837Y304633D01*
X266637D01*
X266237Y303833D01*
X191237Y303433D02*
X190437Y305033D01*
X192037D01*
X191237Y303433D01*
Y303833D02*
X190837Y304633D01*
X191637D01*
X191237Y303833D01*
X116237Y303433D02*
X115437Y305033D01*
X117037D01*
X116237Y303433D01*
Y303833D02*
X115837Y304633D01*
X116637D01*
X116237Y303833D01*
X41238Y303433D02*
X40438Y305033D01*
X42038D01*
X41238Y303433D01*
Y303833D02*
X40838Y304633D01*
X41638D01*
X41238Y303833D01*
Y228433D02*
X40438Y230033D01*
X42038D01*
X41238Y228433D01*
Y228833D02*
X40838Y229633D01*
X41638D01*
X41238Y228833D01*
X116237Y228433D02*
X115437Y230033D01*
X117037D01*
X116237Y228433D01*
Y228833D02*
X115837Y229633D01*
X116637D01*
X116237Y228833D01*
X191237Y228433D02*
X190437Y230033D01*
X192037D01*
X191237Y228433D01*
Y228833D02*
X190837Y229633D01*
X191637D01*
X191237Y228833D01*
X266237Y228433D02*
X265437Y230033D01*
X267037D01*
X266237Y228433D01*
Y228833D02*
X265837Y229633D01*
X266637D01*
X266237Y228833D01*
Y78432D02*
X265437Y80032D01*
X267037D01*
X266237Y78432D01*
Y78832D02*
X265837Y79632D01*
X266637D01*
X266237Y78832D01*
X191237Y78432D02*
X190437Y80032D01*
X192037D01*
X191237Y78432D01*
Y78832D02*
X190837Y79632D01*
X191637D01*
X191237Y78832D01*
X116237Y78432D02*
X115437Y80032D01*
X117037D01*
X116237Y78432D01*
Y78832D02*
X115837Y79632D01*
X116637D01*
X116237Y78832D01*
X41238Y78432D02*
X40438Y80032D01*
X42038D01*
X41238Y78432D01*
Y78832D02*
X40838Y79632D01*
X41638D01*
X41238Y78832D01*
Y153432D02*
X40438Y155032D01*
X42038D01*
X41238Y153432D01*
Y153832D02*
X40838Y154632D01*
X41638D01*
X41238Y153832D01*
X116237Y153432D02*
X115437Y155032D01*
X117037D01*
X116237Y153432D01*
Y153832D02*
X115837Y154632D01*
X116637D01*
X116237Y153832D01*
X191237Y153432D02*
X190437Y155032D01*
X192037D01*
X191237Y153432D01*
Y153832D02*
X190837Y154632D01*
X191637D01*
X191237Y153832D01*
X266237Y153432D02*
X265437Y155032D01*
X267037D01*
X266237Y153432D01*
Y153832D02*
X265837Y154632D01*
X266637D01*
X266237Y153832D01*
Y72566D02*
X265437Y74166D01*
X267037D01*
X266237Y72566D01*
Y72966D02*
X265837Y73766D01*
X266637D01*
X266237Y72966D01*
X191237Y72566D02*
X190437Y74166D01*
X192037D01*
X191237Y72566D01*
Y72966D02*
X190837Y73766D01*
X191637D01*
X191237Y72966D01*
X116237Y72566D02*
X115437Y74166D01*
X117037D01*
X116237Y72566D01*
Y72966D02*
X115837Y73766D01*
X116637D01*
X116237Y72966D01*
X41238Y72566D02*
X40438Y74166D01*
X42038D01*
X41238Y72566D01*
Y72966D02*
X40838Y73766D01*
X41638D01*
X41238Y72966D01*
Y147566D02*
X40438Y149166D01*
X42038D01*
X41238Y147566D01*
Y147966D02*
X40838Y148766D01*
X41638D01*
X41238Y147966D01*
X116237Y147566D02*
X115437Y149166D01*
X117037D01*
X116237Y147566D01*
Y147966D02*
X115837Y148766D01*
X116637D01*
X116237Y147966D01*
X191237Y147566D02*
X190437Y149166D01*
X192037D01*
X191237Y147566D01*
Y147966D02*
X190837Y148766D01*
X191637D01*
X191237Y147966D01*
X266237Y147566D02*
X265437Y149166D01*
X267037D01*
X266237Y147566D01*
Y147966D02*
X265837Y148766D01*
X266637D01*
X266237Y147966D01*
Y297567D02*
X265437Y299167D01*
X267037D01*
X266237Y297567D01*
Y297967D02*
X265837Y298767D01*
X266637D01*
X266237Y297967D01*
X191237Y297567D02*
X190437Y299167D01*
X192037D01*
X191237Y297567D01*
Y297967D02*
X190837Y298767D01*
X191637D01*
X191237Y297967D01*
X116237Y297567D02*
X115437Y299167D01*
X117037D01*
X116237Y297567D01*
Y297967D02*
X115837Y298767D01*
X116637D01*
X116237Y297967D01*
X41238Y297567D02*
X40438Y299167D01*
X42038D01*
X41238Y297567D01*
Y297967D02*
X40838Y298767D01*
X41638D01*
X41238Y297967D01*
X266237Y222567D02*
X265437Y224167D01*
X267037D01*
X266237Y222567D01*
Y222967D02*
X265837Y223767D01*
X266637D01*
X266237Y222967D01*
X191237Y222567D02*
X190437Y224167D01*
X192037D01*
X191237Y222567D01*
Y222967D02*
X190837Y223767D01*
X191637D01*
X191237Y222967D01*
X116237Y222567D02*
X115437Y224167D01*
X117037D01*
X116237Y222567D01*
Y222967D02*
X115837Y223767D01*
X116637D01*
X116237Y222967D01*
X41238Y222567D02*
X40438Y224167D01*
X42038D01*
X41238Y222567D01*
Y222967D02*
X40838Y223767D01*
X41638D01*
X41238Y222967D01*
X77165Y334239D02*
X76365Y335839D01*
X77965D01*
X77165Y334239D01*
Y334639D02*
X76765Y335439D01*
X77565D01*
X77165Y334639D01*
Y351956D02*
X76365Y353556D01*
X77965D01*
X77165Y351956D01*
Y352356D02*
X76765Y353156D01*
X77565D01*
X77165Y352356D01*
Y369672D02*
X76365Y371272D01*
X77965D01*
X77165Y369672D01*
Y370072D02*
X76765Y370872D01*
X77565D01*
X77165Y370072D01*
X83071Y334239D02*
X82271Y335839D01*
X83871D01*
X83071Y334239D01*
Y334639D02*
X82671Y335439D01*
X83471D01*
X83071Y334639D01*
Y351956D02*
X82271Y353556D01*
X83871D01*
X83071Y351956D01*
Y352356D02*
X82671Y353156D01*
X83471D01*
X83071Y352356D01*
Y369672D02*
X82271Y371272D01*
X83871D01*
X83071Y369672D01*
Y370072D02*
X82671Y370872D01*
X83471D01*
X83071Y370072D01*
D45*
X150797Y329882D02*
G03*
X150797Y329882I-800J0D01*
G01*
Y339882D02*
G03*
X150797Y339882I-800J0D01*
G01*
Y349882D02*
G03*
X150797Y349882I-800J0D01*
G01*
Y359882D02*
G03*
X150797Y359882I-800J0D01*
G01*
X263297Y262501D02*
G03*
X263297Y262501I-800J0D01*
G01*
X188297D02*
G03*
X188297Y262501I-800J0D01*
G01*
X113297D02*
G03*
X113297Y262501I-800J0D01*
G01*
X38298D02*
G03*
X38298Y262501I-800J0D01*
G01*
X263297Y187501D02*
G03*
X263297Y187501I-800J0D01*
G01*
X188297D02*
G03*
X188297Y187501I-800J0D01*
G01*
X113297D02*
G03*
X113297Y187501I-800J0D01*
G01*
X38298D02*
G03*
X38298Y187501I-800J0D01*
G01*
X263297Y112500D02*
G03*
X263297Y112500I-800J0D01*
G01*
X188297D02*
G03*
X188297Y112500I-800J0D01*
G01*
X113297D02*
G03*
X113297Y112500I-800J0D01*
G01*
X38298D02*
G03*
X38298Y112500I-800J0D01*
G01*
X263297Y37500D02*
G03*
X263297Y37500I-800J0D01*
G01*
X188297D02*
G03*
X188297Y37500I-800J0D01*
G01*
X113297D02*
G03*
X113297Y37500I-800J0D01*
G01*
X38298D02*
G03*
X38298Y37500I-800J0D01*
G01*
D46*
X262897Y262501D02*
G03*
X262897Y262501I-400J0D01*
G01*
X187897D02*
G03*
X187897Y262501I-400J0D01*
G01*
X112897D02*
G03*
X112897Y262501I-400J0D01*
G01*
X37898D02*
G03*
X37898Y262501I-400J0D01*
G01*
X262897Y187501D02*
G03*
X262897Y187501I-400J0D01*
G01*
X187897D02*
G03*
X187897Y187501I-400J0D01*
G01*
X112897D02*
G03*
X112897Y187501I-400J0D01*
G01*
X37898D02*
G03*
X37898Y187501I-400J0D01*
G01*
X262897Y112500D02*
G03*
X262897Y112500I-400J0D01*
G01*
X187897D02*
G03*
X187897Y112500I-400J0D01*
G01*
X112897D02*
G03*
X112897Y112500I-400J0D01*
G01*
X37898D02*
G03*
X37898Y112500I-400J0D01*
G01*
X262897Y37500D02*
G03*
X262897Y37500I-400J0D01*
G01*
X187897D02*
G03*
X187897Y37500I-400J0D01*
G01*
X112897D02*
G03*
X112897Y37500I-400J0D01*
G01*
X37898D02*
G03*
X37898Y37500I-400J0D01*
G01*
M02*
