G04*
G04 #@! TF.GenerationSoftware,Altium Limited,Altium Designer,22.5.1 (42)*
G04*
G04 Layer_Color=128*
%FSLAX25Y25*%
%MOIN*%
G70*
G04*
G04 #@! TF.SameCoordinates,A209DC94-0A87-40FC-B198-68C7A1A1665B*
G04*
G04*
G04 #@! TF.FilePolarity,Positive*
G04*
G01*
G75*
%ADD42C,0.00200*%
D42*
X292815Y6102D02*
X297146D01*
X294980Y3937D02*
Y8268D01*
X292815Y16102D02*
X297146D01*
X294980Y13937D02*
Y18268D01*
X292815Y26102D02*
X297146D01*
X294980Y23937D02*
Y28268D01*
X292815Y36102D02*
X297146D01*
X294980Y33937D02*
Y38268D01*
X292815Y56102D02*
X297146D01*
X294980Y53937D02*
Y58268D01*
X292815Y66102D02*
X297146D01*
X294980Y63937D02*
Y68268D01*
X292815Y76102D02*
X297146D01*
X294980Y73937D02*
Y78268D01*
X292815Y86102D02*
X297146D01*
X294980Y83937D02*
Y88268D01*
X292815Y373661D02*
X297146D01*
X294980Y371496D02*
Y375827D01*
X292815Y303661D02*
X297146D01*
X294980Y301496D02*
Y305827D01*
X292815Y313661D02*
X297146D01*
X294980Y311496D02*
Y315827D01*
X292815Y353661D02*
X297146D01*
X294980Y351496D02*
Y355827D01*
X292815Y363661D02*
X297146D01*
X294980Y361496D02*
Y365827D01*
X292815Y323661D02*
X297146D01*
X294980Y321496D02*
Y325827D01*
X292815Y343661D02*
X297146D01*
X294980Y341496D02*
Y345827D01*
X292815Y333661D02*
X297146D01*
X294980Y331496D02*
Y335827D01*
X292815Y383661D02*
X297146D01*
X294980Y381496D02*
Y385827D01*
X148247Y329882D02*
X151747D01*
X149997Y328132D02*
Y331632D01*
X148247Y339882D02*
X151747D01*
X149997Y338132D02*
Y341632D01*
X148247Y349882D02*
X151747D01*
X149997Y348132D02*
Y351632D01*
X148247Y359882D02*
X151747D01*
X149997Y358132D02*
Y361632D01*
X259173Y375590D02*
X263504D01*
X261339Y373425D02*
Y377756D01*
X269173Y375590D02*
X273504D01*
X271339Y373425D02*
Y377756D01*
X239147Y262501D02*
X245847D01*
X242497Y259151D02*
Y265851D01*
X279147Y262501D02*
X285847D01*
X282497Y259151D02*
Y265851D01*
X249544Y242501D02*
X255450D01*
X252497Y239548D02*
Y245453D01*
X274547Y252501D02*
X280447D01*
X277497Y249551D02*
Y255451D01*
X265997Y282501D02*
X268997D01*
X267497Y281001D02*
Y284001D01*
X255997Y282501D02*
X258997D01*
X257497Y281001D02*
Y284001D01*
X245997Y282501D02*
X248997D01*
X247497Y281001D02*
Y284001D01*
X275997Y282501D02*
X278997D01*
X277497Y281001D02*
Y284001D01*
X275997Y292501D02*
X278997D01*
X277497Y291001D02*
Y294001D01*
X245997Y292501D02*
X248997D01*
X247497Y291001D02*
Y294001D01*
X254647Y262501D02*
X270347D01*
X262497Y254651D02*
Y270351D01*
X164147Y262501D02*
X170847D01*
X167497Y259151D02*
Y265851D01*
X204147Y262501D02*
X210847D01*
X207497Y259151D02*
Y265851D01*
X174544Y242501D02*
X180450D01*
X177497Y239548D02*
Y245453D01*
X199547Y252501D02*
X205447D01*
X202497Y249551D02*
Y255451D01*
X190997Y282501D02*
X193997D01*
X192497Y281001D02*
Y284001D01*
X180997Y282501D02*
X183997D01*
X182497Y281001D02*
Y284001D01*
X170997Y282501D02*
X173997D01*
X172497Y281001D02*
Y284001D01*
X200997Y282501D02*
X203997D01*
X202497Y281001D02*
Y284001D01*
X200997Y292501D02*
X203997D01*
X202497Y291001D02*
Y294001D01*
X170997Y292501D02*
X173997D01*
X172497Y291001D02*
Y294001D01*
X179647Y262501D02*
X195347D01*
X187497Y254651D02*
Y270351D01*
X89147Y262501D02*
X95847D01*
X92497Y259151D02*
Y265851D01*
X129147Y262501D02*
X135847D01*
X132497Y259151D02*
Y265851D01*
X99544Y242501D02*
X105450D01*
X102497Y239548D02*
Y245453D01*
X124547Y252501D02*
X130447D01*
X127497Y249551D02*
Y255451D01*
X115997Y282501D02*
X118997D01*
X117497Y281001D02*
Y284001D01*
X105997Y282501D02*
X108997D01*
X107497Y281001D02*
Y284001D01*
X95997Y282501D02*
X98997D01*
X97497Y281001D02*
Y284001D01*
X125997Y282501D02*
X128997D01*
X127497Y281001D02*
Y284001D01*
X125997Y292501D02*
X128997D01*
X127497Y291001D02*
Y294001D01*
X95997Y292501D02*
X98997D01*
X97497Y291001D02*
Y294001D01*
X104647Y262501D02*
X120347D01*
X112497Y254651D02*
Y270351D01*
X14148Y262501D02*
X20848D01*
X17498Y259151D02*
Y265851D01*
X54148Y262501D02*
X60848D01*
X57498Y259151D02*
Y265851D01*
X24545Y242501D02*
X30451D01*
X27498Y239548D02*
Y245453D01*
X49548Y252501D02*
X55448D01*
X52498Y249551D02*
Y255451D01*
X40998Y282501D02*
X43998D01*
X42498Y281001D02*
Y284001D01*
X30998Y282501D02*
X33998D01*
X32498Y281001D02*
Y284001D01*
X20998Y282501D02*
X23998D01*
X22498Y281001D02*
Y284001D01*
X50998Y282501D02*
X53998D01*
X52498Y281001D02*
Y284001D01*
X50998Y292501D02*
X53998D01*
X52498Y291001D02*
Y294001D01*
X20998Y292501D02*
X23998D01*
X22498Y291001D02*
Y294001D01*
X29648Y262501D02*
X45348D01*
X37498Y254651D02*
Y270351D01*
X239147Y187501D02*
X245847D01*
X242497Y184151D02*
Y190851D01*
X279147Y187501D02*
X285847D01*
X282497Y184151D02*
Y190851D01*
X249544Y167501D02*
X255450D01*
X252497Y164548D02*
Y170453D01*
X274547Y177501D02*
X280447D01*
X277497Y174551D02*
Y180451D01*
X265997Y207501D02*
X268997D01*
X267497Y206001D02*
Y209001D01*
X255997Y207501D02*
X258997D01*
X257497Y206001D02*
Y209001D01*
X245997Y207501D02*
X248997D01*
X247497Y206001D02*
Y209001D01*
X275997Y207501D02*
X278997D01*
X277497Y206001D02*
Y209001D01*
X275997Y217501D02*
X278997D01*
X277497Y216001D02*
Y219001D01*
X245997Y217501D02*
X248997D01*
X247497Y216001D02*
Y219001D01*
X254647Y187501D02*
X270347D01*
X262497Y179651D02*
Y195351D01*
X164147Y187501D02*
X170847D01*
X167497Y184151D02*
Y190851D01*
X204147Y187501D02*
X210847D01*
X207497Y184151D02*
Y190851D01*
X174544Y167501D02*
X180450D01*
X177497Y164548D02*
Y170453D01*
X199547Y177501D02*
X205447D01*
X202497Y174551D02*
Y180451D01*
X190997Y207501D02*
X193997D01*
X192497Y206001D02*
Y209001D01*
X180997Y207501D02*
X183997D01*
X182497Y206001D02*
Y209001D01*
X170997Y207501D02*
X173997D01*
X172497Y206001D02*
Y209001D01*
X200997Y207501D02*
X203997D01*
X202497Y206001D02*
Y209001D01*
X200997Y217501D02*
X203997D01*
X202497Y216001D02*
Y219001D01*
X170997Y217501D02*
X173997D01*
X172497Y216001D02*
Y219001D01*
X179647Y187501D02*
X195347D01*
X187497Y179651D02*
Y195351D01*
X89147Y187501D02*
X95847D01*
X92497Y184151D02*
Y190851D01*
X129147Y187501D02*
X135847D01*
X132497Y184151D02*
Y190851D01*
X99544Y167501D02*
X105450D01*
X102497Y164548D02*
Y170453D01*
X124547Y177501D02*
X130447D01*
X127497Y174551D02*
Y180451D01*
X115997Y207501D02*
X118997D01*
X117497Y206001D02*
Y209001D01*
X105997Y207501D02*
X108997D01*
X107497Y206001D02*
Y209001D01*
X95997Y207501D02*
X98997D01*
X97497Y206001D02*
Y209001D01*
X125997Y207501D02*
X128997D01*
X127497Y206001D02*
Y209001D01*
X125997Y217501D02*
X128997D01*
X127497Y216001D02*
Y219001D01*
X95997Y217501D02*
X98997D01*
X97497Y216001D02*
Y219001D01*
X104647Y187501D02*
X120347D01*
X112497Y179651D02*
Y195351D01*
X14148Y187501D02*
X20848D01*
X17498Y184151D02*
Y190851D01*
X54148Y187501D02*
X60848D01*
X57498Y184151D02*
Y190851D01*
X24545Y167501D02*
X30451D01*
X27498Y164548D02*
Y170453D01*
X49548Y177501D02*
X55448D01*
X52498Y174551D02*
Y180451D01*
X40998Y207501D02*
X43998D01*
X42498Y206001D02*
Y209001D01*
X30998Y207501D02*
X33998D01*
X32498Y206001D02*
Y209001D01*
X20998Y207501D02*
X23998D01*
X22498Y206001D02*
Y209001D01*
X50998Y207501D02*
X53998D01*
X52498Y206001D02*
Y209001D01*
X50998Y217501D02*
X53998D01*
X52498Y216001D02*
Y219001D01*
X20998Y217501D02*
X23998D01*
X22498Y216001D02*
Y219001D01*
X29648Y187501D02*
X45348D01*
X37498Y179651D02*
Y195351D01*
X239147Y112500D02*
X245847D01*
X242497Y109150D02*
Y115850D01*
X279147Y112500D02*
X285847D01*
X282497Y109150D02*
Y115850D01*
X249544Y92500D02*
X255450D01*
X252497Y89547D02*
Y95453D01*
X274547Y102500D02*
X280447D01*
X277497Y99550D02*
Y105450D01*
X265997Y132500D02*
X268997D01*
X267497Y131000D02*
Y134000D01*
X255997Y132500D02*
X258997D01*
X257497Y131000D02*
Y134000D01*
X245997Y132500D02*
X248997D01*
X247497Y131000D02*
Y134000D01*
X275997Y132500D02*
X278997D01*
X277497Y131000D02*
Y134000D01*
X275997Y142500D02*
X278997D01*
X277497Y141000D02*
Y144000D01*
X245997Y142500D02*
X248997D01*
X247497Y141000D02*
Y144000D01*
X254647Y112500D02*
X270347D01*
X262497Y104650D02*
Y120350D01*
X164147Y112500D02*
X170847D01*
X167497Y109150D02*
Y115850D01*
X204147Y112500D02*
X210847D01*
X207497Y109150D02*
Y115850D01*
X174544Y92500D02*
X180450D01*
X177497Y89547D02*
Y95453D01*
X199547Y102500D02*
X205447D01*
X202497Y99550D02*
Y105450D01*
X190997Y132500D02*
X193997D01*
X192497Y131000D02*
Y134000D01*
X180997Y132500D02*
X183997D01*
X182497Y131000D02*
Y134000D01*
X170997Y132500D02*
X173997D01*
X172497Y131000D02*
Y134000D01*
X200997Y132500D02*
X203997D01*
X202497Y131000D02*
Y134000D01*
X200997Y142500D02*
X203997D01*
X202497Y141000D02*
Y144000D01*
X170997Y142500D02*
X173997D01*
X172497Y141000D02*
Y144000D01*
X179647Y112500D02*
X195347D01*
X187497Y104650D02*
Y120350D01*
X89147Y112500D02*
X95847D01*
X92497Y109150D02*
Y115850D01*
X129147Y112500D02*
X135847D01*
X132497Y109150D02*
Y115850D01*
X99544Y92500D02*
X105450D01*
X102497Y89547D02*
Y95453D01*
X124547Y102500D02*
X130447D01*
X127497Y99550D02*
Y105450D01*
X115997Y132500D02*
X118997D01*
X117497Y131000D02*
Y134000D01*
X105997Y132500D02*
X108997D01*
X107497Y131000D02*
Y134000D01*
X95997Y132500D02*
X98997D01*
X97497Y131000D02*
Y134000D01*
X125997Y132500D02*
X128997D01*
X127497Y131000D02*
Y134000D01*
X125997Y142500D02*
X128997D01*
X127497Y141000D02*
Y144000D01*
X95997Y142500D02*
X98997D01*
X97497Y141000D02*
Y144000D01*
X104647Y112500D02*
X120347D01*
X112497Y104650D02*
Y120350D01*
X14148Y112500D02*
X20848D01*
X17498Y109150D02*
Y115850D01*
X54148Y112500D02*
X60848D01*
X57498Y109150D02*
Y115850D01*
X24545Y92500D02*
X30451D01*
X27498Y89547D02*
Y95453D01*
X49548Y102500D02*
X55448D01*
X52498Y99550D02*
Y105450D01*
X40998Y132500D02*
X43998D01*
X42498Y131000D02*
Y134000D01*
X30998Y132500D02*
X33998D01*
X32498Y131000D02*
Y134000D01*
X20998Y132500D02*
X23998D01*
X22498Y131000D02*
Y134000D01*
X50998Y132500D02*
X53998D01*
X52498Y131000D02*
Y134000D01*
X50998Y142500D02*
X53998D01*
X52498Y141000D02*
Y144000D01*
X20998Y142500D02*
X23998D01*
X22498Y141000D02*
Y144000D01*
X29648Y112500D02*
X45348D01*
X37498Y104650D02*
Y120350D01*
X239147Y37500D02*
X245847D01*
X242497Y34150D02*
Y40850D01*
X279147Y37500D02*
X285847D01*
X282497Y34150D02*
Y40850D01*
X249544Y17500D02*
X255450D01*
X252497Y14547D02*
Y20453D01*
X274547Y27500D02*
X280447D01*
X277497Y24550D02*
Y30450D01*
X265997Y57500D02*
X268997D01*
X267497Y56000D02*
Y59000D01*
X255997Y57500D02*
X258997D01*
X257497Y56000D02*
Y59000D01*
X245997Y57500D02*
X248997D01*
X247497Y56000D02*
Y59000D01*
X275997Y57500D02*
X278997D01*
X277497Y56000D02*
Y59000D01*
X275997Y67500D02*
X278997D01*
X277497Y66000D02*
Y69000D01*
X245997Y67500D02*
X248997D01*
X247497Y66000D02*
Y69000D01*
X254647Y37500D02*
X270347D01*
X262497Y29650D02*
Y45350D01*
X164147Y37500D02*
X170847D01*
X167497Y34150D02*
Y40850D01*
X204147Y37500D02*
X210847D01*
X207497Y34150D02*
Y40850D01*
X174544Y17500D02*
X180450D01*
X177497Y14547D02*
Y20453D01*
X199547Y27500D02*
X205447D01*
X202497Y24550D02*
Y30450D01*
X190997Y57500D02*
X193997D01*
X192497Y56000D02*
Y59000D01*
X180997Y57500D02*
X183997D01*
X182497Y56000D02*
Y59000D01*
X170997Y57500D02*
X173997D01*
X172497Y56000D02*
Y59000D01*
X200997Y57500D02*
X203997D01*
X202497Y56000D02*
Y59000D01*
X200997Y67500D02*
X203997D01*
X202497Y66000D02*
Y69000D01*
X170997Y67500D02*
X173997D01*
X172497Y66000D02*
Y69000D01*
X179647Y37500D02*
X195347D01*
X187497Y29650D02*
Y45350D01*
X89147Y37500D02*
X95847D01*
X92497Y34150D02*
Y40850D01*
X129147Y37500D02*
X135847D01*
X132497Y34150D02*
Y40850D01*
X99544Y17500D02*
X105450D01*
X102497Y14547D02*
Y20453D01*
X124547Y27500D02*
X130447D01*
X127497Y24550D02*
Y30450D01*
X115997Y57500D02*
X118997D01*
X117497Y56000D02*
Y59000D01*
X105997Y57500D02*
X108997D01*
X107497Y56000D02*
Y59000D01*
X95997Y57500D02*
X98997D01*
X97497Y56000D02*
Y59000D01*
X125997Y57500D02*
X128997D01*
X127497Y56000D02*
Y59000D01*
X125997Y67500D02*
X128997D01*
X127497Y66000D02*
Y69000D01*
X95997Y67500D02*
X98997D01*
X97497Y66000D02*
Y69000D01*
X104647Y37500D02*
X120347D01*
X112497Y29650D02*
Y45350D01*
X14148Y37500D02*
X20848D01*
X17498Y34150D02*
Y40850D01*
X54148Y37500D02*
X60848D01*
X57498Y34150D02*
Y40850D01*
X24545Y17500D02*
X30451D01*
X27498Y14547D02*
Y20453D01*
X49548Y27500D02*
X55448D01*
X52498Y24550D02*
Y30450D01*
X40998Y57500D02*
X43998D01*
X42498Y56000D02*
Y59000D01*
X30998Y57500D02*
X33998D01*
X32498Y56000D02*
Y59000D01*
X20998Y57500D02*
X23998D01*
X22498Y56000D02*
Y59000D01*
X50998Y57500D02*
X53998D01*
X52498Y56000D02*
Y59000D01*
X50998Y67500D02*
X53998D01*
X52498Y66000D02*
Y69000D01*
X20998Y67500D02*
X23998D01*
X22498Y66000D02*
Y69000D01*
X29648Y37500D02*
X45348D01*
X37498Y29650D02*
Y45350D01*
X219682Y300001D02*
X230312D01*
X224997Y294686D02*
Y305316D01*
X69682Y300001D02*
X80312D01*
X74997Y294686D02*
Y305316D01*
X219682Y225001D02*
X230312D01*
X224997Y219686D02*
Y230316D01*
X69682Y225001D02*
X80312D01*
X74997Y219686D02*
Y230316D01*
X219682Y75000D02*
X230312D01*
X224997Y69685D02*
Y80315D01*
X69682Y75000D02*
X80312D01*
X74997Y69685D02*
Y80315D01*
X63876Y346408D02*
X68207D01*
X66041Y344243D02*
Y348573D01*
X63876Y366093D02*
X68207D01*
X66041Y363928D02*
Y368259D01*
X6789Y346408D02*
X11120D01*
X8955Y344243D02*
Y348573D01*
X6789Y356251D02*
X11120D01*
X8955Y354085D02*
Y358416D01*
X6789Y366093D02*
X11120D01*
X8955Y363928D02*
Y368259D01*
X265647Y304233D02*
X266828D01*
X266237Y303642D02*
Y304823D01*
X190647Y304233D02*
X191828D01*
X191237Y303642D02*
Y304823D01*
X115647Y304233D02*
X116828D01*
X116237Y303642D02*
Y304823D01*
X40648Y304233D02*
X41829D01*
X41238Y303642D02*
Y304823D01*
X40648Y229233D02*
X41829D01*
X41238Y228642D02*
Y229823D01*
X115647Y229233D02*
X116828D01*
X116237Y228642D02*
Y229823D01*
X190647Y229233D02*
X191828D01*
X191237Y228642D02*
Y229823D01*
X265647Y229233D02*
X266828D01*
X266237Y228642D02*
Y229823D01*
X265647Y79232D02*
X266828D01*
X266237Y78642D02*
Y79823D01*
X190647Y79232D02*
X191828D01*
X191237Y78642D02*
Y79823D01*
X115647Y79232D02*
X116828D01*
X116237Y78642D02*
Y79823D01*
X40648Y79232D02*
X41829D01*
X41238Y78642D02*
Y79823D01*
X40648Y154232D02*
X41829D01*
X41238Y153642D02*
Y154823D01*
X115647Y154232D02*
X116828D01*
X116237Y153642D02*
Y154823D01*
X190647Y154232D02*
X191828D01*
X191237Y153642D02*
Y154823D01*
X265647Y154232D02*
X266828D01*
X266237Y153642D02*
Y154823D01*
X265647Y73366D02*
X266828D01*
X266237Y72776D02*
Y73957D01*
X190647Y73366D02*
X191828D01*
X191237Y72776D02*
Y73957D01*
X115647Y73366D02*
X116828D01*
X116237Y72776D02*
Y73957D01*
X40648Y73366D02*
X41829D01*
X41238Y72776D02*
Y73957D01*
X40648Y148366D02*
X41829D01*
X41238Y147775D02*
Y148957D01*
X115647Y148366D02*
X116828D01*
X116237Y147775D02*
Y148957D01*
X190647Y148366D02*
X191828D01*
X191237Y147775D02*
Y148957D01*
X265647Y148366D02*
X266828D01*
X266237Y147775D02*
Y148957D01*
X265647Y298367D02*
X266828D01*
X266237Y297776D02*
Y298957D01*
X190647Y298367D02*
X191828D01*
X191237Y297776D02*
Y298957D01*
X115647Y298367D02*
X116828D01*
X116237Y297776D02*
Y298957D01*
X40648Y298367D02*
X41829D01*
X41238Y297776D02*
Y298957D01*
X265647Y223367D02*
X266828D01*
X266237Y222776D02*
Y223957D01*
X190647Y223367D02*
X191828D01*
X191237Y222776D02*
Y223957D01*
X115647Y223367D02*
X116828D01*
X116237Y222776D02*
Y223957D01*
X40648Y223367D02*
X41829D01*
X41238Y222776D02*
Y223957D01*
X76575Y335039D02*
X77756D01*
X77165Y334449D02*
Y335630D01*
X76575Y352756D02*
X77756D01*
X77165Y352165D02*
Y353346D01*
X76575Y370472D02*
X77756D01*
X77165Y369882D02*
Y371063D01*
X82480Y335039D02*
X83661D01*
X83071Y334449D02*
Y335630D01*
X82480Y352756D02*
X83661D01*
X83071Y352165D02*
Y353346D01*
X82480Y370472D02*
X83661D01*
X83071Y369882D02*
Y371063D01*
M02*
