G04*
G04 #@! TF.GenerationSoftware,Altium Limited,Altium Designer,22.5.1 (42)*
G04*
G04 Layer_Physical_Order=2*
G04 Layer_Color=16711680*
%FSLAX25Y25*%
%MOIN*%
G70*
G04*
G04 #@! TF.SameCoordinates,A209DC94-0A87-40FC-B198-68C7A1A1665B*
G04*
G04*
G04 #@! TF.FilePolarity,Positive*
G04*
G01*
G75*
%ADD26R,0.05512X0.04331*%
%ADD27R,0.04331X0.05512*%
%ADD29C,0.01181*%
%ADD30C,0.02362*%
%ADD31C,0.01575*%
%ADD32O,0.11811X0.06890*%
%ADD33R,0.06000X0.06000*%
%ADD34C,0.06000*%
%ADD35C,0.06299*%
%ADD36R,0.06299X0.06299*%
%ADD37C,0.06700*%
%ADD38C,0.08661*%
%ADD39C,0.15700*%
%ADD40C,0.10630*%
%ADD41C,0.01968*%
G36*
X287654Y387343D02*
X286987Y386831D01*
X286278Y386478D01*
X286185Y386516D01*
X286102Y386572D01*
X286003Y386592D01*
X285911Y386630D01*
X285810D01*
X285712Y386649D01*
X16732Y386649D01*
X16342Y386572D01*
X16011Y386351D01*
X14043Y384382D01*
X13822Y384052D01*
X13744Y383661D01*
X13744Y368535D01*
X13569Y368400D01*
X12275Y368641D01*
X11502Y369414D01*
X10556Y369960D01*
X9501Y370243D01*
X8408D01*
X7353Y369960D01*
X6407Y369414D01*
X5634Y368641D01*
X5088Y367695D01*
X4805Y366639D01*
Y365547D01*
X5088Y364492D01*
X5634Y363545D01*
X6407Y362773D01*
X7353Y362226D01*
X8408Y361944D01*
X9501D01*
X10556Y362226D01*
X11502Y362773D01*
X12275Y363545D01*
X13569Y363787D01*
X13744Y363652D01*
Y358692D01*
X13569Y358557D01*
X12275Y358799D01*
X11502Y359571D01*
X10556Y360118D01*
X9545Y360388D01*
Y356251D01*
Y352113D01*
X10556Y352384D01*
X11502Y352930D01*
X12275Y353703D01*
X13569Y353944D01*
X13744Y353809D01*
X13744Y348850D01*
X13569Y348715D01*
X12275Y348956D01*
X11502Y349729D01*
X10556Y350275D01*
X9501Y350558D01*
X8408D01*
X7353Y350275D01*
X6407Y349729D01*
X5634Y348956D01*
X5088Y348010D01*
X4805Y346954D01*
Y345862D01*
X5088Y344807D01*
X5634Y343860D01*
X6407Y343088D01*
X7353Y342541D01*
X8408Y342259D01*
X9501D01*
X10556Y342541D01*
X11502Y343088D01*
X12275Y343860D01*
X13569Y344102D01*
X13744Y343967D01*
X13744Y320501D01*
X4736Y311493D01*
X3786Y311372D01*
X3786Y311372D01*
X1421D01*
Y388343D01*
X287327D01*
X287654Y387343D01*
D02*
G37*
G36*
X286987Y380491D02*
X287916Y379779D01*
X288997Y379331D01*
X290158Y379178D01*
X295079D01*
X296239Y379331D01*
X297320Y379779D01*
X297579Y379977D01*
X298579Y379484D01*
Y377839D01*
X297579Y377345D01*
X297320Y377544D01*
X296239Y377992D01*
X295079Y378145D01*
X290158D01*
X288997Y377992D01*
X287916Y377544D01*
X286987Y376832D01*
X286275Y375903D01*
X286267Y375885D01*
X282717D01*
X282716Y375885D01*
X281866Y375716D01*
X281144Y375234D01*
X281144Y375234D01*
X248016Y342106D01*
X153332D01*
X153198Y342338D01*
X152453Y343083D01*
X151541Y343610D01*
X150524Y343882D01*
X149470D01*
X148453Y343610D01*
X147541Y343083D01*
X146796Y342338D01*
X146270Y341426D01*
X145997Y340409D01*
Y339356D01*
X146270Y338338D01*
X146796Y337426D01*
X147541Y336681D01*
X148453Y336155D01*
X149470Y335882D01*
X150524D01*
X151541Y336155D01*
X152453Y336681D01*
X153198Y337426D01*
X153332Y337658D01*
X248937D01*
X248937Y337658D01*
X249788Y337828D01*
X250510Y338310D01*
X283638Y371438D01*
X286267D01*
X286275Y371420D01*
X286987Y370491D01*
X287916Y369779D01*
X288997Y369331D01*
X290158Y369178D01*
X295079D01*
X296239Y369331D01*
X297320Y369779D01*
X297579Y369977D01*
X298579Y369484D01*
Y367839D01*
X297579Y367345D01*
X297320Y367544D01*
X296239Y367992D01*
X295079Y368145D01*
X293209D01*
Y363661D01*
Y359178D01*
X295079D01*
X296239Y359331D01*
X297320Y359779D01*
X297579Y359977D01*
X298579Y359484D01*
Y357839D01*
X297579Y357346D01*
X297320Y357544D01*
X296239Y357992D01*
X295079Y358145D01*
X290158D01*
X288997Y357992D01*
X287916Y357544D01*
X286987Y356832D01*
X286275Y355903D01*
X285827Y354822D01*
X285674Y353661D01*
X285827Y352501D01*
X286275Y351420D01*
X286987Y350491D01*
X287916Y349779D01*
X288997Y349331D01*
X289558Y349257D01*
X289558Y348248D01*
X288950Y348168D01*
X287825Y347702D01*
X286858Y346961D01*
X286117Y345994D01*
X285650Y344869D01*
X285492Y343661D01*
X285650Y342454D01*
X286117Y341329D01*
X286858Y340362D01*
X287825Y339621D01*
X288950Y339155D01*
Y338168D01*
X287825Y337702D01*
X286858Y336961D01*
X286117Y335994D01*
X285650Y334869D01*
X285492Y333661D01*
X285650Y332454D01*
X286117Y331329D01*
X286858Y330362D01*
X287825Y329621D01*
X288950Y329154D01*
X289558Y329074D01*
X289558Y328066D01*
X288997Y327992D01*
X287916Y327544D01*
X286987Y326832D01*
X286275Y325903D01*
X285827Y324822D01*
X285674Y323661D01*
X285827Y322501D01*
X286275Y321420D01*
X286987Y320491D01*
X287916Y319779D01*
X288997Y319331D01*
X290158Y319178D01*
X295079D01*
X296239Y319331D01*
X297320Y319779D01*
X297579Y319977D01*
X298579Y319484D01*
Y317839D01*
X297579Y317345D01*
X297320Y317544D01*
X296239Y317992D01*
X295079Y318145D01*
X290158D01*
X288997Y317992D01*
X287916Y317544D01*
X286987Y316831D01*
X286275Y315903D01*
X285827Y314822D01*
X285674Y313661D01*
X285827Y312501D01*
X286275Y311420D01*
X286987Y310491D01*
X287916Y309779D01*
X288997Y309331D01*
X290158Y309178D01*
X295079D01*
X296239Y309331D01*
X297320Y309779D01*
X297579Y309977D01*
X298579Y309484D01*
Y307839D01*
X297579Y307346D01*
X297320Y307544D01*
X296239Y307992D01*
X295079Y308145D01*
X290158D01*
X288997Y307992D01*
X287916Y307544D01*
X286987Y306832D01*
X286275Y305903D01*
X285827Y304822D01*
X285674Y303661D01*
X285827Y302501D01*
X286275Y301420D01*
X286987Y300491D01*
X287916Y299779D01*
X288997Y299331D01*
X290158Y299178D01*
X295079D01*
X296239Y299331D01*
X297320Y299779D01*
X297579Y299977D01*
X298579Y299484D01*
Y90508D01*
X297579Y90015D01*
X297412Y90143D01*
X296286Y90609D01*
X295079Y90768D01*
X291694D01*
Y93420D01*
X295569Y97295D01*
X295960Y97881D01*
X296098Y98572D01*
Y107480D01*
X296098Y270276D01*
X295960Y270967D01*
X295569Y271553D01*
X290155Y276967D01*
X289569Y277359D01*
X288877Y277496D01*
X255056D01*
X251451Y281101D01*
X251678Y281950D01*
Y283051D01*
X251393Y284115D01*
X251068Y284678D01*
X251565Y285678D01*
X253719D01*
X254135Y284678D01*
X253770Y284045D01*
X253497Y283027D01*
Y281974D01*
X253770Y280957D01*
X254296Y280045D01*
X255041Y279300D01*
X255953Y278773D01*
X256971Y278501D01*
X258024D01*
X259041Y278773D01*
X259953Y279300D01*
X260698Y280045D01*
X261225Y280957D01*
X261497Y281974D01*
Y283027D01*
X261225Y284045D01*
X261217Y284057D01*
X261733Y285164D01*
X262177Y285243D01*
X263686Y283733D01*
X263497Y283027D01*
Y281974D01*
X263770Y280957D01*
X264296Y280045D01*
X265041Y279300D01*
X265953Y278773D01*
X266970Y278501D01*
X268024D01*
X269041Y278773D01*
X269953Y279300D01*
X270698Y280045D01*
X271224Y280957D01*
X271497Y281974D01*
Y283027D01*
X271224Y284045D01*
X270698Y284957D01*
X269953Y285701D01*
X269041Y286228D01*
X268024Y286501D01*
X266970D01*
X266263Y286311D01*
X264753Y287821D01*
X265136Y288745D01*
X265647D01*
Y291910D01*
X263072D01*
Y290221D01*
X262912Y290163D01*
X261922Y290868D01*
Y296257D01*
X255592D01*
Y289323D01*
X251275D01*
X250859Y290323D01*
X251224Y290957D01*
X251497Y291974D01*
Y293027D01*
X251224Y294045D01*
X250698Y294957D01*
X249953Y295702D01*
X249041Y296228D01*
X248024Y296501D01*
X246971D01*
X245953Y296228D01*
X245041Y295702D01*
X244322Y294983D01*
X244203Y294987D01*
X243322Y295269D01*
Y298146D01*
X240157D01*
Y294981D01*
X238976D01*
Y298146D01*
X237424D01*
X236765Y298898D01*
X236808Y299226D01*
X236808Y300001D01*
X236808Y300775D01*
X236606Y302310D01*
X236205Y303805D01*
X235613Y305236D01*
X234839Y306577D01*
X233896Y307805D01*
X232801Y308900D01*
X231573Y309842D01*
X230232Y310616D01*
X228802Y311209D01*
X227306Y311610D01*
X225985Y311784D01*
X225771Y311812D01*
X224997Y311812D01*
Y311812D01*
X224223Y311812D01*
X224009Y311784D01*
X222688Y311610D01*
X221192Y311209D01*
X219762Y310616D01*
X218421Y309842D01*
X217193Y308900D01*
X216098Y307805D01*
X215156Y306577D01*
X214381Y305236D01*
X213789Y303805D01*
X213388Y302310D01*
X213186Y300775D01*
Y299226D01*
X213388Y297691D01*
X213789Y296196D01*
X214381Y294766D01*
X215156Y293425D01*
X216098Y292196D01*
X217193Y291102D01*
X218207Y290323D01*
X218016Y289511D01*
X217898Y289323D01*
X206275D01*
X205859Y290323D01*
X206224Y290957D01*
X206480Y291910D01*
X202497D01*
X198514D01*
X198770Y290957D01*
X199135Y290323D01*
X198719Y289323D01*
X197497D01*
X197497Y289323D01*
X196800Y289184D01*
X196209Y288789D01*
X196208Y288789D01*
X193730Y286311D01*
X193024Y286501D01*
X191971D01*
X191263Y286311D01*
X189753Y287821D01*
X190136Y288745D01*
X190647D01*
Y291910D01*
X188072D01*
Y290221D01*
X187912Y290163D01*
X186922Y290868D01*
Y296257D01*
X180592D01*
Y289323D01*
X176275D01*
X175859Y290323D01*
X176225Y290957D01*
X176497Y291974D01*
Y293027D01*
X176225Y294045D01*
X175698Y294957D01*
X174953Y295702D01*
X174041Y296228D01*
X173024Y296501D01*
X171970D01*
X170953Y296228D01*
X170041Y295702D01*
X169322Y294983D01*
X169202Y294987D01*
X168322Y295269D01*
Y298146D01*
X165157D01*
Y294981D01*
X164566D01*
Y294390D01*
X160810D01*
Y291816D01*
X161023D01*
Y290666D01*
X160810D01*
Y289323D01*
X131275D01*
X130859Y290323D01*
X131225Y290957D01*
X131480Y291910D01*
X127497D01*
X123514D01*
X123770Y290957D01*
X124135Y290323D01*
X123719Y289323D01*
X122497D01*
X122497Y289323D01*
X121800Y289184D01*
X121209Y288789D01*
X121208Y288789D01*
X118730Y286311D01*
X118024Y286501D01*
X116971D01*
X116264Y286311D01*
X114754Y287821D01*
X115137Y288745D01*
X115647D01*
Y291910D01*
X113072D01*
Y290209D01*
X112922Y290157D01*
X111922Y290868D01*
Y296257D01*
X105592D01*
Y289323D01*
X101275D01*
X100859Y290323D01*
X101225Y290957D01*
X101497Y291974D01*
Y293027D01*
X101225Y294045D01*
X100698Y294957D01*
X99953Y295702D01*
X99041Y296228D01*
X98024Y296501D01*
X96970D01*
X95953Y296228D01*
X95041Y295702D01*
X94322Y294983D01*
X94203Y294987D01*
X93322Y295269D01*
Y298146D01*
X90157D01*
Y294981D01*
X88976D01*
Y298146D01*
X87424D01*
X86765Y298898D01*
X86808Y299226D01*
X86808Y300001D01*
X86808Y300775D01*
X86606Y302310D01*
X86205Y303805D01*
X85613Y305236D01*
X84839Y306577D01*
X83896Y307805D01*
X82801Y308900D01*
X81573Y309842D01*
X80232Y310616D01*
X78802Y311209D01*
X77306Y311610D01*
X75985Y311784D01*
X75771Y311812D01*
X74997Y311812D01*
Y311812D01*
X74223Y311812D01*
X74009Y311784D01*
X72688Y311610D01*
X71192Y311209D01*
X69762Y310616D01*
X68421Y309842D01*
X67193Y308900D01*
X66098Y307805D01*
X65156Y306577D01*
X64381Y305236D01*
X63789Y303805D01*
X63388Y302310D01*
X63186Y300775D01*
Y299226D01*
X63388Y297691D01*
X63789Y296196D01*
X64381Y294766D01*
X65156Y293425D01*
X66098Y292196D01*
X67193Y291102D01*
X68207Y290323D01*
X68016Y289511D01*
X67898Y289323D01*
X56276D01*
X55860Y290323D01*
X56225Y290957D01*
X56481Y291910D01*
X52498D01*
X48515D01*
X48770Y290957D01*
X49136Y290323D01*
X48720Y289323D01*
X47498D01*
X47498Y289323D01*
X46801Y289184D01*
X46209Y288789D01*
X46209Y288789D01*
X43731Y286311D01*
X43025Y286501D01*
X41971D01*
X41265Y286311D01*
X39755Y287821D01*
X40138Y288745D01*
X40648D01*
Y291910D01*
X38073D01*
Y290209D01*
X37923Y290157D01*
X36923Y290868D01*
Y296257D01*
X30592D01*
Y289323D01*
X26276D01*
X25859Y290323D01*
X26225Y290957D01*
X26498Y291974D01*
Y293027D01*
X26225Y294045D01*
X25699Y294957D01*
X24954Y295702D01*
X24042Y296228D01*
X23024Y296501D01*
X21971D01*
X20954Y296228D01*
X20042Y295702D01*
X19323Y294983D01*
X19203Y294987D01*
X18323Y295269D01*
Y298146D01*
X15157D01*
Y294981D01*
X13976D01*
Y298146D01*
X10811D01*
Y298146D01*
X9878Y298308D01*
Y307452D01*
X19422Y316996D01*
X19643Y317326D01*
X19720Y317717D01*
X19720Y380483D01*
X19910Y380673D01*
X260411Y380673D01*
X260543Y379673D01*
X259737Y379457D01*
X258791Y378911D01*
X258018Y378138D01*
X257472Y377192D01*
X257189Y376137D01*
Y375044D01*
X257472Y373989D01*
X258018Y373043D01*
X258791Y372270D01*
X259737Y371724D01*
X260792Y371441D01*
X261885D01*
X262940Y371724D01*
X263886Y372270D01*
X264659Y373043D01*
X265205Y373989D01*
X265488Y375044D01*
Y376137D01*
X265205Y377192D01*
X264659Y378138D01*
X263886Y378911D01*
X262940Y379457D01*
X262134Y379673D01*
X262266Y380673D01*
X267028D01*
X267189Y379673D01*
Y376181D01*
X271339D01*
X275488D01*
Y379673D01*
X275488Y379740D01*
X275649Y380673D01*
X285712D01*
X285810Y380693D01*
X285911D01*
X286003Y380731D01*
X286102Y380751D01*
X286185Y380807D01*
X286278Y380845D01*
X286987Y380491D01*
D02*
G37*
G36*
X18402Y283368D02*
X18317Y283051D01*
Y281950D01*
X18602Y280887D01*
X19152Y279933D01*
X19931Y279155D01*
X20884Y278605D01*
X21948Y278320D01*
X23048D01*
X23897Y278547D01*
X28032Y274412D01*
X28618Y274021D01*
X29309Y273883D01*
X90686D01*
X91377Y274021D01*
X91963Y274412D01*
X96098Y278547D01*
X96947Y278320D01*
X98048D01*
X98896Y278547D01*
X103031Y274412D01*
X103617Y274021D01*
X104308Y273883D01*
X165686D01*
X166377Y274021D01*
X166963Y274412D01*
X171098Y278547D01*
X171947Y278320D01*
X173048D01*
X173896Y278547D01*
X178031Y274412D01*
X178617Y274021D01*
X179308Y273883D01*
X240686D01*
X241377Y274021D01*
X241963Y274412D01*
X246098Y278547D01*
X246947Y278320D01*
X248048D01*
X248896Y278547D01*
X253031Y274412D01*
X253617Y274021D01*
X254308Y273883D01*
X288129D01*
X292485Y269527D01*
Y196720D01*
X291485Y196306D01*
X285824Y201967D01*
X285238Y202359D01*
X284547Y202496D01*
X255056D01*
X251451Y206101D01*
X251678Y206950D01*
Y208051D01*
X251393Y209115D01*
X251068Y209678D01*
X251565Y210678D01*
X253719D01*
X254135Y209678D01*
X253770Y209045D01*
X253497Y208027D01*
Y206974D01*
X253770Y205957D01*
X254296Y205045D01*
X255041Y204300D01*
X255953Y203773D01*
X256971Y203501D01*
X258024D01*
X259041Y203773D01*
X259953Y204300D01*
X260698Y205045D01*
X261225Y205957D01*
X261497Y206974D01*
Y208027D01*
X261225Y209045D01*
X261217Y209057D01*
X261733Y210164D01*
X262177Y210243D01*
X263686Y208733D01*
X263497Y208027D01*
Y206974D01*
X263770Y205957D01*
X264296Y205045D01*
X265041Y204300D01*
X265953Y203773D01*
X266970Y203501D01*
X268024D01*
X269041Y203773D01*
X269953Y204300D01*
X270698Y205045D01*
X271224Y205957D01*
X271497Y206974D01*
Y208027D01*
X271224Y209045D01*
X270698Y209957D01*
X269953Y210701D01*
X269041Y211228D01*
X268024Y211501D01*
X266970D01*
X266263Y211311D01*
X264753Y212821D01*
X265136Y213745D01*
X265647D01*
Y216910D01*
X263072D01*
Y215221D01*
X262912Y215163D01*
X261922Y215868D01*
Y221257D01*
X255592D01*
Y214323D01*
X251275D01*
X250859Y215323D01*
X251224Y215957D01*
X251497Y216974D01*
Y218027D01*
X251224Y219045D01*
X250698Y219957D01*
X249953Y220702D01*
X249041Y221228D01*
X248024Y221501D01*
X246971D01*
X245953Y221228D01*
X245041Y220702D01*
X244322Y219983D01*
X244203Y219987D01*
X243322Y220269D01*
Y223146D01*
X240157D01*
Y219981D01*
X238976D01*
Y223146D01*
X237424D01*
X236765Y223898D01*
X236808Y224226D01*
X236808Y225001D01*
X236808Y225775D01*
X236606Y227310D01*
X236205Y228805D01*
X235613Y230236D01*
X234839Y231577D01*
X233896Y232805D01*
X232801Y233900D01*
X231573Y234842D01*
X230232Y235616D01*
X228802Y236209D01*
X227306Y236610D01*
X225985Y236784D01*
X225771Y236812D01*
X224997Y236812D01*
Y236812D01*
X224223Y236812D01*
X224009Y236784D01*
X222688Y236610D01*
X221192Y236209D01*
X219762Y235616D01*
X218421Y234842D01*
X217193Y233900D01*
X216098Y232805D01*
X215156Y231577D01*
X214381Y230236D01*
X213789Y228805D01*
X213388Y227310D01*
X213186Y225775D01*
Y224226D01*
X213388Y222691D01*
X213789Y221196D01*
X214381Y219766D01*
X215156Y218425D01*
X216098Y217196D01*
X217193Y216102D01*
X218207Y215323D01*
X218016Y214511D01*
X217898Y214323D01*
X206275D01*
X205859Y215323D01*
X206224Y215957D01*
X206480Y216910D01*
X202497D01*
X198514D01*
X198770Y215957D01*
X199135Y215323D01*
X198719Y214323D01*
X197497D01*
X197497Y214323D01*
X196800Y214184D01*
X196209Y213789D01*
X196208Y213789D01*
X193730Y211311D01*
X193024Y211501D01*
X191971D01*
X191263Y211311D01*
X189753Y212821D01*
X190136Y213745D01*
X190647D01*
Y216910D01*
X188072D01*
Y215221D01*
X187912Y215163D01*
X186922Y215868D01*
Y221257D01*
X180592D01*
Y214323D01*
X176275D01*
X175859Y215323D01*
X176225Y215957D01*
X176497Y216974D01*
Y218027D01*
X176225Y219045D01*
X175698Y219957D01*
X174953Y220702D01*
X174041Y221228D01*
X173024Y221501D01*
X171970D01*
X170953Y221228D01*
X170041Y220702D01*
X169322Y219983D01*
X169202Y219987D01*
X168322Y220269D01*
Y223146D01*
X165157D01*
Y219981D01*
X164566D01*
Y219390D01*
X160810D01*
Y216816D01*
X161023D01*
Y215666D01*
X160810D01*
Y214323D01*
X131275D01*
X130859Y215323D01*
X131225Y215957D01*
X131480Y216910D01*
X127497D01*
X123514D01*
X123770Y215957D01*
X124135Y215323D01*
X123719Y214323D01*
X122497D01*
X122497Y214323D01*
X121800Y214184D01*
X121209Y213789D01*
X121208Y213789D01*
X118730Y211311D01*
X118024Y211501D01*
X116971D01*
X116264Y211311D01*
X114754Y212821D01*
X115137Y213745D01*
X115647D01*
Y216910D01*
X113072D01*
Y215209D01*
X112922Y215157D01*
X111922Y215868D01*
Y221257D01*
X105592D01*
Y214323D01*
X101275D01*
X100859Y215323D01*
X101225Y215957D01*
X101497Y216974D01*
Y218027D01*
X101225Y219045D01*
X100698Y219957D01*
X99953Y220702D01*
X99041Y221228D01*
X98024Y221501D01*
X96970D01*
X95953Y221228D01*
X95041Y220702D01*
X94322Y219983D01*
X94203Y219987D01*
X93322Y220269D01*
Y223146D01*
X90157D01*
Y219981D01*
X88976D01*
Y223146D01*
X87424D01*
X86765Y223898D01*
X86808Y224226D01*
X86808Y225001D01*
X86808Y225775D01*
X86606Y227310D01*
X86205Y228805D01*
X85613Y230236D01*
X84839Y231577D01*
X83896Y232805D01*
X82801Y233900D01*
X81573Y234842D01*
X80232Y235616D01*
X78802Y236209D01*
X77306Y236610D01*
X75985Y236784D01*
X75771Y236812D01*
X74997Y236812D01*
Y236812D01*
X74223Y236812D01*
X74009Y236784D01*
X72688Y236610D01*
X71192Y236209D01*
X69762Y235616D01*
X68421Y234842D01*
X67193Y233900D01*
X66098Y232805D01*
X65156Y231577D01*
X64381Y230236D01*
X63789Y228805D01*
X63388Y227310D01*
X63186Y225775D01*
Y224226D01*
X63388Y222691D01*
X63789Y221196D01*
X64381Y219766D01*
X65156Y218425D01*
X66098Y217196D01*
X67193Y216102D01*
X68207Y215323D01*
X68016Y214511D01*
X67898Y214323D01*
X56276D01*
X55860Y215323D01*
X56225Y215957D01*
X56481Y216910D01*
X52498D01*
X48515D01*
X48770Y215957D01*
X49136Y215323D01*
X48720Y214323D01*
X47498D01*
X47498Y214323D01*
X46801Y214184D01*
X46209Y213789D01*
X46209Y213789D01*
X43731Y211311D01*
X43025Y211501D01*
X41971D01*
X41265Y211311D01*
X39755Y212821D01*
X40138Y213745D01*
X40648D01*
Y216910D01*
X38073D01*
Y215209D01*
X37923Y215157D01*
X36923Y215868D01*
Y221257D01*
X30592D01*
Y214323D01*
X26276D01*
X25859Y215323D01*
X26225Y215957D01*
X26498Y216974D01*
Y218027D01*
X26225Y219045D01*
X25699Y219957D01*
X24954Y220702D01*
X24042Y221228D01*
X23024Y221501D01*
X21971D01*
X20954Y221228D01*
X20042Y220702D01*
X19323Y219983D01*
X19203Y219987D01*
X18323Y220269D01*
Y223146D01*
X15157D01*
Y219981D01*
X13976D01*
Y223146D01*
X10811D01*
Y223146D01*
X9878Y223308D01*
X9878Y284174D01*
X10878Y284335D01*
X17626D01*
X18402Y283368D01*
D02*
G37*
G36*
Y208368D02*
X18317Y208051D01*
Y206950D01*
X18602Y205887D01*
X19152Y204933D01*
X19931Y204155D01*
X20884Y203605D01*
X21948Y203320D01*
X23048D01*
X23897Y203547D01*
X28032Y199412D01*
X28618Y199021D01*
X29309Y198883D01*
X90686D01*
X91377Y199021D01*
X91963Y199412D01*
X96098Y203547D01*
X96947Y203320D01*
X98048D01*
X98896Y203547D01*
X103031Y199412D01*
X103617Y199021D01*
X104308Y198883D01*
X165686D01*
X166377Y199021D01*
X166963Y199412D01*
X171098Y203547D01*
X171947Y203320D01*
X173048D01*
X173896Y203547D01*
X178031Y199412D01*
X178617Y199021D01*
X179308Y198883D01*
X240686D01*
X241377Y199021D01*
X241963Y199412D01*
X246098Y203547D01*
X246947Y203320D01*
X248048D01*
X248896Y203547D01*
X253031Y199412D01*
X253617Y199021D01*
X254308Y198883D01*
X283798D01*
X289335Y193346D01*
Y119358D01*
X288335Y118944D01*
X280313Y126966D01*
X279727Y127358D01*
X279036Y127495D01*
X255056D01*
X251451Y131101D01*
X251678Y131949D01*
Y133050D01*
X251393Y134114D01*
X251068Y134678D01*
X251565Y135678D01*
X253719D01*
X254135Y134678D01*
X253770Y134044D01*
X253497Y133027D01*
Y131973D01*
X253770Y130956D01*
X254296Y130044D01*
X255041Y129299D01*
X255953Y128772D01*
X256971Y128500D01*
X258024D01*
X259041Y128772D01*
X259953Y129299D01*
X260698Y130044D01*
X261225Y130956D01*
X261497Y131973D01*
Y133027D01*
X261225Y134044D01*
X261217Y134056D01*
X261733Y135163D01*
X262177Y135242D01*
X263686Y133733D01*
X263497Y133027D01*
Y131973D01*
X263770Y130956D01*
X264296Y130044D01*
X265041Y129299D01*
X265953Y128772D01*
X266970Y128500D01*
X268024D01*
X269041Y128772D01*
X269953Y129299D01*
X270698Y130044D01*
X271224Y130956D01*
X271497Y131973D01*
Y133027D01*
X271224Y134044D01*
X270698Y134956D01*
X269953Y135701D01*
X269041Y136227D01*
X268024Y136500D01*
X266970D01*
X266263Y136310D01*
X264753Y137820D01*
X265136Y138744D01*
X265647D01*
Y141909D01*
X263072D01*
Y140220D01*
X262912Y140162D01*
X261922Y140867D01*
Y146256D01*
X255592D01*
Y139322D01*
X251275D01*
X250859Y140322D01*
X251224Y140956D01*
X251497Y141973D01*
Y143026D01*
X251224Y144044D01*
X250698Y144956D01*
X249953Y145701D01*
X249041Y146227D01*
X248024Y146500D01*
X246971D01*
X245953Y146227D01*
X245041Y145701D01*
X244322Y144982D01*
X244203Y144986D01*
X243322Y145268D01*
Y148146D01*
X240157D01*
Y144980D01*
X239566D01*
Y144390D01*
X235810D01*
Y141815D01*
X236023D01*
Y140665D01*
X235810D01*
Y139322D01*
X206275D01*
X205859Y140322D01*
X206224Y140956D01*
X206480Y141909D01*
X202497D01*
X198514D01*
X198770Y140956D01*
X199135Y140322D01*
X198719Y139322D01*
X197497D01*
X197497Y139322D01*
X196800Y139184D01*
X196209Y138788D01*
X196208Y138788D01*
X193730Y136311D01*
X193024Y136500D01*
X191971D01*
X191263Y136310D01*
X189753Y137820D01*
X190136Y138744D01*
X190647D01*
Y141909D01*
X188072D01*
Y140220D01*
X187912Y140162D01*
X186922Y140867D01*
Y146256D01*
X180592D01*
Y139322D01*
X176275D01*
X175859Y140322D01*
X176225Y140956D01*
X176497Y141973D01*
Y143026D01*
X176225Y144044D01*
X175698Y144956D01*
X174953Y145701D01*
X174041Y146227D01*
X173024Y146500D01*
X171970D01*
X170953Y146227D01*
X170041Y145701D01*
X169322Y144982D01*
X169202Y144986D01*
X168322Y145268D01*
Y148146D01*
X165157D01*
Y144980D01*
X164566D01*
Y144390D01*
X160810D01*
Y141815D01*
X161023D01*
Y140665D01*
X160810D01*
Y139322D01*
X131275D01*
X130859Y140322D01*
X131225Y140956D01*
X131480Y141909D01*
X127497D01*
X123514D01*
X123770Y140956D01*
X124135Y140322D01*
X123719Y139322D01*
X122497D01*
X122497Y139322D01*
X121800Y139184D01*
X121209Y138788D01*
X121208Y138788D01*
X118730Y136311D01*
X118024Y136500D01*
X116971D01*
X116264Y136311D01*
X114754Y137820D01*
X115137Y138744D01*
X115647D01*
Y141909D01*
X113072D01*
Y140208D01*
X112922Y140156D01*
X111922Y140867D01*
Y146256D01*
X105592D01*
Y139322D01*
X101275D01*
X100859Y140322D01*
X101225Y140956D01*
X101497Y141973D01*
Y143026D01*
X101225Y144044D01*
X100698Y144956D01*
X99953Y145701D01*
X99041Y146227D01*
X98024Y146500D01*
X96970D01*
X95953Y146227D01*
X95041Y145701D01*
X94322Y144982D01*
X94203Y144986D01*
X93322Y145268D01*
Y148146D01*
X90157D01*
Y144980D01*
X89566D01*
Y144390D01*
X85810D01*
Y141815D01*
X86023D01*
Y140665D01*
X85810D01*
Y139322D01*
X56276D01*
X55860Y140322D01*
X56225Y140956D01*
X56481Y141909D01*
X52498D01*
X48515D01*
X48770Y140956D01*
X49136Y140322D01*
X48720Y139322D01*
X47498D01*
X47498Y139322D01*
X46801Y139184D01*
X46209Y138788D01*
X46209Y138788D01*
X43731Y136311D01*
X43025Y136500D01*
X41971D01*
X41265Y136311D01*
X39755Y137820D01*
X40138Y138744D01*
X40648D01*
Y141909D01*
X38073D01*
Y140208D01*
X37923Y140156D01*
X36923Y140867D01*
Y146256D01*
X30592D01*
Y139322D01*
X26276D01*
X25859Y140322D01*
X26225Y140956D01*
X26498Y141973D01*
Y143026D01*
X26225Y144044D01*
X25699Y144956D01*
X24954Y145701D01*
X24042Y146227D01*
X23024Y146500D01*
X21971D01*
X20954Y146227D01*
X20042Y145701D01*
X19323Y144982D01*
X19203Y144986D01*
X18323Y145268D01*
Y148146D01*
X15157D01*
Y144980D01*
X13976D01*
Y148146D01*
X10811D01*
Y148146D01*
X9878Y148307D01*
Y209174D01*
X10878Y209335D01*
X17626D01*
X18402Y208368D01*
D02*
G37*
G36*
Y133367D02*
X18317Y133050D01*
Y131949D01*
X18602Y130886D01*
X19152Y129933D01*
X19931Y129154D01*
X20884Y128604D01*
X21948Y128319D01*
X23048D01*
X23897Y128546D01*
X28032Y124412D01*
X28618Y124020D01*
X29309Y123882D01*
X90686D01*
X91377Y124020D01*
X91963Y124412D01*
X96098Y128546D01*
X96947Y128319D01*
X98048D01*
X98896Y128546D01*
X103031Y124412D01*
X103617Y124020D01*
X104308Y123882D01*
X165686D01*
X166377Y124020D01*
X166963Y124412D01*
X171098Y128546D01*
X171947Y128319D01*
X173048D01*
X173896Y128546D01*
X178031Y124412D01*
X178617Y124020D01*
X179308Y123882D01*
X240686D01*
X241377Y124020D01*
X241963Y124412D01*
X246098Y128546D01*
X246947Y128319D01*
X248048D01*
X248896Y128546D01*
X253031Y124412D01*
X253617Y124020D01*
X254308Y123882D01*
X278288D01*
X284853Y117317D01*
X284239Y116517D01*
X284176Y116553D01*
X283070Y116850D01*
X281924D01*
X280818Y116553D01*
X279826Y115981D01*
X279016Y115171D01*
X278444Y114179D01*
X278147Y113073D01*
Y111927D01*
X278444Y110821D01*
X279016Y109829D01*
X279826Y109019D01*
X280818Y108446D01*
X281924Y108150D01*
X283070D01*
X284176Y108446D01*
X285168Y109019D01*
X285186Y109037D01*
X286186Y108623D01*
Y101929D01*
X279825Y95569D01*
X279433Y94983D01*
X279296Y94291D01*
Y75157D01*
X279433Y74466D01*
X279825Y73880D01*
X285869Y67837D01*
X285650Y67310D01*
X285492Y66102D01*
X285650Y64895D01*
X286117Y63769D01*
X286858Y62803D01*
X287825Y62062D01*
X288950Y61595D01*
Y60609D01*
X287825Y60143D01*
X286858Y59402D01*
X286117Y58435D01*
X285650Y57310D01*
X285492Y56102D01*
X285650Y54895D01*
X285869Y54368D01*
X283996Y52495D01*
X255056D01*
X251451Y56101D01*
X251678Y56950D01*
Y58051D01*
X251393Y59114D01*
X251068Y59678D01*
X251565Y60678D01*
X253719D01*
X254135Y59678D01*
X253770Y59044D01*
X253497Y58027D01*
Y56973D01*
X253770Y55956D01*
X254296Y55044D01*
X255041Y54299D01*
X255953Y53773D01*
X256971Y53500D01*
X258024D01*
X259041Y53773D01*
X259953Y54299D01*
X260698Y55044D01*
X261225Y55956D01*
X261497Y56973D01*
Y58027D01*
X261225Y59044D01*
X261217Y59057D01*
X261733Y60163D01*
X262177Y60242D01*
X263686Y58733D01*
X263497Y58027D01*
Y56973D01*
X263770Y55956D01*
X264296Y55044D01*
X265041Y54299D01*
X265953Y53773D01*
X266970Y53500D01*
X268024D01*
X269041Y53773D01*
X269953Y54299D01*
X270698Y55044D01*
X271224Y55956D01*
X271497Y56973D01*
Y58027D01*
X271224Y59044D01*
X270698Y59956D01*
X269953Y60701D01*
X269041Y61227D01*
X268024Y61500D01*
X266970D01*
X266263Y61310D01*
X264753Y62820D01*
X265136Y63744D01*
X265647D01*
Y66909D01*
X263072D01*
Y65220D01*
X262912Y65162D01*
X261922Y65867D01*
Y71256D01*
X255592D01*
Y64322D01*
X251275D01*
X250859Y65322D01*
X251224Y65956D01*
X251497Y66973D01*
Y68027D01*
X251224Y69044D01*
X250698Y69956D01*
X249953Y70701D01*
X249041Y71227D01*
X248024Y71500D01*
X246971D01*
X245953Y71227D01*
X245041Y70701D01*
X244322Y69982D01*
X244203Y69986D01*
X243322Y70269D01*
Y73146D01*
X240157D01*
Y69980D01*
X238976D01*
Y73146D01*
X237424D01*
X236765Y73897D01*
X236808Y74226D01*
X236808Y75000D01*
X236808Y75774D01*
X236606Y77309D01*
X236205Y78804D01*
X235613Y80235D01*
X234839Y81576D01*
X233896Y82804D01*
X232801Y83899D01*
X231573Y84841D01*
X230232Y85616D01*
X228802Y86208D01*
X227306Y86609D01*
X225985Y86783D01*
X225771Y86811D01*
X224997Y86811D01*
Y86811D01*
X224223Y86811D01*
X224009Y86783D01*
X222688Y86609D01*
X221192Y86208D01*
X219762Y85616D01*
X218421Y84841D01*
X217193Y83899D01*
X216098Y82804D01*
X215156Y81576D01*
X214381Y80235D01*
X213789Y78804D01*
X213388Y77309D01*
X213186Y75774D01*
Y74226D01*
X213388Y72691D01*
X213789Y71195D01*
X214381Y69765D01*
X215156Y68424D01*
X216098Y67196D01*
X217193Y66101D01*
X218207Y65322D01*
X218015Y64510D01*
X217898Y64322D01*
X206275D01*
X205859Y65322D01*
X206224Y65956D01*
X206480Y66909D01*
X202497D01*
X198514D01*
X198770Y65956D01*
X199135Y65322D01*
X198719Y64322D01*
X197497D01*
X197497Y64322D01*
X196800Y64184D01*
X196209Y63789D01*
X196208Y63789D01*
X193730Y61311D01*
X193024Y61500D01*
X191971D01*
X191263Y61310D01*
X189753Y62820D01*
X190136Y63744D01*
X190647D01*
Y66909D01*
X188072D01*
Y65220D01*
X187912Y65162D01*
X186922Y65867D01*
Y71256D01*
X180592D01*
Y64322D01*
X176275D01*
X175859Y65322D01*
X176225Y65956D01*
X176497Y66973D01*
Y68027D01*
X176225Y69044D01*
X175698Y69956D01*
X174953Y70701D01*
X174041Y71227D01*
X173024Y71500D01*
X171970D01*
X170953Y71227D01*
X170041Y70701D01*
X169322Y69982D01*
X169202Y69986D01*
X168322Y70269D01*
Y73146D01*
X165157D01*
Y69980D01*
X164566D01*
Y69390D01*
X160810D01*
Y66815D01*
X161023D01*
Y65665D01*
X160810D01*
Y64322D01*
X131275D01*
X130859Y65322D01*
X131225Y65956D01*
X131480Y66909D01*
X127497D01*
X123514D01*
X123770Y65956D01*
X124135Y65322D01*
X123719Y64322D01*
X122497D01*
X122497Y64322D01*
X121800Y64184D01*
X121209Y63789D01*
X121208Y63789D01*
X118730Y61311D01*
X118024Y61500D01*
X116971D01*
X116264Y61311D01*
X114754Y62820D01*
X115137Y63744D01*
X115647D01*
Y66909D01*
X113072D01*
Y65208D01*
X112922Y65156D01*
X111922Y65867D01*
Y71256D01*
X105592D01*
Y64322D01*
X101275D01*
X100859Y65322D01*
X101225Y65956D01*
X101497Y66973D01*
Y68027D01*
X101225Y69044D01*
X100698Y69956D01*
X99953Y70701D01*
X99041Y71227D01*
X98024Y71500D01*
X96970D01*
X95953Y71227D01*
X95041Y70701D01*
X94322Y69982D01*
X94203Y69986D01*
X93322Y70269D01*
Y73146D01*
X90157D01*
Y69980D01*
X88976D01*
Y73146D01*
X87424D01*
X86765Y73897D01*
X86808Y74226D01*
X86808Y75000D01*
X86808Y75774D01*
X86606Y77309D01*
X86205Y78804D01*
X85613Y80235D01*
X84839Y81576D01*
X83896Y82804D01*
X82801Y83899D01*
X81573Y84841D01*
X80232Y85616D01*
X78802Y86208D01*
X77306Y86609D01*
X75985Y86783D01*
X75771Y86811D01*
X74997Y86811D01*
Y86811D01*
X74223Y86811D01*
X74009Y86783D01*
X72688Y86609D01*
X71192Y86208D01*
X69762Y85616D01*
X68421Y84841D01*
X67193Y83899D01*
X66098Y82804D01*
X65156Y81576D01*
X64381Y80235D01*
X63789Y78804D01*
X63388Y77309D01*
X63186Y75774D01*
Y74226D01*
X63388Y72691D01*
X63789Y71195D01*
X64381Y69765D01*
X65156Y68424D01*
X66098Y67196D01*
X67193Y66101D01*
X68207Y65322D01*
X68015Y64510D01*
X67898Y64322D01*
X56276D01*
X55860Y65322D01*
X56225Y65956D01*
X56481Y66909D01*
X52498D01*
X48515D01*
X48770Y65956D01*
X49136Y65322D01*
X48720Y64322D01*
X47498D01*
X47498Y64322D01*
X46801Y64184D01*
X46209Y63789D01*
X46209Y63789D01*
X43731Y61311D01*
X43025Y61500D01*
X41971D01*
X41265Y61311D01*
X39755Y62820D01*
X40138Y63744D01*
X40648D01*
Y66909D01*
X38073D01*
Y65208D01*
X37923Y65156D01*
X36923Y65867D01*
Y71256D01*
X30592D01*
Y64322D01*
X26276D01*
X25859Y65322D01*
X26225Y65956D01*
X26498Y66973D01*
Y68027D01*
X26225Y69044D01*
X25699Y69956D01*
X24954Y70701D01*
X24042Y71227D01*
X23024Y71500D01*
X21971D01*
X20954Y71227D01*
X20042Y70701D01*
X19323Y69982D01*
X19203Y69986D01*
X18323Y70269D01*
Y73146D01*
X15157D01*
Y69980D01*
X13976D01*
Y73146D01*
X10811D01*
Y73146D01*
X9878Y73307D01*
X9878Y134173D01*
X10878Y134335D01*
X17626D01*
X18402Y133367D01*
D02*
G37*
G36*
X285989Y385214D02*
X285827Y384822D01*
X285752Y384252D01*
X292618D01*
Y383071D01*
X285752D01*
X285827Y382501D01*
X285989Y382109D01*
X285712Y381693D01*
X19488Y381693D01*
X18701Y380906D01*
X18701Y317717D01*
X8858Y307874D01*
X8858Y61614D01*
X5906D01*
X4921Y62598D01*
Y310236D01*
X14764Y320079D01*
X14764Y383661D01*
X16732Y385630D01*
X285712Y385630D01*
X285989Y385214D01*
D02*
G37*
%LPC*%
G36*
X8364Y360388D02*
X7353Y360118D01*
X6407Y359571D01*
X5634Y358799D01*
X5088Y357852D01*
X4817Y356841D01*
X8364D01*
Y360388D01*
D02*
G37*
G36*
Y355660D02*
X4817D01*
X5088Y354649D01*
X5634Y353703D01*
X6407Y352930D01*
X7353Y352384D01*
X8364Y352113D01*
Y355660D01*
D02*
G37*
G36*
X275488Y375000D02*
X271929D01*
Y371441D01*
X275488D01*
Y375000D01*
D02*
G37*
G36*
X270748D02*
X267189D01*
Y371441D01*
X270748D01*
Y375000D01*
D02*
G37*
G36*
X66632Y370231D02*
Y366684D01*
X70179D01*
X69908Y367695D01*
X69362Y368641D01*
X68589Y369414D01*
X67643Y369960D01*
X66632Y370231D01*
D02*
G37*
G36*
X65451Y370231D02*
X64439Y369960D01*
X63493Y369414D01*
X62721Y368641D01*
X62174Y367695D01*
X61904Y366684D01*
X65451D01*
Y370231D01*
D02*
G37*
G36*
X292027Y368145D02*
X290158D01*
X288997Y367992D01*
X287916Y367544D01*
X286987Y366831D01*
X286275Y365903D01*
X285827Y364822D01*
X285752Y364252D01*
X292027D01*
Y368145D01*
D02*
G37*
G36*
X65451Y365503D02*
X61904D01*
X62174Y364492D01*
X62721Y363545D01*
X63493Y362773D01*
X64439Y362226D01*
X65451Y361955D01*
Y365503D01*
D02*
G37*
G36*
X70179D02*
X66632D01*
Y361955D01*
X67643Y362226D01*
X68589Y362773D01*
X69362Y363545D01*
X69908Y364492D01*
X70179Y365503D01*
D02*
G37*
G36*
X292027Y363071D02*
X285752D01*
X285827Y362501D01*
X286275Y361420D01*
X286987Y360491D01*
X287916Y359779D01*
X288997Y359331D01*
X290158Y359178D01*
X292027D01*
Y363071D01*
D02*
G37*
G36*
X150548Y364063D02*
X149447D01*
X148383Y363778D01*
X147430Y363228D01*
X146651Y362450D01*
X146101Y361496D01*
X145816Y360433D01*
Y359332D01*
X146101Y358268D01*
X146651Y357315D01*
X147430Y356537D01*
X148383Y355986D01*
X149447Y355701D01*
X150548D01*
X151611Y355986D01*
X152564Y356537D01*
X153343Y357315D01*
X153893Y358268D01*
X154178Y359332D01*
Y360433D01*
X153893Y361496D01*
X153343Y362450D01*
X152564Y363228D01*
X151611Y363778D01*
X150548Y364063D01*
D02*
G37*
G36*
Y354063D02*
X149447D01*
X148383Y353778D01*
X147430Y353228D01*
X146651Y352449D01*
X146101Y351496D01*
X145816Y350433D01*
Y349332D01*
X146101Y348268D01*
X146651Y347315D01*
X147430Y346536D01*
X148383Y345986D01*
X149447Y345701D01*
X150548D01*
X151611Y345986D01*
X152564Y346536D01*
X153343Y347315D01*
X153893Y348268D01*
X154178Y349332D01*
Y350433D01*
X153893Y351496D01*
X153343Y352449D01*
X152564Y353228D01*
X151611Y353778D01*
X150548Y354063D01*
D02*
G37*
G36*
X66588Y350558D02*
X65495D01*
X64439Y350275D01*
X63493Y349729D01*
X62721Y348956D01*
X62174Y348010D01*
X61892Y346954D01*
Y345862D01*
X62174Y344807D01*
X62721Y343860D01*
X63493Y343088D01*
X64439Y342541D01*
X65495Y342259D01*
X66588D01*
X67643Y342541D01*
X68589Y343088D01*
X69362Y343860D01*
X69908Y344807D01*
X70191Y345862D01*
Y346954D01*
X69908Y348010D01*
X69362Y348956D01*
X68589Y349729D01*
X67643Y350275D01*
X66588Y350558D01*
D02*
G37*
G36*
X153997Y333882D02*
X150588D01*
Y330473D01*
X153997D01*
Y333882D01*
D02*
G37*
G36*
X149407D02*
X145997D01*
Y330473D01*
X149407D01*
Y333882D01*
D02*
G37*
G36*
X153997Y329292D02*
X150588D01*
Y325882D01*
X153997D01*
Y329292D01*
D02*
G37*
G36*
X149407D02*
X145997D01*
Y325882D01*
X149407D01*
Y329292D01*
D02*
G37*
G36*
X163976Y298146D02*
X160810D01*
Y295571D01*
X163976D01*
Y298146D01*
D02*
G37*
G36*
X269403Y296257D02*
X266828D01*
Y293091D01*
X269403D01*
Y296257D01*
D02*
G37*
G36*
X194403D02*
X191828D01*
Y293091D01*
X194403D01*
Y296257D01*
D02*
G37*
G36*
X119403D02*
X116828D01*
Y293091D01*
X119403D01*
Y296257D01*
D02*
G37*
G36*
X44403D02*
X41829D01*
Y293091D01*
X44403D01*
Y296257D01*
D02*
G37*
G36*
X190647D02*
X188072D01*
Y293091D01*
X190647D01*
Y296257D01*
D02*
G37*
G36*
X265647D02*
X263072D01*
Y293091D01*
X265647D01*
Y296257D01*
D02*
G37*
G36*
X115647D02*
X113072D01*
Y293091D01*
X115647D01*
Y296257D01*
D02*
G37*
G36*
X40648D02*
X38073D01*
Y293091D01*
X40648D01*
Y296257D01*
D02*
G37*
G36*
X278088Y296483D02*
Y293091D01*
X281480D01*
X281224Y294045D01*
X280698Y294957D01*
X279953Y295702D01*
X279041Y296228D01*
X278088Y296483D01*
D02*
G37*
G36*
X203088D02*
Y293091D01*
X206480D01*
X206224Y294045D01*
X205698Y294957D01*
X204953Y295702D01*
X204041Y296228D01*
X203088Y296483D01*
D02*
G37*
G36*
X128088D02*
Y293091D01*
X131480D01*
X131225Y294045D01*
X130698Y294957D01*
X129953Y295702D01*
X129041Y296228D01*
X128088Y296483D01*
D02*
G37*
G36*
X53088D02*
Y293091D01*
X56481D01*
X56225Y294045D01*
X55699Y294957D01*
X54954Y295702D01*
X54042Y296228D01*
X53088Y296483D01*
D02*
G37*
G36*
X201907Y296483D02*
X200953Y296228D01*
X200041Y295702D01*
X199296Y294957D01*
X198770Y294045D01*
X198514Y293091D01*
X201907D01*
Y296483D01*
D02*
G37*
G36*
X126907D02*
X125953Y296228D01*
X125041Y295702D01*
X124296Y294957D01*
X123770Y294045D01*
X123514Y293091D01*
X126907D01*
Y296483D01*
D02*
G37*
G36*
X276907D02*
X275953Y296228D01*
X275041Y295702D01*
X274296Y294957D01*
X273770Y294045D01*
X273514Y293091D01*
X276907D01*
Y296483D01*
D02*
G37*
G36*
X51907D02*
X50954Y296228D01*
X50042Y295702D01*
X49297Y294957D01*
X48770Y294045D01*
X48515Y293091D01*
X51907D01*
Y296483D01*
D02*
G37*
G36*
X269403Y291910D02*
X266828D01*
Y288745D01*
X269403D01*
Y291910D01*
D02*
G37*
G36*
X194403D02*
X191828D01*
Y288745D01*
X194403D01*
Y291910D01*
D02*
G37*
G36*
X119403D02*
X116828D01*
Y288745D01*
X119403D01*
Y291910D01*
D02*
G37*
G36*
X44403D02*
X41829D01*
Y288745D01*
X44403D01*
Y291910D01*
D02*
G37*
G36*
X281480Y291910D02*
X278088D01*
Y288518D01*
X279041Y288773D01*
X279953Y289300D01*
X280698Y290045D01*
X281224Y290957D01*
X281480Y291910D01*
D02*
G37*
G36*
X276907D02*
X273514D01*
X273770Y290957D01*
X274296Y290045D01*
X275041Y289300D01*
X275953Y288773D01*
X276907Y288518D01*
Y291910D01*
D02*
G37*
G36*
X278024Y286501D02*
X276971D01*
X275953Y286228D01*
X275041Y285701D01*
X274296Y284957D01*
X273770Y284045D01*
X273497Y283027D01*
Y281974D01*
X273770Y280957D01*
X274296Y280045D01*
X275041Y279300D01*
X275953Y278773D01*
X276971Y278501D01*
X278024D01*
X279041Y278773D01*
X279953Y279300D01*
X280698Y280045D01*
X281224Y280957D01*
X281497Y281974D01*
Y283027D01*
X281224Y284045D01*
X280698Y284957D01*
X279953Y285701D01*
X279041Y286228D01*
X278024Y286501D01*
D02*
G37*
G36*
X283070Y266851D02*
X281924D01*
X280818Y266554D01*
X279826Y265982D01*
X279016Y265172D01*
X278444Y264180D01*
X278147Y263073D01*
Y261928D01*
X278444Y260822D01*
X279016Y259830D01*
X279826Y259020D01*
X280818Y258447D01*
X281924Y258151D01*
X283070D01*
X284176Y258447D01*
X285168Y259020D01*
X285978Y259830D01*
X286551Y260822D01*
X286847Y261928D01*
Y263073D01*
X286551Y264180D01*
X285978Y265172D01*
X285168Y265982D01*
X284176Y266554D01*
X283070Y266851D01*
D02*
G37*
G36*
X243070D02*
X241924D01*
X240818Y266554D01*
X239826Y265982D01*
X239016Y265172D01*
X238444Y264180D01*
X238147Y263073D01*
Y261928D01*
X238444Y260822D01*
X239016Y259830D01*
X239826Y259020D01*
X240818Y258447D01*
X241924Y258151D01*
X243070D01*
X244176Y258447D01*
X245168Y259020D01*
X245978Y259830D01*
X246551Y260822D01*
X246847Y261928D01*
Y263073D01*
X246551Y264180D01*
X245978Y265172D01*
X245168Y265982D01*
X244176Y266554D01*
X243070Y266851D01*
D02*
G37*
G36*
X208070D02*
X206924D01*
X205818Y266554D01*
X204826Y265982D01*
X204016Y265172D01*
X203444Y264180D01*
X203147Y263073D01*
Y261928D01*
X203444Y260822D01*
X204016Y259830D01*
X204826Y259020D01*
X205818Y258447D01*
X206924Y258151D01*
X208070D01*
X209176Y258447D01*
X210168Y259020D01*
X210978Y259830D01*
X211551Y260822D01*
X211847Y261928D01*
Y263073D01*
X211551Y264180D01*
X210978Y265172D01*
X210168Y265982D01*
X209176Y266554D01*
X208070Y266851D01*
D02*
G37*
G36*
X168070D02*
X166924D01*
X165818Y266554D01*
X164826Y265982D01*
X164016Y265172D01*
X163444Y264180D01*
X163147Y263073D01*
Y261928D01*
X163444Y260822D01*
X164016Y259830D01*
X164826Y259020D01*
X165818Y258447D01*
X166924Y258151D01*
X168070D01*
X169176Y258447D01*
X170168Y259020D01*
X170978Y259830D01*
X171551Y260822D01*
X171847Y261928D01*
Y263073D01*
X171551Y264180D01*
X170978Y265172D01*
X170168Y265982D01*
X169176Y266554D01*
X168070Y266851D01*
D02*
G37*
G36*
X133070D02*
X131924D01*
X130818Y266554D01*
X129826Y265982D01*
X129016Y265172D01*
X128444Y264180D01*
X128147Y263073D01*
Y261928D01*
X128444Y260822D01*
X129016Y259830D01*
X129826Y259020D01*
X130818Y258447D01*
X131924Y258151D01*
X133070D01*
X134176Y258447D01*
X135168Y259020D01*
X135978Y259830D01*
X136551Y260822D01*
X136847Y261928D01*
Y263073D01*
X136551Y264180D01*
X135978Y265172D01*
X135168Y265982D01*
X134176Y266554D01*
X133070Y266851D01*
D02*
G37*
G36*
X93070D02*
X91924D01*
X90818Y266554D01*
X89826Y265982D01*
X89016Y265172D01*
X88444Y264180D01*
X88147Y263073D01*
Y261928D01*
X88444Y260822D01*
X89016Y259830D01*
X89826Y259020D01*
X90818Y258447D01*
X91924Y258151D01*
X93070D01*
X94176Y258447D01*
X95168Y259020D01*
X95978Y259830D01*
X96551Y260822D01*
X96847Y261928D01*
Y263073D01*
X96551Y264180D01*
X95978Y265172D01*
X95168Y265982D01*
X94176Y266554D01*
X93070Y266851D01*
D02*
G37*
G36*
X58071D02*
X56925D01*
X55819Y266554D01*
X54827Y265982D01*
X54017Y265172D01*
X53444Y264180D01*
X53148Y263073D01*
Y261928D01*
X53444Y260822D01*
X54017Y259830D01*
X54827Y259020D01*
X55819Y258447D01*
X56925Y258151D01*
X58071D01*
X59177Y258447D01*
X60169Y259020D01*
X60979Y259830D01*
X61551Y260822D01*
X61848Y261928D01*
Y263073D01*
X61551Y264180D01*
X60979Y265172D01*
X60169Y265982D01*
X59177Y266554D01*
X58071Y266851D01*
D02*
G37*
G36*
X18071D02*
X16925D01*
X15819Y266554D01*
X14827Y265982D01*
X14017Y265172D01*
X13444Y264180D01*
X13148Y263073D01*
Y261928D01*
X13444Y260822D01*
X14017Y259830D01*
X14827Y259020D01*
X15819Y258447D01*
X16925Y258151D01*
X18071D01*
X19177Y258447D01*
X20169Y259020D01*
X20979Y259830D01*
X21552Y260822D01*
X21848Y261928D01*
Y263073D01*
X21552Y264180D01*
X20979Y265172D01*
X20169Y265982D01*
X19177Y266554D01*
X18071Y266851D01*
D02*
G37*
G36*
X263369Y271351D02*
X261626D01*
X259916Y271011D01*
X258305Y270343D01*
X256856Y269375D01*
X255623Y268142D01*
X254654Y266693D01*
X253987Y265082D01*
X253647Y263372D01*
Y261629D01*
X253987Y259919D01*
X254654Y258309D01*
X255623Y256859D01*
X256856Y255626D01*
X258305Y254658D01*
X259916Y253991D01*
X261626Y253651D01*
X263369D01*
X265079Y253991D01*
X266689Y254658D01*
X268139Y255626D01*
X269371Y256859D01*
X270340Y258309D01*
X271007Y259919D01*
X271347Y261629D01*
Y263372D01*
X271007Y265082D01*
X270340Y266693D01*
X269371Y268142D01*
X268139Y269375D01*
X266689Y270343D01*
X265079Y271011D01*
X263369Y271351D01*
D02*
G37*
G36*
X188369D02*
X186626D01*
X184916Y271011D01*
X183305Y270343D01*
X181856Y269375D01*
X180623Y268142D01*
X179654Y266693D01*
X178987Y265082D01*
X178647Y263372D01*
Y261629D01*
X178987Y259919D01*
X179654Y258309D01*
X180623Y256859D01*
X181856Y255626D01*
X183305Y254658D01*
X184916Y253991D01*
X186626Y253651D01*
X188369D01*
X190079Y253991D01*
X191689Y254658D01*
X193139Y255626D01*
X194371Y256859D01*
X195340Y258309D01*
X196007Y259919D01*
X196347Y261629D01*
Y263372D01*
X196007Y265082D01*
X195340Y266693D01*
X194371Y268142D01*
X193139Y269375D01*
X191689Y270343D01*
X190079Y271011D01*
X188369Y271351D01*
D02*
G37*
G36*
X113369D02*
X111626D01*
X109916Y271011D01*
X108305Y270343D01*
X106856Y269375D01*
X105623Y268142D01*
X104654Y266693D01*
X103987Y265082D01*
X103647Y263372D01*
Y261629D01*
X103987Y259919D01*
X104654Y258309D01*
X105623Y256859D01*
X106856Y255626D01*
X108305Y254658D01*
X109916Y253991D01*
X111626Y253651D01*
X113369D01*
X115079Y253991D01*
X116689Y254658D01*
X118139Y255626D01*
X119371Y256859D01*
X120340Y258309D01*
X121007Y259919D01*
X121347Y261629D01*
Y263372D01*
X121007Y265082D01*
X120340Y266693D01*
X119371Y268142D01*
X118139Y269375D01*
X116689Y270343D01*
X115079Y271011D01*
X113369Y271351D01*
D02*
G37*
G36*
X38370D02*
X36626D01*
X34916Y271011D01*
X33306Y270343D01*
X31856Y269375D01*
X30624Y268142D01*
X29655Y266693D01*
X28988Y265082D01*
X28648Y263372D01*
Y261629D01*
X28988Y259919D01*
X29655Y258309D01*
X30624Y256859D01*
X31856Y255626D01*
X33306Y254658D01*
X34916Y253991D01*
X36626Y253651D01*
X38370D01*
X40079Y253991D01*
X41690Y254658D01*
X43139Y255626D01*
X44372Y256859D01*
X45341Y258309D01*
X46008Y259919D01*
X46348Y261629D01*
Y263372D01*
X46008Y265082D01*
X45341Y266693D01*
X44372Y268142D01*
X43139Y269375D01*
X41690Y270343D01*
X40079Y271011D01*
X38370Y271351D01*
D02*
G37*
G36*
X278199Y257831D02*
X276795D01*
X275440Y257468D01*
X274224Y256766D01*
X273232Y255774D01*
X272530Y254558D01*
X272166Y253203D01*
Y251799D01*
X272530Y250443D01*
X273232Y249227D01*
X274224Y248235D01*
X275440Y247533D01*
X276795Y247170D01*
X278199D01*
X279555Y247533D01*
X280770Y248235D01*
X281763Y249227D01*
X282465Y250443D01*
X282828Y251799D01*
Y253203D01*
X282465Y254558D01*
X281763Y255774D01*
X280770Y256766D01*
X279555Y257468D01*
X278199Y257831D01*
D02*
G37*
G36*
X203199D02*
X201795D01*
X200440Y257468D01*
X199224Y256766D01*
X198231Y255774D01*
X197530Y254558D01*
X197166Y253203D01*
Y251799D01*
X197530Y250443D01*
X198231Y249227D01*
X199224Y248235D01*
X200440Y247533D01*
X201795Y247170D01*
X203199D01*
X204555Y247533D01*
X205770Y248235D01*
X206763Y249227D01*
X207465Y250443D01*
X207828Y251799D01*
Y253203D01*
X207465Y254558D01*
X206763Y255774D01*
X205770Y256766D01*
X204555Y257468D01*
X203199Y257831D01*
D02*
G37*
G36*
X128199D02*
X126795D01*
X125440Y257468D01*
X124224Y256766D01*
X123231Y255774D01*
X122530Y254558D01*
X122166Y253203D01*
Y251799D01*
X122530Y250443D01*
X123231Y249227D01*
X124224Y248235D01*
X125440Y247533D01*
X126795Y247170D01*
X128199D01*
X129555Y247533D01*
X130770Y248235D01*
X131763Y249227D01*
X132465Y250443D01*
X132828Y251799D01*
Y253203D01*
X132465Y254558D01*
X131763Y255774D01*
X130770Y256766D01*
X129555Y257468D01*
X128199Y257831D01*
D02*
G37*
G36*
X53200D02*
X51796D01*
X50440Y257468D01*
X49225Y256766D01*
X48232Y255774D01*
X47530Y254558D01*
X47167Y253203D01*
Y251799D01*
X47530Y250443D01*
X48232Y249227D01*
X49225Y248235D01*
X50440Y247533D01*
X51796Y247170D01*
X53200D01*
X54555Y247533D01*
X55771Y248235D01*
X56763Y249227D01*
X57465Y250443D01*
X57829Y251799D01*
Y253203D01*
X57465Y254558D01*
X56763Y255774D01*
X55771Y256766D01*
X54555Y257468D01*
X53200Y257831D01*
D02*
G37*
G36*
X253223Y248012D02*
X251771D01*
X250370Y247637D01*
X249113Y246911D01*
X248087Y245885D01*
X247361Y244628D01*
X246985Y243226D01*
Y241775D01*
X247361Y240373D01*
X248087Y239116D01*
X249113Y238090D01*
X250370Y237365D01*
X251771Y236989D01*
X253223D01*
X254625Y237365D01*
X255881Y238090D01*
X256908Y239116D01*
X257633Y240373D01*
X258009Y241775D01*
Y243226D01*
X257633Y244628D01*
X256908Y245885D01*
X255881Y246911D01*
X254625Y247637D01*
X253223Y248012D01*
D02*
G37*
G36*
X178223D02*
X176771D01*
X175370Y247637D01*
X174113Y246911D01*
X173087Y245885D01*
X172361Y244628D01*
X171985Y243226D01*
Y241775D01*
X172361Y240373D01*
X173087Y239116D01*
X174113Y238090D01*
X175370Y237365D01*
X176771Y236989D01*
X178223D01*
X179625Y237365D01*
X180881Y238090D01*
X181908Y239116D01*
X182633Y240373D01*
X183009Y241775D01*
Y243226D01*
X182633Y244628D01*
X181908Y245885D01*
X180881Y246911D01*
X179625Y247637D01*
X178223Y248012D01*
D02*
G37*
G36*
X103223D02*
X101771D01*
X100370Y247637D01*
X99113Y246911D01*
X98087Y245885D01*
X97361Y244628D01*
X96985Y243226D01*
Y241775D01*
X97361Y240373D01*
X98087Y239116D01*
X99113Y238090D01*
X100370Y237365D01*
X101771Y236989D01*
X103223D01*
X104625Y237365D01*
X105881Y238090D01*
X106908Y239116D01*
X107633Y240373D01*
X108009Y241775D01*
Y243226D01*
X107633Y244628D01*
X106908Y245885D01*
X105881Y246911D01*
X104625Y247637D01*
X103223Y248012D01*
D02*
G37*
G36*
X28223D02*
X26772D01*
X25370Y247637D01*
X24114Y246911D01*
X23087Y245885D01*
X22362Y244628D01*
X21986Y243226D01*
Y241775D01*
X22362Y240373D01*
X23087Y239116D01*
X24114Y238090D01*
X25370Y237365D01*
X26772Y236989D01*
X28223D01*
X29625Y237365D01*
X30882Y238090D01*
X31908Y239116D01*
X32634Y240373D01*
X33010Y241775D01*
Y243226D01*
X32634Y244628D01*
X31908Y245885D01*
X30882Y246911D01*
X29625Y247637D01*
X28223Y248012D01*
D02*
G37*
G36*
X163976Y223146D02*
X160810D01*
Y220571D01*
X163976D01*
Y223146D01*
D02*
G37*
G36*
X269403Y221257D02*
X266828D01*
Y218091D01*
X269403D01*
Y221257D01*
D02*
G37*
G36*
X194403D02*
X191828D01*
Y218091D01*
X194403D01*
Y221257D01*
D02*
G37*
G36*
X44403D02*
X41829D01*
Y218091D01*
X44403D01*
Y221257D01*
D02*
G37*
G36*
X119403D02*
X116828D01*
Y218091D01*
X119403D01*
Y221257D01*
D02*
G37*
G36*
X265647D02*
X263072D01*
Y218091D01*
X265647D01*
Y221257D01*
D02*
G37*
G36*
X190647D02*
X188072D01*
Y218091D01*
X190647D01*
Y221257D01*
D02*
G37*
G36*
X40648D02*
X38073D01*
Y218091D01*
X40648D01*
Y221257D01*
D02*
G37*
G36*
X115647D02*
X113072D01*
Y218091D01*
X115647D01*
Y221257D01*
D02*
G37*
G36*
X278088Y221483D02*
Y218091D01*
X281480D01*
X281224Y219045D01*
X280698Y219957D01*
X279953Y220702D01*
X279041Y221228D01*
X278088Y221483D01*
D02*
G37*
G36*
X53088D02*
Y218091D01*
X56481D01*
X56225Y219045D01*
X55699Y219957D01*
X54954Y220702D01*
X54042Y221228D01*
X53088Y221483D01*
D02*
G37*
G36*
X203088D02*
Y218091D01*
X206480D01*
X206224Y219045D01*
X205698Y219957D01*
X204953Y220702D01*
X204041Y221228D01*
X203088Y221483D01*
D02*
G37*
G36*
X128088D02*
Y218091D01*
X131480D01*
X131225Y219045D01*
X130698Y219957D01*
X129953Y220702D01*
X129041Y221228D01*
X128088Y221483D01*
D02*
G37*
G36*
X201907Y221483D02*
X200953Y221228D01*
X200041Y220702D01*
X199296Y219957D01*
X198770Y219045D01*
X198514Y218091D01*
X201907D01*
Y221483D01*
D02*
G37*
G36*
X126907D02*
X125953Y221228D01*
X125041Y220702D01*
X124296Y219957D01*
X123770Y219045D01*
X123514Y218091D01*
X126907D01*
Y221483D01*
D02*
G37*
G36*
X51907D02*
X50954Y221228D01*
X50042Y220702D01*
X49297Y219957D01*
X48770Y219045D01*
X48515Y218091D01*
X51907D01*
Y221483D01*
D02*
G37*
G36*
X276907D02*
X275953Y221228D01*
X275041Y220702D01*
X274296Y219957D01*
X273770Y219045D01*
X273514Y218091D01*
X276907D01*
Y221483D01*
D02*
G37*
G36*
X269403Y216910D02*
X266828D01*
Y213745D01*
X269403D01*
Y216910D01*
D02*
G37*
G36*
X194403D02*
X191828D01*
Y213745D01*
X194403D01*
Y216910D01*
D02*
G37*
G36*
X119403D02*
X116828D01*
Y213745D01*
X119403D01*
Y216910D01*
D02*
G37*
G36*
X44403D02*
X41829D01*
Y213745D01*
X44403D01*
Y216910D01*
D02*
G37*
G36*
X281480Y216910D02*
X278088D01*
Y213518D01*
X279041Y213773D01*
X279953Y214300D01*
X280698Y215045D01*
X281224Y215957D01*
X281480Y216910D01*
D02*
G37*
G36*
X276907D02*
X273514D01*
X273770Y215957D01*
X274296Y215045D01*
X275041Y214300D01*
X275953Y213773D01*
X276907Y213518D01*
Y216910D01*
D02*
G37*
G36*
X278024Y211501D02*
X276971D01*
X275953Y211228D01*
X275041Y210701D01*
X274296Y209957D01*
X273770Y209045D01*
X273497Y208027D01*
Y206974D01*
X273770Y205957D01*
X274296Y205045D01*
X275041Y204300D01*
X275953Y203773D01*
X276971Y203501D01*
X278024D01*
X279041Y203773D01*
X279953Y204300D01*
X280698Y205045D01*
X281224Y205957D01*
X281497Y206974D01*
Y208027D01*
X281224Y209045D01*
X280698Y209957D01*
X279953Y210701D01*
X279041Y211228D01*
X278024Y211501D01*
D02*
G37*
G36*
X283070Y191851D02*
X281924D01*
X280818Y191554D01*
X279826Y190981D01*
X279016Y190172D01*
X278444Y189180D01*
X278147Y188073D01*
Y186928D01*
X278444Y185822D01*
X279016Y184830D01*
X279826Y184020D01*
X280818Y183447D01*
X281924Y183151D01*
X283070D01*
X284176Y183447D01*
X285168Y184020D01*
X285978Y184830D01*
X286551Y185822D01*
X286847Y186928D01*
Y188073D01*
X286551Y189180D01*
X285978Y190172D01*
X285168Y190981D01*
X284176Y191554D01*
X283070Y191851D01*
D02*
G37*
G36*
X243070D02*
X241924D01*
X240818Y191554D01*
X239826Y190981D01*
X239016Y190172D01*
X238444Y189180D01*
X238147Y188073D01*
Y186928D01*
X238444Y185822D01*
X239016Y184830D01*
X239826Y184020D01*
X240818Y183447D01*
X241924Y183151D01*
X243070D01*
X244176Y183447D01*
X245168Y184020D01*
X245978Y184830D01*
X246551Y185822D01*
X246847Y186928D01*
Y188073D01*
X246551Y189180D01*
X245978Y190172D01*
X245168Y190981D01*
X244176Y191554D01*
X243070Y191851D01*
D02*
G37*
G36*
X208070D02*
X206924D01*
X205818Y191554D01*
X204826Y190981D01*
X204016Y190172D01*
X203444Y189180D01*
X203147Y188073D01*
Y186928D01*
X203444Y185822D01*
X204016Y184830D01*
X204826Y184020D01*
X205818Y183447D01*
X206924Y183151D01*
X208070D01*
X209176Y183447D01*
X210168Y184020D01*
X210978Y184830D01*
X211551Y185822D01*
X211847Y186928D01*
Y188073D01*
X211551Y189180D01*
X210978Y190172D01*
X210168Y190981D01*
X209176Y191554D01*
X208070Y191851D01*
D02*
G37*
G36*
X168070D02*
X166924D01*
X165818Y191554D01*
X164826Y190981D01*
X164016Y190172D01*
X163444Y189180D01*
X163147Y188073D01*
Y186928D01*
X163444Y185822D01*
X164016Y184830D01*
X164826Y184020D01*
X165818Y183447D01*
X166924Y183151D01*
X168070D01*
X169176Y183447D01*
X170168Y184020D01*
X170978Y184830D01*
X171551Y185822D01*
X171847Y186928D01*
Y188073D01*
X171551Y189180D01*
X170978Y190172D01*
X170168Y190981D01*
X169176Y191554D01*
X168070Y191851D01*
D02*
G37*
G36*
X133070D02*
X131924D01*
X130818Y191554D01*
X129826Y190981D01*
X129016Y190172D01*
X128444Y189180D01*
X128147Y188073D01*
Y186928D01*
X128444Y185822D01*
X129016Y184830D01*
X129826Y184020D01*
X130818Y183447D01*
X131924Y183151D01*
X133070D01*
X134176Y183447D01*
X135168Y184020D01*
X135978Y184830D01*
X136551Y185822D01*
X136847Y186928D01*
Y188073D01*
X136551Y189180D01*
X135978Y190172D01*
X135168Y190981D01*
X134176Y191554D01*
X133070Y191851D01*
D02*
G37*
G36*
X93070D02*
X91924D01*
X90818Y191554D01*
X89826Y190981D01*
X89016Y190172D01*
X88444Y189180D01*
X88147Y188073D01*
Y186928D01*
X88444Y185822D01*
X89016Y184830D01*
X89826Y184020D01*
X90818Y183447D01*
X91924Y183151D01*
X93070D01*
X94176Y183447D01*
X95168Y184020D01*
X95978Y184830D01*
X96551Y185822D01*
X96847Y186928D01*
Y188073D01*
X96551Y189180D01*
X95978Y190172D01*
X95168Y190981D01*
X94176Y191554D01*
X93070Y191851D01*
D02*
G37*
G36*
X58071D02*
X56925D01*
X55819Y191554D01*
X54827Y190981D01*
X54017Y190172D01*
X53444Y189180D01*
X53148Y188073D01*
Y186928D01*
X53444Y185822D01*
X54017Y184830D01*
X54827Y184020D01*
X55819Y183447D01*
X56925Y183151D01*
X58071D01*
X59177Y183447D01*
X60169Y184020D01*
X60979Y184830D01*
X61551Y185822D01*
X61848Y186928D01*
Y188073D01*
X61551Y189180D01*
X60979Y190172D01*
X60169Y190981D01*
X59177Y191554D01*
X58071Y191851D01*
D02*
G37*
G36*
X18071D02*
X16925D01*
X15819Y191554D01*
X14827Y190981D01*
X14017Y190172D01*
X13444Y189180D01*
X13148Y188073D01*
Y186928D01*
X13444Y185822D01*
X14017Y184830D01*
X14827Y184020D01*
X15819Y183447D01*
X16925Y183151D01*
X18071D01*
X19177Y183447D01*
X20169Y184020D01*
X20979Y184830D01*
X21552Y185822D01*
X21848Y186928D01*
Y188073D01*
X21552Y189180D01*
X20979Y190172D01*
X20169Y190981D01*
X19177Y191554D01*
X18071Y191851D01*
D02*
G37*
G36*
X263369Y196351D02*
X261626D01*
X259916Y196011D01*
X258305Y195343D01*
X256856Y194375D01*
X255623Y193142D01*
X254654Y191693D01*
X253987Y190082D01*
X253647Y188372D01*
Y186629D01*
X253987Y184919D01*
X254654Y183309D01*
X255623Y181859D01*
X256856Y180626D01*
X258305Y179658D01*
X259916Y178991D01*
X261626Y178651D01*
X263369D01*
X265079Y178991D01*
X266689Y179658D01*
X268139Y180626D01*
X269371Y181859D01*
X270340Y183309D01*
X271007Y184919D01*
X271347Y186629D01*
Y188372D01*
X271007Y190082D01*
X270340Y191693D01*
X269371Y193142D01*
X268139Y194375D01*
X266689Y195343D01*
X265079Y196011D01*
X263369Y196351D01*
D02*
G37*
G36*
X188369D02*
X186626D01*
X184916Y196011D01*
X183305Y195343D01*
X181856Y194375D01*
X180623Y193142D01*
X179654Y191693D01*
X178987Y190082D01*
X178647Y188372D01*
Y186629D01*
X178987Y184919D01*
X179654Y183309D01*
X180623Y181859D01*
X181856Y180626D01*
X183305Y179658D01*
X184916Y178991D01*
X186626Y178651D01*
X188369D01*
X190079Y178991D01*
X191689Y179658D01*
X193139Y180626D01*
X194371Y181859D01*
X195340Y183309D01*
X196007Y184919D01*
X196347Y186629D01*
Y188372D01*
X196007Y190082D01*
X195340Y191693D01*
X194371Y193142D01*
X193139Y194375D01*
X191689Y195343D01*
X190079Y196011D01*
X188369Y196351D01*
D02*
G37*
G36*
X113369D02*
X111626D01*
X109916Y196011D01*
X108305Y195343D01*
X106856Y194375D01*
X105623Y193142D01*
X104654Y191693D01*
X103987Y190082D01*
X103647Y188372D01*
Y186629D01*
X103987Y184919D01*
X104654Y183309D01*
X105623Y181859D01*
X106856Y180626D01*
X108305Y179658D01*
X109916Y178991D01*
X111626Y178651D01*
X113369D01*
X115079Y178991D01*
X116689Y179658D01*
X118139Y180626D01*
X119371Y181859D01*
X120340Y183309D01*
X121007Y184919D01*
X121347Y186629D01*
Y188372D01*
X121007Y190082D01*
X120340Y191693D01*
X119371Y193142D01*
X118139Y194375D01*
X116689Y195343D01*
X115079Y196011D01*
X113369Y196351D01*
D02*
G37*
G36*
X38370D02*
X36626D01*
X34916Y196011D01*
X33306Y195343D01*
X31856Y194375D01*
X30624Y193142D01*
X29655Y191693D01*
X28988Y190082D01*
X28648Y188372D01*
Y186629D01*
X28988Y184919D01*
X29655Y183309D01*
X30624Y181859D01*
X31856Y180626D01*
X33306Y179658D01*
X34916Y178991D01*
X36626Y178651D01*
X38370D01*
X40079Y178991D01*
X41690Y179658D01*
X43139Y180626D01*
X44372Y181859D01*
X45341Y183309D01*
X46008Y184919D01*
X46348Y186629D01*
Y188372D01*
X46008Y190082D01*
X45341Y191693D01*
X44372Y193142D01*
X43139Y194375D01*
X41690Y195343D01*
X40079Y196011D01*
X38370Y196351D01*
D02*
G37*
G36*
X278199Y182831D02*
X276795D01*
X275440Y182468D01*
X274224Y181766D01*
X273232Y180774D01*
X272530Y179558D01*
X272166Y178202D01*
Y176799D01*
X272530Y175443D01*
X273232Y174227D01*
X274224Y173235D01*
X275440Y172533D01*
X276795Y172170D01*
X278199D01*
X279555Y172533D01*
X280770Y173235D01*
X281763Y174227D01*
X282465Y175443D01*
X282828Y176799D01*
Y178202D01*
X282465Y179558D01*
X281763Y180774D01*
X280770Y181766D01*
X279555Y182468D01*
X278199Y182831D01*
D02*
G37*
G36*
X203199D02*
X201795D01*
X200440Y182468D01*
X199224Y181766D01*
X198231Y180774D01*
X197530Y179558D01*
X197166Y178202D01*
Y176799D01*
X197530Y175443D01*
X198231Y174227D01*
X199224Y173235D01*
X200440Y172533D01*
X201795Y172170D01*
X203199D01*
X204555Y172533D01*
X205770Y173235D01*
X206763Y174227D01*
X207465Y175443D01*
X207828Y176799D01*
Y178202D01*
X207465Y179558D01*
X206763Y180774D01*
X205770Y181766D01*
X204555Y182468D01*
X203199Y182831D01*
D02*
G37*
G36*
X128199D02*
X126795D01*
X125440Y182468D01*
X124224Y181766D01*
X123231Y180774D01*
X122530Y179558D01*
X122166Y178202D01*
Y176799D01*
X122530Y175443D01*
X123231Y174227D01*
X124224Y173235D01*
X125440Y172533D01*
X126795Y172170D01*
X128199D01*
X129555Y172533D01*
X130770Y173235D01*
X131763Y174227D01*
X132465Y175443D01*
X132828Y176799D01*
Y178202D01*
X132465Y179558D01*
X131763Y180774D01*
X130770Y181766D01*
X129555Y182468D01*
X128199Y182831D01*
D02*
G37*
G36*
X53200D02*
X51796D01*
X50440Y182468D01*
X49225Y181766D01*
X48232Y180774D01*
X47530Y179558D01*
X47167Y178202D01*
Y176799D01*
X47530Y175443D01*
X48232Y174227D01*
X49225Y173235D01*
X50440Y172533D01*
X51796Y172170D01*
X53200D01*
X54555Y172533D01*
X55771Y173235D01*
X56763Y174227D01*
X57465Y175443D01*
X57829Y176799D01*
Y178202D01*
X57465Y179558D01*
X56763Y180774D01*
X55771Y181766D01*
X54555Y182468D01*
X53200Y182831D01*
D02*
G37*
G36*
X253223Y173012D02*
X251771D01*
X250370Y172637D01*
X249113Y171911D01*
X248087Y170885D01*
X247361Y169628D01*
X246985Y168226D01*
Y166775D01*
X247361Y165373D01*
X248087Y164116D01*
X249113Y163090D01*
X250370Y162364D01*
X251771Y161989D01*
X253223D01*
X254625Y162364D01*
X255881Y163090D01*
X256908Y164116D01*
X257633Y165373D01*
X258009Y166775D01*
Y168226D01*
X257633Y169628D01*
X256908Y170885D01*
X255881Y171911D01*
X254625Y172637D01*
X253223Y173012D01*
D02*
G37*
G36*
X178223D02*
X176771D01*
X175370Y172637D01*
X174113Y171911D01*
X173087Y170885D01*
X172361Y169628D01*
X171985Y168226D01*
Y166775D01*
X172361Y165373D01*
X173087Y164116D01*
X174113Y163090D01*
X175370Y162364D01*
X176771Y161989D01*
X178223D01*
X179625Y162364D01*
X180881Y163090D01*
X181908Y164116D01*
X182633Y165373D01*
X183009Y166775D01*
Y168226D01*
X182633Y169628D01*
X181908Y170885D01*
X180881Y171911D01*
X179625Y172637D01*
X178223Y173012D01*
D02*
G37*
G36*
X103223D02*
X101771D01*
X100370Y172637D01*
X99113Y171911D01*
X98087Y170885D01*
X97361Y169628D01*
X96985Y168226D01*
Y166775D01*
X97361Y165373D01*
X98087Y164116D01*
X99113Y163090D01*
X100370Y162364D01*
X101771Y161989D01*
X103223D01*
X104625Y162364D01*
X105881Y163090D01*
X106908Y164116D01*
X107633Y165373D01*
X108009Y166775D01*
Y168226D01*
X107633Y169628D01*
X106908Y170885D01*
X105881Y171911D01*
X104625Y172637D01*
X103223Y173012D01*
D02*
G37*
G36*
X28223D02*
X26772D01*
X25370Y172637D01*
X24114Y171911D01*
X23087Y170885D01*
X22362Y169628D01*
X21986Y168226D01*
Y166775D01*
X22362Y165373D01*
X23087Y164116D01*
X24114Y163090D01*
X25370Y162364D01*
X26772Y161989D01*
X28223D01*
X29625Y162364D01*
X30882Y163090D01*
X31908Y164116D01*
X32634Y165373D01*
X33010Y166775D01*
Y168226D01*
X32634Y169628D01*
X31908Y170885D01*
X30882Y171911D01*
X29625Y172637D01*
X28223Y173012D01*
D02*
G37*
G36*
X238976Y148146D02*
X235810D01*
Y145571D01*
X238976D01*
Y148146D01*
D02*
G37*
G36*
X163976D02*
X160810D01*
Y145571D01*
X163976D01*
Y148146D01*
D02*
G37*
G36*
X88976D02*
X85810D01*
Y145571D01*
X88976D01*
Y148146D01*
D02*
G37*
G36*
X269403Y146256D02*
X266828D01*
Y143090D01*
X269403D01*
Y146256D01*
D02*
G37*
G36*
X194403D02*
X191828D01*
Y143090D01*
X194403D01*
Y146256D01*
D02*
G37*
G36*
X44403D02*
X41829D01*
Y143090D01*
X44403D01*
Y146256D01*
D02*
G37*
G36*
X119403D02*
X116828D01*
Y143090D01*
X119403D01*
Y146256D01*
D02*
G37*
G36*
X278088Y146483D02*
Y143090D01*
X281480D01*
X281224Y144044D01*
X280698Y144956D01*
X279953Y145701D01*
X279041Y146227D01*
X278088Y146483D01*
D02*
G37*
G36*
X203088D02*
Y143090D01*
X206480D01*
X206224Y144044D01*
X205698Y144956D01*
X204953Y145701D01*
X204041Y146227D01*
X203088Y146483D01*
D02*
G37*
G36*
X128088D02*
Y143090D01*
X131480D01*
X131225Y144044D01*
X130698Y144956D01*
X129953Y145701D01*
X129041Y146227D01*
X128088Y146483D01*
D02*
G37*
G36*
X53088D02*
Y143090D01*
X56481D01*
X56225Y144044D01*
X55699Y144956D01*
X54954Y145701D01*
X54042Y146227D01*
X53088Y146483D01*
D02*
G37*
G36*
X276907D02*
X275953Y146227D01*
X275041Y145701D01*
X274296Y144956D01*
X273770Y144044D01*
X273514Y143090D01*
X276907D01*
Y146483D01*
D02*
G37*
G36*
X201907D02*
X200953Y146227D01*
X200041Y145701D01*
X199296Y144956D01*
X198770Y144044D01*
X198514Y143090D01*
X201907D01*
Y146483D01*
D02*
G37*
G36*
X126907D02*
X125953Y146227D01*
X125041Y145701D01*
X124296Y144956D01*
X123770Y144044D01*
X123514Y143090D01*
X126907D01*
Y146483D01*
D02*
G37*
G36*
X51907D02*
X50954Y146227D01*
X50042Y145701D01*
X49297Y144956D01*
X48770Y144044D01*
X48515Y143090D01*
X51907D01*
Y146483D01*
D02*
G37*
G36*
X265647Y146256D02*
X263072D01*
Y143090D01*
X265647D01*
Y146256D01*
D02*
G37*
G36*
X190647D02*
X188072D01*
Y143090D01*
X190647D01*
Y146256D01*
D02*
G37*
G36*
X40648D02*
X38073D01*
Y143090D01*
X40648D01*
Y146256D01*
D02*
G37*
G36*
X115647D02*
X113072D01*
Y143090D01*
X115647D01*
Y146256D01*
D02*
G37*
G36*
X269403Y141909D02*
X266828D01*
Y138744D01*
X269403D01*
Y141909D01*
D02*
G37*
G36*
X194403D02*
X191828D01*
Y138744D01*
X194403D01*
Y141909D01*
D02*
G37*
G36*
X119403D02*
X116828D01*
Y138744D01*
X119403D01*
Y141909D01*
D02*
G37*
G36*
X44403D02*
X41829D01*
Y138744D01*
X44403D01*
Y141909D01*
D02*
G37*
G36*
X281480D02*
X278088D01*
Y138517D01*
X279041Y138772D01*
X279953Y139299D01*
X280698Y140044D01*
X281224Y140956D01*
X281480Y141909D01*
D02*
G37*
G36*
X276907D02*
X273514D01*
X273770Y140956D01*
X274296Y140044D01*
X275041Y139299D01*
X275953Y138772D01*
X276907Y138517D01*
Y141909D01*
D02*
G37*
G36*
X278024Y136500D02*
X276971D01*
X275953Y136227D01*
X275041Y135701D01*
X274296Y134956D01*
X273770Y134044D01*
X273497Y133027D01*
Y131973D01*
X273770Y130956D01*
X274296Y130044D01*
X275041Y129299D01*
X275953Y128772D01*
X276971Y128500D01*
X278024D01*
X279041Y128772D01*
X279953Y129299D01*
X280698Y130044D01*
X281224Y130956D01*
X281497Y131973D01*
Y133027D01*
X281224Y134044D01*
X280698Y134956D01*
X279953Y135701D01*
X279041Y136227D01*
X278024Y136500D01*
D02*
G37*
G36*
X243070Y116850D02*
X241924D01*
X240818Y116553D01*
X239826Y115981D01*
X239016Y115171D01*
X238444Y114179D01*
X238147Y113073D01*
Y111927D01*
X238444Y110821D01*
X239016Y109829D01*
X239826Y109019D01*
X240818Y108446D01*
X241924Y108150D01*
X243070D01*
X244176Y108446D01*
X245168Y109019D01*
X245978Y109829D01*
X246551Y110821D01*
X246847Y111927D01*
Y113073D01*
X246551Y114179D01*
X245978Y115171D01*
X245168Y115981D01*
X244176Y116553D01*
X243070Y116850D01*
D02*
G37*
G36*
X208070D02*
X206924D01*
X205818Y116553D01*
X204826Y115981D01*
X204016Y115171D01*
X203444Y114179D01*
X203147Y113073D01*
Y111927D01*
X203444Y110821D01*
X204016Y109829D01*
X204826Y109019D01*
X205818Y108446D01*
X206924Y108150D01*
X208070D01*
X209176Y108446D01*
X210168Y109019D01*
X210978Y109829D01*
X211551Y110821D01*
X211847Y111927D01*
Y113073D01*
X211551Y114179D01*
X210978Y115171D01*
X210168Y115981D01*
X209176Y116553D01*
X208070Y116850D01*
D02*
G37*
G36*
X168070D02*
X166924D01*
X165818Y116553D01*
X164826Y115981D01*
X164016Y115171D01*
X163444Y114179D01*
X163147Y113073D01*
Y111927D01*
X163444Y110821D01*
X164016Y109829D01*
X164826Y109019D01*
X165818Y108446D01*
X166924Y108150D01*
X168070D01*
X169176Y108446D01*
X170168Y109019D01*
X170978Y109829D01*
X171551Y110821D01*
X171847Y111927D01*
Y113073D01*
X171551Y114179D01*
X170978Y115171D01*
X170168Y115981D01*
X169176Y116553D01*
X168070Y116850D01*
D02*
G37*
G36*
X133070D02*
X131924D01*
X130818Y116553D01*
X129826Y115981D01*
X129016Y115171D01*
X128444Y114179D01*
X128147Y113073D01*
Y111927D01*
X128444Y110821D01*
X129016Y109829D01*
X129826Y109019D01*
X130818Y108446D01*
X131924Y108150D01*
X133070D01*
X134176Y108446D01*
X135168Y109019D01*
X135978Y109829D01*
X136551Y110821D01*
X136847Y111927D01*
Y113073D01*
X136551Y114179D01*
X135978Y115171D01*
X135168Y115981D01*
X134176Y116553D01*
X133070Y116850D01*
D02*
G37*
G36*
X93070D02*
X91924D01*
X90818Y116553D01*
X89826Y115981D01*
X89016Y115171D01*
X88444Y114179D01*
X88147Y113073D01*
Y111927D01*
X88444Y110821D01*
X89016Y109829D01*
X89826Y109019D01*
X90818Y108446D01*
X91924Y108150D01*
X93070D01*
X94176Y108446D01*
X95168Y109019D01*
X95978Y109829D01*
X96551Y110821D01*
X96847Y111927D01*
Y113073D01*
X96551Y114179D01*
X95978Y115171D01*
X95168Y115981D01*
X94176Y116553D01*
X93070Y116850D01*
D02*
G37*
G36*
X58071D02*
X56925D01*
X55819Y116553D01*
X54827Y115981D01*
X54017Y115171D01*
X53444Y114179D01*
X53148Y113073D01*
Y111927D01*
X53444Y110821D01*
X54017Y109829D01*
X54827Y109019D01*
X55819Y108446D01*
X56925Y108150D01*
X58071D01*
X59177Y108446D01*
X60169Y109019D01*
X60979Y109829D01*
X61551Y110821D01*
X61848Y111927D01*
Y113073D01*
X61551Y114179D01*
X60979Y115171D01*
X60169Y115981D01*
X59177Y116553D01*
X58071Y116850D01*
D02*
G37*
G36*
X18071D02*
X16925D01*
X15819Y116553D01*
X14827Y115981D01*
X14017Y115171D01*
X13444Y114179D01*
X13148Y113073D01*
Y111927D01*
X13444Y110821D01*
X14017Y109829D01*
X14827Y109019D01*
X15819Y108446D01*
X16925Y108150D01*
X18071D01*
X19177Y108446D01*
X20169Y109019D01*
X20979Y109829D01*
X21552Y110821D01*
X21848Y111927D01*
Y113073D01*
X21552Y114179D01*
X20979Y115171D01*
X20169Y115981D01*
X19177Y116553D01*
X18071Y116850D01*
D02*
G37*
G36*
X263369Y121350D02*
X261626D01*
X259916Y121010D01*
X258305Y120343D01*
X256856Y119374D01*
X255623Y118141D01*
X254654Y116692D01*
X253987Y115081D01*
X253647Y113372D01*
Y111628D01*
X253987Y109918D01*
X254654Y108308D01*
X255623Y106858D01*
X256856Y105626D01*
X258305Y104657D01*
X259916Y103990D01*
X261626Y103650D01*
X263369D01*
X265079Y103990D01*
X266689Y104657D01*
X268139Y105626D01*
X269371Y106858D01*
X270340Y108308D01*
X271007Y109918D01*
X271347Y111628D01*
Y113372D01*
X271007Y115081D01*
X270340Y116692D01*
X269371Y118141D01*
X268139Y119374D01*
X266689Y120343D01*
X265079Y121010D01*
X263369Y121350D01*
D02*
G37*
G36*
X188369D02*
X186626D01*
X184916Y121010D01*
X183305Y120343D01*
X181856Y119374D01*
X180623Y118141D01*
X179654Y116692D01*
X178987Y115081D01*
X178647Y113372D01*
Y111628D01*
X178987Y109918D01*
X179654Y108308D01*
X180623Y106858D01*
X181856Y105626D01*
X183305Y104657D01*
X184916Y103990D01*
X186626Y103650D01*
X188369D01*
X190079Y103990D01*
X191689Y104657D01*
X193139Y105626D01*
X194371Y106858D01*
X195340Y108308D01*
X196007Y109918D01*
X196347Y111628D01*
Y113372D01*
X196007Y115081D01*
X195340Y116692D01*
X194371Y118141D01*
X193139Y119374D01*
X191689Y120343D01*
X190079Y121010D01*
X188369Y121350D01*
D02*
G37*
G36*
X113369D02*
X111626D01*
X109916Y121010D01*
X108305Y120343D01*
X106856Y119374D01*
X105623Y118141D01*
X104654Y116692D01*
X103987Y115081D01*
X103647Y113372D01*
Y111628D01*
X103987Y109918D01*
X104654Y108308D01*
X105623Y106858D01*
X106856Y105626D01*
X108305Y104657D01*
X109916Y103990D01*
X111626Y103650D01*
X113369D01*
X115079Y103990D01*
X116689Y104657D01*
X118139Y105626D01*
X119371Y106858D01*
X120340Y108308D01*
X121007Y109918D01*
X121347Y111628D01*
Y113372D01*
X121007Y115081D01*
X120340Y116692D01*
X119371Y118141D01*
X118139Y119374D01*
X116689Y120343D01*
X115079Y121010D01*
X113369Y121350D01*
D02*
G37*
G36*
X38370D02*
X36626D01*
X34916Y121010D01*
X33306Y120343D01*
X31856Y119374D01*
X30624Y118141D01*
X29655Y116692D01*
X28988Y115081D01*
X28648Y113372D01*
Y111628D01*
X28988Y109918D01*
X29655Y108308D01*
X30624Y106858D01*
X31856Y105626D01*
X33306Y104657D01*
X34916Y103990D01*
X36626Y103650D01*
X38370D01*
X40079Y103990D01*
X41690Y104657D01*
X43139Y105626D01*
X44372Y106858D01*
X45341Y108308D01*
X46008Y109918D01*
X46348Y111628D01*
Y113372D01*
X46008Y115081D01*
X45341Y116692D01*
X44372Y118141D01*
X43139Y119374D01*
X41690Y120343D01*
X40079Y121010D01*
X38370Y121350D01*
D02*
G37*
G36*
X278199Y107831D02*
X276795D01*
X275440Y107467D01*
X274224Y106765D01*
X273232Y105773D01*
X272530Y104558D01*
X272166Y103202D01*
Y101798D01*
X272530Y100442D01*
X273232Y99227D01*
X274224Y98234D01*
X275440Y97532D01*
X276795Y97169D01*
X278199D01*
X279555Y97532D01*
X280770Y98234D01*
X281763Y99227D01*
X282465Y100442D01*
X282828Y101798D01*
Y103202D01*
X282465Y104558D01*
X281763Y105773D01*
X280770Y106765D01*
X279555Y107467D01*
X278199Y107831D01*
D02*
G37*
G36*
X203199D02*
X201795D01*
X200440Y107467D01*
X199224Y106765D01*
X198231Y105773D01*
X197530Y104558D01*
X197166Y103202D01*
Y101798D01*
X197530Y100442D01*
X198231Y99227D01*
X199224Y98234D01*
X200440Y97532D01*
X201795Y97169D01*
X203199D01*
X204555Y97532D01*
X205770Y98234D01*
X206763Y99227D01*
X207465Y100442D01*
X207828Y101798D01*
Y103202D01*
X207465Y104558D01*
X206763Y105773D01*
X205770Y106765D01*
X204555Y107467D01*
X203199Y107831D01*
D02*
G37*
G36*
X128199D02*
X126795D01*
X125440Y107467D01*
X124224Y106765D01*
X123231Y105773D01*
X122530Y104558D01*
X122166Y103202D01*
Y101798D01*
X122530Y100442D01*
X123231Y99227D01*
X124224Y98234D01*
X125440Y97532D01*
X126795Y97169D01*
X128199D01*
X129555Y97532D01*
X130770Y98234D01*
X131763Y99227D01*
X132465Y100442D01*
X132828Y101798D01*
Y103202D01*
X132465Y104558D01*
X131763Y105773D01*
X130770Y106765D01*
X129555Y107467D01*
X128199Y107831D01*
D02*
G37*
G36*
X53200D02*
X51796D01*
X50440Y107467D01*
X49225Y106765D01*
X48232Y105773D01*
X47530Y104558D01*
X47167Y103202D01*
Y101798D01*
X47530Y100442D01*
X48232Y99227D01*
X49225Y98234D01*
X50440Y97532D01*
X51796Y97169D01*
X53200D01*
X54555Y97532D01*
X55771Y98234D01*
X56763Y99227D01*
X57465Y100442D01*
X57829Y101798D01*
Y103202D01*
X57465Y104558D01*
X56763Y105773D01*
X55771Y106765D01*
X54555Y107467D01*
X53200Y107831D01*
D02*
G37*
G36*
X253223Y98012D02*
X251771D01*
X250370Y97636D01*
X249113Y96910D01*
X248087Y95884D01*
X247361Y94627D01*
X246985Y93226D01*
Y91774D01*
X247361Y90372D01*
X248087Y89116D01*
X249113Y88089D01*
X250370Y87364D01*
X251771Y86988D01*
X253223D01*
X254625Y87364D01*
X255881Y88089D01*
X256908Y89116D01*
X257633Y90372D01*
X258009Y91774D01*
Y93226D01*
X257633Y94627D01*
X256908Y95884D01*
X255881Y96910D01*
X254625Y97636D01*
X253223Y98012D01*
D02*
G37*
G36*
X178223D02*
X176771D01*
X175370Y97636D01*
X174113Y96910D01*
X173087Y95884D01*
X172361Y94627D01*
X171985Y93226D01*
Y91774D01*
X172361Y90372D01*
X173087Y89116D01*
X174113Y88089D01*
X175370Y87364D01*
X176771Y86988D01*
X178223D01*
X179625Y87364D01*
X180881Y88089D01*
X181908Y89116D01*
X182633Y90372D01*
X183009Y91774D01*
Y93226D01*
X182633Y94627D01*
X181908Y95884D01*
X180881Y96910D01*
X179625Y97636D01*
X178223Y98012D01*
D02*
G37*
G36*
X103223D02*
X101771D01*
X100370Y97636D01*
X99113Y96910D01*
X98087Y95884D01*
X97361Y94627D01*
X96985Y93226D01*
Y91774D01*
X97361Y90372D01*
X98087Y89116D01*
X99113Y88089D01*
X100370Y87364D01*
X101771Y86988D01*
X103223D01*
X104625Y87364D01*
X105881Y88089D01*
X106908Y89116D01*
X107633Y90372D01*
X108009Y91774D01*
Y93226D01*
X107633Y94627D01*
X106908Y95884D01*
X105881Y96910D01*
X104625Y97636D01*
X103223Y98012D01*
D02*
G37*
G36*
X28223D02*
X26772D01*
X25370Y97636D01*
X24114Y96910D01*
X23087Y95884D01*
X22362Y94627D01*
X21986Y93226D01*
Y91774D01*
X22362Y90372D01*
X23087Y89116D01*
X24114Y88089D01*
X25370Y87364D01*
X26772Y86988D01*
X28223D01*
X29625Y87364D01*
X30882Y88089D01*
X31908Y89116D01*
X32634Y90372D01*
X33010Y91774D01*
Y93226D01*
X32634Y94627D01*
X31908Y95884D01*
X30882Y96910D01*
X29625Y97636D01*
X28223Y98012D01*
D02*
G37*
G36*
X163976Y73146D02*
X160810D01*
Y70571D01*
X163976D01*
Y73146D01*
D02*
G37*
G36*
X269403Y71256D02*
X266828D01*
Y68090D01*
X269403D01*
Y71256D01*
D02*
G37*
G36*
X194403D02*
X191828D01*
Y68090D01*
X194403D01*
Y71256D01*
D02*
G37*
G36*
X44403D02*
X41829D01*
Y68090D01*
X44403D01*
Y71256D01*
D02*
G37*
G36*
X119403D02*
X116828D01*
Y68090D01*
X119403D01*
Y71256D01*
D02*
G37*
G36*
X278088Y71483D02*
Y68090D01*
X281480D01*
X281224Y69044D01*
X280698Y69956D01*
X279953Y70701D01*
X279041Y71227D01*
X278088Y71483D01*
D02*
G37*
G36*
X203088D02*
Y68090D01*
X206480D01*
X206224Y69044D01*
X205698Y69956D01*
X204953Y70701D01*
X204041Y71227D01*
X203088Y71483D01*
D02*
G37*
G36*
X128088D02*
Y68090D01*
X131480D01*
X131225Y69044D01*
X130698Y69956D01*
X129953Y70701D01*
X129041Y71227D01*
X128088Y71483D01*
D02*
G37*
G36*
X53088D02*
Y68090D01*
X56481D01*
X56225Y69044D01*
X55699Y69956D01*
X54954Y70701D01*
X54042Y71227D01*
X53088Y71483D01*
D02*
G37*
G36*
X276907D02*
X275953Y71227D01*
X275041Y70701D01*
X274296Y69956D01*
X273770Y69044D01*
X273514Y68090D01*
X276907D01*
Y71483D01*
D02*
G37*
G36*
X201907D02*
X200953Y71227D01*
X200041Y70701D01*
X199296Y69956D01*
X198770Y69044D01*
X198514Y68090D01*
X201907D01*
Y71483D01*
D02*
G37*
G36*
X126907D02*
X125953Y71227D01*
X125041Y70701D01*
X124296Y69956D01*
X123770Y69044D01*
X123514Y68090D01*
X126907D01*
Y71483D01*
D02*
G37*
G36*
X51907D02*
X50954Y71227D01*
X50042Y70701D01*
X49297Y69956D01*
X48770Y69044D01*
X48515Y68090D01*
X51907D01*
Y71483D01*
D02*
G37*
G36*
X265647Y71256D02*
X263072D01*
Y68090D01*
X265647D01*
Y71256D01*
D02*
G37*
G36*
X190647D02*
X188072D01*
Y68090D01*
X190647D01*
Y71256D01*
D02*
G37*
G36*
X40648D02*
X38073D01*
Y68090D01*
X40648D01*
Y71256D01*
D02*
G37*
G36*
X115647D02*
X113072D01*
Y68090D01*
X115647D01*
Y71256D01*
D02*
G37*
G36*
X269403Y66909D02*
X266828D01*
Y63744D01*
X269403D01*
Y66909D01*
D02*
G37*
G36*
X194403D02*
X191828D01*
Y63744D01*
X194403D01*
Y66909D01*
D02*
G37*
G36*
X119403D02*
X116828D01*
Y63744D01*
X119403D01*
Y66909D01*
D02*
G37*
G36*
X44403D02*
X41829D01*
Y63744D01*
X44403D01*
Y66909D01*
D02*
G37*
G36*
X281480D02*
X278088D01*
Y63517D01*
X279041Y63773D01*
X279953Y64299D01*
X280698Y65044D01*
X281224Y65956D01*
X281480Y66909D01*
D02*
G37*
G36*
X276907D02*
X273514D01*
X273770Y65956D01*
X274296Y65044D01*
X275041Y64299D01*
X275953Y63773D01*
X276907Y63517D01*
Y66909D01*
D02*
G37*
G36*
X278024Y61500D02*
X276971D01*
X275953Y61227D01*
X275041Y60701D01*
X274296Y59956D01*
X273770Y59044D01*
X273497Y58027D01*
Y56973D01*
X273770Y55956D01*
X274296Y55044D01*
X275041Y54299D01*
X275953Y53773D01*
X276971Y53500D01*
X278024D01*
X279041Y53773D01*
X279953Y54299D01*
X280698Y55044D01*
X281224Y55956D01*
X281497Y56973D01*
Y58027D01*
X281224Y59044D01*
X280698Y59956D01*
X279953Y60701D01*
X279041Y61227D01*
X278024Y61500D01*
D02*
G37*
%LPD*%
D26*
X239566Y294981D02*
D03*
Y287501D02*
D03*
X164566Y294981D02*
D03*
Y287501D02*
D03*
X89566Y294981D02*
D03*
Y287501D02*
D03*
X14567Y294981D02*
D03*
Y287501D02*
D03*
X239566Y219981D02*
D03*
Y212501D02*
D03*
X164566Y219981D02*
D03*
Y212501D02*
D03*
X89566Y219981D02*
D03*
Y212501D02*
D03*
X14567Y219981D02*
D03*
Y212501D02*
D03*
X239566Y144980D02*
D03*
Y137500D02*
D03*
X164566Y144980D02*
D03*
Y137500D02*
D03*
X89566Y144980D02*
D03*
Y137500D02*
D03*
X14567Y144980D02*
D03*
Y137500D02*
D03*
X239566Y69980D02*
D03*
Y62500D02*
D03*
X164566Y69980D02*
D03*
Y62500D02*
D03*
X89566Y69980D02*
D03*
Y62500D02*
D03*
X14567Y69980D02*
D03*
Y62500D02*
D03*
D27*
X258757Y292501D02*
D03*
X266237D02*
D03*
X183757D02*
D03*
X191237D02*
D03*
X108757D02*
D03*
X116237D02*
D03*
X33758D02*
D03*
X41238D02*
D03*
X258757Y217501D02*
D03*
X266237D02*
D03*
X183757D02*
D03*
X191237D02*
D03*
X108757D02*
D03*
X116237D02*
D03*
X33758D02*
D03*
X41238D02*
D03*
X258757Y142500D02*
D03*
X266237D02*
D03*
X183757D02*
D03*
X191237D02*
D03*
X108757D02*
D03*
X116237D02*
D03*
X33758D02*
D03*
X41238D02*
D03*
X258757Y67500D02*
D03*
X266237D02*
D03*
X183757D02*
D03*
X191237D02*
D03*
X108757D02*
D03*
X116237D02*
D03*
X33758D02*
D03*
X41238D02*
D03*
D29*
X289887Y94168D02*
X294291Y98572D01*
X289887Y86373D02*
Y94168D01*
Y86373D02*
X290158Y86102D01*
X284252Y82008D02*
X290158Y76102D01*
X284252Y82008D02*
Y92987D01*
X291142Y99876D01*
X290158Y66102D02*
X290158D01*
X281102Y75157D02*
X290158Y66102D01*
Y76102D02*
X290158D01*
X247497Y207501D02*
X254308Y200690D01*
X284547D01*
X291142Y99876D02*
Y194095D01*
X284547Y200690D02*
X291142Y194095D01*
X90686Y200690D02*
X97497Y207501D01*
X22498D02*
X29309Y200690D01*
X90686D01*
X240686D02*
X247497Y207501D01*
X172497D02*
X179308Y200690D01*
X240686D01*
X165686D02*
X172497Y207501D01*
X97497D02*
X104308Y200690D01*
X165686D01*
X279036Y125689D02*
X287992Y116733D01*
X247497Y132500D02*
X254308Y125689D01*
X279036D01*
X287992Y101181D02*
Y116733D01*
X281102Y94291D02*
X287992Y101181D01*
X90686Y125689D02*
X97497Y132500D01*
X22498D02*
X29309Y125689D01*
X90686D01*
X240686D02*
X247497Y132500D01*
X172497D02*
X179308Y125689D01*
X240686D01*
X165686D02*
X172497Y132500D01*
X97497D02*
X104308Y125689D01*
X165686D01*
X281102Y75157D02*
Y94291D01*
X288877Y275690D02*
X294291Y270276D01*
X254308Y275690D02*
X288877D01*
X247497Y282501D02*
X254308Y275690D01*
X294291Y107480D02*
X294291Y270276D01*
X294291Y98572D02*
Y107480D01*
X90686Y275690D02*
X97497Y282501D01*
X22498D02*
X29309Y275690D01*
X90686D01*
X240686D02*
X247497Y282501D01*
X172497D02*
X179308Y275690D01*
X240686D01*
X165686D02*
X172497Y282501D01*
X97497D02*
X104308Y275690D01*
X165686D01*
X284744Y50689D02*
X290158Y56102D01*
X254308Y50689D02*
X284744D01*
X290158Y56102D02*
X290158D01*
X247497Y57500D02*
X254308Y50689D01*
X179308D02*
X240686D01*
X247497Y57500D01*
X172497D02*
X179308Y50689D01*
X104308D02*
X165686D01*
X172497Y57500D01*
X97497D02*
X104308Y50689D01*
X29309D02*
X90686D01*
X97497Y57500D01*
X22498D02*
X29309Y50689D01*
D30*
X282716Y373661D02*
X290158D01*
X248937Y339882D02*
X282716Y373661D01*
X149997Y339882D02*
X248937D01*
D31*
X14469Y62402D02*
X14567Y62500D01*
X7677Y62402D02*
X14469D01*
X14567Y62500D02*
X37498D01*
X7874Y287501D02*
X37498D01*
X7874Y212501D02*
X37498D01*
X7874Y137500D02*
X37498D01*
Y62500D02*
X42498Y57500D01*
X37498Y287501D02*
X42498Y282501D01*
X37498Y137500D02*
X42498Y132500D01*
X37498Y212501D02*
X42498Y207501D01*
X192497Y282501D02*
X197497Y287501D01*
X262496D01*
X267496Y282501D01*
X117497D02*
X122497Y287501D01*
X187496D01*
X192496Y282501D01*
X42498D02*
X47498Y287501D01*
X112497D01*
X117497Y282501D01*
X192497Y207501D02*
X197497Y212501D01*
X262496D01*
X267496Y207501D01*
X117497D02*
X122497Y212501D01*
X187496D01*
X192496Y207501D01*
X42498D02*
X47498Y212501D01*
X112497D01*
X117497Y207501D01*
X192497Y132500D02*
X197497Y137500D01*
X262496D01*
X267496Y132500D01*
X117497D02*
X122497Y137500D01*
X187496D01*
X192496Y132500D01*
X42498D02*
X47498Y137500D01*
X112497D01*
X117497Y132500D01*
X192497Y57500D02*
X197497Y62500D01*
X262496D01*
X267496Y57500D01*
X117497D02*
X122497Y62500D01*
X187496D01*
X192496Y57500D01*
X112497Y62500D02*
X117497Y57500D01*
X47498Y62500D02*
X112497D01*
X42498Y57500D02*
X47498Y62500D01*
D32*
X292618Y6102D02*
D03*
Y16102D02*
D03*
Y26102D02*
D03*
Y36102D02*
D03*
Y56102D02*
D03*
Y66102D02*
D03*
Y76102D02*
D03*
Y86102D02*
D03*
Y373661D02*
D03*
Y303661D02*
D03*
Y313661D02*
D03*
Y353661D02*
D03*
Y363661D02*
D03*
Y323661D02*
D03*
Y343661D02*
D03*
Y333661D02*
D03*
Y383661D02*
D03*
D33*
X149997Y329882D02*
D03*
D34*
Y339882D02*
D03*
Y349882D02*
D03*
Y359882D02*
D03*
X267497Y282501D02*
D03*
X257497D02*
D03*
X247497D02*
D03*
X277497D02*
D03*
Y292501D02*
D03*
X247497D02*
D03*
X192497Y282501D02*
D03*
X182497D02*
D03*
X172497D02*
D03*
X202497D02*
D03*
Y292501D02*
D03*
X172497D02*
D03*
X117497Y282501D02*
D03*
X107497D02*
D03*
X97497D02*
D03*
X127497D02*
D03*
Y292501D02*
D03*
X97497D02*
D03*
X42498Y282501D02*
D03*
X32498D02*
D03*
X22498D02*
D03*
X52498D02*
D03*
Y292501D02*
D03*
X22498D02*
D03*
X267497Y207501D02*
D03*
X257497D02*
D03*
X247497D02*
D03*
X277497D02*
D03*
Y217501D02*
D03*
X247497D02*
D03*
X192497Y207501D02*
D03*
X182497D02*
D03*
X172497D02*
D03*
X202497D02*
D03*
Y217501D02*
D03*
X172497D02*
D03*
X117497Y207501D02*
D03*
X107497D02*
D03*
X97497D02*
D03*
X127497D02*
D03*
Y217501D02*
D03*
X97497D02*
D03*
X42498Y207501D02*
D03*
X32498D02*
D03*
X22498D02*
D03*
X52498D02*
D03*
Y217501D02*
D03*
X22498D02*
D03*
X267497Y132500D02*
D03*
X257497D02*
D03*
X247497D02*
D03*
X277497D02*
D03*
Y142500D02*
D03*
X247497D02*
D03*
X192497Y132500D02*
D03*
X182497D02*
D03*
X172497D02*
D03*
X202497D02*
D03*
Y142500D02*
D03*
X172497D02*
D03*
X117497Y132500D02*
D03*
X107497D02*
D03*
X97497D02*
D03*
X127497D02*
D03*
Y142500D02*
D03*
X97497D02*
D03*
X42498Y132500D02*
D03*
X32498D02*
D03*
X22498D02*
D03*
X52498D02*
D03*
Y142500D02*
D03*
X22498D02*
D03*
X267497Y57500D02*
D03*
X257497D02*
D03*
X247497D02*
D03*
X277497D02*
D03*
Y67500D02*
D03*
X247497D02*
D03*
X192497Y57500D02*
D03*
X182497D02*
D03*
X172497D02*
D03*
X202497D02*
D03*
Y67500D02*
D03*
X172497D02*
D03*
X117497Y57500D02*
D03*
X107497D02*
D03*
X97497D02*
D03*
X127497D02*
D03*
Y67500D02*
D03*
X97497D02*
D03*
X42498Y57500D02*
D03*
X32498D02*
D03*
X22498D02*
D03*
X52498D02*
D03*
Y67500D02*
D03*
X22498D02*
D03*
D35*
X261339Y375590D02*
D03*
X66041Y346408D02*
D03*
Y366093D02*
D03*
X8955Y346408D02*
D03*
Y356251D02*
D03*
Y366093D02*
D03*
D36*
X271339Y375590D02*
D03*
D37*
X242497Y262501D02*
D03*
X282497D02*
D03*
X167497D02*
D03*
X207497D02*
D03*
X92497D02*
D03*
X132497D02*
D03*
X17498D02*
D03*
X57498D02*
D03*
X242497Y187501D02*
D03*
X282497D02*
D03*
X167497D02*
D03*
X207497D02*
D03*
X92497D02*
D03*
X132497D02*
D03*
X17498D02*
D03*
X57498D02*
D03*
X242497Y112500D02*
D03*
X282497D02*
D03*
X167497D02*
D03*
X207497D02*
D03*
X92497D02*
D03*
X132497D02*
D03*
X17498D02*
D03*
X57498D02*
D03*
X242497Y37500D02*
D03*
X282497D02*
D03*
X167497D02*
D03*
X207497D02*
D03*
X92497D02*
D03*
X132497D02*
D03*
X17498D02*
D03*
X57498D02*
D03*
D38*
X252497Y242501D02*
D03*
X277497Y252501D02*
D03*
X177497Y242501D02*
D03*
X202497Y252501D02*
D03*
X102497Y242501D02*
D03*
X127497Y252501D02*
D03*
X27498Y242501D02*
D03*
X52498Y252501D02*
D03*
X252497Y167501D02*
D03*
X277497Y177501D02*
D03*
X177497Y167501D02*
D03*
X202497Y177501D02*
D03*
X102497Y167501D02*
D03*
X127497Y177501D02*
D03*
X27498Y167501D02*
D03*
X52498Y177501D02*
D03*
X252497Y92500D02*
D03*
X277497Y102500D02*
D03*
X177497Y92500D02*
D03*
X202497Y102500D02*
D03*
X102497Y92500D02*
D03*
X127497Y102500D02*
D03*
X27498Y92500D02*
D03*
X52498Y102500D02*
D03*
X252497Y17500D02*
D03*
X277497Y27500D02*
D03*
X177497Y17500D02*
D03*
X202497Y27500D02*
D03*
X102497Y17500D02*
D03*
X127497Y27500D02*
D03*
X27498Y17500D02*
D03*
X52498Y27500D02*
D03*
D39*
X262497Y262501D02*
D03*
X187497D02*
D03*
X112497D02*
D03*
X37498D02*
D03*
X262497Y187501D02*
D03*
X187497D02*
D03*
X112497D02*
D03*
X37498D02*
D03*
X262497Y112500D02*
D03*
X187497D02*
D03*
X112497D02*
D03*
X37498D02*
D03*
X262497Y37500D02*
D03*
X187497D02*
D03*
X112497D02*
D03*
X37498D02*
D03*
D40*
X224997Y300001D02*
D03*
X74997D02*
D03*
X224997Y225001D02*
D03*
X74997D02*
D03*
X224997Y75000D02*
D03*
X74997D02*
D03*
D41*
X266237Y304233D02*
D03*
X191237D02*
D03*
X116237D02*
D03*
X41238D02*
D03*
Y229233D02*
D03*
X116237D02*
D03*
X191237D02*
D03*
X266237D02*
D03*
Y79232D02*
D03*
X191237D02*
D03*
X116237D02*
D03*
X41238D02*
D03*
Y154232D02*
D03*
X116237D02*
D03*
X191237D02*
D03*
X266237D02*
D03*
Y73366D02*
D03*
X191237D02*
D03*
X116237D02*
D03*
X41238D02*
D03*
Y148366D02*
D03*
X116237D02*
D03*
X191237D02*
D03*
X266237D02*
D03*
Y298367D02*
D03*
X191237D02*
D03*
X116237D02*
D03*
X41238D02*
D03*
X266237Y223367D02*
D03*
X191237D02*
D03*
X116237D02*
D03*
X41238D02*
D03*
X77165Y335039D02*
D03*
Y352756D02*
D03*
Y370472D02*
D03*
X83071Y335039D02*
D03*
Y352756D02*
D03*
Y370472D02*
D03*
M02*
