M48
;Layer_Color=9474304
;FILE_FORMAT=2:4
INCH,LZ
;TYPE=PLATED
T1F00S00C0.0118
T2F00S00C0.0300
T3F00S00C0.0350
T4F00S00C0.0433
T5F00S00C0.0590
T6F00S00C0.0591
T7F00S00C0.0670
;TYPE=NON_PLATED
T8F00S00C0.1063
T9F00S00C0.1570
%
T01
X026624Y007337
Y007923
Y014837
Y015423
X019124
Y014837
Y007923
Y007337
X011624
Y007923
Y014837
Y015423
X004124
Y014837
Y007923
Y007337
Y022337
Y022923
Y029837
Y030423
X007717Y033504
X008307
Y035276
X007717
X011624Y030423
Y029837
Y022923
Y022337
X019124
Y022923
Y029837
Y030423
X026624
Y029837
Y022923
Y022337
X008307Y037047
X007717
T02
X02025Y00575
Y00675
X02475
Y00575
X02575
X02675
X02775
Y00675
Y01325
X02675
X02575
X02475
Y01425
X02775
X02025
Y01325
X01925
X01825
X01725
Y01425
X01275
Y01325
X01175
X01075
X00975
Y01425
X00525
Y01325
Y00675
Y00575
X00975
X01075
X01175
X01275
Y00675
X00975
X01725
Y00575
X01825
X01925
X00425
X00325
X00225
Y00675
Y01325
X00325
X00425
X00225Y01425
Y02075
X00325
X00425
X00225Y02175
Y02825
X00325
X00425
X00225Y02925
X00525
Y02825
X00975
X01075
X01175
X01275
Y02925
X00975
X01725
Y02825
X01825
X01925
Y02075
X01825
X01725
Y02175
X01275
Y02075
X01175
X01075
X00975
Y02175
X00525
Y02075
X02025
Y02175
X02475
Y02075
X02575
X02675
X02775
Y02175
Y02825
X02675
X02575
X02475
Y02925
X02775
X02025
Y02825
T03
X015Y032988
Y033988
Y034988
Y035988
T04
X029498Y00061
Y00161
Y00261
Y00361
Y00561
Y00661
Y00761
Y00861
X000895Y034641
Y035625
X006604Y034641
X029498Y034366
Y035366
Y033366
Y032366
Y031366
Y030366
Y036366
Y037366
Y038366
X027134Y037559
X026134
X006604Y036609
X000895
T05
X00525Y00275
X01275
X02025
X02775
Y01025
X02025
Y01775
X02775
X01275
X00525
Y01025
X01275
Y02525
X00525
X02025
X02775
T06
X00275Y00175
X01025
X01775
X02525
Y00925
Y01675
X01775
X01025
Y00925
X01775
X00275
Y01675
Y02425
X01025
X01775
X02525
T07
X00175Y00375
X00575
X00925
X01325
X01675
X02075
X02425
X02825
Y01125
X02425
X02075
Y01875
X02425
X02825
X01675
X01325
X00925
X00575
Y01125
X00925
X01325
X01675
X00175
Y01875
Y02625
X00575
X00925
X01325
X01675
X02075
X02425
X02825
T08
X0225Y0075
X0075
Y0225
Y03
X0225
Y0225
T09
X00375Y00375
X01125
X01875
X02625
Y01125
Y01875
X01875
X01125
Y01125
X01875
X00375
Y01875
Y02625
X01125
X01875
X02625
M30
