G04*
G04 #@! TF.GenerationSoftware,Altium Limited,Altium Designer,22.5.1 (42)*
G04*
G04 Layer_Physical_Order=1*
G04 Layer_Color=255*
%FSLAX25Y25*%
%MOIN*%
G70*
G04*
G04 #@! TF.SameCoordinates,A209DC94-0A87-40FC-B198-68C7A1A1665B*
G04*
G04*
G04 #@! TF.FilePolarity,Positive*
G04*
G01*
G75*
%ADD26R,0.05512X0.04331*%
%ADD27R,0.04331X0.05512*%
%ADD28R,0.08661X0.08661*%
%ADD29C,0.01181*%
%ADD30C,0.02362*%
%ADD31C,0.01575*%
%ADD32O,0.11811X0.06890*%
%ADD33R,0.06000X0.06000*%
%ADD34C,0.06000*%
%ADD35C,0.06299*%
%ADD36R,0.06299X0.06299*%
%ADD37C,0.06700*%
%ADD38C,0.08661*%
%ADD39C,0.15700*%
%ADD40C,0.10630*%
%ADD41C,0.01968*%
G36*
X287654Y387343D02*
X286987Y386831D01*
X286275Y385903D01*
X285827Y384822D01*
X285674Y383661D01*
X285827Y382501D01*
X286275Y381420D01*
X286987Y380491D01*
X287916Y379779D01*
X288997Y379331D01*
X290158Y379178D01*
X295079D01*
X296239Y379331D01*
X297320Y379779D01*
X297579Y379977D01*
X298579Y379484D01*
Y377839D01*
X297579Y377345D01*
X297320Y377544D01*
X296239Y377992D01*
X295079Y378145D01*
X290158D01*
X288997Y377992D01*
X287916Y377544D01*
X286987Y376832D01*
X286275Y375903D01*
X285827Y374822D01*
X285674Y373661D01*
X285827Y372501D01*
X286275Y371420D01*
X286987Y370491D01*
X287916Y369779D01*
X288997Y369331D01*
X290158Y369178D01*
X295079D01*
X296239Y369331D01*
X297320Y369779D01*
X297579Y369977D01*
X298579Y369484D01*
Y367839D01*
X297579Y367345D01*
X297320Y367544D01*
X296239Y367992D01*
X295079Y368145D01*
X293209D01*
Y363661D01*
Y359178D01*
X295079D01*
X296239Y359331D01*
X297320Y359779D01*
X297579Y359977D01*
X298579Y359484D01*
Y357839D01*
X297579Y357346D01*
X297320Y357544D01*
X296239Y357992D01*
X295079Y358145D01*
X290158D01*
X288997Y357992D01*
X287916Y357544D01*
X286987Y356832D01*
X286275Y355903D01*
X286267Y355885D01*
X275803D01*
X263562Y368126D01*
Y372083D01*
X263886Y372270D01*
X264659Y373043D01*
X265205Y373989D01*
X265488Y375044D01*
Y376137D01*
X265205Y377192D01*
X264659Y378138D01*
X263886Y378911D01*
X262940Y379457D01*
X261885Y379740D01*
X260792D01*
X259737Y379457D01*
X258791Y378911D01*
X258018Y378138D01*
X257472Y377192D01*
X257189Y376137D01*
Y375044D01*
X257472Y373989D01*
X258018Y373043D01*
X258791Y372270D01*
X259115Y372083D01*
Y367205D01*
X259115Y367205D01*
X259284Y366354D01*
X259766Y365632D01*
X273309Y352089D01*
X273309Y352089D01*
X274031Y351607D01*
X274882Y351438D01*
X286267D01*
X286275Y351420D01*
X286987Y350491D01*
X287916Y349779D01*
X288997Y349331D01*
X289558Y349257D01*
X289558Y348248D01*
X288950Y348168D01*
X287825Y347702D01*
X286858Y346961D01*
X286117Y345994D01*
X285898Y345468D01*
X272638D01*
X256946Y361159D01*
X256360Y361551D01*
X255669Y361689D01*
X167717D01*
Y363189D01*
X167611D01*
X167535Y364158D01*
X167535D01*
Y370488D01*
X160024D01*
Y368945D01*
X146457D01*
X145836Y368821D01*
X145310Y368470D01*
X142554Y365714D01*
X142202Y365188D01*
X142079Y364567D01*
Y346179D01*
X142202Y345558D01*
X142554Y345032D01*
X146247Y341339D01*
X145997Y340409D01*
Y339356D01*
X146270Y338338D01*
X146796Y337426D01*
X147541Y336681D01*
X148453Y336155D01*
X149470Y335882D01*
X150524D01*
X151541Y336155D01*
X152453Y336681D01*
X153198Y337426D01*
X153680Y338261D01*
X160748D01*
X161369Y338384D01*
X161895Y338736D01*
X162317Y339158D01*
X167535D01*
Y345488D01*
X167535D01*
X167611Y346457D01*
X167717D01*
Y348076D01*
X250157D01*
X265849Y332384D01*
X266435Y331993D01*
X267126Y331855D01*
X285898D01*
X286117Y331329D01*
X286858Y330362D01*
X287825Y329621D01*
X288950Y329154D01*
X289558Y329074D01*
X289558Y328066D01*
X288997Y327992D01*
X287916Y327544D01*
X286987Y326832D01*
X286275Y325903D01*
X286018Y325283D01*
X277913D01*
X277293Y325160D01*
X276767Y324808D01*
X270391Y318433D01*
X244935D01*
X238795Y324572D01*
X238269Y324923D01*
X237649Y325047D01*
X154395D01*
X153997Y325882D01*
X153997Y326047D01*
Y329292D01*
X145997D01*
Y326047D01*
X145997Y325882D01*
X145599Y325047D01*
X135514D01*
X120519Y340042D01*
Y364370D01*
X120396Y364991D01*
X120044Y365517D01*
X113942Y371619D01*
X113416Y371971D01*
X112795Y372094D01*
X99622D01*
Y374228D01*
X99622D01*
Y374984D01*
X99622D01*
Y382496D01*
X93291D01*
Y382283D01*
X92142D01*
Y382496D01*
X85811D01*
Y380362D01*
X61024D01*
X60403Y380238D01*
X59877Y379887D01*
X47705Y367715D01*
X12810D01*
X12275Y368641D01*
X11502Y369414D01*
X10556Y369960D01*
X9501Y370243D01*
X8408D01*
X7353Y369960D01*
X6407Y369414D01*
X5634Y368641D01*
X5088Y367695D01*
X4805Y366639D01*
Y365547D01*
X5088Y364492D01*
X5634Y363545D01*
X6407Y362773D01*
X7353Y362226D01*
X8408Y361944D01*
X9501D01*
X10556Y362226D01*
X11502Y362773D01*
X12275Y363545D01*
X12810Y364472D01*
X48377D01*
X48997Y364595D01*
X49523Y364947D01*
X61695Y377118D01*
X85811D01*
Y374984D01*
X85811D01*
Y374228D01*
X85811D01*
Y371063D01*
X88976D01*
Y370472D01*
X89567D01*
Y366717D01*
X92142D01*
Y366929D01*
X93291D01*
Y366717D01*
X99622D01*
Y368851D01*
X112124D01*
X117276Y363698D01*
Y351983D01*
X116276Y351569D01*
X113942Y353903D01*
X113416Y354254D01*
X112795Y354378D01*
X99622D01*
Y356512D01*
X99622D01*
Y357268D01*
X99622D01*
Y364779D01*
X93291D01*
Y364567D01*
X92142D01*
Y364779D01*
X85811D01*
Y362645D01*
X70669D01*
X70049Y362522D01*
X69523Y362170D01*
X55382Y348030D01*
X12810D01*
X12275Y348956D01*
X11502Y349729D01*
X10556Y350275D01*
X9501Y350558D01*
X8408D01*
X7353Y350275D01*
X6407Y349729D01*
X5634Y348956D01*
X5088Y348010D01*
X4805Y346954D01*
Y345862D01*
X5088Y344807D01*
X5634Y343860D01*
X6407Y343088D01*
X7353Y342541D01*
X8408Y342259D01*
X9501D01*
X10556Y342541D01*
X11502Y343088D01*
X12275Y343860D01*
X12810Y344786D01*
X56054D01*
X56674Y344910D01*
X57200Y345261D01*
X71341Y359402D01*
X85811D01*
Y357268D01*
X85811D01*
Y356512D01*
X85811D01*
Y353346D01*
X88976D01*
Y352756D01*
X89567D01*
Y349000D01*
X92142D01*
Y349213D01*
X93291D01*
Y349000D01*
X99622D01*
Y351134D01*
X112124D01*
X114126Y349131D01*
Y338066D01*
X114207Y337661D01*
X113817Y336946D01*
X113571Y336661D01*
X99622D01*
Y338795D01*
X99622D01*
Y339551D01*
X99622D01*
Y347063D01*
X93291D01*
Y346850D01*
X92142D01*
Y347063D01*
X85811D01*
Y344929D01*
X70857D01*
X70164Y345760D01*
X70191Y345862D01*
Y346954D01*
X69908Y348010D01*
X69362Y348956D01*
X68589Y349729D01*
X67643Y350275D01*
X66588Y350558D01*
X65495D01*
X64439Y350275D01*
X63493Y349729D01*
X62721Y348956D01*
X62174Y348010D01*
X61892Y346954D01*
Y345862D01*
X62174Y344807D01*
X62721Y343860D01*
X63493Y343088D01*
X64439Y342541D01*
X65495Y342259D01*
X66588D01*
X67643Y342541D01*
X68105Y342808D01*
X68753Y342160D01*
X69279Y341809D01*
X69900Y341685D01*
X85811D01*
Y339551D01*
X85811D01*
Y338795D01*
X85811D01*
Y335630D01*
X88976D01*
Y335039D01*
X89567D01*
Y331283D01*
X92142D01*
Y331496D01*
X93291D01*
Y331283D01*
X99622D01*
Y333418D01*
X113648D01*
X131087Y315979D01*
X131613Y315628D01*
X132233Y315504D01*
X232283D01*
X232283Y315504D01*
X234368D01*
X240507Y309365D01*
X241033Y309014D01*
X241653Y308890D01*
X270391D01*
X276767Y302515D01*
X277293Y302163D01*
X277913Y302040D01*
X286018D01*
X286275Y301420D01*
X286987Y300491D01*
X287916Y299779D01*
X288997Y299331D01*
X290158Y299178D01*
X295079D01*
X296239Y299331D01*
X297320Y299779D01*
X297579Y299977D01*
X298579Y299484D01*
Y90508D01*
X297579Y90015D01*
X297412Y90143D01*
X296286Y90609D01*
X295079Y90768D01*
X290158D01*
X288950Y90609D01*
X287825Y90143D01*
X286858Y89402D01*
X286117Y88435D01*
X285650Y87310D01*
X285492Y86102D01*
X285650Y84895D01*
X286117Y83769D01*
X286858Y82803D01*
X287825Y82062D01*
X288950Y81595D01*
Y80609D01*
X287825Y80143D01*
X286858Y79402D01*
X286117Y78435D01*
X285650Y77310D01*
X285492Y76102D01*
X285650Y74895D01*
X286117Y73769D01*
X286858Y72803D01*
X287825Y72062D01*
X288950Y71596D01*
Y70609D01*
X287825Y70143D01*
X286858Y69402D01*
X286117Y68435D01*
X285650Y67310D01*
X285492Y66102D01*
X285650Y64895D01*
X286117Y63769D01*
X286858Y62803D01*
X287825Y62062D01*
X288950Y61595D01*
Y60609D01*
X287825Y60143D01*
X286858Y59402D01*
X286117Y58435D01*
X285650Y57310D01*
X285492Y56102D01*
X285650Y54895D01*
X286117Y53769D01*
X286858Y52803D01*
X287825Y52062D01*
X288950Y51595D01*
X290158Y51437D01*
X295079D01*
X296286Y51595D01*
X297412Y52062D01*
X297579Y52190D01*
X298579Y51697D01*
Y40508D01*
X297579Y40015D01*
X297412Y40143D01*
X296286Y40609D01*
X295079Y40768D01*
X290158D01*
X288950Y40609D01*
X287825Y40143D01*
X287356Y39784D01*
X286163Y39941D01*
X286069Y40013D01*
X285978Y40171D01*
X285168Y40981D01*
X284176Y41554D01*
X283070Y41850D01*
X281924D01*
X280818Y41554D01*
X280119Y41150D01*
X279119Y41577D01*
Y53817D01*
X279953Y54299D01*
X280698Y55044D01*
X281224Y55956D01*
X281497Y56973D01*
Y58027D01*
X281224Y59044D01*
X280698Y59956D01*
X279953Y60701D01*
X279041Y61227D01*
X278024Y61500D01*
X276971D01*
X275953Y61227D01*
X275041Y60701D01*
X274296Y59956D01*
X273770Y59044D01*
X273497Y58027D01*
Y56973D01*
X273770Y55956D01*
X274296Y55044D01*
X275041Y54299D01*
X275875Y53817D01*
Y32584D01*
X275440Y32467D01*
X274224Y31766D01*
X273232Y30773D01*
X272530Y29558D01*
X272166Y28202D01*
Y26798D01*
X272530Y25442D01*
X273232Y24227D01*
X274224Y23234D01*
X275440Y22533D01*
X276795Y22169D01*
X278043D01*
X278320Y21790D01*
X278504Y21216D01*
X272874Y15586D01*
X258672D01*
X257934Y16494D01*
X258009Y16774D01*
Y18226D01*
X257633Y19627D01*
X256908Y20884D01*
X255881Y21911D01*
X254625Y22636D01*
X253223Y23012D01*
X251771D01*
X250370Y22636D01*
X250082Y22470D01*
X239498Y33054D01*
X240112Y33854D01*
X240818Y33446D01*
X241924Y33150D01*
X243070D01*
X244176Y33446D01*
X245168Y34019D01*
X245978Y34829D01*
X246551Y35821D01*
X246847Y36927D01*
Y38073D01*
X246551Y39179D01*
X245978Y40171D01*
X245168Y40981D01*
X244176Y41554D01*
X243070Y41850D01*
X241924D01*
X240818Y41554D01*
X239826Y40981D01*
X239016Y40171D01*
X238444Y39179D01*
X238147Y38073D01*
Y36927D01*
X238444Y35821D01*
X238851Y35114D01*
X238051Y34500D01*
X232318Y40233D01*
Y59685D01*
X253774Y81141D01*
X254166Y81727D01*
X254304Y82418D01*
Y87278D01*
X254625Y87364D01*
X255881Y88089D01*
X256908Y89116D01*
X257633Y90372D01*
X258009Y91774D01*
Y93226D01*
X257633Y94627D01*
X256908Y95884D01*
X255881Y96910D01*
X254625Y97636D01*
X253223Y98012D01*
X251771D01*
X250370Y97636D01*
X250082Y97470D01*
X239498Y108054D01*
X240112Y108854D01*
X240818Y108446D01*
X241924Y108150D01*
X243070D01*
X244176Y108446D01*
X245168Y109019D01*
X245978Y109829D01*
X246551Y110821D01*
X246847Y111927D01*
Y113073D01*
X246551Y114179D01*
X245978Y115171D01*
X245168Y115981D01*
X244176Y116553D01*
X243070Y116850D01*
X241924D01*
X240818Y116553D01*
X239826Y115981D01*
X239016Y115171D01*
X238444Y114179D01*
X238147Y113073D01*
Y111927D01*
X238444Y110821D01*
X238851Y110114D01*
X238051Y109500D01*
X232318Y115233D01*
Y134685D01*
X253774Y156141D01*
X254166Y156727D01*
X254304Y157418D01*
Y162278D01*
X254625Y162364D01*
X255881Y163090D01*
X256908Y164116D01*
X257633Y165373D01*
X258009Y166775D01*
Y168226D01*
X257633Y169628D01*
X256908Y170885D01*
X255881Y171911D01*
X254625Y172637D01*
X253223Y173012D01*
X251771D01*
X250370Y172637D01*
X250082Y172471D01*
X239498Y183055D01*
X240112Y183855D01*
X240818Y183447D01*
X241924Y183151D01*
X243070D01*
X244176Y183447D01*
X245168Y184020D01*
X245978Y184830D01*
X246551Y185822D01*
X246847Y186928D01*
Y188073D01*
X246551Y189180D01*
X245978Y190172D01*
X245168Y190981D01*
X244176Y191554D01*
X243070Y191851D01*
X241924D01*
X240818Y191554D01*
X239826Y190981D01*
X239016Y190172D01*
X238444Y189180D01*
X238147Y188073D01*
Y186928D01*
X238444Y185822D01*
X238851Y185115D01*
X238051Y184501D01*
X232318Y190234D01*
Y209685D01*
X253774Y231142D01*
X254166Y231728D01*
X254304Y232419D01*
Y237278D01*
X254625Y237365D01*
X255881Y238090D01*
X256908Y239116D01*
X257633Y240373D01*
X258009Y241775D01*
Y243226D01*
X257633Y244628D01*
X256908Y245885D01*
X255881Y246911D01*
X254625Y247637D01*
X253223Y248012D01*
X251771D01*
X250370Y247637D01*
X249113Y246911D01*
X248087Y245885D01*
X247361Y244628D01*
X246985Y243226D01*
Y241775D01*
X247361Y240373D01*
X248087Y239116D01*
X249113Y238090D01*
X250370Y237365D01*
X250691Y237278D01*
Y233167D01*
X236055Y218532D01*
X235255Y219146D01*
X235613Y219766D01*
X236205Y221196D01*
X236606Y222691D01*
X236808Y224226D01*
X236808Y225001D01*
X236808Y225775D01*
X236606Y227310D01*
X236205Y228805D01*
X235613Y230236D01*
X234839Y231577D01*
X233896Y232805D01*
X232801Y233900D01*
X231573Y234842D01*
X230232Y235616D01*
X228802Y236209D01*
X227306Y236610D01*
X225985Y236784D01*
X225771Y236812D01*
X224997Y236812D01*
X224997Y236812D01*
Y236812D01*
X224223Y236812D01*
X224009Y236784D01*
X222688Y236610D01*
X221192Y236209D01*
X219762Y235616D01*
X218421Y234842D01*
X217193Y233900D01*
X216098Y232805D01*
X215156Y231577D01*
X214381Y230236D01*
X213789Y228805D01*
X213388Y227310D01*
X213186Y225775D01*
Y224226D01*
X213388Y222691D01*
X213789Y221196D01*
X214381Y219766D01*
X215156Y218425D01*
X216098Y217196D01*
X217193Y216102D01*
X218421Y215159D01*
X219762Y214385D01*
X221192Y213792D01*
X222688Y213392D01*
X224223Y213190D01*
X224997D01*
X225771Y213190D01*
X227306Y213392D01*
X228802Y213792D01*
X230232Y214385D01*
X230852Y214743D01*
X231466Y213943D01*
X229235Y211711D01*
X228843Y211125D01*
X228706Y210434D01*
Y189486D01*
X228843Y188795D01*
X229235Y188209D01*
X247527Y169916D01*
X247361Y169628D01*
X246985Y168226D01*
Y166775D01*
X247361Y165373D01*
X248087Y164116D01*
X249113Y163090D01*
X250370Y162364D01*
X250691Y162278D01*
Y158167D01*
X229235Y136710D01*
X228843Y136124D01*
X228706Y135433D01*
Y114485D01*
X228843Y113794D01*
X229235Y113208D01*
X247527Y94915D01*
X247361Y94627D01*
X246985Y93226D01*
Y91774D01*
X247361Y90372D01*
X248087Y89116D01*
X249113Y88089D01*
X250370Y87364D01*
X250691Y87278D01*
Y83167D01*
X236055Y68531D01*
X235255Y69145D01*
X235613Y69765D01*
X236205Y71195D01*
X236606Y72691D01*
X236808Y74226D01*
X236808Y75000D01*
X236808Y75774D01*
X236606Y77309D01*
X236205Y78804D01*
X235613Y80235D01*
X234839Y81576D01*
X233896Y82804D01*
X232801Y83899D01*
X231573Y84841D01*
X230232Y85616D01*
X228802Y86208D01*
X227306Y86609D01*
X225985Y86783D01*
X225771Y86811D01*
X224997Y86811D01*
X224997Y86811D01*
Y86811D01*
X224223Y86811D01*
X224009Y86783D01*
X222688Y86609D01*
X221192Y86208D01*
X219762Y85616D01*
X218421Y84841D01*
X217193Y83899D01*
X216098Y82804D01*
X215156Y81576D01*
X214381Y80235D01*
X213789Y78804D01*
X213388Y77309D01*
X213186Y75774D01*
Y74226D01*
X213388Y72691D01*
X213789Y71195D01*
X214381Y69765D01*
X215156Y68424D01*
X216098Y67196D01*
X217193Y66101D01*
X218421Y65158D01*
X219762Y64384D01*
X221192Y63792D01*
X222688Y63391D01*
X224223Y63189D01*
X224997D01*
X225771Y63189D01*
X227306Y63391D01*
X228802Y63792D01*
X230232Y64384D01*
X230852Y64742D01*
X231466Y63942D01*
X229235Y61710D01*
X228843Y61124D01*
X228706Y60433D01*
Y39485D01*
X228843Y38794D01*
X229235Y38208D01*
X247527Y19915D01*
X247361Y19627D01*
X246985Y18226D01*
Y16774D01*
X247361Y15372D01*
X248087Y14116D01*
X248766Y13436D01*
X248352Y12436D01*
X185115D01*
X182467Y15085D01*
X182633Y15372D01*
X183009Y16774D01*
Y18226D01*
X182633Y19627D01*
X181908Y20884D01*
X180881Y21911D01*
X179625Y22636D01*
X178223Y23012D01*
X176771D01*
X175370Y22636D01*
X175082Y22470D01*
X164498Y33054D01*
X165112Y33854D01*
X165818Y33446D01*
X166924Y33150D01*
X168070D01*
X169176Y33446D01*
X170168Y34019D01*
X170978Y34829D01*
X171551Y35821D01*
X171847Y36927D01*
Y38073D01*
X171551Y39179D01*
X170978Y40171D01*
X170168Y40981D01*
X169176Y41554D01*
X168070Y41850D01*
X166924D01*
X165818Y41554D01*
X164826Y40981D01*
X164016Y40171D01*
X163444Y39179D01*
X163147Y38073D01*
Y36927D01*
X163444Y35821D01*
X163851Y35114D01*
X163051Y34500D01*
X157317Y40234D01*
Y69766D01*
X175082Y87530D01*
X175370Y87364D01*
X176771Y86988D01*
X178223D01*
X179625Y87364D01*
X180881Y88089D01*
X181908Y89116D01*
X182633Y90372D01*
X183009Y91774D01*
Y93226D01*
X182633Y94627D01*
X181908Y95884D01*
X180881Y96910D01*
X179625Y97636D01*
X178223Y98012D01*
X176771D01*
X175370Y97636D01*
X175082Y97470D01*
X164498Y108054D01*
X165112Y108854D01*
X165818Y108446D01*
X166924Y108150D01*
X168070D01*
X169176Y108446D01*
X170168Y109019D01*
X170978Y109829D01*
X171551Y110821D01*
X171847Y111927D01*
Y113073D01*
X171551Y114179D01*
X170978Y115171D01*
X170168Y115981D01*
X169176Y116553D01*
X168070Y116850D01*
X166924D01*
X165818Y116553D01*
X164826Y115981D01*
X164016Y115171D01*
X163444Y114179D01*
X163147Y113073D01*
Y111927D01*
X163444Y110821D01*
X163851Y110114D01*
X163051Y109500D01*
X157317Y115234D01*
Y144766D01*
X175082Y162531D01*
X175370Y162364D01*
X176771Y161989D01*
X178223D01*
X179625Y162364D01*
X180881Y163090D01*
X181908Y164116D01*
X182633Y165373D01*
X183009Y166775D01*
Y168226D01*
X182633Y169628D01*
X181908Y170885D01*
X180881Y171911D01*
X179625Y172637D01*
X178223Y173012D01*
X176771D01*
X175370Y172637D01*
X175082Y172471D01*
X164498Y183055D01*
X165112Y183855D01*
X165818Y183447D01*
X166924Y183151D01*
X168070D01*
X169176Y183447D01*
X170168Y184020D01*
X170978Y184830D01*
X171551Y185822D01*
X171847Y186928D01*
Y188073D01*
X171551Y189180D01*
X170978Y190172D01*
X170168Y190981D01*
X169176Y191554D01*
X168070Y191851D01*
X166924D01*
X165818Y191554D01*
X164826Y190981D01*
X164016Y190172D01*
X163444Y189180D01*
X163147Y188073D01*
Y186928D01*
X163444Y185822D01*
X163851Y185115D01*
X163051Y184501D01*
X157317Y190235D01*
Y219766D01*
X175082Y237531D01*
X175370Y237365D01*
X176771Y236989D01*
X178223D01*
X179625Y237365D01*
X180881Y238090D01*
X181908Y239116D01*
X182633Y240373D01*
X183009Y241775D01*
Y243226D01*
X182633Y244628D01*
X181908Y245885D01*
X180881Y246911D01*
X179625Y247637D01*
X178223Y248012D01*
X176771D01*
X175370Y247637D01*
X174113Y246911D01*
X173087Y245885D01*
X172361Y244628D01*
X171985Y243226D01*
Y241775D01*
X172361Y240373D01*
X172527Y240085D01*
X154234Y221792D01*
X153842Y221206D01*
X153705Y220515D01*
Y189487D01*
X153842Y188795D01*
X154234Y188209D01*
X172527Y169916D01*
X172361Y169628D01*
X171985Y168226D01*
Y166775D01*
X172361Y165373D01*
X172527Y165085D01*
X154234Y146792D01*
X153842Y146206D01*
X153705Y145515D01*
Y114486D01*
X153842Y113795D01*
X154234Y113209D01*
X172527Y94915D01*
X172361Y94627D01*
X171985Y93226D01*
Y91774D01*
X172361Y90372D01*
X172527Y90084D01*
X154234Y71791D01*
X153842Y71205D01*
X153705Y70514D01*
Y39486D01*
X153842Y38795D01*
X154234Y38209D01*
X172527Y19915D01*
X172361Y19627D01*
X171985Y18226D01*
Y16774D01*
X172361Y15372D01*
X173087Y14116D01*
X174113Y13090D01*
X175370Y12364D01*
X176771Y11988D01*
X178223D01*
X179625Y12364D01*
X179912Y12530D01*
X182156Y10287D01*
X181742Y9287D01*
X113265D01*
X107467Y15085D01*
X107633Y15372D01*
X108009Y16774D01*
Y18226D01*
X107633Y19627D01*
X106908Y20884D01*
X105881Y21911D01*
X104625Y22636D01*
X103223Y23012D01*
X101771D01*
X100370Y22636D01*
X100082Y22470D01*
X89498Y33054D01*
X90112Y33854D01*
X90818Y33446D01*
X91924Y33150D01*
X93070D01*
X94176Y33446D01*
X95168Y34019D01*
X95978Y34829D01*
X96551Y35821D01*
X96847Y36927D01*
Y38073D01*
X96551Y39179D01*
X95978Y40171D01*
X95168Y40981D01*
X94176Y41554D01*
X93070Y41850D01*
X91924D01*
X90818Y41554D01*
X89826Y40981D01*
X89016Y40171D01*
X88444Y39179D01*
X88147Y38073D01*
Y36927D01*
X88444Y35821D01*
X88851Y35114D01*
X88051Y34500D01*
X82318Y40233D01*
Y59685D01*
X103774Y81141D01*
X104166Y81727D01*
X104304Y82418D01*
Y87278D01*
X104625Y87364D01*
X105881Y88089D01*
X106908Y89116D01*
X107633Y90372D01*
X108009Y91774D01*
Y93226D01*
X107633Y94627D01*
X106908Y95884D01*
X105881Y96910D01*
X104625Y97636D01*
X103223Y98012D01*
X101771D01*
X100370Y97636D01*
X100082Y97470D01*
X89498Y108054D01*
X90112Y108854D01*
X90818Y108446D01*
X91924Y108150D01*
X93070D01*
X94176Y108446D01*
X95168Y109019D01*
X95978Y109829D01*
X96551Y110821D01*
X96847Y111927D01*
Y113073D01*
X96551Y114179D01*
X95978Y115171D01*
X95168Y115981D01*
X94176Y116553D01*
X93070Y116850D01*
X91924D01*
X90818Y116553D01*
X89826Y115981D01*
X89016Y115171D01*
X88444Y114179D01*
X88147Y113073D01*
Y111927D01*
X88444Y110821D01*
X88851Y110114D01*
X88051Y109500D01*
X82318Y115233D01*
Y134685D01*
X103774Y156141D01*
X104166Y156727D01*
X104304Y157418D01*
Y162278D01*
X104625Y162364D01*
X105881Y163090D01*
X106908Y164116D01*
X107633Y165373D01*
X108009Y166775D01*
Y168226D01*
X107633Y169628D01*
X106908Y170885D01*
X105881Y171911D01*
X104625Y172637D01*
X103223Y173012D01*
X101771D01*
X100370Y172637D01*
X100082Y172471D01*
X89498Y183055D01*
X90112Y183855D01*
X90818Y183447D01*
X91924Y183151D01*
X93070D01*
X94176Y183447D01*
X95168Y184020D01*
X95978Y184830D01*
X96551Y185822D01*
X96847Y186928D01*
Y188073D01*
X96551Y189180D01*
X95978Y190172D01*
X95168Y190981D01*
X94176Y191554D01*
X93070Y191851D01*
X91924D01*
X90818Y191554D01*
X89826Y190981D01*
X89016Y190172D01*
X88444Y189180D01*
X88147Y188073D01*
Y186928D01*
X88444Y185822D01*
X88851Y185115D01*
X88051Y184501D01*
X82318Y190234D01*
Y209685D01*
X103774Y231142D01*
X104166Y231728D01*
X104304Y232419D01*
Y237278D01*
X104625Y237365D01*
X105881Y238090D01*
X106908Y239116D01*
X107633Y240373D01*
X108009Y241775D01*
Y243226D01*
X107633Y244628D01*
X106908Y245885D01*
X105881Y246911D01*
X104625Y247637D01*
X103223Y248012D01*
X101771D01*
X100370Y247637D01*
X99113Y246911D01*
X98087Y245885D01*
X97361Y244628D01*
X96985Y243226D01*
Y241775D01*
X97361Y240373D01*
X98087Y239116D01*
X99113Y238090D01*
X100370Y237365D01*
X100691Y237278D01*
Y233167D01*
X86055Y218532D01*
X85255Y219146D01*
X85613Y219766D01*
X86205Y221196D01*
X86606Y222691D01*
X86808Y224226D01*
X86808Y225001D01*
X86808Y225775D01*
X86606Y227310D01*
X86205Y228805D01*
X85613Y230236D01*
X84839Y231577D01*
X83896Y232805D01*
X82801Y233900D01*
X81573Y234842D01*
X80232Y235616D01*
X78802Y236209D01*
X77306Y236610D01*
X75985Y236784D01*
X75771Y236812D01*
X74997Y236812D01*
X74997Y236812D01*
Y236812D01*
X74223Y236812D01*
X74009Y236784D01*
X72688Y236610D01*
X71192Y236209D01*
X69762Y235616D01*
X68421Y234842D01*
X67193Y233900D01*
X66098Y232805D01*
X65156Y231577D01*
X64381Y230236D01*
X63789Y228805D01*
X63388Y227310D01*
X63186Y225775D01*
Y224226D01*
X63388Y222691D01*
X63789Y221196D01*
X64381Y219766D01*
X65156Y218425D01*
X66098Y217196D01*
X67193Y216102D01*
X68421Y215159D01*
X69762Y214385D01*
X71192Y213792D01*
X72688Y213392D01*
X74223Y213190D01*
X74997D01*
X75771Y213190D01*
X77306Y213392D01*
X78802Y213792D01*
X80232Y214385D01*
X80852Y214743D01*
X81466Y213943D01*
X79234Y211711D01*
X78843Y211125D01*
X78705Y210434D01*
Y189486D01*
X78843Y188795D01*
X79234Y188209D01*
X97527Y169916D01*
X97361Y169628D01*
X96985Y168226D01*
Y166775D01*
X97361Y165373D01*
X98087Y164116D01*
X99113Y163090D01*
X100370Y162364D01*
X100691Y162278D01*
Y158167D01*
X79234Y136710D01*
X78843Y136124D01*
X78705Y135433D01*
Y114485D01*
X78843Y113794D01*
X79234Y113208D01*
X97527Y94915D01*
X97361Y94627D01*
X96985Y93226D01*
Y91774D01*
X97361Y90372D01*
X98087Y89116D01*
X99113Y88089D01*
X100370Y87364D01*
X100691Y87278D01*
Y83167D01*
X86055Y68531D01*
X85255Y69145D01*
X85613Y69765D01*
X86205Y71195D01*
X86606Y72691D01*
X86808Y74226D01*
X86808Y75000D01*
X86808Y75774D01*
X86606Y77309D01*
X86205Y78804D01*
X85613Y80235D01*
X84839Y81576D01*
X83896Y82804D01*
X82801Y83899D01*
X81573Y84841D01*
X80232Y85616D01*
X78802Y86208D01*
X77306Y86609D01*
X75985Y86783D01*
X75771Y86811D01*
X74997Y86811D01*
X74997Y86811D01*
Y86811D01*
X74223Y86811D01*
X74009Y86783D01*
X72688Y86609D01*
X71192Y86208D01*
X69762Y85616D01*
X68421Y84841D01*
X67193Y83899D01*
X66098Y82804D01*
X65156Y81576D01*
X64381Y80235D01*
X63789Y78804D01*
X63388Y77309D01*
X63186Y75774D01*
Y74226D01*
X63388Y72691D01*
X63789Y71195D01*
X64381Y69765D01*
X65156Y68424D01*
X66098Y67196D01*
X67193Y66101D01*
X68421Y65158D01*
X69762Y64384D01*
X71192Y63792D01*
X72688Y63391D01*
X74223Y63189D01*
X74997D01*
X75771Y63189D01*
X77306Y63391D01*
X78802Y63792D01*
X80232Y64384D01*
X80852Y64742D01*
X81466Y63942D01*
X79234Y61710D01*
X78843Y61124D01*
X78705Y60433D01*
Y39485D01*
X78843Y38794D01*
X79234Y38208D01*
X97527Y19915D01*
X97361Y19627D01*
X96985Y18226D01*
Y16774D01*
X97361Y15372D01*
X98087Y14116D01*
X99113Y13090D01*
X100370Y12364D01*
X101771Y11988D01*
X103223D01*
X104625Y12364D01*
X104912Y12530D01*
X110306Y7137D01*
X109891Y6137D01*
X41415D01*
X32468Y15085D01*
X32634Y15372D01*
X33010Y16774D01*
Y18226D01*
X32634Y19627D01*
X31908Y20884D01*
X30882Y21911D01*
X29625Y22636D01*
X28223Y23012D01*
X26772D01*
X25370Y22636D01*
X25082Y22470D01*
X14498Y33054D01*
X15112Y33854D01*
X15819Y33446D01*
X16925Y33150D01*
X18071D01*
X19177Y33446D01*
X20169Y34019D01*
X20979Y34829D01*
X21552Y35821D01*
X21848Y36927D01*
Y38073D01*
X21552Y39179D01*
X20979Y40171D01*
X20169Y40981D01*
X19177Y41554D01*
X18071Y41850D01*
X16925D01*
X15819Y41554D01*
X14827Y40981D01*
X14017Y40171D01*
X13444Y39179D01*
X13148Y38073D01*
Y36927D01*
X13444Y35821D01*
X13852Y35114D01*
X13052Y34500D01*
X7318Y40234D01*
Y69766D01*
X25082Y87530D01*
X25370Y87364D01*
X26772Y86988D01*
X28223D01*
X29625Y87364D01*
X30882Y88089D01*
X31908Y89116D01*
X32634Y90372D01*
X33010Y91774D01*
Y93226D01*
X32634Y94627D01*
X31908Y95884D01*
X30882Y96910D01*
X29625Y97636D01*
X28223Y98012D01*
X26772D01*
X25370Y97636D01*
X25082Y97470D01*
X14498Y108054D01*
X15112Y108854D01*
X15819Y108446D01*
X16925Y108150D01*
X18071D01*
X19177Y108446D01*
X20169Y109019D01*
X20979Y109829D01*
X21552Y110821D01*
X21848Y111927D01*
Y113073D01*
X21552Y114179D01*
X20979Y115171D01*
X20169Y115981D01*
X19177Y116553D01*
X18071Y116850D01*
X16925D01*
X15819Y116553D01*
X14827Y115981D01*
X14017Y115171D01*
X13444Y114179D01*
X13148Y113073D01*
Y111927D01*
X13444Y110821D01*
X13852Y110114D01*
X13052Y109500D01*
X7318Y115234D01*
Y144766D01*
X25082Y162531D01*
X25370Y162364D01*
X26772Y161989D01*
X28223D01*
X29625Y162364D01*
X30882Y163090D01*
X31908Y164116D01*
X32634Y165373D01*
X33010Y166775D01*
Y168226D01*
X32634Y169628D01*
X31908Y170885D01*
X30882Y171911D01*
X29625Y172637D01*
X28223Y173012D01*
X26772D01*
X25370Y172637D01*
X25082Y172471D01*
X14498Y183055D01*
X15112Y183855D01*
X15819Y183447D01*
X16925Y183151D01*
X18071D01*
X19177Y183447D01*
X20169Y184020D01*
X20979Y184830D01*
X21552Y185822D01*
X21848Y186928D01*
Y188073D01*
X21552Y189180D01*
X20979Y190172D01*
X20169Y190981D01*
X19177Y191554D01*
X18071Y191851D01*
X16925D01*
X15819Y191554D01*
X14827Y190981D01*
X14017Y190172D01*
X13444Y189180D01*
X13148Y188073D01*
Y186928D01*
X13444Y185822D01*
X13852Y185115D01*
X13052Y184501D01*
X7318Y190235D01*
Y219766D01*
X25082Y237531D01*
X25370Y237365D01*
X26772Y236989D01*
X28223D01*
X29625Y237365D01*
X30882Y238090D01*
X31908Y239116D01*
X32634Y240373D01*
X33010Y241775D01*
Y243226D01*
X32634Y244628D01*
X31908Y245885D01*
X30882Y246911D01*
X29625Y247637D01*
X28223Y248012D01*
X26772D01*
X25370Y247637D01*
X24114Y246911D01*
X23087Y245885D01*
X22362Y244628D01*
X21986Y243226D01*
Y241775D01*
X22362Y240373D01*
X22528Y240085D01*
X4234Y221792D01*
X3843Y221206D01*
X3705Y220515D01*
Y189487D01*
X3843Y188795D01*
X4234Y188209D01*
X22528Y169916D01*
X22362Y169628D01*
X21986Y168226D01*
Y166775D01*
X22362Y165373D01*
X22528Y165085D01*
X4234Y146792D01*
X3843Y146206D01*
X3705Y145515D01*
Y114486D01*
X3843Y113795D01*
X4234Y113209D01*
X22528Y94915D01*
X22362Y94627D01*
X21986Y93226D01*
Y91774D01*
X22362Y90372D01*
X22528Y90084D01*
X4234Y71791D01*
X3843Y71205D01*
X3705Y70514D01*
Y39486D01*
X3843Y38795D01*
X4234Y38209D01*
X22528Y19915D01*
X22362Y19627D01*
X21986Y18226D01*
Y16774D01*
X22362Y15372D01*
X23087Y14116D01*
X24114Y13090D01*
X25370Y12364D01*
X26772Y11988D01*
X28223D01*
X29625Y12364D01*
X29913Y12530D01*
X39390Y3053D01*
X39976Y2662D01*
X40667Y2524D01*
X283071D01*
X283762Y2662D01*
X284348Y3053D01*
X285043Y3748D01*
X285496Y3757D01*
X286274Y3565D01*
X286858Y2803D01*
X287356Y2421D01*
X287017Y1421D01*
X1421D01*
Y388343D01*
X287327D01*
X287654Y387343D01*
D02*
G37*
%LPC*%
G36*
X275488Y379740D02*
X271929D01*
Y376181D01*
X275488D01*
Y379740D01*
D02*
G37*
G36*
X270748D02*
X267189D01*
Y376181D01*
X270748D01*
Y379740D01*
D02*
G37*
G36*
X43813Y385203D02*
X33151D01*
Y374542D01*
X43813D01*
Y385203D01*
D02*
G37*
G36*
X275488Y375000D02*
X271929D01*
Y371441D01*
X275488D01*
Y375000D01*
D02*
G37*
G36*
X270748D02*
X267189D01*
Y371441D01*
X270748D01*
Y375000D01*
D02*
G37*
G36*
X88386Y369882D02*
X85811D01*
Y366717D01*
X88386D01*
Y369882D01*
D02*
G37*
G36*
X66632Y370231D02*
Y366684D01*
X70179D01*
X69908Y367695D01*
X69362Y368641D01*
X68589Y369414D01*
X67643Y369960D01*
X66632Y370231D01*
D02*
G37*
G36*
X65451Y370231D02*
X64439Y369960D01*
X63493Y369414D01*
X62721Y368641D01*
X62174Y367695D01*
X61904Y366684D01*
X65451D01*
Y370231D01*
D02*
G37*
G36*
X292027Y368145D02*
X290158D01*
X288997Y367992D01*
X287916Y367544D01*
X286987Y366831D01*
X286275Y365903D01*
X285827Y364822D01*
X285752Y364252D01*
X292027D01*
Y368145D01*
D02*
G37*
G36*
X65451Y365503D02*
X61904D01*
X62174Y364492D01*
X62721Y363545D01*
X63493Y362773D01*
X64439Y362226D01*
X65451Y361955D01*
Y365503D01*
D02*
G37*
G36*
X70179D02*
X66632D01*
Y361955D01*
X67643Y362226D01*
X68589Y362773D01*
X69362Y363545D01*
X69908Y364492D01*
X70179Y365503D01*
D02*
G37*
G36*
X292027Y363071D02*
X285752D01*
X285827Y362501D01*
X286275Y361420D01*
X286987Y360491D01*
X287916Y359779D01*
X288997Y359331D01*
X290158Y359178D01*
X292027D01*
Y363071D01*
D02*
G37*
G36*
X9545Y360388D02*
Y356841D01*
X13092D01*
X12821Y357852D01*
X12275Y358799D01*
X11502Y359571D01*
X10556Y360118D01*
X9545Y360388D01*
D02*
G37*
G36*
X8364Y360388D02*
X7353Y360118D01*
X6407Y359571D01*
X5634Y358799D01*
X5088Y357852D01*
X4817Y356841D01*
X8364D01*
Y360388D01*
D02*
G37*
G36*
Y355660D02*
X4817D01*
X5088Y354649D01*
X5634Y353703D01*
X6407Y352930D01*
X7353Y352384D01*
X8364Y352113D01*
Y355660D01*
D02*
G37*
G36*
X13092D02*
X9545D01*
Y352113D01*
X10556Y352384D01*
X11502Y352930D01*
X12275Y353703D01*
X12821Y354649D01*
X13092Y355660D01*
D02*
G37*
G36*
X88386Y352165D02*
X85811D01*
Y349000D01*
X88386D01*
Y352165D01*
D02*
G37*
G36*
Y334449D02*
X85811D01*
Y331283D01*
X88386D01*
Y334449D01*
D02*
G37*
G36*
X153997Y333882D02*
X150588D01*
Y330473D01*
X153997D01*
Y333882D01*
D02*
G37*
G36*
X149407D02*
X145997D01*
Y330473D01*
X149407D01*
Y333882D01*
D02*
G37*
G36*
X43813Y337959D02*
X33151D01*
Y327298D01*
X43813D01*
Y337959D01*
D02*
G37*
G36*
X269403Y296257D02*
X266828D01*
Y293091D01*
X269403D01*
Y296257D01*
D02*
G37*
G36*
X194403D02*
X191828D01*
Y293091D01*
X194403D01*
Y296257D01*
D02*
G37*
G36*
X119403D02*
X116828D01*
Y293091D01*
X119403D01*
Y296257D01*
D02*
G37*
G36*
X44403D02*
X41829D01*
Y293091D01*
X44403D01*
Y296257D01*
D02*
G37*
G36*
X190647D02*
X188072D01*
Y293091D01*
X190647D01*
Y296257D01*
D02*
G37*
G36*
X265647D02*
X263072D01*
Y293091D01*
X265647D01*
Y296257D01*
D02*
G37*
G36*
X115647D02*
X113072D01*
Y293091D01*
X115647D01*
Y296257D01*
D02*
G37*
G36*
X40648D02*
X38073D01*
Y293091D01*
X40648D01*
Y296257D01*
D02*
G37*
G36*
X278088Y296483D02*
Y293091D01*
X281480D01*
X281224Y294045D01*
X280698Y294957D01*
X279953Y295702D01*
X279041Y296228D01*
X278088Y296483D01*
D02*
G37*
G36*
X203088D02*
Y293091D01*
X206480D01*
X206224Y294045D01*
X205698Y294957D01*
X204953Y295702D01*
X204041Y296228D01*
X203088Y296483D01*
D02*
G37*
G36*
X128088D02*
Y293091D01*
X131480D01*
X131225Y294045D01*
X130698Y294957D01*
X129953Y295702D01*
X129041Y296228D01*
X128088Y296483D01*
D02*
G37*
G36*
X53088D02*
Y293091D01*
X56481D01*
X56225Y294045D01*
X55699Y294957D01*
X54954Y295702D01*
X54042Y296228D01*
X53088Y296483D01*
D02*
G37*
G36*
X201907Y296483D02*
X200953Y296228D01*
X200041Y295702D01*
X199296Y294957D01*
X198770Y294045D01*
X198514Y293091D01*
X201907D01*
Y296483D01*
D02*
G37*
G36*
X126907D02*
X125953Y296228D01*
X125041Y295702D01*
X124296Y294957D01*
X123770Y294045D01*
X123514Y293091D01*
X126907D01*
Y296483D01*
D02*
G37*
G36*
X276907D02*
X275953Y296228D01*
X275041Y295702D01*
X274296Y294957D01*
X273770Y294045D01*
X273514Y293091D01*
X276907D01*
Y296483D01*
D02*
G37*
G36*
X51907D02*
X50954Y296228D01*
X50042Y295702D01*
X49297Y294957D01*
X48770Y294045D01*
X48515Y293091D01*
X51907D01*
Y296483D01*
D02*
G37*
G36*
X269403Y291910D02*
X266828D01*
Y288745D01*
X269403D01*
Y291910D01*
D02*
G37*
G36*
X265647D02*
X263072D01*
Y288745D01*
X265647D01*
Y291910D01*
D02*
G37*
G36*
X194403D02*
X191828D01*
Y288745D01*
X194403D01*
Y291910D01*
D02*
G37*
G36*
X190647D02*
X188072D01*
Y288745D01*
X190647D01*
Y291910D01*
D02*
G37*
G36*
X119403D02*
X116828D01*
Y288745D01*
X119403D01*
Y291910D01*
D02*
G37*
G36*
X115647D02*
X113072D01*
Y288745D01*
X115647D01*
Y291910D01*
D02*
G37*
G36*
X44403D02*
X41829D01*
Y288745D01*
X44403D01*
Y291910D01*
D02*
G37*
G36*
X40648D02*
X38073D01*
Y288745D01*
X40648D01*
Y291910D01*
D02*
G37*
G36*
X131480Y291910D02*
X128088D01*
Y288518D01*
X129041Y288773D01*
X129953Y289300D01*
X130698Y290045D01*
X131225Y290957D01*
X131480Y291910D01*
D02*
G37*
G36*
X56481D02*
X53088D01*
Y288518D01*
X54042Y288773D01*
X54954Y289300D01*
X55699Y290045D01*
X56225Y290957D01*
X56481Y291910D01*
D02*
G37*
G36*
X281480D02*
X278088D01*
Y288518D01*
X279041Y288773D01*
X279953Y289300D01*
X280698Y290045D01*
X281224Y290957D01*
X281480Y291910D01*
D02*
G37*
G36*
X206480D02*
X203088D01*
Y288518D01*
X204041Y288773D01*
X204953Y289300D01*
X205698Y290045D01*
X206224Y290957D01*
X206480Y291910D01*
D02*
G37*
G36*
X276907D02*
X273514D01*
X273770Y290957D01*
X274296Y290045D01*
X275041Y289300D01*
X275953Y288773D01*
X276907Y288518D01*
Y291910D01*
D02*
G37*
G36*
X201907D02*
X198514D01*
X198770Y290957D01*
X199296Y290045D01*
X200041Y289300D01*
X200953Y288773D01*
X201907Y288518D01*
Y291910D01*
D02*
G37*
G36*
X51907D02*
X48515D01*
X48770Y290957D01*
X49297Y290045D01*
X50042Y289300D01*
X50954Y288773D01*
X51907Y288518D01*
Y291910D01*
D02*
G37*
G36*
X126907D02*
X123514D01*
X123770Y290957D01*
X124296Y290045D01*
X125041Y289300D01*
X125953Y288773D01*
X126907Y288518D01*
Y291910D01*
D02*
G37*
G36*
X224223Y311812D02*
X224009Y311784D01*
X222688Y311610D01*
X221192Y311209D01*
X219762Y310616D01*
X218421Y309842D01*
X217193Y308900D01*
X216098Y307805D01*
X215156Y306577D01*
X214381Y305236D01*
X213789Y303805D01*
X213388Y302310D01*
X213186Y300775D01*
Y299226D01*
X213388Y297691D01*
X213789Y296196D01*
X214381Y294766D01*
X215156Y293425D01*
X216098Y292196D01*
X217193Y291102D01*
X218421Y290159D01*
X219762Y289385D01*
X221192Y288792D01*
X222688Y288392D01*
X224223Y288190D01*
X224997D01*
X225771Y288190D01*
X227306Y288392D01*
X228802Y288792D01*
X230232Y289385D01*
X231573Y290159D01*
X232801Y291102D01*
X233896Y292196D01*
X234839Y293425D01*
X235613Y294766D01*
X236205Y296196D01*
X236606Y297691D01*
X236808Y299226D01*
X236808Y300001D01*
X236808Y300775D01*
X236606Y302310D01*
X236205Y303805D01*
X235613Y305236D01*
X234839Y306577D01*
X233896Y307805D01*
X232801Y308900D01*
X231573Y309842D01*
X230232Y310616D01*
X228802Y311209D01*
X227306Y311610D01*
X225985Y311784D01*
X225771Y311812D01*
X224997Y311812D01*
X224997Y311812D01*
Y311812D01*
X224223Y311812D01*
D02*
G37*
G36*
X74223D02*
X74009Y311784D01*
X72688Y311610D01*
X71192Y311209D01*
X69762Y310616D01*
X68421Y309842D01*
X67193Y308900D01*
X66098Y307805D01*
X65156Y306577D01*
X64381Y305236D01*
X63789Y303805D01*
X63388Y302310D01*
X63186Y300775D01*
Y299226D01*
X63388Y297691D01*
X63789Y296196D01*
X64381Y294766D01*
X65156Y293425D01*
X66098Y292196D01*
X67193Y291102D01*
X68421Y290159D01*
X69762Y289385D01*
X71192Y288792D01*
X72688Y288392D01*
X74223Y288190D01*
X74997D01*
X75771Y288190D01*
X77306Y288392D01*
X78802Y288792D01*
X80232Y289385D01*
X81573Y290159D01*
X82801Y291102D01*
X83896Y292196D01*
X84839Y293425D01*
X85613Y294766D01*
X86205Y296196D01*
X86606Y297691D01*
X86808Y299226D01*
X86808Y300001D01*
X86808Y300775D01*
X86606Y302310D01*
X86205Y303805D01*
X85613Y305236D01*
X84839Y306577D01*
X83896Y307805D01*
X82801Y308900D01*
X81573Y309842D01*
X80232Y310616D01*
X78802Y311209D01*
X77306Y311610D01*
X75985Y311784D01*
X75771Y311812D01*
X74997Y311812D01*
X74997Y311812D01*
Y311812D01*
X74223Y311812D01*
D02*
G37*
G36*
X268024Y286501D02*
X266970D01*
X265953Y286228D01*
X265041Y285701D01*
X264296Y284957D01*
X263770Y284045D01*
X263497Y283027D01*
Y281974D01*
X263770Y280957D01*
X264296Y280045D01*
X265041Y279300D01*
X265953Y278773D01*
X266970Y278501D01*
X268024D01*
X269041Y278773D01*
X269953Y279300D01*
X270698Y280045D01*
X271224Y280957D01*
X271497Y281974D01*
Y283027D01*
X271224Y284045D01*
X270698Y284957D01*
X269953Y285701D01*
X269041Y286228D01*
X268024Y286501D01*
D02*
G37*
G36*
X248024Y296501D02*
X246971D01*
X245953Y296228D01*
X245041Y295702D01*
X244296Y294957D01*
X243770Y294045D01*
X243497Y293027D01*
Y291974D01*
X243770Y290957D01*
X244296Y290045D01*
X245041Y289300D01*
X245953Y288773D01*
X246971Y288501D01*
X248024D01*
X249041Y288773D01*
X249953Y289300D01*
X250698Y290045D01*
X251064Y290678D01*
X255592D01*
Y288745D01*
X255675D01*
Y286067D01*
X255041Y285701D01*
X254296Y284957D01*
X253770Y284045D01*
X253497Y283027D01*
Y281974D01*
X253770Y280957D01*
X254296Y280045D01*
X255041Y279300D01*
X255953Y278773D01*
X256971Y278501D01*
X258024D01*
X259041Y278773D01*
X259953Y279300D01*
X260698Y280045D01*
X261225Y280957D01*
X261497Y281974D01*
Y283027D01*
X261225Y284045D01*
X260698Y284957D01*
X259953Y285701D01*
X259319Y286067D01*
Y288745D01*
X261922D01*
Y296257D01*
X255592D01*
Y294323D01*
X251064D01*
X250698Y294957D01*
X249953Y295702D01*
X249041Y296228D01*
X248024Y296501D01*
D02*
G37*
G36*
X193024Y286501D02*
X191971D01*
X190953Y286228D01*
X190041Y285701D01*
X189296Y284957D01*
X188770Y284045D01*
X188497Y283027D01*
Y281974D01*
X188770Y280957D01*
X189296Y280045D01*
X190041Y279300D01*
X190953Y278773D01*
X191971Y278501D01*
X193024D01*
X194041Y278773D01*
X194953Y279300D01*
X195698Y280045D01*
X196224Y280957D01*
X196497Y281974D01*
Y283027D01*
X196224Y284045D01*
X195698Y284957D01*
X194953Y285701D01*
X194041Y286228D01*
X193024Y286501D01*
D02*
G37*
G36*
X173024Y296501D02*
X171970D01*
X170953Y296228D01*
X170041Y295702D01*
X169296Y294957D01*
X168770Y294045D01*
X168497Y293027D01*
Y291974D01*
X168770Y290957D01*
X169296Y290045D01*
X170041Y289300D01*
X170953Y288773D01*
X171970Y288501D01*
X173024D01*
X174041Y288773D01*
X174953Y289300D01*
X175698Y290045D01*
X176064Y290678D01*
X180592D01*
Y288745D01*
X180675D01*
Y286067D01*
X180041Y285701D01*
X179296Y284957D01*
X178770Y284045D01*
X178497Y283027D01*
Y281974D01*
X178770Y280957D01*
X179296Y280045D01*
X180041Y279300D01*
X180953Y278773D01*
X181971Y278501D01*
X183024D01*
X184041Y278773D01*
X184953Y279300D01*
X185698Y280045D01*
X186224Y280957D01*
X186497Y281974D01*
Y283027D01*
X186224Y284045D01*
X185698Y284957D01*
X184953Y285701D01*
X184319Y286067D01*
Y288745D01*
X186922D01*
Y296257D01*
X180592D01*
Y294323D01*
X176064D01*
X175698Y294957D01*
X174953Y295702D01*
X174041Y296228D01*
X173024Y296501D01*
D02*
G37*
G36*
X118024Y286501D02*
X116971D01*
X115953Y286228D01*
X115041Y285701D01*
X114296Y284957D01*
X113770Y284045D01*
X113497Y283027D01*
Y281974D01*
X113770Y280957D01*
X114296Y280045D01*
X115041Y279300D01*
X115953Y278773D01*
X116971Y278501D01*
X118024D01*
X119041Y278773D01*
X119953Y279300D01*
X120698Y280045D01*
X121224Y280957D01*
X121497Y281974D01*
Y283027D01*
X121224Y284045D01*
X120698Y284957D01*
X119953Y285701D01*
X119041Y286228D01*
X118024Y286501D01*
D02*
G37*
G36*
X98024Y296501D02*
X96970D01*
X95953Y296228D01*
X95041Y295702D01*
X94296Y294957D01*
X93770Y294045D01*
X93497Y293027D01*
Y291974D01*
X93770Y290957D01*
X94296Y290045D01*
X95041Y289300D01*
X95953Y288773D01*
X96970Y288501D01*
X98024D01*
X99041Y288773D01*
X99953Y289300D01*
X100698Y290045D01*
X101064Y290678D01*
X105592D01*
Y288745D01*
X105675D01*
Y286067D01*
X105041Y285701D01*
X104296Y284957D01*
X103770Y284045D01*
X103497Y283027D01*
Y281974D01*
X103770Y280957D01*
X104296Y280045D01*
X105041Y279300D01*
X105953Y278773D01*
X106971Y278501D01*
X108024D01*
X109041Y278773D01*
X109953Y279300D01*
X110698Y280045D01*
X111224Y280957D01*
X111497Y281974D01*
Y283027D01*
X111224Y284045D01*
X110698Y284957D01*
X109953Y285701D01*
X109319Y286067D01*
Y288745D01*
X111922D01*
Y296257D01*
X105592D01*
Y294323D01*
X101064D01*
X100698Y294957D01*
X99953Y295702D01*
X99041Y296228D01*
X98024Y296501D01*
D02*
G37*
G36*
X43025Y286501D02*
X41971D01*
X40954Y286228D01*
X40042Y285701D01*
X39297Y284957D01*
X38770Y284045D01*
X38498Y283027D01*
Y281974D01*
X38770Y280957D01*
X39297Y280045D01*
X40042Y279300D01*
X40954Y278773D01*
X41971Y278501D01*
X43025D01*
X44042Y278773D01*
X44954Y279300D01*
X45699Y280045D01*
X46225Y280957D01*
X46498Y281974D01*
Y283027D01*
X46225Y284045D01*
X45699Y284957D01*
X44954Y285701D01*
X44042Y286228D01*
X43025Y286501D01*
D02*
G37*
G36*
X23024Y296501D02*
X21971D01*
X20954Y296228D01*
X20042Y295702D01*
X19297Y294957D01*
X18770Y294045D01*
X18498Y293027D01*
Y291974D01*
X18770Y290957D01*
X19297Y290045D01*
X20042Y289300D01*
X20954Y288773D01*
X21971Y288501D01*
X23024D01*
X24042Y288773D01*
X24954Y289300D01*
X25699Y290045D01*
X26065Y290678D01*
X30592D01*
Y288745D01*
X30676D01*
Y286067D01*
X30042Y285701D01*
X29297Y284957D01*
X28771Y284045D01*
X28498Y283027D01*
Y281974D01*
X28771Y280957D01*
X29297Y280045D01*
X30042Y279300D01*
X30954Y278773D01*
X31971Y278501D01*
X33024D01*
X34042Y278773D01*
X34954Y279300D01*
X35699Y280045D01*
X36225Y280957D01*
X36498Y281974D01*
Y283027D01*
X36225Y284045D01*
X35699Y284957D01*
X34954Y285701D01*
X34320Y286067D01*
Y288745D01*
X36923D01*
Y296257D01*
X30592D01*
Y294323D01*
X26065D01*
X25699Y294957D01*
X24954Y295702D01*
X24042Y296228D01*
X23024Y296501D01*
D02*
G37*
G36*
X248048Y286682D02*
X246947D01*
X245883Y286397D01*
X244930Y285846D01*
X244151Y285068D01*
X243601Y284115D01*
X243316Y283051D01*
Y281950D01*
X243601Y280887D01*
X244151Y279933D01*
X244930Y279155D01*
X245883Y278605D01*
X246947Y278320D01*
X248048D01*
X249111Y278605D01*
X250064Y279155D01*
X250843Y279933D01*
X251393Y280887D01*
X251678Y281950D01*
Y283051D01*
X251393Y284115D01*
X250843Y285068D01*
X250064Y285846D01*
X249111Y286397D01*
X248048Y286682D01*
D02*
G37*
G36*
X173048D02*
X171947D01*
X170883Y286397D01*
X169930Y285846D01*
X169151Y285068D01*
X168601Y284115D01*
X168316Y283051D01*
Y281950D01*
X168601Y280887D01*
X169151Y279933D01*
X169930Y279155D01*
X170883Y278605D01*
X171947Y278320D01*
X173048D01*
X174111Y278605D01*
X175064Y279155D01*
X175843Y279933D01*
X176393Y280887D01*
X176678Y281950D01*
Y283051D01*
X176393Y284115D01*
X175843Y285068D01*
X175064Y285846D01*
X174111Y286397D01*
X173048Y286682D01*
D02*
G37*
G36*
X98048D02*
X96947D01*
X95883Y286397D01*
X94930Y285846D01*
X94151Y285068D01*
X93601Y284115D01*
X93316Y283051D01*
Y281950D01*
X93601Y280887D01*
X94151Y279933D01*
X94930Y279155D01*
X95883Y278605D01*
X96947Y278320D01*
X98048D01*
X99111Y278605D01*
X100064Y279155D01*
X100843Y279933D01*
X101393Y280887D01*
X101678Y281950D01*
Y283051D01*
X101393Y284115D01*
X100843Y285068D01*
X100064Y285846D01*
X99111Y286397D01*
X98048Y286682D01*
D02*
G37*
G36*
X23048D02*
X21948D01*
X20884Y286397D01*
X19931Y285846D01*
X19152Y285068D01*
X18602Y284115D01*
X18317Y283051D01*
Y281950D01*
X18602Y280887D01*
X19152Y279933D01*
X19931Y279155D01*
X20884Y278605D01*
X21948Y278320D01*
X23048D01*
X24112Y278605D01*
X25065Y279155D01*
X25844Y279933D01*
X26394Y280887D01*
X26679Y281950D01*
Y283051D01*
X26394Y284115D01*
X25844Y285068D01*
X25065Y285846D01*
X24112Y286397D01*
X23048Y286682D01*
D02*
G37*
G36*
X278024Y286501D02*
X276971D01*
X275953Y286228D01*
X275041Y285701D01*
X274296Y284957D01*
X273770Y284045D01*
X273497Y283027D01*
Y281974D01*
X273770Y280957D01*
X274296Y280045D01*
X275041Y279300D01*
X275875Y278818D01*
Y257585D01*
X275440Y257468D01*
X274224Y256766D01*
X273232Y255774D01*
X272530Y254558D01*
X272166Y253203D01*
Y251799D01*
X272530Y250443D01*
X273232Y249227D01*
X274224Y248235D01*
X275440Y247533D01*
X276795Y247170D01*
X278199D01*
X279555Y247533D01*
X280770Y248235D01*
X281763Y249227D01*
X282465Y250443D01*
X282828Y251799D01*
Y253203D01*
X282465Y254558D01*
X281763Y255774D01*
X280770Y256766D01*
X279555Y257468D01*
X279423Y257503D01*
X279407Y258260D01*
X280329Y258729D01*
X280818Y258447D01*
X281924Y258151D01*
X283070D01*
X284176Y258447D01*
X285168Y259020D01*
X285978Y259830D01*
X286551Y260822D01*
X286847Y261928D01*
Y263073D01*
X286551Y264180D01*
X285978Y265172D01*
X285168Y265982D01*
X284176Y266554D01*
X283070Y266851D01*
X281924D01*
X280818Y266554D01*
X280119Y266150D01*
X279119Y266577D01*
Y278818D01*
X279953Y279300D01*
X280698Y280045D01*
X281224Y280957D01*
X281497Y281974D01*
Y283027D01*
X281224Y284045D01*
X280698Y284957D01*
X279953Y285701D01*
X279041Y286228D01*
X278024Y286501D01*
D02*
G37*
G36*
X243070Y266851D02*
X241924D01*
X240818Y266554D01*
X239826Y265982D01*
X239016Y265172D01*
X238444Y264180D01*
X238147Y263073D01*
Y261928D01*
X238444Y260822D01*
X239016Y259830D01*
X239826Y259020D01*
X240818Y258447D01*
X241924Y258151D01*
X243070D01*
X244176Y258447D01*
X245168Y259020D01*
X245978Y259830D01*
X246551Y260822D01*
X246847Y261928D01*
Y263073D01*
X246551Y264180D01*
X245978Y265172D01*
X245168Y265982D01*
X244176Y266554D01*
X243070Y266851D01*
D02*
G37*
G36*
X203024Y286501D02*
X201971D01*
X200953Y286228D01*
X200041Y285701D01*
X199296Y284957D01*
X198770Y284045D01*
X198497Y283027D01*
Y281974D01*
X198770Y280957D01*
X199296Y280045D01*
X200041Y279300D01*
X200875Y278818D01*
Y257585D01*
X200440Y257468D01*
X199224Y256766D01*
X198231Y255774D01*
X197530Y254558D01*
X197166Y253203D01*
Y251799D01*
X197530Y250443D01*
X198231Y249227D01*
X199224Y248235D01*
X200440Y247533D01*
X201795Y247170D01*
X203199D01*
X204555Y247533D01*
X205770Y248235D01*
X206763Y249227D01*
X207465Y250443D01*
X207828Y251799D01*
Y253203D01*
X207465Y254558D01*
X206763Y255774D01*
X205770Y256766D01*
X204555Y257468D01*
X204423Y257503D01*
X204407Y258260D01*
X205329Y258729D01*
X205818Y258447D01*
X206924Y258151D01*
X208070D01*
X209176Y258447D01*
X210168Y259020D01*
X210978Y259830D01*
X211551Y260822D01*
X211847Y261928D01*
Y263073D01*
X211551Y264180D01*
X210978Y265172D01*
X210168Y265982D01*
X209176Y266554D01*
X208070Y266851D01*
X206924D01*
X205818Y266554D01*
X205119Y266150D01*
X204119Y266577D01*
Y278818D01*
X204953Y279300D01*
X205698Y280045D01*
X206224Y280957D01*
X206497Y281974D01*
Y283027D01*
X206224Y284045D01*
X205698Y284957D01*
X204953Y285701D01*
X204041Y286228D01*
X203024Y286501D01*
D02*
G37*
G36*
X168070Y266851D02*
X166924D01*
X165818Y266554D01*
X164826Y265982D01*
X164016Y265172D01*
X163444Y264180D01*
X163147Y263073D01*
Y261928D01*
X163444Y260822D01*
X164016Y259830D01*
X164826Y259020D01*
X165818Y258447D01*
X166924Y258151D01*
X168070D01*
X169176Y258447D01*
X170168Y259020D01*
X170978Y259830D01*
X171551Y260822D01*
X171847Y261928D01*
Y263073D01*
X171551Y264180D01*
X170978Y265172D01*
X170168Y265982D01*
X169176Y266554D01*
X168070Y266851D01*
D02*
G37*
G36*
X128024Y286501D02*
X126971D01*
X125953Y286228D01*
X125041Y285701D01*
X124296Y284957D01*
X123770Y284045D01*
X123497Y283027D01*
Y281974D01*
X123770Y280957D01*
X124296Y280045D01*
X125041Y279300D01*
X125875Y278818D01*
Y257585D01*
X125440Y257468D01*
X124224Y256766D01*
X123231Y255774D01*
X122530Y254558D01*
X122166Y253203D01*
Y251799D01*
X122530Y250443D01*
X123231Y249227D01*
X124224Y248235D01*
X125440Y247533D01*
X126795Y247170D01*
X128199D01*
X129555Y247533D01*
X130770Y248235D01*
X131763Y249227D01*
X132465Y250443D01*
X132828Y251799D01*
Y253203D01*
X132465Y254558D01*
X131763Y255774D01*
X130770Y256766D01*
X129555Y257468D01*
X129423Y257503D01*
X129407Y258260D01*
X130329Y258729D01*
X130818Y258447D01*
X131924Y258151D01*
X133070D01*
X134176Y258447D01*
X135168Y259020D01*
X135978Y259830D01*
X136551Y260822D01*
X136847Y261928D01*
Y263073D01*
X136551Y264180D01*
X135978Y265172D01*
X135168Y265982D01*
X134176Y266554D01*
X133070Y266851D01*
X131924D01*
X130818Y266554D01*
X130119Y266150D01*
X129119Y266577D01*
Y278818D01*
X129953Y279300D01*
X130698Y280045D01*
X131225Y280957D01*
X131497Y281974D01*
Y283027D01*
X131225Y284045D01*
X130698Y284957D01*
X129953Y285701D01*
X129041Y286228D01*
X128024Y286501D01*
D02*
G37*
G36*
X93070Y266851D02*
X91924D01*
X90818Y266554D01*
X89826Y265982D01*
X89016Y265172D01*
X88444Y264180D01*
X88147Y263073D01*
Y261928D01*
X88444Y260822D01*
X89016Y259830D01*
X89826Y259020D01*
X90818Y258447D01*
X91924Y258151D01*
X93070D01*
X94176Y258447D01*
X95168Y259020D01*
X95978Y259830D01*
X96551Y260822D01*
X96847Y261928D01*
Y263073D01*
X96551Y264180D01*
X95978Y265172D01*
X95168Y265982D01*
X94176Y266554D01*
X93070Y266851D01*
D02*
G37*
G36*
X53025Y286501D02*
X51971D01*
X50954Y286228D01*
X50042Y285701D01*
X49297Y284957D01*
X48770Y284045D01*
X48498Y283027D01*
Y281974D01*
X48770Y280957D01*
X49297Y280045D01*
X50042Y279300D01*
X50876Y278818D01*
Y257585D01*
X50440Y257468D01*
X49225Y256766D01*
X48232Y255774D01*
X47530Y254558D01*
X47167Y253203D01*
Y251799D01*
X47530Y250443D01*
X48232Y249227D01*
X49225Y248235D01*
X50440Y247533D01*
X51796Y247170D01*
X53200D01*
X54555Y247533D01*
X55771Y248235D01*
X56763Y249227D01*
X57465Y250443D01*
X57829Y251799D01*
Y253203D01*
X57465Y254558D01*
X56763Y255774D01*
X55771Y256766D01*
X54555Y257468D01*
X54424Y257503D01*
X54408Y258260D01*
X55330Y258729D01*
X55819Y258447D01*
X56925Y258151D01*
X58071D01*
X59177Y258447D01*
X60169Y259020D01*
X60979Y259830D01*
X61551Y260822D01*
X61848Y261928D01*
Y263073D01*
X61551Y264180D01*
X60979Y265172D01*
X60169Y265982D01*
X59177Y266554D01*
X58071Y266851D01*
X56925D01*
X55819Y266554D01*
X55120Y266150D01*
X54120Y266577D01*
Y278818D01*
X54954Y279300D01*
X55699Y280045D01*
X56225Y280957D01*
X56498Y281974D01*
Y283027D01*
X56225Y284045D01*
X55699Y284957D01*
X54954Y285701D01*
X54042Y286228D01*
X53025Y286501D01*
D02*
G37*
G36*
X18071Y266851D02*
X16925D01*
X15819Y266554D01*
X14827Y265982D01*
X14017Y265172D01*
X13444Y264180D01*
X13148Y263073D01*
Y261928D01*
X13444Y260822D01*
X14017Y259830D01*
X14827Y259020D01*
X15819Y258447D01*
X16925Y258151D01*
X18071D01*
X19177Y258447D01*
X20169Y259020D01*
X20979Y259830D01*
X21552Y260822D01*
X21848Y261928D01*
Y263073D01*
X21552Y264180D01*
X20979Y265172D01*
X20169Y265982D01*
X19177Y266554D01*
X18071Y266851D01*
D02*
G37*
G36*
X263369Y271351D02*
X261626D01*
X259916Y271011D01*
X258305Y270343D01*
X256856Y269375D01*
X255623Y268142D01*
X254654Y266693D01*
X253987Y265082D01*
X253647Y263372D01*
Y261629D01*
X253987Y259919D01*
X254654Y258309D01*
X255623Y256859D01*
X256856Y255626D01*
X258305Y254658D01*
X259916Y253991D01*
X261626Y253651D01*
X263369D01*
X265079Y253991D01*
X266689Y254658D01*
X268139Y255626D01*
X269371Y256859D01*
X270340Y258309D01*
X271007Y259919D01*
X271347Y261629D01*
Y263372D01*
X271007Y265082D01*
X270340Y266693D01*
X269371Y268142D01*
X268139Y269375D01*
X266689Y270343D01*
X265079Y271011D01*
X263369Y271351D01*
D02*
G37*
G36*
X188369D02*
X186626D01*
X184916Y271011D01*
X183305Y270343D01*
X181856Y269375D01*
X180623Y268142D01*
X179654Y266693D01*
X178987Y265082D01*
X178647Y263372D01*
Y261629D01*
X178987Y259919D01*
X179654Y258309D01*
X180623Y256859D01*
X181856Y255626D01*
X183305Y254658D01*
X184916Y253991D01*
X186626Y253651D01*
X188369D01*
X190079Y253991D01*
X191689Y254658D01*
X193139Y255626D01*
X194371Y256859D01*
X195340Y258309D01*
X196007Y259919D01*
X196347Y261629D01*
Y263372D01*
X196007Y265082D01*
X195340Y266693D01*
X194371Y268142D01*
X193139Y269375D01*
X191689Y270343D01*
X190079Y271011D01*
X188369Y271351D01*
D02*
G37*
G36*
X113369D02*
X111626D01*
X109916Y271011D01*
X108305Y270343D01*
X106856Y269375D01*
X105623Y268142D01*
X104654Y266693D01*
X103987Y265082D01*
X103647Y263372D01*
Y261629D01*
X103987Y259919D01*
X104654Y258309D01*
X105623Y256859D01*
X106856Y255626D01*
X108305Y254658D01*
X109916Y253991D01*
X111626Y253651D01*
X113369D01*
X115079Y253991D01*
X116689Y254658D01*
X118139Y255626D01*
X119371Y256859D01*
X120340Y258309D01*
X121007Y259919D01*
X121347Y261629D01*
Y263372D01*
X121007Y265082D01*
X120340Y266693D01*
X119371Y268142D01*
X118139Y269375D01*
X116689Y270343D01*
X115079Y271011D01*
X113369Y271351D01*
D02*
G37*
G36*
X38370D02*
X36626D01*
X34916Y271011D01*
X33306Y270343D01*
X31856Y269375D01*
X30624Y268142D01*
X29655Y266693D01*
X28988Y265082D01*
X28648Y263372D01*
Y261629D01*
X28988Y259919D01*
X29655Y258309D01*
X30624Y256859D01*
X31856Y255626D01*
X33306Y254658D01*
X34916Y253991D01*
X36626Y253651D01*
X38370D01*
X40079Y253991D01*
X41690Y254658D01*
X43139Y255626D01*
X44372Y256859D01*
X45341Y258309D01*
X46008Y259919D01*
X46348Y261629D01*
Y263372D01*
X46008Y265082D01*
X45341Y266693D01*
X44372Y268142D01*
X43139Y269375D01*
X41690Y270343D01*
X40079Y271011D01*
X38370Y271351D01*
D02*
G37*
G36*
X269403Y221257D02*
X266828D01*
Y218091D01*
X269403D01*
Y221257D01*
D02*
G37*
G36*
X194403D02*
X191828D01*
Y218091D01*
X194403D01*
Y221257D01*
D02*
G37*
G36*
X44403D02*
X41829D01*
Y218091D01*
X44403D01*
Y221257D01*
D02*
G37*
G36*
X119403D02*
X116828D01*
Y218091D01*
X119403D01*
Y221257D01*
D02*
G37*
G36*
X190647D02*
X188072D01*
Y218091D01*
X190647D01*
Y221257D01*
D02*
G37*
G36*
X40648D02*
X38073D01*
Y218091D01*
X40648D01*
Y221257D01*
D02*
G37*
G36*
X265647D02*
X263072D01*
Y218091D01*
X265647D01*
Y221257D01*
D02*
G37*
G36*
X115647D02*
X113072D01*
Y218091D01*
X115647D01*
Y221257D01*
D02*
G37*
G36*
X278088Y221483D02*
Y218091D01*
X281480D01*
X281224Y219045D01*
X280698Y219957D01*
X279953Y220702D01*
X279041Y221228D01*
X278088Y221483D01*
D02*
G37*
G36*
X53088D02*
Y218091D01*
X56481D01*
X56225Y219045D01*
X55699Y219957D01*
X54954Y220702D01*
X54042Y221228D01*
X53088Y221483D01*
D02*
G37*
G36*
X203088D02*
Y218091D01*
X206480D01*
X206224Y219045D01*
X205698Y219957D01*
X204953Y220702D01*
X204041Y221228D01*
X203088Y221483D01*
D02*
G37*
G36*
X128088D02*
Y218091D01*
X131480D01*
X131225Y219045D01*
X130698Y219957D01*
X129953Y220702D01*
X129041Y221228D01*
X128088Y221483D01*
D02*
G37*
G36*
X51907Y221483D02*
X50954Y221228D01*
X50042Y220702D01*
X49297Y219957D01*
X48770Y219045D01*
X48515Y218091D01*
X51907D01*
Y221483D01*
D02*
G37*
G36*
X201907D02*
X200953Y221228D01*
X200041Y220702D01*
X199296Y219957D01*
X198770Y219045D01*
X198514Y218091D01*
X201907D01*
Y221483D01*
D02*
G37*
G36*
X126907D02*
X125953Y221228D01*
X125041Y220702D01*
X124296Y219957D01*
X123770Y219045D01*
X123514Y218091D01*
X126907D01*
Y221483D01*
D02*
G37*
G36*
X276907D02*
X275953Y221228D01*
X275041Y220702D01*
X274296Y219957D01*
X273770Y219045D01*
X273514Y218091D01*
X276907D01*
Y221483D01*
D02*
G37*
G36*
X269403Y216910D02*
X266828D01*
Y213745D01*
X269403D01*
Y216910D01*
D02*
G37*
G36*
X265647D02*
X263072D01*
Y213745D01*
X265647D01*
Y216910D01*
D02*
G37*
G36*
X194403D02*
X191828D01*
Y213745D01*
X194403D01*
Y216910D01*
D02*
G37*
G36*
X190647D02*
X188072D01*
Y213745D01*
X190647D01*
Y216910D01*
D02*
G37*
G36*
X119403D02*
X116828D01*
Y213745D01*
X119403D01*
Y216910D01*
D02*
G37*
G36*
X115647D02*
X113072D01*
Y213745D01*
X115647D01*
Y216910D01*
D02*
G37*
G36*
X44403D02*
X41829D01*
Y213745D01*
X44403D01*
Y216910D01*
D02*
G37*
G36*
X40648D02*
X38073D01*
Y213745D01*
X40648D01*
Y216910D01*
D02*
G37*
G36*
X206480Y216910D02*
X203088D01*
Y213518D01*
X204041Y213773D01*
X204953Y214300D01*
X205698Y215045D01*
X206224Y215957D01*
X206480Y216910D01*
D02*
G37*
G36*
X131480D02*
X128088D01*
Y213518D01*
X129041Y213773D01*
X129953Y214300D01*
X130698Y215045D01*
X131225Y215957D01*
X131480Y216910D01*
D02*
G37*
G36*
X56481D02*
X53088D01*
Y213518D01*
X54042Y213773D01*
X54954Y214300D01*
X55699Y215045D01*
X56225Y215957D01*
X56481Y216910D01*
D02*
G37*
G36*
X281480D02*
X278088D01*
Y213518D01*
X279041Y213773D01*
X279953Y214300D01*
X280698Y215045D01*
X281224Y215957D01*
X281480Y216910D01*
D02*
G37*
G36*
X276907D02*
X273514D01*
X273770Y215957D01*
X274296Y215045D01*
X275041Y214300D01*
X275953Y213773D01*
X276907Y213518D01*
Y216910D01*
D02*
G37*
G36*
X51907D02*
X48515D01*
X48770Y215957D01*
X49297Y215045D01*
X50042Y214300D01*
X50954Y213773D01*
X51907Y213518D01*
Y216910D01*
D02*
G37*
G36*
X201907D02*
X198514D01*
X198770Y215957D01*
X199296Y215045D01*
X200041Y214300D01*
X200953Y213773D01*
X201907Y213518D01*
Y216910D01*
D02*
G37*
G36*
X126907D02*
X123514D01*
X123770Y215957D01*
X124296Y215045D01*
X125041Y214300D01*
X125953Y213773D01*
X126907Y213518D01*
Y216910D01*
D02*
G37*
G36*
X268024Y211501D02*
X266970D01*
X265953Y211228D01*
X265041Y210701D01*
X264296Y209957D01*
X263770Y209045D01*
X263497Y208027D01*
Y206974D01*
X263770Y205957D01*
X264296Y205045D01*
X265041Y204300D01*
X265953Y203773D01*
X266970Y203501D01*
X268024D01*
X269041Y203773D01*
X269953Y204300D01*
X270698Y205045D01*
X271224Y205957D01*
X271497Y206974D01*
Y208027D01*
X271224Y209045D01*
X270698Y209957D01*
X269953Y210701D01*
X269041Y211228D01*
X268024Y211501D01*
D02*
G37*
G36*
X248024Y221501D02*
X246971D01*
X245953Y221228D01*
X245041Y220702D01*
X244296Y219957D01*
X243770Y219045D01*
X243497Y218027D01*
Y216974D01*
X243770Y215957D01*
X244296Y215045D01*
X245041Y214300D01*
X245953Y213773D01*
X246971Y213501D01*
X248024D01*
X249041Y213773D01*
X249953Y214300D01*
X250698Y215045D01*
X251064Y215678D01*
X255592D01*
Y213745D01*
X255675D01*
Y211067D01*
X255041Y210701D01*
X254296Y209957D01*
X253770Y209045D01*
X253497Y208027D01*
Y206974D01*
X253770Y205957D01*
X254296Y205045D01*
X255041Y204300D01*
X255953Y203773D01*
X256971Y203501D01*
X258024D01*
X259041Y203773D01*
X259953Y204300D01*
X260698Y205045D01*
X261225Y205957D01*
X261497Y206974D01*
Y208027D01*
X261225Y209045D01*
X260698Y209957D01*
X259953Y210701D01*
X259319Y211067D01*
Y213745D01*
X261922D01*
Y221257D01*
X255592D01*
Y219323D01*
X251064D01*
X250698Y219957D01*
X249953Y220702D01*
X249041Y221228D01*
X248024Y221501D01*
D02*
G37*
G36*
X193024Y211501D02*
X191971D01*
X190953Y211228D01*
X190041Y210701D01*
X189296Y209957D01*
X188770Y209045D01*
X188497Y208027D01*
Y206974D01*
X188770Y205957D01*
X189296Y205045D01*
X190041Y204300D01*
X190953Y203773D01*
X191971Y203501D01*
X193024D01*
X194041Y203773D01*
X194953Y204300D01*
X195698Y205045D01*
X196224Y205957D01*
X196497Y206974D01*
Y208027D01*
X196224Y209045D01*
X195698Y209957D01*
X194953Y210701D01*
X194041Y211228D01*
X193024Y211501D01*
D02*
G37*
G36*
X173024Y221501D02*
X171970D01*
X170953Y221228D01*
X170041Y220702D01*
X169296Y219957D01*
X168770Y219045D01*
X168497Y218027D01*
Y216974D01*
X168770Y215957D01*
X169296Y215045D01*
X170041Y214300D01*
X170953Y213773D01*
X171970Y213501D01*
X173024D01*
X174041Y213773D01*
X174953Y214300D01*
X175698Y215045D01*
X176064Y215678D01*
X180592D01*
Y213745D01*
X180675D01*
Y211067D01*
X180041Y210701D01*
X179296Y209957D01*
X178770Y209045D01*
X178497Y208027D01*
Y206974D01*
X178770Y205957D01*
X179296Y205045D01*
X180041Y204300D01*
X180953Y203773D01*
X181971Y203501D01*
X183024D01*
X184041Y203773D01*
X184953Y204300D01*
X185698Y205045D01*
X186224Y205957D01*
X186497Y206974D01*
Y208027D01*
X186224Y209045D01*
X185698Y209957D01*
X184953Y210701D01*
X184319Y211067D01*
Y213745D01*
X186922D01*
Y221257D01*
X180592D01*
Y219323D01*
X176064D01*
X175698Y219957D01*
X174953Y220702D01*
X174041Y221228D01*
X173024Y221501D01*
D02*
G37*
G36*
X118024Y211501D02*
X116971D01*
X115953Y211228D01*
X115041Y210701D01*
X114296Y209957D01*
X113770Y209045D01*
X113497Y208027D01*
Y206974D01*
X113770Y205957D01*
X114296Y205045D01*
X115041Y204300D01*
X115953Y203773D01*
X116971Y203501D01*
X118024D01*
X119041Y203773D01*
X119953Y204300D01*
X120698Y205045D01*
X121224Y205957D01*
X121497Y206974D01*
Y208027D01*
X121224Y209045D01*
X120698Y209957D01*
X119953Y210701D01*
X119041Y211228D01*
X118024Y211501D01*
D02*
G37*
G36*
X98024Y221501D02*
X96970D01*
X95953Y221228D01*
X95041Y220702D01*
X94296Y219957D01*
X93770Y219045D01*
X93497Y218027D01*
Y216974D01*
X93770Y215957D01*
X94296Y215045D01*
X95041Y214300D01*
X95953Y213773D01*
X96970Y213501D01*
X98024D01*
X99041Y213773D01*
X99953Y214300D01*
X100698Y215045D01*
X101064Y215678D01*
X105592D01*
Y213745D01*
X105675D01*
Y211067D01*
X105041Y210701D01*
X104296Y209957D01*
X103770Y209045D01*
X103497Y208027D01*
Y206974D01*
X103770Y205957D01*
X104296Y205045D01*
X105041Y204300D01*
X105953Y203773D01*
X106971Y203501D01*
X108024D01*
X109041Y203773D01*
X109953Y204300D01*
X110698Y205045D01*
X111224Y205957D01*
X111497Y206974D01*
Y208027D01*
X111224Y209045D01*
X110698Y209957D01*
X109953Y210701D01*
X109319Y211067D01*
Y213745D01*
X111922D01*
Y221257D01*
X105592D01*
Y219323D01*
X101064D01*
X100698Y219957D01*
X99953Y220702D01*
X99041Y221228D01*
X98024Y221501D01*
D02*
G37*
G36*
X43025Y211501D02*
X41971D01*
X40954Y211228D01*
X40042Y210701D01*
X39297Y209957D01*
X38770Y209045D01*
X38498Y208027D01*
Y206974D01*
X38770Y205957D01*
X39297Y205045D01*
X40042Y204300D01*
X40954Y203773D01*
X41971Y203501D01*
X43025D01*
X44042Y203773D01*
X44954Y204300D01*
X45699Y205045D01*
X46225Y205957D01*
X46498Y206974D01*
Y208027D01*
X46225Y209045D01*
X45699Y209957D01*
X44954Y210701D01*
X44042Y211228D01*
X43025Y211501D01*
D02*
G37*
G36*
X23024Y221501D02*
X21971D01*
X20954Y221228D01*
X20042Y220702D01*
X19297Y219957D01*
X18770Y219045D01*
X18498Y218027D01*
Y216974D01*
X18770Y215957D01*
X19297Y215045D01*
X20042Y214300D01*
X20954Y213773D01*
X21971Y213501D01*
X23024D01*
X24042Y213773D01*
X24954Y214300D01*
X25699Y215045D01*
X26065Y215678D01*
X30592D01*
Y213745D01*
X30676D01*
Y211067D01*
X30042Y210701D01*
X29297Y209957D01*
X28771Y209045D01*
X28498Y208027D01*
Y206974D01*
X28771Y205957D01*
X29297Y205045D01*
X30042Y204300D01*
X30954Y203773D01*
X31971Y203501D01*
X33024D01*
X34042Y203773D01*
X34954Y204300D01*
X35699Y205045D01*
X36225Y205957D01*
X36498Y206974D01*
Y208027D01*
X36225Y209045D01*
X35699Y209957D01*
X34954Y210701D01*
X34320Y211067D01*
Y213745D01*
X36923D01*
Y221257D01*
X30592D01*
Y219323D01*
X26065D01*
X25699Y219957D01*
X24954Y220702D01*
X24042Y221228D01*
X23024Y221501D01*
D02*
G37*
G36*
X248048Y211682D02*
X246947D01*
X245883Y211397D01*
X244930Y210846D01*
X244151Y210068D01*
X243601Y209115D01*
X243316Y208051D01*
Y206950D01*
X243601Y205887D01*
X244151Y204933D01*
X244930Y204155D01*
X245883Y203605D01*
X246947Y203320D01*
X248048D01*
X249111Y203605D01*
X250064Y204155D01*
X250843Y204933D01*
X251393Y205887D01*
X251678Y206950D01*
Y208051D01*
X251393Y209115D01*
X250843Y210068D01*
X250064Y210846D01*
X249111Y211397D01*
X248048Y211682D01*
D02*
G37*
G36*
X173048D02*
X171947D01*
X170883Y211397D01*
X169930Y210846D01*
X169151Y210068D01*
X168601Y209115D01*
X168316Y208051D01*
Y206950D01*
X168601Y205887D01*
X169151Y204933D01*
X169930Y204155D01*
X170883Y203605D01*
X171947Y203320D01*
X173048D01*
X174111Y203605D01*
X175064Y204155D01*
X175843Y204933D01*
X176393Y205887D01*
X176678Y206950D01*
Y208051D01*
X176393Y209115D01*
X175843Y210068D01*
X175064Y210846D01*
X174111Y211397D01*
X173048Y211682D01*
D02*
G37*
G36*
X98048D02*
X96947D01*
X95883Y211397D01*
X94930Y210846D01*
X94151Y210068D01*
X93601Y209115D01*
X93316Y208051D01*
Y206950D01*
X93601Y205887D01*
X94151Y204933D01*
X94930Y204155D01*
X95883Y203605D01*
X96947Y203320D01*
X98048D01*
X99111Y203605D01*
X100064Y204155D01*
X100843Y204933D01*
X101393Y205887D01*
X101678Y206950D01*
Y208051D01*
X101393Y209115D01*
X100843Y210068D01*
X100064Y210846D01*
X99111Y211397D01*
X98048Y211682D01*
D02*
G37*
G36*
X23048D02*
X21948D01*
X20884Y211397D01*
X19931Y210846D01*
X19152Y210068D01*
X18602Y209115D01*
X18317Y208051D01*
Y206950D01*
X18602Y205887D01*
X19152Y204933D01*
X19931Y204155D01*
X20884Y203605D01*
X21948Y203320D01*
X23048D01*
X24112Y203605D01*
X25065Y204155D01*
X25844Y204933D01*
X26394Y205887D01*
X26679Y206950D01*
Y208051D01*
X26394Y209115D01*
X25844Y210068D01*
X25065Y210846D01*
X24112Y211397D01*
X23048Y211682D01*
D02*
G37*
G36*
X278024Y211501D02*
X276971D01*
X275953Y211228D01*
X275041Y210701D01*
X274296Y209957D01*
X273770Y209045D01*
X273497Y208027D01*
Y206974D01*
X273770Y205957D01*
X274296Y205045D01*
X275041Y204300D01*
X275875Y203818D01*
Y182585D01*
X275440Y182468D01*
X274224Y181766D01*
X273232Y180774D01*
X272530Y179558D01*
X272166Y178202D01*
Y176799D01*
X272530Y175443D01*
X273232Y174227D01*
X274224Y173235D01*
X275440Y172533D01*
X276795Y172170D01*
X278199D01*
X279555Y172533D01*
X280770Y173235D01*
X281763Y174227D01*
X282465Y175443D01*
X282828Y176799D01*
Y178202D01*
X282465Y179558D01*
X281763Y180774D01*
X280770Y181766D01*
X279555Y182468D01*
X279423Y182503D01*
X279407Y183261D01*
X280329Y183729D01*
X280818Y183447D01*
X281924Y183151D01*
X283070D01*
X284176Y183447D01*
X285168Y184020D01*
X285978Y184830D01*
X286551Y185822D01*
X286847Y186928D01*
Y188073D01*
X286551Y189180D01*
X285978Y190172D01*
X285168Y190981D01*
X284176Y191554D01*
X283070Y191851D01*
X281924D01*
X280818Y191554D01*
X280119Y191150D01*
X279119Y191577D01*
Y203818D01*
X279953Y204300D01*
X280698Y205045D01*
X281224Y205957D01*
X281497Y206974D01*
Y208027D01*
X281224Y209045D01*
X280698Y209957D01*
X279953Y210701D01*
X279041Y211228D01*
X278024Y211501D01*
D02*
G37*
G36*
X203024D02*
X201971D01*
X200953Y211228D01*
X200041Y210701D01*
X199296Y209957D01*
X198770Y209045D01*
X198497Y208027D01*
Y206974D01*
X198770Y205957D01*
X199296Y205045D01*
X200041Y204300D01*
X200875Y203818D01*
Y182585D01*
X200440Y182468D01*
X199224Y181766D01*
X198231Y180774D01*
X197530Y179558D01*
X197166Y178202D01*
Y176799D01*
X197530Y175443D01*
X198231Y174227D01*
X199224Y173235D01*
X200440Y172533D01*
X201795Y172170D01*
X203199D01*
X204555Y172533D01*
X205770Y173235D01*
X206763Y174227D01*
X207465Y175443D01*
X207828Y176799D01*
Y178202D01*
X207465Y179558D01*
X206763Y180774D01*
X205770Y181766D01*
X204555Y182468D01*
X204423Y182503D01*
X204407Y183261D01*
X205329Y183729D01*
X205818Y183447D01*
X206924Y183151D01*
X208070D01*
X209176Y183447D01*
X210168Y184020D01*
X210978Y184830D01*
X211551Y185822D01*
X211847Y186928D01*
Y188073D01*
X211551Y189180D01*
X210978Y190172D01*
X210168Y190981D01*
X209176Y191554D01*
X208070Y191851D01*
X206924D01*
X205818Y191554D01*
X205119Y191150D01*
X204119Y191577D01*
Y203818D01*
X204953Y204300D01*
X205698Y205045D01*
X206224Y205957D01*
X206497Y206974D01*
Y208027D01*
X206224Y209045D01*
X205698Y209957D01*
X204953Y210701D01*
X204041Y211228D01*
X203024Y211501D01*
D02*
G37*
G36*
X128024D02*
X126971D01*
X125953Y211228D01*
X125041Y210701D01*
X124296Y209957D01*
X123770Y209045D01*
X123497Y208027D01*
Y206974D01*
X123770Y205957D01*
X124296Y205045D01*
X125041Y204300D01*
X125875Y203818D01*
Y182585D01*
X125440Y182468D01*
X124224Y181766D01*
X123231Y180774D01*
X122530Y179558D01*
X122166Y178202D01*
Y176799D01*
X122530Y175443D01*
X123231Y174227D01*
X124224Y173235D01*
X125440Y172533D01*
X126795Y172170D01*
X128199D01*
X129555Y172533D01*
X130770Y173235D01*
X131763Y174227D01*
X132465Y175443D01*
X132828Y176799D01*
Y178202D01*
X132465Y179558D01*
X131763Y180774D01*
X130770Y181766D01*
X129555Y182468D01*
X129423Y182503D01*
X129407Y183261D01*
X130329Y183729D01*
X130818Y183447D01*
X131924Y183151D01*
X133070D01*
X134176Y183447D01*
X135168Y184020D01*
X135978Y184830D01*
X136551Y185822D01*
X136847Y186928D01*
Y188073D01*
X136551Y189180D01*
X135978Y190172D01*
X135168Y190981D01*
X134176Y191554D01*
X133070Y191851D01*
X131924D01*
X130818Y191554D01*
X130119Y191150D01*
X129119Y191577D01*
Y203818D01*
X129953Y204300D01*
X130698Y205045D01*
X131225Y205957D01*
X131497Y206974D01*
Y208027D01*
X131225Y209045D01*
X130698Y209957D01*
X129953Y210701D01*
X129041Y211228D01*
X128024Y211501D01*
D02*
G37*
G36*
X53025D02*
X51971D01*
X50954Y211228D01*
X50042Y210701D01*
X49297Y209957D01*
X48770Y209045D01*
X48498Y208027D01*
Y206974D01*
X48770Y205957D01*
X49297Y205045D01*
X50042Y204300D01*
X50876Y203818D01*
Y182585D01*
X50440Y182468D01*
X49225Y181766D01*
X48232Y180774D01*
X47530Y179558D01*
X47167Y178202D01*
Y176799D01*
X47530Y175443D01*
X48232Y174227D01*
X49225Y173235D01*
X50440Y172533D01*
X51796Y172170D01*
X53200D01*
X54555Y172533D01*
X55771Y173235D01*
X56763Y174227D01*
X57465Y175443D01*
X57829Y176799D01*
Y178202D01*
X57465Y179558D01*
X56763Y180774D01*
X55771Y181766D01*
X54555Y182468D01*
X54424Y182503D01*
X54408Y183261D01*
X55330Y183729D01*
X55819Y183447D01*
X56925Y183151D01*
X58071D01*
X59177Y183447D01*
X60169Y184020D01*
X60979Y184830D01*
X61551Y185822D01*
X61848Y186928D01*
Y188073D01*
X61551Y189180D01*
X60979Y190172D01*
X60169Y190981D01*
X59177Y191554D01*
X58071Y191851D01*
X56925D01*
X55819Y191554D01*
X55120Y191150D01*
X54120Y191577D01*
Y203818D01*
X54954Y204300D01*
X55699Y205045D01*
X56225Y205957D01*
X56498Y206974D01*
Y208027D01*
X56225Y209045D01*
X55699Y209957D01*
X54954Y210701D01*
X54042Y211228D01*
X53025Y211501D01*
D02*
G37*
G36*
X263369Y196351D02*
X261626D01*
X259916Y196011D01*
X258305Y195343D01*
X256856Y194375D01*
X255623Y193142D01*
X254654Y191693D01*
X253987Y190082D01*
X253647Y188372D01*
Y186629D01*
X253987Y184919D01*
X254654Y183309D01*
X255623Y181859D01*
X256856Y180626D01*
X258305Y179658D01*
X259916Y178991D01*
X261626Y178651D01*
X263369D01*
X265079Y178991D01*
X266689Y179658D01*
X268139Y180626D01*
X269371Y181859D01*
X270340Y183309D01*
X271007Y184919D01*
X271347Y186629D01*
Y188372D01*
X271007Y190082D01*
X270340Y191693D01*
X269371Y193142D01*
X268139Y194375D01*
X266689Y195343D01*
X265079Y196011D01*
X263369Y196351D01*
D02*
G37*
G36*
X188369D02*
X186626D01*
X184916Y196011D01*
X183305Y195343D01*
X181856Y194375D01*
X180623Y193142D01*
X179654Y191693D01*
X178987Y190082D01*
X178647Y188372D01*
Y186629D01*
X178987Y184919D01*
X179654Y183309D01*
X180623Y181859D01*
X181856Y180626D01*
X183305Y179658D01*
X184916Y178991D01*
X186626Y178651D01*
X188369D01*
X190079Y178991D01*
X191689Y179658D01*
X193139Y180626D01*
X194371Y181859D01*
X195340Y183309D01*
X196007Y184919D01*
X196347Y186629D01*
Y188372D01*
X196007Y190082D01*
X195340Y191693D01*
X194371Y193142D01*
X193139Y194375D01*
X191689Y195343D01*
X190079Y196011D01*
X188369Y196351D01*
D02*
G37*
G36*
X113369D02*
X111626D01*
X109916Y196011D01*
X108305Y195343D01*
X106856Y194375D01*
X105623Y193142D01*
X104654Y191693D01*
X103987Y190082D01*
X103647Y188372D01*
Y186629D01*
X103987Y184919D01*
X104654Y183309D01*
X105623Y181859D01*
X106856Y180626D01*
X108305Y179658D01*
X109916Y178991D01*
X111626Y178651D01*
X113369D01*
X115079Y178991D01*
X116689Y179658D01*
X118139Y180626D01*
X119371Y181859D01*
X120340Y183309D01*
X121007Y184919D01*
X121347Y186629D01*
Y188372D01*
X121007Y190082D01*
X120340Y191693D01*
X119371Y193142D01*
X118139Y194375D01*
X116689Y195343D01*
X115079Y196011D01*
X113369Y196351D01*
D02*
G37*
G36*
X38370D02*
X36626D01*
X34916Y196011D01*
X33306Y195343D01*
X31856Y194375D01*
X30624Y193142D01*
X29655Y191693D01*
X28988Y190082D01*
X28648Y188372D01*
Y186629D01*
X28988Y184919D01*
X29655Y183309D01*
X30624Y181859D01*
X31856Y180626D01*
X33306Y179658D01*
X34916Y178991D01*
X36626Y178651D01*
X38370D01*
X40079Y178991D01*
X41690Y179658D01*
X43139Y180626D01*
X44372Y181859D01*
X45341Y183309D01*
X46008Y184919D01*
X46348Y186629D01*
Y188372D01*
X46008Y190082D01*
X45341Y191693D01*
X44372Y193142D01*
X43139Y194375D01*
X41690Y195343D01*
X40079Y196011D01*
X38370Y196351D01*
D02*
G37*
G36*
X269403Y146256D02*
X266828D01*
Y143090D01*
X269403D01*
Y146256D01*
D02*
G37*
G36*
X194403D02*
X191828D01*
Y143090D01*
X194403D01*
Y146256D01*
D02*
G37*
G36*
X44403D02*
X41829D01*
Y143090D01*
X44403D01*
Y146256D01*
D02*
G37*
G36*
X119403D02*
X116828D01*
Y143090D01*
X119403D01*
Y146256D01*
D02*
G37*
G36*
X278088Y146483D02*
Y143090D01*
X281480D01*
X281224Y144044D01*
X280698Y144956D01*
X279953Y145701D01*
X279041Y146227D01*
X278088Y146483D01*
D02*
G37*
G36*
X203088D02*
Y143090D01*
X206480D01*
X206224Y144044D01*
X205698Y144956D01*
X204953Y145701D01*
X204041Y146227D01*
X203088Y146483D01*
D02*
G37*
G36*
X128088D02*
Y143090D01*
X131480D01*
X131225Y144044D01*
X130698Y144956D01*
X129953Y145701D01*
X129041Y146227D01*
X128088Y146483D01*
D02*
G37*
G36*
X53088D02*
Y143090D01*
X56481D01*
X56225Y144044D01*
X55699Y144956D01*
X54954Y145701D01*
X54042Y146227D01*
X53088Y146483D01*
D02*
G37*
G36*
X276907D02*
X275953Y146227D01*
X275041Y145701D01*
X274296Y144956D01*
X273770Y144044D01*
X273514Y143090D01*
X276907D01*
Y146483D01*
D02*
G37*
G36*
X51907D02*
X50954Y146227D01*
X50042Y145701D01*
X49297Y144956D01*
X48770Y144044D01*
X48515Y143090D01*
X51907D01*
Y146483D01*
D02*
G37*
G36*
X201907D02*
X200953Y146227D01*
X200041Y145701D01*
X199296Y144956D01*
X198770Y144044D01*
X198514Y143090D01*
X201907D01*
Y146483D01*
D02*
G37*
G36*
X126907D02*
X125953Y146227D01*
X125041Y145701D01*
X124296Y144956D01*
X123770Y144044D01*
X123514Y143090D01*
X126907D01*
Y146483D01*
D02*
G37*
G36*
X265647Y146256D02*
X263072D01*
Y143090D01*
X265647D01*
Y146256D01*
D02*
G37*
G36*
X40648D02*
X38073D01*
Y143090D01*
X40648D01*
Y146256D01*
D02*
G37*
G36*
X190647D02*
X188072D01*
Y143090D01*
X190647D01*
Y146256D01*
D02*
G37*
G36*
X115647D02*
X113072D01*
Y143090D01*
X115647D01*
Y146256D01*
D02*
G37*
G36*
X269403Y141909D02*
X266828D01*
Y138744D01*
X269403D01*
Y141909D01*
D02*
G37*
G36*
X265647D02*
X263072D01*
Y138744D01*
X265647D01*
Y141909D01*
D02*
G37*
G36*
X194403D02*
X191828D01*
Y138744D01*
X194403D01*
Y141909D01*
D02*
G37*
G36*
X190647D02*
X188072D01*
Y138744D01*
X190647D01*
Y141909D01*
D02*
G37*
G36*
X119403D02*
X116828D01*
Y138744D01*
X119403D01*
Y141909D01*
D02*
G37*
G36*
X115647D02*
X113072D01*
Y138744D01*
X115647D01*
Y141909D01*
D02*
G37*
G36*
X44403D02*
X41829D01*
Y138744D01*
X44403D01*
Y141909D01*
D02*
G37*
G36*
X40648D02*
X38073D01*
Y138744D01*
X40648D01*
Y141909D01*
D02*
G37*
G36*
X206480D02*
X203088D01*
Y138517D01*
X204041Y138772D01*
X204953Y139299D01*
X205698Y140044D01*
X206224Y140956D01*
X206480Y141909D01*
D02*
G37*
G36*
X131480D02*
X128088D01*
Y138517D01*
X129041Y138772D01*
X129953Y139299D01*
X130698Y140044D01*
X131225Y140956D01*
X131480Y141909D01*
D02*
G37*
G36*
X56481D02*
X53088D01*
Y138517D01*
X54042Y138772D01*
X54954Y139299D01*
X55699Y140044D01*
X56225Y140956D01*
X56481Y141909D01*
D02*
G37*
G36*
X281480D02*
X278088D01*
Y138517D01*
X279041Y138772D01*
X279953Y139299D01*
X280698Y140044D01*
X281224Y140956D01*
X281480Y141909D01*
D02*
G37*
G36*
X276907D02*
X273514D01*
X273770Y140956D01*
X274296Y140044D01*
X275041Y139299D01*
X275953Y138772D01*
X276907Y138517D01*
Y141909D01*
D02*
G37*
G36*
X201907D02*
X198514D01*
X198770Y140956D01*
X199296Y140044D01*
X200041Y139299D01*
X200953Y138772D01*
X201907Y138517D01*
Y141909D01*
D02*
G37*
G36*
X126907D02*
X123514D01*
X123770Y140956D01*
X124296Y140044D01*
X125041Y139299D01*
X125953Y138772D01*
X126907Y138517D01*
Y141909D01*
D02*
G37*
G36*
X51907D02*
X48515D01*
X48770Y140956D01*
X49297Y140044D01*
X50042Y139299D01*
X50954Y138772D01*
X51907Y138517D01*
Y141909D01*
D02*
G37*
G36*
X268024Y136500D02*
X266970D01*
X265953Y136227D01*
X265041Y135701D01*
X264296Y134956D01*
X263770Y134044D01*
X263497Y133027D01*
Y131973D01*
X263770Y130956D01*
X264296Y130044D01*
X265041Y129299D01*
X265953Y128772D01*
X266970Y128500D01*
X268024D01*
X269041Y128772D01*
X269953Y129299D01*
X270698Y130044D01*
X271224Y130956D01*
X271497Y131973D01*
Y133027D01*
X271224Y134044D01*
X270698Y134956D01*
X269953Y135701D01*
X269041Y136227D01*
X268024Y136500D01*
D02*
G37*
G36*
X248024Y146500D02*
X246971D01*
X245953Y146227D01*
X245041Y145701D01*
X244296Y144956D01*
X243770Y144044D01*
X243497Y143026D01*
Y141973D01*
X243770Y140956D01*
X244296Y140044D01*
X245041Y139299D01*
X245953Y138772D01*
X246971Y138500D01*
X248024D01*
X249041Y138772D01*
X249953Y139299D01*
X250698Y140044D01*
X251064Y140677D01*
X255592D01*
Y138744D01*
X255675D01*
Y136066D01*
X255041Y135701D01*
X254296Y134956D01*
X253770Y134044D01*
X253497Y133027D01*
Y131973D01*
X253770Y130956D01*
X254296Y130044D01*
X255041Y129299D01*
X255953Y128772D01*
X256971Y128500D01*
X258024D01*
X259041Y128772D01*
X259953Y129299D01*
X260698Y130044D01*
X261225Y130956D01*
X261497Y131973D01*
Y133027D01*
X261225Y134044D01*
X260698Y134956D01*
X259953Y135701D01*
X259319Y136066D01*
Y138744D01*
X261922D01*
Y146256D01*
X255592D01*
Y144322D01*
X251064D01*
X250698Y144956D01*
X249953Y145701D01*
X249041Y146227D01*
X248024Y146500D01*
D02*
G37*
G36*
X193024Y136500D02*
X191971D01*
X190953Y136227D01*
X190041Y135701D01*
X189296Y134956D01*
X188770Y134044D01*
X188497Y133027D01*
Y131973D01*
X188770Y130956D01*
X189296Y130044D01*
X190041Y129299D01*
X190953Y128772D01*
X191971Y128500D01*
X193024D01*
X194041Y128772D01*
X194953Y129299D01*
X195698Y130044D01*
X196224Y130956D01*
X196497Y131973D01*
Y133027D01*
X196224Y134044D01*
X195698Y134956D01*
X194953Y135701D01*
X194041Y136227D01*
X193024Y136500D01*
D02*
G37*
G36*
X173024Y146500D02*
X171970D01*
X170953Y146227D01*
X170041Y145701D01*
X169296Y144956D01*
X168770Y144044D01*
X168497Y143026D01*
Y141973D01*
X168770Y140956D01*
X169296Y140044D01*
X170041Y139299D01*
X170953Y138772D01*
X171970Y138500D01*
X173024D01*
X174041Y138772D01*
X174953Y139299D01*
X175698Y140044D01*
X176064Y140677D01*
X180592D01*
Y138744D01*
X180675D01*
Y136066D01*
X180041Y135701D01*
X179296Y134956D01*
X178770Y134044D01*
X178497Y133027D01*
Y131973D01*
X178770Y130956D01*
X179296Y130044D01*
X180041Y129299D01*
X180953Y128772D01*
X181971Y128500D01*
X183024D01*
X184041Y128772D01*
X184953Y129299D01*
X185698Y130044D01*
X186224Y130956D01*
X186497Y131973D01*
Y133027D01*
X186224Y134044D01*
X185698Y134956D01*
X184953Y135701D01*
X184319Y136066D01*
Y138744D01*
X186922D01*
Y146256D01*
X180592D01*
Y144322D01*
X176064D01*
X175698Y144956D01*
X174953Y145701D01*
X174041Y146227D01*
X173024Y146500D01*
D02*
G37*
G36*
X118024Y136500D02*
X116971D01*
X115953Y136227D01*
X115041Y135701D01*
X114296Y134956D01*
X113770Y134044D01*
X113497Y133027D01*
Y131973D01*
X113770Y130956D01*
X114296Y130044D01*
X115041Y129299D01*
X115953Y128772D01*
X116971Y128500D01*
X118024D01*
X119041Y128772D01*
X119953Y129299D01*
X120698Y130044D01*
X121224Y130956D01*
X121497Y131973D01*
Y133027D01*
X121224Y134044D01*
X120698Y134956D01*
X119953Y135701D01*
X119041Y136227D01*
X118024Y136500D01*
D02*
G37*
G36*
X98024Y146500D02*
X96970D01*
X95953Y146227D01*
X95041Y145701D01*
X94296Y144956D01*
X93770Y144044D01*
X93497Y143026D01*
Y141973D01*
X93770Y140956D01*
X94296Y140044D01*
X95041Y139299D01*
X95953Y138772D01*
X96970Y138500D01*
X98024D01*
X99041Y138772D01*
X99953Y139299D01*
X100698Y140044D01*
X101064Y140677D01*
X105592D01*
Y138744D01*
X105675D01*
Y136066D01*
X105041Y135701D01*
X104296Y134956D01*
X103770Y134044D01*
X103497Y133027D01*
Y131973D01*
X103770Y130956D01*
X104296Y130044D01*
X105041Y129299D01*
X105953Y128772D01*
X106971Y128500D01*
X108024D01*
X109041Y128772D01*
X109953Y129299D01*
X110698Y130044D01*
X111224Y130956D01*
X111497Y131973D01*
Y133027D01*
X111224Y134044D01*
X110698Y134956D01*
X109953Y135701D01*
X109319Y136066D01*
Y138744D01*
X111922D01*
Y146256D01*
X105592D01*
Y144322D01*
X101064D01*
X100698Y144956D01*
X99953Y145701D01*
X99041Y146227D01*
X98024Y146500D01*
D02*
G37*
G36*
X43025Y136500D02*
X41971D01*
X40954Y136227D01*
X40042Y135701D01*
X39297Y134956D01*
X38770Y134044D01*
X38498Y133027D01*
Y131973D01*
X38770Y130956D01*
X39297Y130044D01*
X40042Y129299D01*
X40954Y128772D01*
X41971Y128500D01*
X43025D01*
X44042Y128772D01*
X44954Y129299D01*
X45699Y130044D01*
X46225Y130956D01*
X46498Y131973D01*
Y133027D01*
X46225Y134044D01*
X45699Y134956D01*
X44954Y135701D01*
X44042Y136227D01*
X43025Y136500D01*
D02*
G37*
G36*
X23024Y146500D02*
X21971D01*
X20954Y146227D01*
X20042Y145701D01*
X19297Y144956D01*
X18770Y144044D01*
X18498Y143026D01*
Y141973D01*
X18770Y140956D01*
X19297Y140044D01*
X20042Y139299D01*
X20954Y138772D01*
X21971Y138500D01*
X23024D01*
X24042Y138772D01*
X24954Y139299D01*
X25699Y140044D01*
X26065Y140677D01*
X30592D01*
Y138744D01*
X30676D01*
Y136066D01*
X30042Y135701D01*
X29297Y134956D01*
X28771Y134044D01*
X28498Y133027D01*
Y131973D01*
X28771Y130956D01*
X29297Y130044D01*
X30042Y129299D01*
X30954Y128772D01*
X31971Y128500D01*
X33024D01*
X34042Y128772D01*
X34954Y129299D01*
X35699Y130044D01*
X36225Y130956D01*
X36498Y131973D01*
Y133027D01*
X36225Y134044D01*
X35699Y134956D01*
X34954Y135701D01*
X34320Y136066D01*
Y138744D01*
X36923D01*
Y146256D01*
X30592D01*
Y144322D01*
X26065D01*
X25699Y144956D01*
X24954Y145701D01*
X24042Y146227D01*
X23024Y146500D01*
D02*
G37*
G36*
X248048Y136681D02*
X246947D01*
X245883Y136396D01*
X244930Y135846D01*
X244151Y135067D01*
X243601Y134114D01*
X243316Y133050D01*
Y131949D01*
X243601Y130886D01*
X244151Y129933D01*
X244930Y129154D01*
X245883Y128604D01*
X246947Y128319D01*
X248048D01*
X249111Y128604D01*
X250064Y129154D01*
X250843Y129933D01*
X251393Y130886D01*
X251678Y131949D01*
Y133050D01*
X251393Y134114D01*
X250843Y135067D01*
X250064Y135846D01*
X249111Y136396D01*
X248048Y136681D01*
D02*
G37*
G36*
X173048D02*
X171947D01*
X170883Y136396D01*
X169930Y135846D01*
X169151Y135067D01*
X168601Y134114D01*
X168316Y133050D01*
Y131949D01*
X168601Y130886D01*
X169151Y129933D01*
X169930Y129154D01*
X170883Y128604D01*
X171947Y128319D01*
X173048D01*
X174111Y128604D01*
X175064Y129154D01*
X175843Y129933D01*
X176393Y130886D01*
X176678Y131949D01*
Y133050D01*
X176393Y134114D01*
X175843Y135067D01*
X175064Y135846D01*
X174111Y136396D01*
X173048Y136681D01*
D02*
G37*
G36*
X98048D02*
X96947D01*
X95883Y136396D01*
X94930Y135846D01*
X94151Y135067D01*
X93601Y134114D01*
X93316Y133050D01*
Y131949D01*
X93601Y130886D01*
X94151Y129933D01*
X94930Y129154D01*
X95883Y128604D01*
X96947Y128319D01*
X98048D01*
X99111Y128604D01*
X100064Y129154D01*
X100843Y129933D01*
X101393Y130886D01*
X101678Y131949D01*
Y133050D01*
X101393Y134114D01*
X100843Y135067D01*
X100064Y135846D01*
X99111Y136396D01*
X98048Y136681D01*
D02*
G37*
G36*
X23048D02*
X21948D01*
X20884Y136396D01*
X19931Y135846D01*
X19152Y135067D01*
X18602Y134114D01*
X18317Y133050D01*
Y131949D01*
X18602Y130886D01*
X19152Y129933D01*
X19931Y129154D01*
X20884Y128604D01*
X21948Y128319D01*
X23048D01*
X24112Y128604D01*
X25065Y129154D01*
X25844Y129933D01*
X26394Y130886D01*
X26679Y131949D01*
Y133050D01*
X26394Y134114D01*
X25844Y135067D01*
X25065Y135846D01*
X24112Y136396D01*
X23048Y136681D01*
D02*
G37*
G36*
X278024Y136500D02*
X276971D01*
X275953Y136227D01*
X275041Y135701D01*
X274296Y134956D01*
X273770Y134044D01*
X273497Y133027D01*
Y131973D01*
X273770Y130956D01*
X274296Y130044D01*
X275041Y129299D01*
X275875Y128817D01*
Y107584D01*
X275440Y107467D01*
X274224Y106765D01*
X273232Y105773D01*
X272530Y104558D01*
X272166Y103202D01*
Y101798D01*
X272530Y100442D01*
X273232Y99227D01*
X274224Y98234D01*
X275440Y97532D01*
X276795Y97169D01*
X278199D01*
X279555Y97532D01*
X280770Y98234D01*
X281763Y99227D01*
X282465Y100442D01*
X282828Y101798D01*
Y103202D01*
X282465Y104558D01*
X281763Y105773D01*
X280770Y106765D01*
X279555Y107467D01*
X279423Y107502D01*
X279407Y108260D01*
X280329Y108729D01*
X280818Y108446D01*
X281924Y108150D01*
X283070D01*
X284176Y108446D01*
X285168Y109019D01*
X285978Y109829D01*
X286551Y110821D01*
X286847Y111927D01*
Y113073D01*
X286551Y114179D01*
X285978Y115171D01*
X285168Y115981D01*
X284176Y116553D01*
X283070Y116850D01*
X281924D01*
X280818Y116553D01*
X280119Y116150D01*
X279119Y116577D01*
Y128817D01*
X279953Y129299D01*
X280698Y130044D01*
X281224Y130956D01*
X281497Y131973D01*
Y133027D01*
X281224Y134044D01*
X280698Y134956D01*
X279953Y135701D01*
X279041Y136227D01*
X278024Y136500D01*
D02*
G37*
G36*
X203024D02*
X201971D01*
X200953Y136227D01*
X200041Y135701D01*
X199296Y134956D01*
X198770Y134044D01*
X198497Y133027D01*
Y131973D01*
X198770Y130956D01*
X199296Y130044D01*
X200041Y129299D01*
X200875Y128817D01*
Y107584D01*
X200440Y107467D01*
X199224Y106765D01*
X198231Y105773D01*
X197530Y104558D01*
X197166Y103202D01*
Y101798D01*
X197530Y100442D01*
X198231Y99227D01*
X199224Y98234D01*
X200440Y97532D01*
X201795Y97169D01*
X203199D01*
X204555Y97532D01*
X205770Y98234D01*
X206763Y99227D01*
X207465Y100442D01*
X207828Y101798D01*
Y103202D01*
X207465Y104558D01*
X206763Y105773D01*
X205770Y106765D01*
X204555Y107467D01*
X204423Y107502D01*
X204407Y108260D01*
X205329Y108729D01*
X205818Y108446D01*
X206924Y108150D01*
X208070D01*
X209176Y108446D01*
X210168Y109019D01*
X210978Y109829D01*
X211551Y110821D01*
X211847Y111927D01*
Y113073D01*
X211551Y114179D01*
X210978Y115171D01*
X210168Y115981D01*
X209176Y116553D01*
X208070Y116850D01*
X206924D01*
X205818Y116553D01*
X205119Y116150D01*
X204119Y116577D01*
Y128817D01*
X204953Y129299D01*
X205698Y130044D01*
X206224Y130956D01*
X206497Y131973D01*
Y133027D01*
X206224Y134044D01*
X205698Y134956D01*
X204953Y135701D01*
X204041Y136227D01*
X203024Y136500D01*
D02*
G37*
G36*
X128024D02*
X126971D01*
X125953Y136227D01*
X125041Y135701D01*
X124296Y134956D01*
X123770Y134044D01*
X123497Y133027D01*
Y131973D01*
X123770Y130956D01*
X124296Y130044D01*
X125041Y129299D01*
X125875Y128817D01*
Y107584D01*
X125440Y107467D01*
X124224Y106765D01*
X123231Y105773D01*
X122530Y104558D01*
X122166Y103202D01*
Y101798D01*
X122530Y100442D01*
X123231Y99227D01*
X124224Y98234D01*
X125440Y97532D01*
X126795Y97169D01*
X128199D01*
X129555Y97532D01*
X130770Y98234D01*
X131763Y99227D01*
X132465Y100442D01*
X132828Y101798D01*
Y103202D01*
X132465Y104558D01*
X131763Y105773D01*
X130770Y106765D01*
X129555Y107467D01*
X129423Y107502D01*
X129407Y108260D01*
X130329Y108729D01*
X130818Y108446D01*
X131924Y108150D01*
X133070D01*
X134176Y108446D01*
X135168Y109019D01*
X135978Y109829D01*
X136551Y110821D01*
X136847Y111927D01*
Y113073D01*
X136551Y114179D01*
X135978Y115171D01*
X135168Y115981D01*
X134176Y116553D01*
X133070Y116850D01*
X131924D01*
X130818Y116553D01*
X130119Y116150D01*
X129119Y116577D01*
Y128817D01*
X129953Y129299D01*
X130698Y130044D01*
X131225Y130956D01*
X131497Y131973D01*
Y133027D01*
X131225Y134044D01*
X130698Y134956D01*
X129953Y135701D01*
X129041Y136227D01*
X128024Y136500D01*
D02*
G37*
G36*
X53025D02*
X51971D01*
X50954Y136227D01*
X50042Y135701D01*
X49297Y134956D01*
X48770Y134044D01*
X48498Y133027D01*
Y131973D01*
X48770Y130956D01*
X49297Y130044D01*
X50042Y129299D01*
X50876Y128817D01*
Y107584D01*
X50440Y107467D01*
X49225Y106765D01*
X48232Y105773D01*
X47530Y104558D01*
X47167Y103202D01*
Y101798D01*
X47530Y100442D01*
X48232Y99227D01*
X49225Y98234D01*
X50440Y97532D01*
X51796Y97169D01*
X53200D01*
X54555Y97532D01*
X55771Y98234D01*
X56763Y99227D01*
X57465Y100442D01*
X57829Y101798D01*
Y103202D01*
X57465Y104558D01*
X56763Y105773D01*
X55771Y106765D01*
X54555Y107467D01*
X54424Y107502D01*
X54408Y108260D01*
X55330Y108729D01*
X55819Y108446D01*
X56925Y108150D01*
X58071D01*
X59177Y108446D01*
X60169Y109019D01*
X60979Y109829D01*
X61551Y110821D01*
X61848Y111927D01*
Y113073D01*
X61551Y114179D01*
X60979Y115171D01*
X60169Y115981D01*
X59177Y116553D01*
X58071Y116850D01*
X56925D01*
X55819Y116553D01*
X55120Y116150D01*
X54120Y116577D01*
Y128817D01*
X54954Y129299D01*
X55699Y130044D01*
X56225Y130956D01*
X56498Y131973D01*
Y133027D01*
X56225Y134044D01*
X55699Y134956D01*
X54954Y135701D01*
X54042Y136227D01*
X53025Y136500D01*
D02*
G37*
G36*
X263369Y121350D02*
X261626D01*
X259916Y121010D01*
X258305Y120343D01*
X256856Y119374D01*
X255623Y118141D01*
X254654Y116692D01*
X253987Y115081D01*
X253647Y113372D01*
Y111628D01*
X253987Y109918D01*
X254654Y108308D01*
X255623Y106858D01*
X256856Y105626D01*
X258305Y104657D01*
X259916Y103990D01*
X261626Y103650D01*
X263369D01*
X265079Y103990D01*
X266689Y104657D01*
X268139Y105626D01*
X269371Y106858D01*
X270340Y108308D01*
X271007Y109918D01*
X271347Y111628D01*
Y113372D01*
X271007Y115081D01*
X270340Y116692D01*
X269371Y118141D01*
X268139Y119374D01*
X266689Y120343D01*
X265079Y121010D01*
X263369Y121350D01*
D02*
G37*
G36*
X188369D02*
X186626D01*
X184916Y121010D01*
X183305Y120343D01*
X181856Y119374D01*
X180623Y118141D01*
X179654Y116692D01*
X178987Y115081D01*
X178647Y113372D01*
Y111628D01*
X178987Y109918D01*
X179654Y108308D01*
X180623Y106858D01*
X181856Y105626D01*
X183305Y104657D01*
X184916Y103990D01*
X186626Y103650D01*
X188369D01*
X190079Y103990D01*
X191689Y104657D01*
X193139Y105626D01*
X194371Y106858D01*
X195340Y108308D01*
X196007Y109918D01*
X196347Y111628D01*
Y113372D01*
X196007Y115081D01*
X195340Y116692D01*
X194371Y118141D01*
X193139Y119374D01*
X191689Y120343D01*
X190079Y121010D01*
X188369Y121350D01*
D02*
G37*
G36*
X113369D02*
X111626D01*
X109916Y121010D01*
X108305Y120343D01*
X106856Y119374D01*
X105623Y118141D01*
X104654Y116692D01*
X103987Y115081D01*
X103647Y113372D01*
Y111628D01*
X103987Y109918D01*
X104654Y108308D01*
X105623Y106858D01*
X106856Y105626D01*
X108305Y104657D01*
X109916Y103990D01*
X111626Y103650D01*
X113369D01*
X115079Y103990D01*
X116689Y104657D01*
X118139Y105626D01*
X119371Y106858D01*
X120340Y108308D01*
X121007Y109918D01*
X121347Y111628D01*
Y113372D01*
X121007Y115081D01*
X120340Y116692D01*
X119371Y118141D01*
X118139Y119374D01*
X116689Y120343D01*
X115079Y121010D01*
X113369Y121350D01*
D02*
G37*
G36*
X38370D02*
X36626D01*
X34916Y121010D01*
X33306Y120343D01*
X31856Y119374D01*
X30624Y118141D01*
X29655Y116692D01*
X28988Y115081D01*
X28648Y113372D01*
Y111628D01*
X28988Y109918D01*
X29655Y108308D01*
X30624Y106858D01*
X31856Y105626D01*
X33306Y104657D01*
X34916Y103990D01*
X36626Y103650D01*
X38370D01*
X40079Y103990D01*
X41690Y104657D01*
X43139Y105626D01*
X44372Y106858D01*
X45341Y108308D01*
X46008Y109918D01*
X46348Y111628D01*
Y113372D01*
X46008Y115081D01*
X45341Y116692D01*
X44372Y118141D01*
X43139Y119374D01*
X41690Y120343D01*
X40079Y121010D01*
X38370Y121350D01*
D02*
G37*
G36*
X269403Y71256D02*
X266828D01*
Y68090D01*
X269403D01*
Y71256D01*
D02*
G37*
G36*
X194403D02*
X191828D01*
Y68090D01*
X194403D01*
Y71256D01*
D02*
G37*
G36*
X44403D02*
X41829D01*
Y68090D01*
X44403D01*
Y71256D01*
D02*
G37*
G36*
X119403D02*
X116828D01*
Y68090D01*
X119403D01*
Y71256D01*
D02*
G37*
G36*
X278088Y71483D02*
Y68090D01*
X281480D01*
X281224Y69044D01*
X280698Y69956D01*
X279953Y70701D01*
X279041Y71227D01*
X278088Y71483D01*
D02*
G37*
G36*
X203088D02*
Y68090D01*
X206480D01*
X206224Y69044D01*
X205698Y69956D01*
X204953Y70701D01*
X204041Y71227D01*
X203088Y71483D01*
D02*
G37*
G36*
X128088D02*
Y68090D01*
X131480D01*
X131225Y69044D01*
X130698Y69956D01*
X129953Y70701D01*
X129041Y71227D01*
X128088Y71483D01*
D02*
G37*
G36*
X53088D02*
Y68090D01*
X56481D01*
X56225Y69044D01*
X55699Y69956D01*
X54954Y70701D01*
X54042Y71227D01*
X53088Y71483D01*
D02*
G37*
G36*
X276907D02*
X275953Y71227D01*
X275041Y70701D01*
X274296Y69956D01*
X273770Y69044D01*
X273514Y68090D01*
X276907D01*
Y71483D01*
D02*
G37*
G36*
X201907D02*
X200953Y71227D01*
X200041Y70701D01*
X199296Y69956D01*
X198770Y69044D01*
X198514Y68090D01*
X201907D01*
Y71483D01*
D02*
G37*
G36*
X126907D02*
X125953Y71227D01*
X125041Y70701D01*
X124296Y69956D01*
X123770Y69044D01*
X123514Y68090D01*
X126907D01*
Y71483D01*
D02*
G37*
G36*
X51907D02*
X50954Y71227D01*
X50042Y70701D01*
X49297Y69956D01*
X48770Y69044D01*
X48515Y68090D01*
X51907D01*
Y71483D01*
D02*
G37*
G36*
X40648Y71256D02*
X38073D01*
Y68090D01*
X40648D01*
Y71256D01*
D02*
G37*
G36*
X265647D02*
X263072D01*
Y68090D01*
X265647D01*
Y71256D01*
D02*
G37*
G36*
X190647D02*
X188072D01*
Y68090D01*
X190647D01*
Y71256D01*
D02*
G37*
G36*
X115647D02*
X113072D01*
Y68090D01*
X115647D01*
Y71256D01*
D02*
G37*
G36*
X269403Y66909D02*
X266828D01*
Y63744D01*
X269403D01*
Y66909D01*
D02*
G37*
G36*
X265647D02*
X263072D01*
Y63744D01*
X265647D01*
Y66909D01*
D02*
G37*
G36*
X194403D02*
X191828D01*
Y63744D01*
X194403D01*
Y66909D01*
D02*
G37*
G36*
X190647D02*
X188072D01*
Y63744D01*
X190647D01*
Y66909D01*
D02*
G37*
G36*
X119403D02*
X116828D01*
Y63744D01*
X119403D01*
Y66909D01*
D02*
G37*
G36*
X115647D02*
X113072D01*
Y63744D01*
X115647D01*
Y66909D01*
D02*
G37*
G36*
X44403D02*
X41829D01*
Y63744D01*
X44403D01*
Y66909D01*
D02*
G37*
G36*
X40648D02*
X38073D01*
Y63744D01*
X40648D01*
Y66909D01*
D02*
G37*
G36*
X206480D02*
X203088D01*
Y63517D01*
X204041Y63773D01*
X204953Y64299D01*
X205698Y65044D01*
X206224Y65956D01*
X206480Y66909D01*
D02*
G37*
G36*
X131480D02*
X128088D01*
Y63517D01*
X129041Y63773D01*
X129953Y64299D01*
X130698Y65044D01*
X131225Y65956D01*
X131480Y66909D01*
D02*
G37*
G36*
X56481D02*
X53088D01*
Y63517D01*
X54042Y63773D01*
X54954Y64299D01*
X55699Y65044D01*
X56225Y65956D01*
X56481Y66909D01*
D02*
G37*
G36*
X281480D02*
X278088D01*
Y63517D01*
X279041Y63773D01*
X279953Y64299D01*
X280698Y65044D01*
X281224Y65956D01*
X281480Y66909D01*
D02*
G37*
G36*
X276907D02*
X273514D01*
X273770Y65956D01*
X274296Y65044D01*
X275041Y64299D01*
X275953Y63773D01*
X276907Y63517D01*
Y66909D01*
D02*
G37*
G36*
X201907D02*
X198514D01*
X198770Y65956D01*
X199296Y65044D01*
X200041Y64299D01*
X200953Y63773D01*
X201907Y63517D01*
Y66909D01*
D02*
G37*
G36*
X126907D02*
X123514D01*
X123770Y65956D01*
X124296Y65044D01*
X125041Y64299D01*
X125953Y63773D01*
X126907Y63517D01*
Y66909D01*
D02*
G37*
G36*
X51907D02*
X48515D01*
X48770Y65956D01*
X49297Y65044D01*
X50042Y64299D01*
X50954Y63773D01*
X51907Y63517D01*
Y66909D01*
D02*
G37*
G36*
X268024Y61500D02*
X266970D01*
X265953Y61227D01*
X265041Y60701D01*
X264296Y59956D01*
X263770Y59044D01*
X263497Y58027D01*
Y56973D01*
X263770Y55956D01*
X264296Y55044D01*
X265041Y54299D01*
X265953Y53773D01*
X266970Y53500D01*
X268024D01*
X269041Y53773D01*
X269953Y54299D01*
X270698Y55044D01*
X271224Y55956D01*
X271497Y56973D01*
Y58027D01*
X271224Y59044D01*
X270698Y59956D01*
X269953Y60701D01*
X269041Y61227D01*
X268024Y61500D01*
D02*
G37*
G36*
X248024Y71500D02*
X246971D01*
X245953Y71227D01*
X245041Y70701D01*
X244296Y69956D01*
X243770Y69044D01*
X243497Y68027D01*
Y66973D01*
X243770Y65956D01*
X244296Y65044D01*
X245041Y64299D01*
X245953Y63773D01*
X246971Y63500D01*
X248024D01*
X249041Y63773D01*
X249953Y64299D01*
X250698Y65044D01*
X251064Y65678D01*
X255592D01*
Y63744D01*
X255675D01*
Y61067D01*
X255041Y60701D01*
X254296Y59956D01*
X253770Y59044D01*
X253497Y58027D01*
Y56973D01*
X253770Y55956D01*
X254296Y55044D01*
X255041Y54299D01*
X255953Y53773D01*
X256971Y53500D01*
X258024D01*
X259041Y53773D01*
X259953Y54299D01*
X260698Y55044D01*
X261225Y55956D01*
X261497Y56973D01*
Y58027D01*
X261225Y59044D01*
X260698Y59956D01*
X259953Y60701D01*
X259319Y61067D01*
Y63744D01*
X261922D01*
Y71256D01*
X255592D01*
Y69322D01*
X251064D01*
X250698Y69956D01*
X249953Y70701D01*
X249041Y71227D01*
X248024Y71500D01*
D02*
G37*
G36*
X193024Y61500D02*
X191971D01*
X190953Y61227D01*
X190041Y60701D01*
X189296Y59956D01*
X188770Y59044D01*
X188497Y58027D01*
Y56973D01*
X188770Y55956D01*
X189296Y55044D01*
X190041Y54299D01*
X190953Y53773D01*
X191971Y53500D01*
X193024D01*
X194041Y53773D01*
X194953Y54299D01*
X195698Y55044D01*
X196224Y55956D01*
X196497Y56973D01*
Y58027D01*
X196224Y59044D01*
X195698Y59956D01*
X194953Y60701D01*
X194041Y61227D01*
X193024Y61500D01*
D02*
G37*
G36*
X173024Y71500D02*
X171970D01*
X170953Y71227D01*
X170041Y70701D01*
X169296Y69956D01*
X168770Y69044D01*
X168497Y68027D01*
Y66973D01*
X168770Y65956D01*
X169296Y65044D01*
X170041Y64299D01*
X170953Y63773D01*
X171970Y63500D01*
X173024D01*
X174041Y63773D01*
X174953Y64299D01*
X175698Y65044D01*
X176064Y65678D01*
X180592D01*
Y63744D01*
X180675D01*
Y61067D01*
X180041Y60701D01*
X179296Y59956D01*
X178770Y59044D01*
X178497Y58027D01*
Y56973D01*
X178770Y55956D01*
X179296Y55044D01*
X180041Y54299D01*
X180953Y53773D01*
X181971Y53500D01*
X183024D01*
X184041Y53773D01*
X184953Y54299D01*
X185698Y55044D01*
X186224Y55956D01*
X186497Y56973D01*
Y58027D01*
X186224Y59044D01*
X185698Y59956D01*
X184953Y60701D01*
X184319Y61067D01*
Y63744D01*
X186922D01*
Y71256D01*
X180592D01*
Y69322D01*
X176064D01*
X175698Y69956D01*
X174953Y70701D01*
X174041Y71227D01*
X173024Y71500D01*
D02*
G37*
G36*
X118024Y61500D02*
X116971D01*
X115953Y61227D01*
X115041Y60701D01*
X114296Y59956D01*
X113770Y59044D01*
X113497Y58027D01*
Y56973D01*
X113770Y55956D01*
X114296Y55044D01*
X115041Y54299D01*
X115953Y53773D01*
X116971Y53500D01*
X118024D01*
X119041Y53773D01*
X119953Y54299D01*
X120698Y55044D01*
X121224Y55956D01*
X121497Y56973D01*
Y58027D01*
X121224Y59044D01*
X120698Y59956D01*
X119953Y60701D01*
X119041Y61227D01*
X118024Y61500D01*
D02*
G37*
G36*
X98024Y71500D02*
X96970D01*
X95953Y71227D01*
X95041Y70701D01*
X94296Y69956D01*
X93770Y69044D01*
X93497Y68027D01*
Y66973D01*
X93770Y65956D01*
X94296Y65044D01*
X95041Y64299D01*
X95953Y63773D01*
X96970Y63500D01*
X98024D01*
X99041Y63773D01*
X99953Y64299D01*
X100698Y65044D01*
X101064Y65678D01*
X105592D01*
Y63744D01*
X105675D01*
Y61067D01*
X105041Y60701D01*
X104296Y59956D01*
X103770Y59044D01*
X103497Y58027D01*
Y56973D01*
X103770Y55956D01*
X104296Y55044D01*
X105041Y54299D01*
X105953Y53773D01*
X106971Y53500D01*
X108024D01*
X109041Y53773D01*
X109953Y54299D01*
X110698Y55044D01*
X111224Y55956D01*
X111497Y56973D01*
Y58027D01*
X111224Y59044D01*
X110698Y59956D01*
X109953Y60701D01*
X109319Y61067D01*
Y63744D01*
X111922D01*
Y71256D01*
X105592D01*
Y69322D01*
X101064D01*
X100698Y69956D01*
X99953Y70701D01*
X99041Y71227D01*
X98024Y71500D01*
D02*
G37*
G36*
X43025Y61500D02*
X41971D01*
X40954Y61227D01*
X40042Y60701D01*
X39297Y59956D01*
X38770Y59044D01*
X38498Y58027D01*
Y56973D01*
X38770Y55956D01*
X39297Y55044D01*
X40042Y54299D01*
X40954Y53773D01*
X41971Y53500D01*
X43025D01*
X44042Y53773D01*
X44954Y54299D01*
X45699Y55044D01*
X46225Y55956D01*
X46498Y56973D01*
Y58027D01*
X46225Y59044D01*
X45699Y59956D01*
X44954Y60701D01*
X44042Y61227D01*
X43025Y61500D01*
D02*
G37*
G36*
X23024Y71500D02*
X21971D01*
X20954Y71227D01*
X20042Y70701D01*
X19297Y69956D01*
X18770Y69044D01*
X18498Y68027D01*
Y66973D01*
X18770Y65956D01*
X19297Y65044D01*
X20042Y64299D01*
X20954Y63773D01*
X21971Y63500D01*
X23024D01*
X24042Y63773D01*
X24954Y64299D01*
X25699Y65044D01*
X26065Y65678D01*
X30592D01*
Y63744D01*
X30676D01*
Y61067D01*
X30042Y60701D01*
X29297Y59956D01*
X28771Y59044D01*
X28498Y58027D01*
Y56973D01*
X28771Y55956D01*
X29297Y55044D01*
X30042Y54299D01*
X30954Y53773D01*
X31971Y53500D01*
X33024D01*
X34042Y53773D01*
X34954Y54299D01*
X35699Y55044D01*
X36225Y55956D01*
X36498Y56973D01*
Y58027D01*
X36225Y59044D01*
X35699Y59956D01*
X34954Y60701D01*
X34320Y61067D01*
Y63744D01*
X36923D01*
Y71256D01*
X30592D01*
Y69322D01*
X26065D01*
X25699Y69956D01*
X24954Y70701D01*
X24042Y71227D01*
X23024Y71500D01*
D02*
G37*
G36*
X248048Y61681D02*
X246947D01*
X245883Y61396D01*
X244930Y60846D01*
X244151Y60067D01*
X243601Y59114D01*
X243316Y58051D01*
Y56950D01*
X243601Y55886D01*
X244151Y54933D01*
X244930Y54154D01*
X245883Y53604D01*
X246947Y53319D01*
X248048D01*
X249111Y53604D01*
X250064Y54154D01*
X250843Y54933D01*
X251393Y55886D01*
X251678Y56950D01*
Y58051D01*
X251393Y59114D01*
X250843Y60067D01*
X250064Y60846D01*
X249111Y61396D01*
X248048Y61681D01*
D02*
G37*
G36*
X173048D02*
X171947D01*
X170883Y61396D01*
X169930Y60846D01*
X169151Y60067D01*
X168601Y59114D01*
X168316Y58051D01*
Y56950D01*
X168601Y55886D01*
X169151Y54933D01*
X169930Y54154D01*
X170883Y53604D01*
X171947Y53319D01*
X173048D01*
X174111Y53604D01*
X175064Y54154D01*
X175843Y54933D01*
X176393Y55886D01*
X176678Y56950D01*
Y58051D01*
X176393Y59114D01*
X175843Y60067D01*
X175064Y60846D01*
X174111Y61396D01*
X173048Y61681D01*
D02*
G37*
G36*
X98048D02*
X96947D01*
X95883Y61396D01*
X94930Y60846D01*
X94151Y60067D01*
X93601Y59114D01*
X93316Y58051D01*
Y56950D01*
X93601Y55886D01*
X94151Y54933D01*
X94930Y54154D01*
X95883Y53604D01*
X96947Y53319D01*
X98048D01*
X99111Y53604D01*
X100064Y54154D01*
X100843Y54933D01*
X101393Y55886D01*
X101678Y56950D01*
Y58051D01*
X101393Y59114D01*
X100843Y60067D01*
X100064Y60846D01*
X99111Y61396D01*
X98048Y61681D01*
D02*
G37*
G36*
X23048D02*
X21948D01*
X20884Y61396D01*
X19931Y60846D01*
X19152Y60067D01*
X18602Y59114D01*
X18317Y58051D01*
Y56950D01*
X18602Y55886D01*
X19152Y54933D01*
X19931Y54154D01*
X20884Y53604D01*
X21948Y53319D01*
X23048D01*
X24112Y53604D01*
X25065Y54154D01*
X25844Y54933D01*
X26394Y55886D01*
X26679Y56950D01*
Y58051D01*
X26394Y59114D01*
X25844Y60067D01*
X25065Y60846D01*
X24112Y61396D01*
X23048Y61681D01*
D02*
G37*
G36*
X203024Y61500D02*
X201971D01*
X200953Y61227D01*
X200041Y60701D01*
X199296Y59956D01*
X198770Y59044D01*
X198497Y58027D01*
Y56973D01*
X198770Y55956D01*
X199296Y55044D01*
X200041Y54299D01*
X200875Y53817D01*
Y32584D01*
X200440Y32467D01*
X199224Y31766D01*
X198231Y30773D01*
X197530Y29558D01*
X197166Y28202D01*
Y26798D01*
X197530Y25442D01*
X198231Y24227D01*
X199224Y23234D01*
X200440Y22533D01*
X201795Y22169D01*
X203199D01*
X204555Y22533D01*
X205770Y23234D01*
X206763Y24227D01*
X207465Y25442D01*
X207828Y26798D01*
Y28202D01*
X207465Y29558D01*
X206763Y30773D01*
X205770Y31766D01*
X204555Y32467D01*
X204423Y32503D01*
X204407Y33260D01*
X205329Y33729D01*
X205818Y33446D01*
X206924Y33150D01*
X208070D01*
X209176Y33446D01*
X210168Y34019D01*
X210978Y34829D01*
X211551Y35821D01*
X211847Y36927D01*
Y38073D01*
X211551Y39179D01*
X210978Y40171D01*
X210168Y40981D01*
X209176Y41554D01*
X208070Y41850D01*
X206924D01*
X205818Y41554D01*
X205119Y41150D01*
X204119Y41577D01*
Y53817D01*
X204953Y54299D01*
X205698Y55044D01*
X206224Y55956D01*
X206497Y56973D01*
Y58027D01*
X206224Y59044D01*
X205698Y59956D01*
X204953Y60701D01*
X204041Y61227D01*
X203024Y61500D01*
D02*
G37*
G36*
X128024D02*
X126971D01*
X125953Y61227D01*
X125041Y60701D01*
X124296Y59956D01*
X123770Y59044D01*
X123497Y58027D01*
Y56973D01*
X123770Y55956D01*
X124296Y55044D01*
X125041Y54299D01*
X125875Y53817D01*
Y32584D01*
X125440Y32467D01*
X124224Y31766D01*
X123231Y30773D01*
X122530Y29558D01*
X122166Y28202D01*
Y26798D01*
X122530Y25442D01*
X123231Y24227D01*
X124224Y23234D01*
X125440Y22533D01*
X126795Y22169D01*
X128199D01*
X129555Y22533D01*
X130770Y23234D01*
X131763Y24227D01*
X132465Y25442D01*
X132828Y26798D01*
Y28202D01*
X132465Y29558D01*
X131763Y30773D01*
X130770Y31766D01*
X129555Y32467D01*
X129423Y32503D01*
X129407Y33260D01*
X130329Y33729D01*
X130818Y33446D01*
X131924Y33150D01*
X133070D01*
X134176Y33446D01*
X135168Y34019D01*
X135978Y34829D01*
X136551Y35821D01*
X136847Y36927D01*
Y38073D01*
X136551Y39179D01*
X135978Y40171D01*
X135168Y40981D01*
X134176Y41554D01*
X133070Y41850D01*
X131924D01*
X130818Y41554D01*
X130119Y41150D01*
X129119Y41577D01*
Y53817D01*
X129953Y54299D01*
X130698Y55044D01*
X131225Y55956D01*
X131497Y56973D01*
Y58027D01*
X131225Y59044D01*
X130698Y59956D01*
X129953Y60701D01*
X129041Y61227D01*
X128024Y61500D01*
D02*
G37*
G36*
X53025D02*
X51971D01*
X50954Y61227D01*
X50042Y60701D01*
X49297Y59956D01*
X48770Y59044D01*
X48498Y58027D01*
Y56973D01*
X48770Y55956D01*
X49297Y55044D01*
X50042Y54299D01*
X50876Y53817D01*
Y32584D01*
X50440Y32467D01*
X49225Y31766D01*
X48232Y30773D01*
X47530Y29558D01*
X47167Y28202D01*
Y26798D01*
X47530Y25442D01*
X48232Y24227D01*
X49225Y23234D01*
X50440Y22533D01*
X51796Y22169D01*
X53200D01*
X54555Y22533D01*
X55771Y23234D01*
X56763Y24227D01*
X57465Y25442D01*
X57829Y26798D01*
Y28202D01*
X57465Y29558D01*
X56763Y30773D01*
X55771Y31766D01*
X54555Y32467D01*
X54424Y32503D01*
X54408Y33260D01*
X55330Y33729D01*
X55819Y33446D01*
X56925Y33150D01*
X58071D01*
X59177Y33446D01*
X60169Y34019D01*
X60979Y34829D01*
X61551Y35821D01*
X61848Y36927D01*
Y38073D01*
X61551Y39179D01*
X60979Y40171D01*
X60169Y40981D01*
X59177Y41554D01*
X58071Y41850D01*
X56925D01*
X55819Y41554D01*
X55120Y41150D01*
X54120Y41577D01*
Y53817D01*
X54954Y54299D01*
X55699Y55044D01*
X56225Y55956D01*
X56498Y56973D01*
Y58027D01*
X56225Y59044D01*
X55699Y59956D01*
X54954Y60701D01*
X54042Y61227D01*
X53025Y61500D01*
D02*
G37*
G36*
X263369Y46350D02*
X261626D01*
X259916Y46010D01*
X258305Y45343D01*
X256856Y44374D01*
X255623Y43142D01*
X254654Y41692D01*
X253987Y40082D01*
X253647Y38372D01*
Y36628D01*
X253987Y34918D01*
X254654Y33308D01*
X255623Y31858D01*
X256856Y30626D01*
X258305Y29657D01*
X259916Y28990D01*
X261626Y28650D01*
X263369D01*
X265079Y28990D01*
X266689Y29657D01*
X268139Y30626D01*
X269371Y31858D01*
X270340Y33308D01*
X271007Y34918D01*
X271347Y36628D01*
Y38372D01*
X271007Y40082D01*
X270340Y41692D01*
X269371Y43142D01*
X268139Y44374D01*
X266689Y45343D01*
X265079Y46010D01*
X263369Y46350D01*
D02*
G37*
G36*
X188369D02*
X186626D01*
X184916Y46010D01*
X183305Y45343D01*
X181856Y44374D01*
X180623Y43142D01*
X179654Y41692D01*
X178987Y40082D01*
X178647Y38372D01*
Y36628D01*
X178987Y34918D01*
X179654Y33308D01*
X180623Y31858D01*
X181856Y30626D01*
X183305Y29657D01*
X184916Y28990D01*
X186626Y28650D01*
X188369D01*
X190079Y28990D01*
X191689Y29657D01*
X193139Y30626D01*
X194371Y31858D01*
X195340Y33308D01*
X196007Y34918D01*
X196347Y36628D01*
Y38372D01*
X196007Y40082D01*
X195340Y41692D01*
X194371Y43142D01*
X193139Y44374D01*
X191689Y45343D01*
X190079Y46010D01*
X188369Y46350D01*
D02*
G37*
G36*
X113369D02*
X111626D01*
X109916Y46010D01*
X108305Y45343D01*
X106856Y44374D01*
X105623Y43142D01*
X104654Y41692D01*
X103987Y40082D01*
X103647Y38372D01*
Y36628D01*
X103987Y34918D01*
X104654Y33308D01*
X105623Y31858D01*
X106856Y30626D01*
X108305Y29657D01*
X109916Y28990D01*
X111626Y28650D01*
X113369D01*
X115079Y28990D01*
X116689Y29657D01*
X118139Y30626D01*
X119371Y31858D01*
X120340Y33308D01*
X121007Y34918D01*
X121347Y36628D01*
Y38372D01*
X121007Y40082D01*
X120340Y41692D01*
X119371Y43142D01*
X118139Y44374D01*
X116689Y45343D01*
X115079Y46010D01*
X113369Y46350D01*
D02*
G37*
G36*
X38370D02*
X36626D01*
X34916Y46010D01*
X33306Y45343D01*
X31856Y44374D01*
X30624Y43142D01*
X29655Y41692D01*
X28988Y40082D01*
X28648Y38372D01*
Y36628D01*
X28988Y34918D01*
X29655Y33308D01*
X30624Y31858D01*
X31856Y30626D01*
X33306Y29657D01*
X34916Y28990D01*
X36626Y28650D01*
X38370D01*
X40079Y28990D01*
X41690Y29657D01*
X43139Y30626D01*
X44372Y31858D01*
X45341Y33308D01*
X46008Y34918D01*
X46348Y36628D01*
Y38372D01*
X46008Y40082D01*
X45341Y41692D01*
X44372Y43142D01*
X43139Y44374D01*
X41690Y45343D01*
X40079Y46010D01*
X38370Y46350D01*
D02*
G37*
%LPD*%
D26*
X163779Y367323D02*
D03*
Y359842D02*
D03*
Y342323D02*
D03*
Y349803D02*
D03*
D27*
X96457Y378740D02*
D03*
X88976D02*
D03*
Y370472D02*
D03*
X96457D02*
D03*
Y361024D02*
D03*
X88976D02*
D03*
X96457Y352756D02*
D03*
X88976D02*
D03*
Y343307D02*
D03*
X96457D02*
D03*
Y335039D02*
D03*
X88976D02*
D03*
X266237Y292501D02*
D03*
X258757D02*
D03*
X191237D02*
D03*
X183757D02*
D03*
X116237D02*
D03*
X108757D02*
D03*
X41238D02*
D03*
X33758D02*
D03*
X266237Y217501D02*
D03*
X258757D02*
D03*
X191237D02*
D03*
X183757D02*
D03*
X116237D02*
D03*
X108757D02*
D03*
X41238D02*
D03*
X33758D02*
D03*
X266237Y142500D02*
D03*
X258757D02*
D03*
X191237D02*
D03*
X183757D02*
D03*
X116237D02*
D03*
X108757D02*
D03*
X41238D02*
D03*
X33758D02*
D03*
X266237Y67500D02*
D03*
X258757D02*
D03*
X191237D02*
D03*
X183757D02*
D03*
X116237D02*
D03*
X108757D02*
D03*
X41238D02*
D03*
X33758D02*
D03*
D28*
X38482Y379873D02*
D03*
X38482Y332629D02*
D03*
D29*
X143701Y346179D02*
Y364567D01*
X146457Y367323D02*
X163779D01*
X143701Y364567D02*
X146457Y367323D01*
X143701Y346179D02*
X149997Y339882D01*
X160748D02*
X163189Y342323D01*
X163779D01*
X149997Y339882D02*
X160748D01*
X284449Y30394D02*
X290158Y36102D01*
X273622Y13780D02*
X284449Y24606D01*
Y30394D01*
X257407Y13780D02*
X273622D01*
X290158Y36102D02*
X290158D01*
X290158Y26102D02*
X290158D01*
X274685Y10630D02*
X290158Y26102D01*
Y16102D02*
X290158D01*
X281535Y7480D02*
X290158Y16102D01*
X284842Y6102D02*
X290158D01*
X283071Y4331D02*
X284842Y6102D01*
X40667Y4331D02*
X283071D01*
X184367Y10630D02*
X274685D01*
X27498Y17500D02*
X40667Y4331D01*
X5512Y189487D02*
X27498Y167501D01*
X5512Y220515D02*
X27498Y242501D01*
X5512Y145515D02*
X27498Y167501D01*
X5512Y189487D02*
Y220515D01*
Y114486D02*
Y145515D01*
Y39486D02*
X27498Y17500D01*
X5512Y70514D02*
X27498Y92500D01*
X5512Y114486D02*
X27498Y92500D01*
X5512Y39486D02*
Y70514D01*
X102497Y232419D02*
Y242501D01*
Y157418D02*
Y167500D01*
X112517Y7480D02*
X281535D01*
X102497Y17500D02*
X112517Y7480D01*
X102497Y82418D02*
Y92500D01*
X80512Y189486D02*
X102497Y167501D01*
X80512Y135433D02*
X102497Y157418D01*
X80512Y189486D02*
Y210434D01*
X102497Y232419D01*
X80512Y114485D02*
Y135433D01*
Y39485D02*
X102497Y17500D01*
X80512Y60433D02*
X102497Y82418D01*
X80512Y114485D02*
X102497Y92500D01*
X80512Y39485D02*
Y60433D01*
X177497Y17500D02*
X184367Y10630D01*
X155511Y189487D02*
X177497Y167501D01*
X155511Y145515D02*
X177497Y167501D01*
X155511Y220515D02*
X177497Y242501D01*
X155511Y189487D02*
Y220515D01*
Y70514D02*
X177497Y92500D01*
X155511Y114486D02*
X177497Y92500D01*
X155511Y39486D02*
X177497Y17500D01*
X155511Y114486D02*
Y145515D01*
Y39486D02*
Y70514D01*
X252497Y157418D02*
Y167500D01*
Y232419D02*
Y242501D01*
Y82418D02*
Y92500D01*
X253686Y17500D02*
X257407Y13780D01*
X252497Y17500D02*
X253686D01*
X230512Y135433D02*
X252497Y157418D01*
X230512Y189486D02*
Y210434D01*
X252497Y232419D01*
X230512Y189486D02*
X252497Y167501D01*
X230512Y39485D02*
X252497Y17500D01*
X230512Y60433D02*
X252497Y82418D01*
X230512Y114485D02*
X252497Y92500D01*
X230512Y114485D02*
Y135433D01*
Y39485D02*
Y60433D01*
X277913Y303661D02*
X290158D01*
X242958Y313661D02*
X290158D01*
X277913Y323661D02*
X290158D01*
X267126Y333661D02*
X290158D01*
X271890Y343661D02*
X290158D01*
X255669Y359882D02*
X271890Y343661D01*
X149997Y359882D02*
X255669D01*
X149997Y349882D02*
X250905D01*
X267126Y333661D01*
X271063Y316811D02*
X277913Y323661D01*
X236344Y320276D02*
X242958Y313661D01*
X271063Y310512D02*
X277913Y303661D01*
X232283Y320276D02*
X232283Y320276D01*
X241653Y310512D02*
X271063D01*
X235039Y317126D02*
X241653Y310512D01*
X132233Y317126D02*
X232283D01*
X237649Y323425D02*
X244263Y316811D01*
X134843Y323425D02*
X237649D01*
X244263Y316811D02*
X271063D01*
X232283Y320276D02*
X236344D01*
X133538Y320276D02*
X232283D01*
X232283Y317126D02*
X235039D01*
X232283Y317126D02*
X232283Y317126D01*
X96457Y335039D02*
X114320D01*
X96457D02*
Y343307D01*
X114320Y335039D02*
X132233Y317126D01*
X96457Y352756D02*
X112795D01*
X96457D02*
Y361024D01*
X115748Y338066D02*
Y349803D01*
Y338066D02*
X133538Y320276D01*
X112795Y352756D02*
X115748Y349803D01*
X96457Y370472D02*
X112795D01*
X96457D02*
Y378740D01*
X118898Y339370D02*
Y364370D01*
Y339370D02*
X134843Y323425D01*
X112795Y370472D02*
X118898Y364370D01*
X266237Y67500D02*
Y73366D01*
X191237Y67500D02*
Y73366D01*
X116237Y67500D02*
Y73366D01*
X41238Y67500D02*
Y73366D01*
Y142500D02*
Y148366D01*
X116237Y142500D02*
Y148366D01*
X191237Y142500D02*
Y148366D01*
X266237Y142500D02*
Y148366D01*
Y292501D02*
Y298367D01*
X191237Y292501D02*
Y298367D01*
X116237Y292501D02*
Y298367D01*
X41238Y292501D02*
Y298367D01*
X266237Y217501D02*
Y223367D01*
X191237Y217501D02*
Y223367D01*
X116237Y217501D02*
Y223367D01*
X41238Y217501D02*
Y223367D01*
X66799Y346408D02*
X69900Y343307D01*
X66041Y346408D02*
X66799D01*
X69900Y343307D02*
X88976D01*
X8955Y346408D02*
X56054D01*
X70669Y361024D01*
X88976D01*
X48377Y366093D02*
X61024Y378740D01*
X88976D01*
X8955Y366093D02*
X48377D01*
X52498Y252501D02*
Y282501D01*
X127497Y252501D02*
Y282501D01*
X202497Y252501D02*
Y282501D01*
X277497Y252501D02*
Y282501D01*
Y177501D02*
Y207501D01*
X202497Y177501D02*
Y207501D01*
X127497Y177501D02*
Y207501D01*
X52498Y177501D02*
Y207501D01*
Y102500D02*
Y132500D01*
X127497Y102500D02*
Y132500D01*
X202497Y102500D02*
Y132500D01*
X277497Y102500D02*
Y132500D01*
Y27500D02*
Y57500D01*
X202497Y27500D02*
Y57500D01*
X127497Y27500D02*
Y57500D01*
X52498Y27500D02*
Y57500D01*
D30*
X274882Y353661D02*
X290158D01*
X261339Y367205D02*
X274882Y353661D01*
X261339Y367205D02*
Y375590D01*
D31*
X32498Y291241D02*
X33758Y292501D01*
X32498Y282501D02*
Y291241D01*
X22498Y292501D02*
X33758D01*
X107497Y282501D02*
Y291241D01*
X97497Y292501D02*
X108757D01*
X182497Y282501D02*
Y291241D01*
X172497Y292501D02*
X183757D01*
X257497Y282501D02*
Y291241D01*
X247497Y292501D02*
X258757D01*
X22498Y217501D02*
X33758D01*
X32498Y207501D02*
Y216241D01*
X107497Y207501D02*
Y216241D01*
X97497Y217501D02*
X108757D01*
X182497Y207501D02*
Y216241D01*
X172497Y217501D02*
X183757D01*
X257497Y207501D02*
Y216241D01*
X247497Y217501D02*
X258757D01*
X22498Y142500D02*
X33758D01*
X32498Y132500D02*
Y141240D01*
X107497Y132500D02*
Y141240D01*
X97497Y142500D02*
X108757D01*
X182497Y132500D02*
Y141240D01*
X172497Y142500D02*
X183757D01*
X257497Y132500D02*
Y141240D01*
X247497Y142500D02*
X258757D01*
X247497Y67500D02*
X258757D01*
X257497Y66240D02*
X258757Y67500D01*
X257497Y57500D02*
Y66240D01*
X172497Y67500D02*
X183757D01*
X182497Y66240D02*
X183757Y67500D01*
X182497Y57500D02*
Y66240D01*
X97497Y67500D02*
X108757D01*
X107497Y66240D02*
X108757Y67500D01*
X107497Y57500D02*
Y66240D01*
X32498Y57500D02*
Y66240D01*
X33758Y67500D01*
X22498D02*
X33758D01*
D32*
X292618Y6102D02*
D03*
Y16102D02*
D03*
Y26102D02*
D03*
Y36102D02*
D03*
Y56102D02*
D03*
Y66102D02*
D03*
Y76102D02*
D03*
Y86102D02*
D03*
Y373661D02*
D03*
Y303661D02*
D03*
Y313661D02*
D03*
Y353661D02*
D03*
Y363661D02*
D03*
Y323661D02*
D03*
Y343661D02*
D03*
Y333661D02*
D03*
Y383661D02*
D03*
D33*
X149997Y329882D02*
D03*
D34*
Y339882D02*
D03*
Y349882D02*
D03*
Y359882D02*
D03*
X267497Y282501D02*
D03*
X257497D02*
D03*
X247497D02*
D03*
X277497D02*
D03*
Y292501D02*
D03*
X247497D02*
D03*
X192497Y282501D02*
D03*
X182497D02*
D03*
X172497D02*
D03*
X202497D02*
D03*
Y292501D02*
D03*
X172497D02*
D03*
X117497Y282501D02*
D03*
X107497D02*
D03*
X97497D02*
D03*
X127497D02*
D03*
Y292501D02*
D03*
X97497D02*
D03*
X42498Y282501D02*
D03*
X32498D02*
D03*
X22498D02*
D03*
X52498D02*
D03*
Y292501D02*
D03*
X22498D02*
D03*
X267497Y207501D02*
D03*
X257497D02*
D03*
X247497D02*
D03*
X277497D02*
D03*
Y217501D02*
D03*
X247497D02*
D03*
X192497Y207501D02*
D03*
X182497D02*
D03*
X172497D02*
D03*
X202497D02*
D03*
Y217501D02*
D03*
X172497D02*
D03*
X117497Y207501D02*
D03*
X107497D02*
D03*
X97497D02*
D03*
X127497D02*
D03*
Y217501D02*
D03*
X97497D02*
D03*
X42498Y207501D02*
D03*
X32498D02*
D03*
X22498D02*
D03*
X52498D02*
D03*
Y217501D02*
D03*
X22498D02*
D03*
X267497Y132500D02*
D03*
X257497D02*
D03*
X247497D02*
D03*
X277497D02*
D03*
Y142500D02*
D03*
X247497D02*
D03*
X192497Y132500D02*
D03*
X182497D02*
D03*
X172497D02*
D03*
X202497D02*
D03*
Y142500D02*
D03*
X172497D02*
D03*
X117497Y132500D02*
D03*
X107497D02*
D03*
X97497D02*
D03*
X127497D02*
D03*
Y142500D02*
D03*
X97497D02*
D03*
X42498Y132500D02*
D03*
X32498D02*
D03*
X22498D02*
D03*
X52498D02*
D03*
Y142500D02*
D03*
X22498D02*
D03*
X267497Y57500D02*
D03*
X257497D02*
D03*
X247497D02*
D03*
X277497D02*
D03*
Y67500D02*
D03*
X247497D02*
D03*
X192497Y57500D02*
D03*
X182497D02*
D03*
X172497D02*
D03*
X202497D02*
D03*
Y67500D02*
D03*
X172497D02*
D03*
X117497Y57500D02*
D03*
X107497D02*
D03*
X97497D02*
D03*
X127497D02*
D03*
Y67500D02*
D03*
X97497D02*
D03*
X42498Y57500D02*
D03*
X32498D02*
D03*
X22498D02*
D03*
X52498D02*
D03*
Y67500D02*
D03*
X22498D02*
D03*
D35*
X261339Y375590D02*
D03*
X66041Y346408D02*
D03*
Y366093D02*
D03*
X8955Y346408D02*
D03*
Y356251D02*
D03*
Y366093D02*
D03*
D36*
X271339Y375590D02*
D03*
D37*
X242497Y262501D02*
D03*
X282497D02*
D03*
X167497D02*
D03*
X207497D02*
D03*
X92497D02*
D03*
X132497D02*
D03*
X17498D02*
D03*
X57498D02*
D03*
X242497Y187501D02*
D03*
X282497D02*
D03*
X167497D02*
D03*
X207497D02*
D03*
X92497D02*
D03*
X132497D02*
D03*
X17498D02*
D03*
X57498D02*
D03*
X242497Y112500D02*
D03*
X282497D02*
D03*
X167497D02*
D03*
X207497D02*
D03*
X92497D02*
D03*
X132497D02*
D03*
X17498D02*
D03*
X57498D02*
D03*
X242497Y37500D02*
D03*
X282497D02*
D03*
X167497D02*
D03*
X207497D02*
D03*
X92497D02*
D03*
X132497D02*
D03*
X17498D02*
D03*
X57498D02*
D03*
D38*
X252497Y242501D02*
D03*
X277497Y252501D02*
D03*
X177497Y242501D02*
D03*
X202497Y252501D02*
D03*
X102497Y242501D02*
D03*
X127497Y252501D02*
D03*
X27498Y242501D02*
D03*
X52498Y252501D02*
D03*
X252497Y167501D02*
D03*
X277497Y177501D02*
D03*
X177497Y167501D02*
D03*
X202497Y177501D02*
D03*
X102497Y167501D02*
D03*
X127497Y177501D02*
D03*
X27498Y167501D02*
D03*
X52498Y177501D02*
D03*
X252497Y92500D02*
D03*
X277497Y102500D02*
D03*
X177497Y92500D02*
D03*
X202497Y102500D02*
D03*
X102497Y92500D02*
D03*
X127497Y102500D02*
D03*
X27498Y92500D02*
D03*
X52498Y102500D02*
D03*
X252497Y17500D02*
D03*
X277497Y27500D02*
D03*
X177497Y17500D02*
D03*
X202497Y27500D02*
D03*
X102497Y17500D02*
D03*
X127497Y27500D02*
D03*
X27498Y17500D02*
D03*
X52498Y27500D02*
D03*
D39*
X262497Y262501D02*
D03*
X187497D02*
D03*
X112497D02*
D03*
X37498D02*
D03*
X262497Y187501D02*
D03*
X187497D02*
D03*
X112497D02*
D03*
X37498D02*
D03*
X262497Y112500D02*
D03*
X187497D02*
D03*
X112497D02*
D03*
X37498D02*
D03*
X262497Y37500D02*
D03*
X187497D02*
D03*
X112497D02*
D03*
X37498D02*
D03*
D40*
X224997Y300001D02*
D03*
X74997D02*
D03*
X224997Y225001D02*
D03*
X74997D02*
D03*
X224997Y75000D02*
D03*
X74997D02*
D03*
D41*
X266237Y304233D02*
D03*
X191237D02*
D03*
X116237D02*
D03*
X41238D02*
D03*
Y229233D02*
D03*
X116237D02*
D03*
X191237D02*
D03*
X266237D02*
D03*
Y79232D02*
D03*
X191237D02*
D03*
X116237D02*
D03*
X41238D02*
D03*
Y154232D02*
D03*
X116237D02*
D03*
X191237D02*
D03*
X266237D02*
D03*
Y73366D02*
D03*
X191237D02*
D03*
X116237D02*
D03*
X41238D02*
D03*
Y148366D02*
D03*
X116237D02*
D03*
X191237D02*
D03*
X266237D02*
D03*
Y298367D02*
D03*
X191237D02*
D03*
X116237D02*
D03*
X41238D02*
D03*
X266237Y223367D02*
D03*
X191237D02*
D03*
X116237D02*
D03*
X41238D02*
D03*
X77165Y335039D02*
D03*
Y352756D02*
D03*
Y370472D02*
D03*
X83071Y335039D02*
D03*
Y352756D02*
D03*
Y370472D02*
D03*
M02*
